<svg width="14" height="17" viewBox="0 0 14 17" fill="none" xmlns="http://www.w3.org/2000/svg">
<path d="M6.3571 0.532467C3.06153 0.876908 0.578791 4.049 0.86442 7.35078C1.24135 11.6735 5.21942 14.9038 6.58442 15.8851C6.85748 16.0801 7.21499 16.0736 7.48134 15.8656C8.89827 14.7606 13.2403 11.0166 13.2403 6.68765C13.2338 3.04765 10.0878 0.135654 6.35703 0.53234L6.3571 0.532467ZM7.0396 9.15146C5.68114 9.15146 4.57614 8.053 4.57614 6.688C4.57614 5.32285 5.6746 4.23093 7.0396 4.23093C8.4046 4.23093 9.50307 5.32939 9.50307 6.69439C9.50307 8.05939 8.39807 9.15146 7.0396 9.15146Z" fill="black"/>
</svg>
