<svg width="25" height="25" viewBox="0 0 25 25" fill="none" xmlns="http://www.w3.org/2000/svg">
<path d="M19.238 3.88158H15.2273V3.84211C15.2273 3.09211 14.6257 2.5 13.8636 2.5H11.1364C10.3743 2.5 9.77273 3.09211 9.77273 3.84211V3.88158H5.76203C5.34091 3.88158 5 4.21711 5 4.63158V5.38158C5 5.79605 5.34091 6.13158 5.76203 6.13158H19.238C19.6591 6.13158 20 5.79605 20 5.38158V4.63158C20 4.21711 19.6591 3.88158 19.238 3.88158Z" fill="#62CBC9"/>
<path d="M18.2353 7.15789H6.76471C6.54412 7.15789 6.38369 7.33553 6.40374 7.55263L6.96524 18.9803C7.0254 20.2434 8.08824 21.25 9.37166 21.25H15.6083C16.8917 21.25 17.9545 20.2632 18.0147 18.9803L18.5762 7.55263C18.6163 7.35526 18.4358 7.15789 18.2353 7.15789ZM11.2567 18.1908C11.2567 18.5461 10.9759 18.8224 10.615 18.8224C10.254 18.8224 9.97326 18.5461 9.97326 18.1908V10.2368C9.97326 9.88158 10.254 9.60526 10.615 9.60526C10.9759 9.60526 11.2567 9.88158 11.2567 10.2368V18.1908ZM15.0267 18.1908C15.0267 18.5461 14.746 18.8224 14.385 18.8224C14.0241 18.8224 13.7433 18.5461 13.7433 18.1908V10.2368C13.7433 9.88158 14.0241 9.60526 14.385 9.60526C14.746 9.60526 15.0267 9.88158 15.0267 10.2368V18.1908Z" fill="#62CBC9"/>
</svg>
