<svg width="25" height="25" viewBox="0 0 25 25" fill="none" xmlns="http://www.w3.org/2000/svg">
<path d="M18.986 17.1465V19.0064H5.96597V17.1465H4.08594V20.8465H20.8259V17.1465H18.986Z" fill="#62CBC9"/>
<path d="M18.7862 17.1463V19.0063C18.8462 18.9463 18.9263 18.8662 18.9862 18.8062H5.96624L6.16629 19.0063V17.1463C6.16629 17.0463 6.06627 16.9463 5.96624 16.9463H4.10631C4.00628 16.9463 3.90625 17.0463 3.90625 17.1463V20.8663C3.90625 20.9664 4.00628 21.0664 4.10631 21.0664H20.8463C20.9463 21.0664 21.0464 20.9664 21.0464 20.8663V17.1463C21.0464 17.0463 20.9463 16.9463 20.8463 16.9463H18.9864C18.7263 16.9463 18.7263 17.3463 18.9864 17.3463H20.8463C20.7863 17.2863 20.7062 17.2062 20.6463 17.1462V20.8662C20.7062 20.8062 20.7863 20.7261 20.8463 20.6661H4.10631L4.30636 20.8662V17.1462C4.24638 17.2062 4.1663 17.2863 4.10631 17.3463H5.96624C5.90625 17.2863 5.82617 17.2062 5.76618 17.1462V19.0061C5.76618 19.1062 5.86621 19.2062 5.96624 19.2062H18.9862C19.0863 19.2062 19.1863 19.1062 19.1863 19.0061V17.1462C19.1862 16.8863 18.7862 16.8863 18.7862 17.1463L18.7862 17.1463Z" fill="#62CBC9"/>
<path d="M7.82617 11.0064L10.2263 11.5464L10.3062 4.10645H14.6262L14.7062 11.5464L17.1262 11.0064L12.4662 17.1464L7.82617 11.0064Z" fill="#62CBC9"/>
<path d="M7.76703 11.1864C8.56696 11.3664 9.38699 11.5665 10.1871 11.7464C10.3071 11.7664 10.4471 11.6864 10.4471 11.5464C10.4471 9.08642 10.4671 6.58638 10.5071 4.10638C10.4471 4.16637 10.3671 4.24645 10.3071 4.30644H14.6471C14.5871 4.24645 14.507 4.16637 14.447 4.10638C14.4671 6.58642 14.4871 9.08638 14.5071 11.5464C14.5071 11.6864 14.6271 11.7664 14.7672 11.7464C15.5671 11.5665 16.3871 11.3664 17.1873 11.1864C17.1073 11.0864 17.0272 10.9864 16.9672 10.8865C15.4072 12.9265 13.8672 14.9865 12.3072 17.0265H12.6472C11.0872 14.9865 9.5472 12.9265 7.98723 10.8865C7.82722 10.6864 7.48723 10.8865 7.64725 11.0866C9.18729 13.1266 10.7473 15.1866 12.2872 17.2266C12.3873 17.3465 12.5272 17.3465 12.6272 17.2266C14.1872 15.1865 15.7273 13.1266 17.2872 11.0866C17.4072 10.9465 17.2073 10.7665 17.0672 10.7866C16.2673 10.9666 15.4473 11.1666 14.6472 11.3466C14.7271 11.4066 14.8072 11.4666 14.9072 11.5467C14.8871 9.08642 14.867 6.58631 14.827 4.10631C14.827 4.00628 14.7269 3.90625 14.6269 3.90625H10.2869C10.1869 3.90625 10.0869 4.00628 10.0869 4.10631C10.0671 6.58634 10.047 9.08631 10.027 11.5463C10.107 11.4863 10.187 11.4263 10.2871 11.3463C9.48713 11.1663 8.66709 10.9662 7.86699 10.7863C7.62703 10.7464 7.50706 11.1264 7.76696 11.1864L7.76703 11.1864Z" fill="#62CBC9"/>
</svg>
