<svg width="25" height="25" viewBox="0 0 25 25" fill="none" xmlns="http://www.w3.org/2000/svg">
<path d="M23.3154 12.6003C20.7515 9.64592 17.2082 6.25 12.4993 6.25C10.5976 6.25 8.85436 6.7877 7.01518 7.93663C5.46438 8.91009 3.874 10.2798 1.68941 12.5324L1.63281 12.589L2.01202 12.9795C5.13058 16.1716 7.82472 18.9278 12.4995 18.9278C14.5653 18.9278 16.5689 18.2542 18.6232 16.8676C20.3721 15.6847 21.8606 14.1849 23.0548 12.9737L23.3661 12.6624L23.3154 12.6003ZM12.4993 17.1168C10.0033 17.1168 7.97146 15.085 7.97146 12.589C7.97146 10.0931 10.0033 8.06118 12.4993 8.06118C14.9952 8.06118 17.0271 10.0931 17.0271 12.589C17.0271 15.085 14.9952 17.1168 12.4993 17.1168Z" fill="#62CBC9"/>
<path d="M12.183 10.9361C12.183 10.5456 12.2962 10.1777 12.4943 9.87207C10.9944 9.87207 9.7832 11.0946 9.7832 12.6001C9.7832 14.1056 11.0001 15.3224 12.4943 15.3224C13.9884 15.3224 15.211 14.1056 15.211 12.6001C14.9053 12.7982 14.5374 12.9114 14.1469 12.9114C13.0659 12.9057 12.183 12.0228 12.183 10.9361L12.183 10.9361Z" fill="#62CBC9"/>
</svg>
