<svg width="127" height="151" viewBox="0 0 127 151" fill="none" xmlns="http://www.w3.org/2000/svg">
<g clip-path="url(#clip0_1165_66605)">
<path d="M126.14 150.799H0.859985V44.8091L63.49 5.03906L126.14 44.8091V150.799Z" fill="#62CBC9"/>
<path opacity="0.2" d="M126.14 150.799H0.859985V44.8091L63.49 5.03906L126.14 44.8091V150.799Z" fill="black"/>
<path d="M119.08 142.69H7.92999V0H90.46L119.08 27.19V142.69Z" fill="#F9F9F9"/>
<path d="M90.46 0L119.08 27.19H90.46V0Z" fill="#DBDBDB"/>
<path d="M18.77 27.6094L80.57 27.6094V23.9494L18.77 23.9494V27.6094Z" fill="#DBDBDB"/>
<path d="M18.77 36.8496L80.57 36.8496V33.1896L18.77 33.1896V36.8496Z" fill="#DBDBDB"/>
<path d="M18.77 46.0996L80.57 46.0996V42.4396L18.77 42.4396V46.0996Z" fill="#DBDBDB"/>
<path d="M18.77 55.3496L109.32 55.3496V51.6896L18.77 51.6896V55.3496Z" fill="#DBDBDB"/>
<path d="M18.77 64.5996L109.32 64.5996V60.9396L18.77 60.9396V64.5996Z" fill="#DBDBDB"/>
<path d="M18.77 73.8496L109.32 73.8496V70.1896L18.77 70.1896V73.8496Z" fill="#DBDBDB"/>
<path d="M18.77 83.0898L109.32 83.0898V79.4298L18.77 79.4298V83.0898Z" fill="#DBDBDB"/>
<path d="M18.77 92.3398L109.32 92.3398V88.6798L18.77 88.6798V92.3398Z" fill="#DBDBDB"/>
<path d="M18.77 101.59L109.32 101.59V97.9298L18.77 97.9298V101.59Z" fill="#DBDBDB"/>
<path d="M18.77 110.83L109.32 110.83V107.17L18.77 107.17V110.83Z" fill="#DBDBDB"/>
<path d="M18.77 120.09L109.32 120.09V116.43L18.77 116.43V120.09Z" fill="#DBDBDB"/>
<path d="M18.77 129.33H109.32V125.67L18.77 125.67V129.33Z" fill="#DBDBDB"/>
<path d="M126.14 71.3496V150.8H0.859985V71.3496C6.23999 74.3496 11.53 77.5896 16.86 80.7096C22.19 83.8296 27.47 87.0696 32.74 90.3096C38.61 93.8796 44.48 97.5196 50.33 101.18L50.52 101.07C50.46 101.07 50.43 101.17 50.37 101.2C54.75 103.926 59.1333 106.67 63.52 109.43C67.89 106.68 72.27 103.91 76.65 101.2C76.6 101.2 76.56 101.11 76.5 101.07C76.559 101.111 76.6228 101.144 76.69 101.17C82.5367 97.5163 88.4 93.8896 94.28 90.2896C99.5467 87.0696 104.833 83.8763 110.14 80.7096C115.48 77.5896 120.76 74.3896 126.14 71.3496Z" fill="#62CBC9"/>
<g opacity="0.2">
<path opacity="0.2" d="M126.14 71.3496C121.08 74.8996 115.93 78.3496 110.83 81.8096C105.73 85.2696 100.54 88.6496 95.36 92.0396C89.96 95.5796 84.55 99.0863 79.13 102.56L78.64 102.9L64.21 112.12L63.49 112.55L62.8 112.12C57.98 109.046 53.1733 105.973 48.38 102.9L47.88 102.58C42.44 99.0996 37.02 95.5863 31.62 92.0396C26.46 88.6696 21.31 85.2496 16.17 81.8296C11.03 78.4096 5.91999 74.9196 0.859985 71.3696C6.23999 74.3696 11.53 77.6096 16.86 80.7296C22.19 83.8496 27.47 87.0896 32.74 90.3296C38.61 93.8996 44.48 97.5396 50.33 101.2C54.71 103.926 59.0933 106.67 63.48 109.43C67.85 106.68 72.23 103.91 76.61 101.2C82.4566 97.5463 88.32 93.9196 94.2 90.3196C99.4667 87.0996 104.753 83.9063 110.06 80.7396C115.48 77.5896 120.76 74.3896 126.14 71.3496Z" fill="black"/>
<path opacity="0.2" d="M50.51 101.119C50.45 101.119 50.42 101.219 50.36 101.249C49.6933 101.816 49.0267 102.376 48.36 102.929C45.22 105.579 42 108.119 38.73 110.589C34.73 113.589 30.66 116.589 26.56 119.449C22.46 122.309 18.3 125.109 14.07 127.819C9.84002 130.529 5.56001 133.179 1.14001 135.609C4.94001 132.279 8.89002 129.169 12.88 126.149C16.87 123.129 20.97 120.149 25.05 117.279C29.13 114.409 33.33 111.599 37.56 108.889C40.93 106.729 44.36 104.599 47.86 102.609C48.66 102.139 49.47 101.689 50.3 101.229L50.51 101.119Z" fill="black"/>
<path opacity="0.2" d="M125.84 135.56C121.42 133.13 117.13 130.48 112.92 127.77C108.71 125.06 104.54 122.24 100.41 119.4C96.28 116.56 92.22 113.58 88.23 110.54C84.98 108.07 81.76 105.54 78.64 102.9L76.64 101.2C76.59 101.2 76.55 101.11 76.49 101.07C76.549 101.111 76.6128 101.145 76.68 101.17C77.51 101.64 78.32 102.09 79.13 102.56C82.63 104.56 86.03 106.68 89.42 108.84C93.65 111.55 97.79 114.37 101.91 117.23C106.03 120.09 110.09 123.05 114.08 126.1C118.07 129.15 122.04 132.23 125.84 135.56Z" fill="black"/>
</g>
</g>
<defs>
<clipPath id="clip0_1165_66605">
<rect width="125.28" height="150.8" fill="white" transform="translate(0.859985)"/>
</clipPath>
</defs>
</svg>
