<svg width="14" height="15" viewBox="0 0 14 15" fill="none" xmlns="http://www.w3.org/2000/svg">
<path d="M5.65905 0.585205C6.04436 0.585205 6.35649 0.897361 6.35649 1.28265C6.35649 1.44208 6.48489 1.57048 6.64433 1.57048C6.80377 1.57048 6.93217 1.44208 6.93217 1.28265C6.93217 0.897336 7.2466 0.585205 7.63179 0.585205C8.0171 0.585205 8.32923 0.897361 8.32923 1.28265C8.32923 1.40887 8.29384 1.53282 8.22514 1.64582L6.6442 3.62531L5.09875 1.69455C5.00801 1.57277 4.95928 1.43103 4.95928 1.28277C4.96155 0.897386 5.27381 0.58523 5.659 0.58523L5.65905 0.585205ZM0.0396881 14.7557V3.12248C0.0396881 2.74836 0.28107 2.44501 0.579989 2.44501H4.96399L6.07323 3.83329H5.48205L5.19866 3.85098L2.16516 3.83991C1.67587 3.83991 1.29274 4.33365 1.29274 4.96021V14.7556L0.0396881 14.7557ZM1.86852 10.1171V4.96035C1.86852 4.64819 2.02568 4.41344 2.16526 4.41344L5.21622 4.42234L5.49961 4.40464L6.35206 4.40682C6.22811 9.12509 3.44483 10.0042 1.86837 10.117L1.86852 10.1171ZM6.97217 4.40922L11.199 4.41584C11.3385 4.41584 11.4958 4.6505 11.4958 4.96274V10.115C7.84029 9.7961 7.00322 6.88892 6.9721 4.40908L6.97217 4.40922ZM13.3246 14.756H12.0715V4.9606C12.0715 4.33173 11.6884 3.84029 11.199 3.84029L7.21358 3.83367L8.32282 2.44539H12.7843C13.081 2.44539 13.3246 2.74874 13.3246 3.12515V14.7561L13.3246 14.756Z" fill="white"/>
</svg>
