<svg width="13" height="16" viewBox="0 0 13 16" fill="none" xmlns="http://www.w3.org/2000/svg">
<path fill-rule="evenodd" clip-rule="evenodd" d="M0.348602 0.430664H9.26526L12.9526 4.11941V15.6509H0.348602V0.430664ZM6.8657 13.9332C6.64744 13.9332 6.46869 13.756 6.46869 13.5377C6.46869 13.3195 6.64744 13.1423 6.8657 13.1423H10.8756C11.0955 13.1423 11.2726 13.3195 11.2726 13.5377C11.2726 13.756 11.0954 13.9332 10.8756 13.9332H6.8657ZM2.42559 4.98178C2.20568 4.98178 2.02858 4.80458 2.02858 4.58477C2.02858 4.36652 2.20578 4.18932 2.42559 4.18932H5.25393C5.47219 4.18932 5.65094 4.36652 5.65094 4.58477C5.65094 4.80468 5.4722 4.98178 5.25393 4.98178H2.42559ZM2.42559 6.98753C2.20568 6.98753 2.02858 6.80878 2.02858 6.59052C2.02858 6.37227 2.20578 6.19506 2.42559 6.19506H10.8756C11.0955 6.19506 11.2726 6.37227 11.2726 6.59052C11.2726 6.80877 11.0954 6.98753 10.8756 6.98753H2.42559ZM2.42559 8.99172C2.20568 8.99172 2.02858 8.81451 2.02858 8.59626C2.02858 8.37801 2.20578 8.20081 2.42559 8.20081H10.8756C11.0955 8.20081 11.2726 8.37801 11.2726 8.59626C11.2726 8.81451 11.0954 8.99172 10.8756 8.99172H2.42559ZM2.42559 10.9975C2.20568 10.9975 2.02858 10.8203 2.02858 10.602C2.02858 10.3821 2.20578 10.205 2.42559 10.205H10.8756C11.0955 10.205 11.2726 10.3822 11.2726 10.602C11.2726 10.8203 11.0954 10.9975 10.8756 10.9975H2.42559Z" fill="white"/>
</svg>
