<svg width="34" height="34" viewBox="0 0 34 34" fill="none" xmlns="http://www.w3.org/2000/svg">
<circle cx="17" cy="17" r="17" fill="#62CBC9"/>
<path d="M23.1112 12.195L22.6238 11.7076C22.2756 11.3595 21.8229 11.168 21.3355 11.168C20.8481 11.168 20.3955 11.3595 20.0473 11.7076L12.4051 19.3324C12.2484 19.4891 12.1614 19.6805 12.144 19.8895L11.1865 23.0927C11.1343 23.2493 11.1865 23.4059 11.2909 23.5279C11.378 23.6149 11.4824 23.6498 11.6042 23.6498C11.6391 23.6498 11.6913 23.6498 11.7261 23.6324L14.9293 22.6749C15.1208 22.6401 15.3296 22.553 15.4689 22.4139L23.0937 14.7887C23.8248 14.0576 23.8248 12.9086 23.1111 12.1949L23.1112 12.195ZM12.7011 20.9862L13.7978 22.0829L12.2311 22.553L12.7011 20.9862ZM22.4845 14.1622L21.9971 14.6496L20.1518 12.8043L20.6393 12.3169C20.8134 12.1428 21.0571 12.0384 21.3182 12.0384C21.5793 12.0384 21.8056 12.1428 21.9971 12.3169L22.4845 12.8043C22.8675 13.17 22.8675 13.7792 22.4845 14.1622L22.4845 14.1622Z" fill="white"/>
</svg>
