<svg width="22" height="17" viewBox="0 0 22 17" fill="none" xmlns="http://www.w3.org/2000/svg">
<path d="M19.0429 9.77154C18.7032 9.60719 18.2209 9.24401 17.2473 8.50206C16.332 7.80459 15.0791 6.84949 14.4772 6.57006C13.3716 6.05629 11.7046 5.16296 11.1247 4.84952C10.233 4.86589 9.30064 4.88536 8.78516 4.89941C8.76632 4.93571 8.74763 4.97217 8.73063 5.00507C8.35665 5.73544 7.79127 6.839 6.85733 7.21266C6.53757 7.3401 6.14907 7.41085 5.76366 7.41085C5.15134 7.41085 4.6902 7.2278 4.4307 6.88193C4.25166 6.64326 4.18385 6.34743 4.23838 6.05579C4.32086 5.24756 4.54146 3.64585 5.04443 2.58737C4.59694 2.38177 3.88757 2.02353 3.33255 1.73916C2.86836 1.50096 2.55414 1.73731 2.55414 1.73731C2.32737 1.86475 2.21892 2.15779 2.21892 2.15779L0.621803 6.71976C0.621803 6.71976 0.476133 7.18533 0.511352 7.42446C0.539157 7.61307 0.581791 7.80833 0.944652 8.0734C1.38151 8.39131 1.9393 8.83852 2.27729 9.26162C2.53434 9.58277 2.59737 9.99847 2.72139 10.4542C3.05166 10.0672 3.50767 9.79161 4.03889 9.79161C4.14934 9.79161 4.25994 9.80366 4.36668 9.82822C4.92819 9.95613 5.32783 10.3672 5.54549 10.8663C5.73658 10.7975 5.93415 10.7572 6.13124 10.7572C6.41099 10.7572 6.68488 10.832 6.92306 10.9729C7.25734 11.1708 7.47887 11.4687 7.59395 11.8237C7.70486 11.8007 7.81732 11.785 7.93271 11.785C8.24258 11.785 8.55231 11.8735 8.82976 12.0405C9.35635 12.3602 9.59303 12.9421 9.53493 13.6694C9.79183 13.6817 10.0317 13.7485 10.2322 13.87C10.9195 14.2894 11.0866 15.363 10.8954 16.1611L10.8844 16.2079L10.8695 16.2496C10.9827 16.3484 11.0984 16.445 11.1807 16.4736C12.5736 17.0652 13.3395 15.8402 13.1529 15.2388C13.6403 15.5872 14.6312 15.4146 15.1024 14.9251C15.5737 14.4364 15.3446 13.5773 15.3446 13.5773C15.3446 13.5773 16.6425 14.3196 17.5829 13.3943C18.1939 12.794 17.7088 12.048 17.7088 12.048C17.7088 12.048 18.9392 12.5425 19.5163 11.723C20.0633 10.9478 19.7178 10.3442 19.0429 9.77151L19.0429 9.77154Z" fill="white"/>
<path d="M9.46119 16.5992C9.30517 16.5878 9.15085 16.5383 9.01029 16.4475C8.56711 16.1596 8.46639 15.6458 8.75387 15.2023L8.83527 15.0508C9.12337 14.6074 9.80461 14.4258 10.1261 14.6209C10.3932 14.7838 10.5214 15.4235 10.3932 15.9581L10.3603 16.0497C10.0671 16.5822 9.79828 16.6239 9.46123 16.5992L9.46119 16.5992Z" fill="white"/>
<path d="M5.10657 6.19367C5.10657 6.19367 5.41011 3.13693 6.16038 2.47162C6.91004 1.8063 7.49812 1.61289 8.51812 1.44003C9.53748 1.26702 11.7462 0.521985 12.5083 0.744112C13.2698 0.966555 14.5345 1.31009 15.2892 1.45854C16.0448 1.60791 16.9401 2.1651 17.3879 2.19571C17.6416 2.2127 18.2647 1.91456 18.7675 1.67588C19.0235 1.55446 19.2512 1.63618 19.4111 1.74277C19.6605 1.90914 19.7333 2.20652 19.7333 2.20652L21.2648 6.97214C21.2648 6.97214 21.3445 7.23784 21.3165 7.44281C21.2954 7.59991 21.2466 7.77787 20.945 7.97576C20.405 8.33059 19.6376 8.85162 19.5569 9.00256C19.431 9.23612 16.166 6.38655 14.8474 5.77419C13.529 5.16187 11.3396 3.9676 11.3396 3.9676C11.3396 3.9676 8.53158 4.01842 8.31147 4.03989C8.09119 4.0609 7.48952 6.01483 6.53193 6.39731C5.96733 6.62315 4.99523 6.5748 5.10643 6.19371L5.10657 6.19367Z" fill="white"/>
<path d="M3.8662 13.0899C3.818 13.0867 3.77058 13.0798 3.72254 13.0688C3.20706 12.9515 2.88374 12.439 3.00036 11.9228L3.05613 11.679C3.17275 11.1629 3.65658 10.5649 4.17222 10.6831C4.68785 10.8006 4.94921 11.5205 4.83215 12.0366L4.77917 12.3792C4.6732 12.8468 4.33072 13.1243 3.86622 13.09L3.8662 13.0899Z" fill="white"/>
<path d="M5.46647 14.3756C5.32404 14.3651 5.2241 14.3725 5.09187 14.2945C4.6371 14.0252 4.4434 13.3877 4.7131 12.9325L5.15969 12.2709C5.42986 11.8152 6.02198 11.4607 6.47766 11.7301C6.9329 11.9993 6.85056 12.6336 6.64696 13.1062L6.28796 13.8665C6.09688 14.1895 5.81729 14.401 5.46648 14.3756L5.46647 14.3756Z" fill="white"/>
<path d="M7.65323 15.452C7.50664 15.441 7.36097 15.3967 7.22658 15.3156C6.77457 15.0413 6.63031 14.4526 6.90465 14.0001L7.49752 13.1533C7.77217 12.7014 8.27407 12.5191 8.7262 12.7929C9.17804 13.0667 9.02665 13.8475 8.83464 14.3503L8.54191 14.9932C8.34944 15.3117 8.00034 15.4769 7.65321 15.452L7.65323 15.452Z" fill="white"/>
</svg>
