<svg width="22" height="18" viewBox="0 0 22 18" fill="none" xmlns="http://www.w3.org/2000/svg">
<path fill-rule="evenodd" clip-rule="evenodd" d="M15.7798 0.925873H1.8728C1.15697 0.925873 0.573242 1.4972 0.573242 2.1932V9.13471C0.573242 9.83052 1.15697 10.402 1.8728 10.402H3.69701V5.65597C3.69701 4.37878 4.75678 3.33935 6.02964 3.33935H17.0793V2.1931C17.0793 1.502 16.4956 0.925781 15.7798 0.925781L15.7798 0.925873Z" fill="white"/>
<path fill-rule="evenodd" clip-rule="evenodd" d="M19.9363 4.37109C20.6521 4.37109 21.2359 4.94583 21.2359 5.65442V12.5798C21.2359 13.2884 20.6521 13.8631 19.9363 13.8631H19.2987V13.8633C19.0135 13.8633 18.7822 14.0946 18.7822 14.3798V17.1L16.1267 14.041H16.1265C16.0272 13.9265 15.8825 13.8617 15.731 13.8633H6.02905C5.31322 13.8633 4.72949 13.2935 4.72949 12.58V5.65462C4.72949 4.94114 5.31322 4.37129 6.02905 4.37129H19.9361L19.9363 4.37109ZM17.4422 7.84185C16.6553 7.84185 16.0056 8.48236 16.0056 9.26248C16.0056 10.0426 16.6553 10.6912 17.4422 10.6912C18.2292 10.6912 18.8951 10.0516 18.8951 9.26248C18.8951 8.47332 18.2292 7.84185 17.4422 7.84185ZM13.1159 7.84185C12.3228 7.84185 11.663 8.48236 11.663 9.26248C11.663 10.0426 12.3228 10.6912 13.1159 10.6912C13.9028 10.6912 14.5525 10.0428 14.5525 9.26248C14.5525 8.48236 13.9028 7.84185 13.1159 7.84185ZM8.78948 7.84185C8.0034 7.84185 7.34472 8.47461 7.34472 9.26248C7.34472 10.0502 8.0034 10.6912 8.78948 10.6912C9.57555 10.6912 10.2342 10.0504 10.2342 9.26248C10.2342 8.47479 9.57555 7.84185 8.78948 7.84185Z" fill="white"/>
</svg>
