<svg width="12" height="16" viewBox="0 0 12 16" fill="none" xmlns="http://www.w3.org/2000/svg">
<path d="M5.34815 6.47473L5.35826 6.47993L5.36823 6.48571C5.5465 6.58973 5.78936 6.69013 5.86721 6.69244C5.94465 6.69013 6.18692 6.58973 6.36446 6.48571L6.37443 6.47993L6.38454 6.47473C7.24729 6.03152 8.04144 4.77105 8.5521 3.41116H3.18062C3.69118 4.77105 4.48543 6.03178 5.34804 6.47473H5.34815ZM3.25714 13.9155H8.47071L5.85427 11.8702L3.25714 13.9155ZM5.4513 9.61426C5.4513 9.84353 5.63708 10.0293 5.86651 10.0293C6.09594 10.0293 6.28173 9.84369 6.28173 9.61426C6.28173 9.38484 6.0958 9.19879 5.86651 9.19879C5.63723 9.19879 5.4513 9.38486 5.4513 9.61426ZM6.28169 10.9491C6.28169 10.7199 6.09591 10.5341 5.86648 10.5341C5.63704 10.5341 5.45126 10.7197 5.45126 10.9491C5.45126 11.1786 5.63704 11.3646 5.86648 11.3646C6.09589 11.3645 6.28169 11.1784 6.28169 10.9491ZM0.560709 0.394041C0.55493 0.435648 0.547852 0.476822 0.547852 0.520015C0.547852 0.564942 0.554208 0.607995 0.560709 0.651047V1.44172H1.40915C1.68652 3.78137 3.03254 6.68229 4.78042 7.57988V8.13866C3.03235 9.03626 1.68638 11.938 1.40915 14.2776H0.560709V15.6646H11.1853V14.2776H10.3237C10.0466 11.9379 8.70034 9.03699 6.95246 8.13866V7.57988C8.70052 6.68203 10.0466 3.7813 10.3237 1.44172H11.1853V0.0546875H0.560709V0.394041ZM9.48853 1.44201C9.2126 3.5102 8.0164 6.1023 6.57378 6.84309L6.12377 7.07423V8.64459L6.57364 8.87545C8.01629 9.61686 9.2126 12.2094 9.48868 14.2776L2.24435 14.2775C2.52013 12.209 3.71618 9.61646 5.15868 8.87568L5.6087 8.64439V7.07403L5.15868 6.84288C3.71618 6.10221 2.52013 3.50988 2.2442 1.4418L9.48853 1.44201Z" fill="white"/>
</svg>
