<svg width="63" height="63" viewBox="0 0 63 63" fill="none" xmlns="http://www.w3.org/2000/svg">
<circle cx="31.5" cy="31.5" r="31.5" fill="#62CBC9"/>
<path fill-rule="evenodd" clip-rule="evenodd" d="M34.0569 39.2153C32.9481 40.3241 31.1 40.3241 29.9577 39.2153C28.8489 38.1065 26.5977 37.1657 25.0185 37.1657H24.9177L22.5657 43.9865L27.1019 42.5753L29.9242 46.1034L31.6713 40.4922L34.7962 46.1034L37.2489 42.2057L41.4154 42.5753L38.3577 37.233C36.8458 37.401 35.0313 38.241 34.0569 39.2153L34.0569 39.2153Z" fill="white"/>
<path d="M42.6921 25.4729C41.684 24.4648 40.8778 22.4825 40.8778 21.0376C40.8778 19.6264 39.7017 18.4503 38.2905 18.4503C36.8794 18.4503 34.8633 17.6103 33.8552 16.636C32.8471 15.628 31.2009 15.628 30.1929 16.636C29.1848 17.6441 27.2025 18.4503 25.7576 18.4503C24.3464 18.4503 23.1703 19.6264 23.1703 21.0376C23.1703 22.4487 22.3303 24.4648 21.356 25.4729C20.348 26.481 20.348 28.1272 21.356 29.1352C22.3641 30.1433 23.1703 32.1256 23.1703 33.5706C23.1703 34.9818 24.3464 36.1578 25.7576 36.1578C27.1688 36.1578 29.1848 36.9978 30.1929 37.9721C31.2009 38.9802 32.8471 38.9802 33.8552 37.9721C34.8633 36.964 36.8456 36.1578 38.2905 36.1578C39.7017 36.1578 40.8778 34.9817 40.8778 33.5706C40.8778 32.1594 41.7178 30.1433 42.6921 29.1352C43.6666 28.1272 43.6666 26.4472 42.6921 25.4729V25.4729ZM35.5353 31.9577L32.0072 30.1769L28.4792 31.9577L29.1176 28.0938L26.2953 25.3387L30.2265 24.7341L32.0073 21.273L33.7881 24.7673L37.7193 25.3387L34.8969 28.094L35.5353 31.9577Z" fill="white"/>
</svg>
