<svg width="63" height="63" viewBox="0 0 63 63" fill="none" xmlns="http://www.w3.org/2000/svg">
<circle cx="31.5" cy="31.5" r="31.5" fill="#62CBC9"/>
<path d="M37.1302 27.4234L35.8432 29.2007C38.8538 30.1951 41.0311 33.0311 41.0311 36.3706C41.0311 40.5303 37.6442 43.9204 33.4843 43.9204C29.3179 43.9204 25.9309 40.5302 25.9309 36.3706C25.9309 33.0308 28.1116 30.1985 31.1188 29.2007L29.8286 27.4234C26.3041 28.8681 23.8142 32.3324 23.8142 36.3712C23.8142 41.7001 28.1485 46.0378 33.4844 46.0378C38.8101 46.0378 43.1474 41.7 43.1474 36.3712C43.1441 32.3325 40.6576 28.8646 37.1294 27.4234H37.1302Z" fill="white"/>
<path d="M29.2546 24.6778L30.7025 26.677L31.9492 28.3905L32.5876 29.2743L33.4813 29.2139L34.3717 29.2743L35.0102 28.3905L36.2568 26.677L37.705 24.6778L36.3475 23.0046H30.6086L29.2546 24.6778Z" fill="white"/>
<path d="M26.98 26.4388C26.98 26.563 27.084 26.6673 27.2085 26.6673C27.3362 26.6673 27.437 26.5632 27.437 26.4388C27.437 23.5424 29.7889 21.1872 32.6886 21.1872C32.8163 21.1872 32.9171 21.0864 32.9171 20.9587C32.9171 20.8309 32.8163 20.7301 32.6886 20.7301C29.7922 20.7301 27.437 18.3747 27.437 15.4785C27.437 15.3508 27.3329 15.25 27.2085 15.25C27.0843 15.25 26.98 15.3508 26.98 15.4785C26.98 18.3749 24.6245 20.7301 21.7283 20.7301C21.6041 20.7301 21.4998 20.8309 21.4998 20.9587C21.4998 21.0864 21.6039 21.1872 21.7283 21.1872C24.6247 21.1872 26.98 23.5427 26.98 26.4388Z" fill="white"/>
</svg>
