<svg width="63" height="63" viewBox="0 0 63 63" fill="none" xmlns="http://www.w3.org/2000/svg">
<circle cx="31.5" cy="31.5" r="31.5" fill="#62CBC9"/>
<path d="M29.8269 15.25C30.6453 15.25 31.3084 15.9131 31.3084 16.7315C31.3084 17.0701 31.5811 17.3429 31.9198 17.3429C32.2584 17.3429 32.5312 17.0701 32.5312 16.7315C32.5312 15.913 33.1991 15.25 34.0173 15.25C34.8357 15.25 35.4987 15.9131 35.4987 16.7315C35.4987 16.9996 35.4236 17.2629 35.2776 17.5029L31.9195 21.7076L28.6367 17.6064C28.444 17.3477 28.3405 17.0467 28.3405 16.7317C28.3453 15.9131 29.0086 15.2501 29.8268 15.2501L29.8269 15.25ZM17.8906 45.3501V20.6395C17.8906 19.8448 18.4033 19.2005 19.0383 19.2005H28.3505L30.7067 22.1494H29.4509L28.849 22.187L22.4054 22.1634C21.3661 22.1634 20.5522 23.2122 20.5522 24.5431V45.3498L17.8906 45.3501ZM21.7753 35.4972V24.5434C21.7753 23.8803 22.1091 23.3817 22.4056 23.3817L28.8863 23.4006L29.4882 23.363L31.2989 23.3676C31.0357 33.3899 25.1236 35.2572 21.775 35.4969L21.7753 35.4972ZM32.6162 23.3727L41.5946 23.3868C41.8908 23.3868 42.2249 23.8852 42.2249 24.5485V35.4926C34.4602 34.8152 32.6821 28.64 32.616 23.3724L32.6162 23.3727ZM46.1096 45.3506H43.4477V24.5439C43.4477 23.2081 42.6341 22.1643 41.5946 22.1643L33.1289 22.1502L35.4851 19.2013H44.9618C45.5921 19.2013 46.1095 19.8457 46.1095 20.6452V45.3509L46.1096 45.3506Z" fill="white"/>
</svg>
