<svg width="63" height="63" viewBox="0 0 63 63" fill="none" xmlns="http://www.w3.org/2000/svg">
<circle cx="31.5" cy="31.5" r="31.5" fill="#62CBC9"/>
<path fill-rule="evenodd" clip-rule="evenodd" d="M39.322 18.7501H18.2217C17.1356 18.7501 16.2499 19.617 16.2499 20.673V31.2049C16.2499 32.2606 17.1356 33.1278 18.2217 33.1278H20.9895V25.9268C20.9895 23.989 22.5974 22.412 24.5286 22.412H41.2936V20.6728C41.2936 19.6243 40.408 18.75 39.3219 18.75L39.322 18.7501Z" fill="white"/>
<path fill-rule="evenodd" clip-rule="evenodd" d="M45.6284 23.9797C46.7145 23.9797 47.6002 24.8518 47.6002 25.9269V36.4343C47.6002 37.5094 46.7145 38.3814 45.6284 38.3814H44.661V38.3817C44.2283 38.3817 43.8773 38.7327 43.8773 39.1654V43.2926L39.8483 38.6512H39.848C39.6974 38.4777 39.4779 38.3793 39.248 38.3817H24.5278C23.4417 38.3817 22.556 37.5171 22.556 36.4346V25.9272C22.556 24.8446 23.4417 23.98 24.5278 23.98H45.6281L45.6284 23.9797ZM41.8443 29.2457C40.6504 29.2457 39.6646 30.2175 39.6646 31.4012C39.6646 32.5848 40.6504 33.5689 41.8443 33.5689C43.0383 33.5689 44.0487 32.5985 44.0487 31.4012C44.0487 30.2038 43.0383 29.2457 41.8443 29.2457V29.2457ZM35.2802 29.2457C34.0769 29.2457 33.0758 30.2175 33.0758 31.4012C33.0758 32.5848 34.0769 33.5689 35.2802 33.5689C36.4742 33.5689 37.4599 32.5851 37.4599 31.4012C37.4599 30.2175 36.4742 29.2457 35.2802 29.2457ZM28.716 29.2457C27.5233 29.2457 26.524 30.2058 26.524 31.4012C26.524 32.5963 27.5233 33.5689 28.716 33.5689C29.9087 33.5689 30.9081 32.5965 30.9081 31.4012C30.9081 30.206 29.9087 29.2457 28.716 29.2457Z" fill="white"/>
</svg>
