<svg width="63" height="63" viewBox="0 0 63 63" fill="none" xmlns="http://www.w3.org/2000/svg">
<circle cx="31.5" cy="31.5" r="31.5" fill="#62CBC9"/>
<path d="M37.193 42.056L43.37 35.8778L46.0076 38.515L39.8306 44.6932L37.193 42.056Z" fill="white"/>
<path d="M35.5754 43.6844C35.5081 43.7517 35.4411 43.8525 35.4411 43.9532L34.9034 46.339C34.8026 46.7421 35.1722 47.1117 35.5753 47.0109L37.961 46.4733C38.0618 46.4397 38.1626 46.406 38.2299 46.339L38.9691 45.5998L36.3483 42.9789L35.5754 43.6844Z" fill="white"/>
<path d="M48.1418 35.5532L46.2937 33.7389C46.0922 33.5373 45.7225 33.5373 45.521 33.7389L44.2778 34.9821L46.8986 37.6029L48.1418 36.3597C48.3771 36.1244 48.3771 35.7885 48.1418 35.5533V35.5532Z" fill="white"/>
<path d="M41.7914 35.2172V16.4348C41.7914 15.6956 41.1867 15.0909 40.4475 15.0909H21.0939C20.3547 15.0909 19.75 15.6956 19.75 16.4348V39.4844C19.75 40.2236 20.3547 40.8283 21.0939 40.8283H36.2139L41.7914 35.2172ZM29.057 19.6268H36.6842C37.121 19.6268 37.4569 19.9964 37.4569 20.3995C37.4569 20.8364 37.0873 21.1723 36.6842 21.1723H29.057C28.6201 21.1723 28.2842 20.8027 28.2842 20.3995C28.2505 19.9627 28.6201 19.6268 29.057 19.6268ZM29.057 24.6331H36.6842C37.121 24.6331 37.4569 25.0027 37.4569 25.4058C37.4569 25.8427 37.0873 26.1786 36.6842 26.1786L29.057 26.1788C28.6201 26.1788 28.2842 25.8092 28.2842 25.406C28.2505 25.0027 28.6201 24.6331 29.057 24.6331V24.6331ZM29.057 29.7068H36.6842C37.121 29.7068 37.4569 30.0764 37.4569 30.4795C37.4569 30.9164 37.0873 31.2523 36.6842 31.2523H29.057C28.6201 31.2523 28.2842 30.8827 28.2842 30.4795C28.2505 30.0427 28.6201 29.7068 29.057 29.7068ZM25.4282 36.326H24.857C24.4201 36.326 24.0843 35.9564 24.0843 35.5533C24.0843 35.1164 24.4539 34.7805 24.857 34.7805H25.4282C25.865 34.7805 26.2009 35.1501 26.2009 35.5533C26.2344 35.9564 25.865 36.326 25.4282 36.326ZM25.4282 31.2523H24.857C24.4201 31.2523 24.0843 30.8827 24.0843 30.4795C24.0843 30.0427 24.4539 29.7068 24.857 29.7068H25.4282C25.865 29.7068 26.2009 30.0764 26.2009 30.4795C26.2344 30.9164 25.865 31.2523 25.4282 31.2523ZM25.4282 26.2123H24.857C24.4201 26.2123 24.0843 25.8427 24.0843 25.4395C24.0843 25.0027 24.4539 24.6668 24.857 24.6668H25.4282C25.865 24.6668 26.2009 25.0364 26.2009 25.4395C26.2344 25.8764 25.865 26.2123 25.4282 26.2123ZM25.4282 21.206H24.857C24.4201 21.206 24.0843 20.8364 24.0843 20.4333C24.0843 19.9964 24.4539 19.6605 24.857 19.6605H25.4282C25.865 19.6605 26.2009 20.0301 26.2009 20.4333C26.2344 20.8364 25.865 21.206 25.4282 21.206ZM28.2505 35.5196C28.2505 35.0827 28.6201 34.7469 29.0232 34.7469H36.6504C37.0873 34.7469 37.4232 35.1165 37.4232 35.5196C37.4232 35.9565 37.0536 36.2923 36.6504 36.2923H29.0568C28.62 36.3261 28.2504 35.9565 28.2504 35.5196H28.2505Z" fill="white"/>
</svg>
