<svg width="63" height="63" viewBox="0 0 63 63" fill="none" xmlns="http://www.w3.org/2000/svg">
<circle cx="31.5" cy="31.5" r="31.5" fill="#62CBC9"/>
<path d="M38.3963 15.4444H25.6283C24.4187 15.4444 23.4445 16.4187 23.4445 17.6283V44.8443C23.4445 46.0539 24.4187 47.0282 25.6283 47.0282H38.3963C39.6059 47.0282 40.5802 46.0539 40.5802 44.8443V17.6283C40.5802 16.4187 39.6057 15.4444 38.3961 15.4444H38.3963ZM31.3403 18.1325H32.6842C33.1546 18.1325 33.5242 18.5021 33.5242 18.9725C33.5242 19.4429 33.1546 19.8125 32.6842 19.8125H31.3403C30.87 19.8125 30.5003 19.4429 30.5003 18.9725C30.5003 18.5021 30.87 18.1325 31.3403 18.1325ZM33.3562 44.0045H30.6682C30.1978 44.0045 29.8282 43.6349 29.8282 43.1645C29.8284 42.6941 30.198 42.3245 30.6684 42.3245H33.3565C33.8269 42.3245 34.1965 42.6941 34.1965 43.1645C34.1962 43.6349 33.8266 44.0045 33.3562 44.0045ZM38.9003 40.3084H25.1243V21.4924H38.9003V40.3084Z" fill="white"/>
</svg>
