<svg width="63" height="63" viewBox="0 0 63 63" fill="none" xmlns="http://www.w3.org/2000/svg">
<circle cx="31.5" cy="31.5" r="31.5" fill="#62CBC9"/>
<path d="M46.9905 29.1027C47.4002 29.1027 47.7979 29.1524 48.1797 29.2438C48.2235 29.2544 48.2662 29.2595 48.3067 29.2595C48.5256 29.2595 48.6834 29.1107 48.6834 28.866V23.2647C48.6834 21.9803 47.6437 20.939 46.3612 20.939H40.2616C40.4343 20.421 40.5316 19.8681 40.5316 19.292C40.5316 16.4151 38.203 14.0833 35.3305 14.0833C32.4585 14.0833 30.1297 16.4151 30.1297 19.292C30.1297 19.8684 30.227 20.421 30.3995 20.939H24.2999C23.0172 20.939 21.9777 21.9801 21.9777 23.2647V29.3907C21.4462 29.207 20.8783 29.1027 20.2848 29.1027C17.4118 29.1027 15.0834 31.4347 15.0834 34.3112C15.0834 37.1875 17.4119 39.5195 20.2846 39.5195C20.8783 39.5195 21.4459 39.415 21.9775 39.2317V45.3577C21.9775 46.6421 23.0172 47.6834 24.2997 47.6834H29.8748C30.1647 47.6834 30.3225 47.4608 30.2582 47.1781C30.1746 46.8104 30.1293 46.4281 30.1293 46.035C30.1293 43.1581 32.4581 40.8263 35.3301 40.8263C38.2024 40.8263 40.5312 43.1581 40.5312 46.035C40.5312 46.4281 40.4859 46.8104 40.4023 47.1781C40.3383 47.4608 40.496 47.6834 40.7859 47.6834H46.361C47.6438 47.6834 48.6835 46.6423 48.6835 45.3577V39.7568C48.6835 39.5121 48.5255 39.3631 48.3066 39.3631C48.2663 39.3631 48.2236 39.3682 48.1798 39.3788C47.798 39.4699 47.4003 39.5199 46.9906 39.5199C44.1178 39.5199 41.7893 37.1878 41.7893 34.3116C41.7893 31.4349 44.1178 29.1028 46.9906 29.1028L46.9905 29.1027Z" fill="white"/>
</svg>
