<svg width="12" height="12" viewBox="0 0 12 12" fill="none" xmlns="http://www.w3.org/2000/svg">
<path d="M2.55 12H9.75C10.2274 12 10.6853 11.8103 11.0228 11.4728C11.3604 11.1352 11.55 10.6774 11.55 10.2V2.99996C11.55 2.68174 11.4235 2.37649 11.1985 2.15149C10.9734 1.92639 10.6683 1.80003 10.35 1.80003H9.15003V0.599991C9.15003 0.38564 9.03563 0.18756 8.85 0.0803828C8.66437 -0.0267943 8.43567 -0.0267943 8.25003 0.0803828C8.0644 0.18756 7.95 0.385637 7.95 0.599991V1.80003H4.35V0.599991C4.35 0.38564 4.23559 0.18756 4.04997 0.0803828C3.86434 -0.0267943 3.63563 -0.0267943 3.45 0.0803828C3.26437 0.18756 3.14997 0.385637 3.14997 0.599991V1.80003H1.95003C1.63172 1.80003 1.32657 1.92639 1.10146 2.15149C0.876463 2.37649 0.75 2.68174 0.75 2.99996V10.2C0.75 10.6774 0.939643 11.1352 1.27725 11.4728C1.61475 11.8103 2.07259 12 2.55 12ZM1.95003 6.30013C1.95003 6.13439 2.08433 6.00009 2.24997 6.00009H10.0501C10.1297 6.00009 10.2059 6.03174 10.2623 6.08799C10.3185 6.14424 10.3501 6.22057 10.3501 6.30013V10.2C10.3501 10.3592 10.2869 10.5117 10.1744 10.6242C10.0619 10.7367 9.90922 10.8 9.7501 10.8H2.55011C2.391 10.8 2.23832 10.7367 2.12582 10.6242C2.01332 10.5117 1.95014 10.3592 1.95014 10.2L1.95003 6.30013Z" fill="#1C1C1C"/>
</svg>
