<svg width="19" height="19" viewBox="0 0 19 19" fill="none" xmlns="http://www.w3.org/2000/svg">
<path d="M3.16647 4.75V16.3611C3.16156 16.5642 3.19671 16.7663 3.26992 16.9558C3.34313 17.1453 3.45296 17.3185 3.59314 17.4655C3.73331 17.6126 3.90109 17.7305 4.08688 17.8127C4.27266 17.8949 4.47282 17.9397 4.67591 17.9444H14.2973C14.5026 17.9431 14.7056 17.9009 14.8945 17.8202C15.0833 17.7396 15.2542 17.6222 15.3972 17.4748C15.5401 17.3274 15.6523 17.153 15.7272 16.9618C15.802 16.7706 15.838 16.5664 15.8331 16.3611V4.75H3.16647ZM7.91647 15.3056H6.86091V7.38889H7.91647V15.3056ZM12.1387 15.3056H11.0831V7.38889H12.1387V15.3056Z" fill="white"/>
<path d="M16.2188 2.63802H12.1391V2.11024C12.1391 1.83029 12.0279 1.56181 11.8299 1.36385C11.632 1.1659 11.3635 1.05469 11.0836 1.05469H7.81133C7.55005 1.08094 7.30795 1.20364 7.13228 1.39882C6.95662 1.59401 6.86001 1.84766 6.86133 2.11024V2.63802H2.63911C2.49913 2.63802 2.36489 2.69363 2.26591 2.7926C2.16693 2.89158 2.11133 3.02582 2.11133 3.1658C2.11133 3.30577 2.16693 3.44002 2.26591 3.53899C2.36489 3.63797 2.49913 3.69358 2.63911 3.69358H16.2188C16.3588 3.69358 16.493 3.63797 16.592 3.53899C16.691 3.44002 16.7466 3.30577 16.7466 3.1658C16.7466 3.02582 16.691 2.89158 16.592 2.7926C16.493 2.69363 16.3588 2.63802 16.2188 2.63802Z" fill="white"/>
</svg>
