<svg width="35" height="30" viewBox="0 0 35 30" fill="none" xmlns="http://www.w3.org/2000/svg">
<path d="M20.0637 2.93468C20.3563 2.80352 20.2812 2.88098 20.4566 2.93468C20.7995 2.47086 20.599 2.76502 20.6741 2.49415C20.7409 2.26984 20.9085 2.21567 21.0258 2.04554L20.8165 1.92198C20.5825 1.80603 20.6324 2.00705 20.6324 1.62022C20.4483 1.70528 20.2812 1.78274 20.1722 1.93719C20.1136 1.86781 20.1136 2.04554 20.1136 1.78274C20.0258 1.83122 19.9296 1.86531 19.8292 1.88349C19.9963 1.682 19.9213 1.88349 20.0051 1.67439C19.62 1.75946 19.478 1.76706 19.26 1.93719C19.1181 1.84214 19.0343 1.85212 18.9757 1.67439C18.6913 1.69768 18.9001 1.71336 18.6409 1.78274C18.4903 1.6877 18.3838 1.61261 18.1781 1.56604V1.46672C17.8768 1.48953 17.6763 1.64445 17.4166 1.37168C17.4002 1.35647 17.2911 1.17874 17.2665 1.14785C17.0572 1.20155 17.1492 1.20155 16.9816 1.30229C16.9482 1.17874 16.9147 1.11648 16.7307 1.00861C16.6386 0.954433 16.7055 0.985323 16.6134 0.96964L16.2957 0.992926C16.2535 1.00861 16.379 1.01621 16.128 1.04045V1.2025C16.3455 1.25002 16.145 1.19489 16.2874 1.26475C16.3039 1.27236 16.3121 1.27996 16.3291 1.28804C16.3373 1.28804 16.3455 1.30324 16.3625 1.30324C16.5301 1.37263 16.5466 1.30324 16.8145 1.30324C16.8731 1.50426 16.8896 1.38831 16.923 1.78274L16.5049 1.91438C16.4956 1.92232 16.484 1.9276 16.4715 1.92959L15.9609 1.98376C15.7434 1.96047 15.8185 1.93624 15.7352 1.78274C15.693 1.79795 15.6323 1.83026 15.5845 1.85212L15.4421 1.92959C15.275 2.04554 15.5259 1.97711 15.2498 2.06882C15.1469 2.10732 15.1073 2.09211 14.9901 2.09211C14.9901 2.23135 14.9901 2.22327 14.8646 2.3934C14.7474 2.55593 14.8564 2.54832 14.5885 2.57161C14.5885 2.95178 14.6307 2.73413 14.7057 2.98885L14.5217 3.05111C14.2373 3.11288 14.371 3.11288 14.2707 3.37568C14.1617 3.66081 14.028 3.45314 13.9108 3.94024C14.0949 4.0562 14.137 4.0562 14.1705 4.16455C14.1951 4.22632 14.2035 4.29259 14.1951 4.35796C13.6516 4.31899 13.8943 4.38885 13.6933 4.34228C13.4506 4.2881 13.3503 4.24961 13.0572 4.24961C13.049 4.63644 13.0408 4.37317 12.94 4.47392L12.9153 4.4972L12.8315 4.62076C12.8397 4.25721 12.9153 4.51241 12.94 4.20304C12.4633 4.07948 12.4803 3.60759 11.9949 3.53013C11.6015 3.46075 11.9949 3.42225 11.5763 3.41417C11.4761 3.60759 11.5347 3.64656 11.3506 3.77772C11.4087 3.53013 11.384 3.70026 11.3506 3.62327C11.1413 3.67079 11.2251 3.67745 11.0657 3.77772C11.0323 3.54011 10.9989 3.5767 10.7814 3.67745C10.8235 3.83189 10.7731 3.7858 10.949 3.83189C10.8822 3.95545 10.8462 3.97113 10.8318 4.14886L10.497 3.88607C10.3464 4.15647 10.5304 4.0638 10.2795 4.21112L10.2039 4.24961C10.1462 4.28299 10.0904 4.31916 10.0368 4.35796C10.1206 4.64309 10.1875 4.41214 10.0954 4.62076C9.90312 4.64404 9.88615 4.69822 9.75246 4.85837C9.74372 4.85837 9.73549 4.87405 9.72727 4.87405C9.71553 4.89153 9.70135 4.90751 9.6851 4.92157C9.66042 4.94438 9.61826 4.97527 9.59306 4.99856C9.50976 5.06842 9.40949 5.09931 9.3843 5.26136C9.37555 5.38539 9.45114 5.46285 9.52622 5.56312C9.40075 5.70236 9.41772 5.65816 9.40949 5.88009L9.15805 5.80311C8.90095 5.74893 9.03258 5.93427 8.95751 5.72565H8.67264C8.67264 6.08159 8.53072 5.99605 8.61454 6.15334C8.67264 6.25361 8.8233 6.2845 8.95751 6.46271C8.81508 6.51689 8.90609 6.50121 8.73126 6.46271C8.75646 6.74119 8.79862 6.55776 8.73126 6.83386C8.55592 6.71791 8.64796 6.7488 8.44691 6.40854C8.24637 6.07588 8.23763 6.29258 8.27105 5.93664C8.03709 5.99842 8.05355 6.10677 7.93631 6.25361L7.66018 6.52449C7.55992 6.63284 7.45142 6.80962 7.43445 6.94221C7.42622 7.09666 7.53729 7.17982 7.53729 7.4602C7.62882 7.50772 7.42828 7.51437 7.70441 7.4602C7.67098 7.57615 7.69618 7.52198 7.62059 7.59944C7.61236 7.60704 7.57894 7.64696 7.56917 7.65361C7.48536 7.73868 7.53575 7.6845 7.47662 7.73108L7.38509 7.80046C7.37635 7.80806 7.35989 7.81614 7.35115 7.82374L7.28431 7.87126C7.14239 7.97962 7.17581 7.9953 7.10896 8.13454L7.08377 8.20392C6.7408 9.03936 6.53152 9.03936 5.51906 9.39482C5.32675 9.4566 5.52729 9.43379 5.30978 9.449C5.03365 9.47228 5.15912 9.32544 4.92464 9.47228C4.70714 9.59584 4.88299 9.59584 4.69891 9.73508C4.41456 9.94418 4.37239 9.65001 3.83711 10.1528C3.79189 10.1963 3.73723 10.2305 3.6767 10.2531C3.61617 10.2757 3.55115 10.2862 3.48591 10.284C3.19282 10.2764 3.41033 10.1295 3.03393 10.3614C3.00874 10.0834 3.09255 10.2611 2.92492 10.1989C2.8735 10.369 2.88327 10.3381 2.73261 10.4465C2.38964 10.6865 2.66577 10.3771 2.17213 10.8799L2.11351 10.9336L1.93766 11.1351C1.92943 11.1427 1.90424 11.1826 1.88624 11.1969C1.62194 11.4725 1.04398 11.3561 1.04398 12.1991H0.876865C0.852183 11.9829 0.81876 11.914 0.81876 11.6193C0.525667 11.7971 0.42694 12.2542 0.416656 12.5626C0.60074 12.6244 0.468076 12.4776 0.567317 12.6943C0.615095 12.7981 0.636198 12.9107 0.628972 13.0234C0.621745 13.136 0.586386 13.2455 0.525667 13.3434C0.471295 13.4317 0.434382 13.5283 0.416656 13.6286V14.0087C0.433625 14.1323 0.468076 14.0938 0.60074 14.2406C0.760141 14.4341 0.642904 14.4341 0.893834 14.7049C0.902061 14.7125 0.919029 14.7201 0.927257 14.7277C0.994103 14.8052 1.00284 14.8285 1.06969 14.9136C1.29542 15.184 1.38747 15.0452 1.38747 15.6711H1.27023C1.19515 15.3465 0.985875 15.068 0.642904 14.9829C0.642904 15.47 0.784823 15.1455 0.81876 15.509C0.684554 15.4315 0.760142 15.4468 0.592513 15.4083C0.567317 15.6791 0.643933 15.5033 0.475275 15.5632C0.843442 16.0731 1.42089 16.2665 1.56332 16.9237C1.62194 17.2179 1.95668 17.3728 2.07392 17.6199C2.14077 17.7592 2.04821 17.6508 2.16545 17.7901C2.22458 17.8518 2.27446 17.8851 2.34131 17.945C2.475 18.0918 2.49197 18.1693 2.53413 18.4012C2.72644 19.5146 3.45455 19.7465 3.52962 20.4119L3.53785 20.8063C3.4962 21.0382 3.57127 20.9997 3.62989 21.2311C3.68851 21.4402 3.59647 21.5405 3.54607 21.7187C3.37896 21.7187 3.34554 21.6954 3.21133 21.6712C3.21133 22.0514 3.19488 22.3978 3.56304 22.3902C4.03971 22.3826 4.20733 22.9315 4.99355 22.8079C5.23676 22.7694 5.64658 22.8236 5.86409 22.7072C6.08982 22.5836 6.11502 22.4601 6.19883 22.3745C6.20706 22.3664 6.21528 22.3588 6.22403 22.3512L6.30733 22.2662C6.31607 22.2586 6.34949 22.2186 6.35875 22.212L6.52586 22.1169C6.66007 22.1013 6.86935 22.1169 6.92796 21.9311C6.92796 21.9311 6.93619 21.8461 6.93619 21.8304C7.01949 21.5367 7.47147 21.5453 7.76457 21.4502L8.41709 21.3656C8.46851 21.3656 8.48393 21.3732 8.55078 21.3732C8.76006 21.3575 8.49267 21.3423 8.70144 21.3423L8.78525 21.3656C8.79348 21.3656 8.80222 21.3732 8.81045 21.3808C9.01099 21.4659 8.65979 21.4284 9.01973 21.4502C9.07115 21.3343 9.13697 21.2725 9.49639 21.2806C9.73909 21.2806 10.1577 21.4426 10.3417 20.7312C10.3669 20.6229 10.3669 20.5535 10.4502 20.4603C10.5927 20.3059 10.6847 20.3753 10.9104 20.2517C11.8144 19.7646 11.4627 19.6814 12.4921 19.6643C12.8937 19.6563 13.2367 19.4861 13.5796 19.355C14.2481 19.1074 14.1823 18.9273 15.2199 18.9273C15.5799 18.9197 15.6128 18.8888 15.8725 18.8422C16.1234 18.8037 16.6253 19.1749 16.8181 19.2913C17.1441 19.2133 16.9687 19.0746 17.3703 19.3065C17.613 19.4377 17.7817 19.3916 18.0645 19.4533C18.1401 19.6159 18.0897 19.4609 18.0645 19.7161C18.2486 19.6776 18.2486 19.6467 18.408 19.7161C18.3566 19.8326 18.299 19.7936 18.2655 19.9095L18.3828 20.2113C18.5247 20.3273 18.6337 20.2037 18.7761 20.3734C18.8929 20.505 18.8677 20.5977 19.0775 20.8377C19.2024 20.9769 19.2446 21.147 19.261 21.348C19.2528 21.348 19.2358 21.3404 19.2358 21.348C19.2358 21.3556 19.2106 21.3556 19.2106 21.3556C19.2024 21.3556 19.186 21.3637 19.1777 21.3637L19.0353 21.5025C19.3783 21.5334 19.2862 21.7344 19.5958 21.8043C19.7048 21.8195 19.604 21.7966 19.713 21.8271C19.713 21.8271 19.73 21.8508 19.8303 21.8746L19.7886 21.6655C19.7464 21.503 19.8133 21.4569 20.1228 21.0952C20.3321 20.8476 20.7255 20.8476 20.8844 20.5772C20.9764 20.4147 21.0016 20.3064 21.1353 20.1828C21.2777 20.0436 21.1775 20.237 21.2613 20.0355C21.3281 20.1053 21.2361 19.997 21.3364 20.121C21.3707 20.1598 21.4014 20.2011 21.4284 20.2446C21.2613 20.2598 21.286 20.2679 21.2027 20.3449C21.3194 20.5825 21.3281 20.5539 21.1939 20.7008C20.9949 20.9362 20.894 21.2298 20.9096 21.5281C20.9178 21.8375 20.834 21.7658 20.5162 21.7658C20.4648 21.9592 20.4242 21.9131 20.399 22.1374C20.617 22.1217 20.6586 22.0675 20.8006 22.029C21.0433 21.9749 21.0685 22.1531 21.2027 21.8746L21.4284 21.2402L21.5374 21.4027C21.5456 21.4179 21.5456 21.4336 21.5539 21.4412L21.596 21.5106C21.6046 21.5192 21.6103 21.5299 21.6125 21.5415C21.9303 22.1374 21.4032 22.1531 21.3698 22.5009H21.0854V22.3527C20.8493 22.3495 20.6144 22.3836 20.3907 22.4534C19.9727 22.5537 20.1563 22.6387 20.2879 22.8245C21.0828 22.8245 20.8232 22.7628 21.2752 22.6929C21.4592 22.662 21.4757 22.7162 21.3672 22.5076C21.6181 22.5076 21.7019 22.4601 21.9364 22.4068C21.9446 22.4144 21.9611 22.4144 21.9698 22.4301C21.9698 22.4458 21.995 22.4458 22.0033 22.4534C22.3545 22.7319 22.7309 23.095 22.572 23.5744C22.572 23.5821 22.5637 23.5977 22.5637 23.6053L22.5473 23.8681C22.5889 24.0231 22.7057 24.1005 22.79 24.2008L23.024 24.5567C23.1998 24.7345 23.459 24.657 23.6595 24.8661L23.823 25.0377C23.9901 24.983 23.9901 24.9217 24.166 24.9678L24.2915 25.0153C24.3079 25.0234 24.3254 25.0234 24.3429 25.031C24.4935 25.07 24.4179 25.0234 24.5604 25.0933C24.6694 25.1474 25.1378 25.3945 25.1877 25.5105C25.5055 25.4872 26.1169 24.7606 26.2675 25.3019C26.5519 25.2786 26.5601 25.1161 26.7858 25.0933L26.7442 25.1626C26.6691 25.3171 26.7025 25.0676 26.6691 25.356L26.9365 25.5799L27.0203 25.6578L27.1962 25.7196C27.2548 25.7671 27.2712 25.8508 27.299 25.9358C27.4831 25.8883 27.5335 25.7196 27.4666 25.5647C28.1351 25.5647 28.3284 24.9469 29.0396 24.9692C29.4998 24.9925 29.8592 25.1161 30.194 24.8689L30.3112 24.7216C30.395 24.5363 30.3112 24.4902 30.3446 24.3277L30.6459 23.5616C30.8799 22.9914 31.1061 22.9818 31.2486 22.8811C31.4157 22.7499 31.2902 22.8426 31.3072 22.7423V22.7034L31.3406 22.5641C31.4239 22.3631 31.4825 22.184 31.6491 22.0618C31.9839 21.8066 31.8414 21.6284 32.3438 21.1261L32.6673 20.9508C32.6842 20.9432 32.6924 20.9355 32.7089 20.9355L33.0688 20.688C33.0721 20.6743 33.0778 20.6613 33.0858 20.6495C33.1444 20.5335 33.111 20.4637 33.2025 20.3401C33.4206 20.0616 33.7383 19.7912 33.7466 19.3421C33.7466 19.0637 34.1235 18.5533 34.2237 18.2363C34.2662 18.1077 34.3282 17.9853 34.4078 17.8728C34.5667 17.6408 34.5919 17.4165 34.5497 17.1229C34.5081 16.7517 34.4078 16.5583 34.3492 16.2489C34.2818 16.0246 34.2489 16.4732 34.4006 16.1795C34.4212 16.1463 34.4327 16.109 34.434 16.0707C34.4757 15.7927 34.4088 15.6687 34.5009 15.375C34.5842 15.1122 34.6346 15.3132 34.5009 15.058C34.3919 14.8489 34.4253 15.0813 34.4253 14.7487C34.4253 14.4474 34.4171 14.6018 34.2829 14.4783C34.1075 14.3081 34.1908 14.339 34.1245 14.1456C34.0155 13.8438 34.0911 14.1066 33.89 13.8904C33.7563 13.7436 33.7563 13.4109 33.5635 13.3026L33.4607 13.2717C33.2514 13.2175 33.1593 13.055 33.0339 12.8848C32.9588 12.7922 32.967 12.8772 32.9002 12.6995C32.7578 12.3051 33.0843 12.1506 32.8164 11.6707C32.5906 11.7405 32.8081 11.6787 32.5906 11.8256C32.4652 11.6554 32.423 11.702 32.3562 11.462C32.1052 11.5243 32.2307 11.6013 32.0214 11.6707C31.7952 11.2767 31.97 11.0833 31.8039 10.7677C31.536 10.2726 31.9211 10.7288 31.4275 10.2184C31.3437 10.1414 31.3247 10.0715 31.2769 9.98647H31.5031C31.4609 9.79306 31.3689 9.63053 31.1848 9.55355C31.0172 9.48369 31.101 9.56875 30.9838 9.46088C30.9755 9.46088 30.9673 9.4452 30.9591 9.43759L30.8331 9.34255C30.6326 9.22707 30.666 9.37391 30.5909 9.08783L30.5153 9.12632C30.5034 9.12973 30.4921 9.13486 30.4819 9.14153C30.3564 9.17242 30.3981 8.93291 30.2814 8.80175C30.1472 8.63922 30.3328 8.90202 30.0387 8.76278C29.8793 8.6934 30.0469 8.76278 29.9461 8.701C29.9131 8.6737 29.8728 8.655 29.8294 8.64682L29.7265 8.62354C29.2581 8.44581 29.3419 8.37642 29.3419 7.93542C28.9403 7.83467 29.183 7.54859 29.2077 7.30908C29.2591 6.92225 29.0072 6.87615 29.1049 6.45844C28.5444 6.45083 28.7701 5.94044 28.6112 5.38349L28.5861 4.8731C28.6112 4.76475 28.5943 4.92062 28.6529 4.72626L28.5027 4.6564C27.967 4.36271 28.076 4.13081 27.9166 4.03861L27.5253 4.15647C27.408 4.23393 27.5253 4.21112 27.3494 4.25151C26.973 3.92646 27.1489 3.24595 27.0229 2.81302C26.9715 2.62768 26.9308 2.37249 26.6629 2.31071C26.7046 2.14819 26.7545 2.10162 26.8301 1.99327C26.6964 1.93149 26.629 1.94574 26.4953 1.88539C26.4953 1.55274 26.4871 1.30515 26.3195 1.04235C26.211 0.87222 26.286 0.856538 26.0351 0.833252C25.9683 1.08084 25.9935 0.933999 25.7508 1.04235C25.7508 1.34364 25.7091 1.59123 25.5415 1.85403C25.5415 1.8621 25.5245 1.87731 25.5245 1.88539L25.4731 1.94717C25.3558 2.10922 25.2556 2.25606 25.2386 2.46516H25.4062C25.3893 2.70277 25.3893 2.56543 25.2808 2.71275C25.1301 2.92137 25.2134 2.69707 25.2468 2.97555C25.2803 3.25402 25.0463 3.26923 25.0715 3.56339C25.088 3.75681 25.1635 3.69455 25.1548 3.88036C25.1548 3.98871 25.0967 4.03481 25.1034 4.18213C25.1198 4.57609 25.2792 4.47582 25.0864 4.85457C24.8859 5.249 24.9615 5.62823 24.7018 6.02218C24.5177 6.30066 24.4755 6.48647 24.4087 6.59245C24.3254 6.71648 23.9737 6.85572 23.7644 6.82483C23.6225 6.80915 23.3294 6.63142 23.1875 6.56156C23.0785 6.50786 22.9946 6.47649 22.9443 6.37622C22.8774 6.26787 22.9278 6.30637 22.8774 6.2213C22.7437 5.9585 22.3673 5.98369 22.0994 5.88865C21.8233 5.78077 21.7313 5.44051 21.0787 5.201L20.7353 5.10026C20.727 5.10026 20.4843 4.94533 20.4679 4.93013L20.2504 4.70582C20.183 4.65165 20.0663 4.58987 19.9825 4.52809L19.7398 4.38885C19.514 4.2729 19.5474 4.38885 19.5387 4.09516C19.6647 4.0562 19.8066 3.8395 19.9156 3.70026C19.9825 3.62327 19.9321 3.69265 19.9825 3.60759L20.0339 3.49163C20.0421 3.48403 20.0421 3.46835 20.0503 3.46075C20.0838 3.38328 20.1341 3.26733 20.1676 3.19795C19.9331 3.11288 20.1758 3.23644 19.9418 3.14377C20.0339 3.02022 20.0087 3.0896 20.0591 2.93468H20.0637ZM25.6361 26.5584C25.6361 26.1867 25.6783 26.2181 25.4685 26.0865C25.4104 26.3027 25.452 26.0941 25.3934 26.2566C25.3013 26.5118 25.2931 26.728 25.6361 26.5584ZM28.2071 26.6121L28.4328 27.084C28.5331 27.0364 28.5002 27.045 28.6586 27.0364C28.6586 26.7119 28.6668 26.8278 28.5418 26.6653C28.4662 26.5726 28.4662 26.5417 28.3156 26.5108C28.2739 26.6577 28.4076 26.5959 28.2071 26.6111V26.6121ZM25.8119 27.4565C25.8128 27.6795 25.87 27.8992 25.9791 28.0981C26.0546 28.2378 26.0881 28.1931 26.0819 28.3922C26.0737 28.7724 26.0238 28.8793 26.1991 29.1963C26.2912 29.3745 26.4753 29.5675 26.5005 29.7666C26.902 29.7666 26.8434 29.7514 26.8938 29.8749C27.2702 29.8673 27.0275 29.7979 27.2368 29.7666C27.2538 29.7666 27.6219 29.8516 27.5217 29.4035C27.806 29.4729 27.6718 29.6121 27.8559 29.5964C28.0065 29.5812 27.9315 29.4653 27.9587 29.3028C27.9752 29.1093 27.8831 29.2552 28.151 29.1407L28.0924 28.8233C28.0924 28.4521 28.1845 28.8233 28.3181 28.8774L28.4858 27.764C28.5027 27.6789 28.6112 27.7165 28.3768 27.4004C28.1197 27.4313 28.2683 27.4394 28.2097 27.4546L27.4435 27.5563C27.2846 27.5796 27.1674 27.6419 27.0666 27.6338C26.774 27.6181 26.6233 27.2935 26.2135 27.2161C26.1107 27.2009 26.2135 27.2317 26.0629 27.1685C25.8618 27.0911 26.1143 27.1453 25.87 27.0835C25.8618 27.3306 25.8119 27.2612 25.8119 27.4546V27.4565Z" fill="#62CBC9"/>
</svg>
