<svg width="29" height="29" viewBox="0 0 29 29" fill="none" xmlns="http://www.w3.org/2000/svg">
<path fill-rule="evenodd" clip-rule="evenodd" d="M20.4532 2.99822H18.9323V5.37775C18.9323 6.34908 18.1457 7.13625 17.1744 7.13625C16.203 7.13625 15.4164 6.34854 15.4164 5.37775V2.99822H8.575V5.37775C8.575 6.34908 7.7889 7.13625 6.81758 7.13625C5.84625 7.13625 5.05962 6.34854 5.05962 5.37775V2.99822H3.53876C1.6496 2.99822 0.117798 4.52982 0.117798 6.41919V24.1884C0.117798 26.0781 1.6494 27.6089 3.53876 27.6089L16.4203 27.6086C15.1172 26.2159 14.3181 24.3457 14.3181 22.2878C14.3181 17.9844 17.8063 14.4955 22.1096 14.4955C22.7174 14.4955 23.3071 14.5675 23.8747 14.699L23.8741 6.41865C23.8741 4.52976 22.3431 2.99815 20.4534 2.99815L20.4532 2.99822ZM10.0949 21.8832H2.77877C2.3325 21.8832 1.9707 21.5214 1.9707 21.0751C1.9707 20.6288 2.33195 20.2671 2.77877 20.2671H10.0949C10.5412 20.2671 10.903 20.6288 10.903 21.0751C10.9032 21.5214 10.5415 21.8832 10.0949 21.8832ZM10.0949 16.6813H2.77877C2.3325 16.6813 1.9707 16.3195 1.9707 15.8732C1.9707 15.4269 2.33195 15.0652 2.77877 15.0652H10.0949C10.5412 15.0652 10.903 15.4269 10.903 15.8732C10.9032 16.3195 10.5415 16.6813 10.0949 16.6813ZM21.213 11.1218H2.77877C2.3325 11.1218 1.9707 10.761 1.9707 10.3137C1.9707 9.86769 2.33195 9.50643 2.77877 9.50643H21.213C21.659 9.50643 22.0211 9.86715 22.0211 10.3137C22.0214 10.7605 21.6596 11.1218 21.213 11.1218Z" fill="#62CBC9"/>
<path fill-rule="evenodd" clip-rule="evenodd" d="M7.86342 5.04076C7.86342 5.61796 7.39498 6.0864 6.81778 6.0864C6.2411 6.0864 5.77267 5.61848 5.77267 5.04076V1.52538C5.77267 0.948171 6.24112 0.48027 6.81778 0.48027C7.39499 0.48027 7.86342 0.948191 7.86342 1.52538V5.04076Z" fill="#62CBC9"/>
<path fill-rule="evenodd" clip-rule="evenodd" d="M18.2203 5.04076C18.2203 5.61796 17.7524 6.0864 17.1752 6.0864C16.598 6.0864 16.1306 5.61848 16.1306 5.04076V1.52538C16.1306 0.948171 16.598 0.48027 17.1752 0.48027C17.7524 0.48027 18.2203 0.948191 18.2203 1.52538V5.04076Z" fill="#62CBC9"/>
<path fill-rule="evenodd" clip-rule="evenodd" d="M22.1091 16.0787C18.6802 16.0787 15.9012 18.8589 15.9012 22.2877C15.9012 25.716 18.6802 28.4956 22.1091 28.4956C25.5379 28.4956 28.3175 25.716 28.3175 22.2877C28.318 18.8591 25.5379 16.0787 22.1091 16.0787ZM24.4868 23.4824H21.6291C21.5342 23.4824 21.444 23.4633 21.3618 23.4299C21.3584 23.4281 21.3542 23.4281 21.3511 23.4263C21.3146 23.4109 21.2804 23.3908 21.2468 23.3697C21.2408 23.3663 21.235 23.3639 21.2296 23.3603C21.2061 23.3444 21.1847 23.3243 21.1633 23.3053C21.1508 23.2946 21.1357 23.2857 21.1239 23.2734C21.1117 23.2612 21.1025 23.2463 21.0916 23.2338C21.0728 23.2124 21.0527 23.1913 21.0368 23.1675C21.0332 23.1623 21.0311 23.1568 21.0274 23.1506C21.006 23.1175 20.9862 23.0828 20.9708 23.046C20.969 23.0426 20.9685 23.0384 20.9672 23.0358C20.934 22.9526 20.9147 22.8634 20.9147 22.7685V19.9109C20.9147 19.5165 21.2345 19.1967 21.6289 19.1967C22.0232 19.1967 22.343 19.517 22.343 19.9109V22.0544H24.4865C24.8808 22.0544 25.2006 22.3741 25.2006 22.7685C25.2009 23.1626 24.8811 23.4823 24.4867 23.4823L24.4868 23.4824Z" fill="#62CBC9"/>
</svg>
