<svg width="25" height="26" viewBox="0 0 25 26" fill="none" xmlns="http://www.w3.org/2000/svg">
<path fill-rule="evenodd" clip-rule="evenodd" d="M20.645 17.6798C20.581 17.9999 20.293 18.2557 19.941 18.2557H7.65302L7.97289 19.8878H18.9489C19.8768 19.8878 19.8768 21.2958 18.9489 21.2958L7.36489 21.2956C7.01288 21.2956 6.69277 21.0396 6.66089 20.6876C5.57294 14.5116 4.45306 8.30356 3.36488 2.09556H0.772941C-0.154945 2.09556 -0.154945 0.6875 0.772941 0.6875H3.97294C4.32495 0.6875 4.64506 0.943528 4.67694 1.29556L5.445 5.64756H23.525C24.0371 5.64756 24.3891 6.19153 24.165 6.6395L20.645 17.6798ZM17.189 21.6798C18.277 21.6798 19.173 22.5758 19.173 23.6637C19.173 24.7517 18.277 25.6477 17.189 25.6477C16.1011 25.6477 15.2051 24.7517 15.2051 23.6637C15.1729 22.5436 16.0689 21.6798 17.189 21.6798ZM9.50902 21.6798C10.597 21.6798 11.493 22.5758 11.493 23.6637C11.493 24.7517 10.597 25.6477 9.50902 25.6477C8.42107 25.6477 7.52507 24.7517 7.52507 23.6637C7.49316 22.5436 8.38913 21.6798 9.50902 21.6798Z" fill="#B6CED0"/>
</svg>
