<svg width="29" height="29" viewBox="0 0 29 29" fill="none" xmlns="http://www.w3.org/2000/svg">
<path d="M14.4842 0.605469C6.81901 0.605469 0.605347 6.81945 0.605347 14.4843C0.605347 22.1491 6.81901 28.3631 14.4842 28.3631C22.1493 28.3631 28.363 22.1491 28.363 14.4843C28.363 6.81945 22.1493 0.605469 14.4842 0.605469ZM14.4842 6.15691C14.9953 6.15691 15.4093 6.57125 15.4093 7.08207V14.1083L19.7174 18.4163C20.0788 18.7778 20.0788 19.3561 19.7174 19.7175C19.3559 20.0789 18.7777 20.0789 18.4162 19.7175L13.9636 15.2503C13.7439 15.0399 13.5964 14.8421 13.559 14.4842V7.08204C13.559 6.57088 13.9733 6.15687 14.4841 6.15687L14.4842 6.15691Z" fill="#62CBC9"/>
</svg>
