<svg width="29" height="33" viewBox="0 0 29 33" fill="none" xmlns="http://www.w3.org/2000/svg">
<path d="M11.009 7.77967C11.2715 7.61563 11.5666 7.45158 11.8618 7.32048L10.0577 5.51643C9.50016 4.95885 9.13933 4.23723 9.04099 3.51562H5.53127C2.54641 3.51562 0.119385 5.94288 0.119385 8.92751V31.1331C0.119385 31.5596 0.414532 31.9859 0.840985 32.0515C1.39856 32.1499 1.85773 31.7234 1.85773 31.1988V17.0948C1.85773 14.9629 2.94013 12.9948 4.71127 11.8467L11.009 7.77967Z" fill="#62CBC9"/>
<path d="M23.309 3.51593H19.7993C19.7009 4.27027 19.3728 4.92621 18.8153 5.48405L16.9785 7.32079C17.2737 7.45189 17.5688 7.61594 17.8313 7.77998L24.0961 11.8472C25.8672 12.9954 26.9496 14.9962 26.9496 17.0954V31.101C26.9496 31.5274 27.2448 31.9537 27.6712 32.0194C28.2288 32.1177 28.688 31.6913 28.688 31.1666L28.6882 8.89483C28.7209 5.9102 26.2936 3.51562 23.309 3.51562L23.309 3.51593Z" fill="#62CBC9"/>
<path d="M14.2234 7.74749C14.3218 7.84587 14.5186 7.84587 14.617 7.74749L17.8642 4.50023C18.7826 3.58183 18.6842 2.00749 17.5361 1.25297C16.7161 0.695401 15.568 0.859442 14.8794 1.58107L14.4202 2.00754L13.9283 1.51563C13.0099 0.597229 11.4356 0.695629 10.681 1.84372C10.1235 2.66372 10.2875 3.81184 11.0091 4.50047L14.2234 7.74749Z" fill="#62CBC9"/>
<path d="M11.4355 14.734C11.4355 15.8933 10.4956 16.8332 9.33627 16.8332C8.17696 16.8332 7.23706 15.8933 7.23706 14.734C7.23706 13.5744 8.17696 12.6348 9.33627 12.6348C10.4956 12.6348 11.4355 13.5744 11.4355 14.734Z" fill="#62CBC9"/>
<path d="M20.9802 22.5069L21.3738 19.7518C21.5705 18.5053 20.5865 17.3574 19.3073 17.3574H18.1922C16.913 17.3574 15.9619 18.4726 16.1257 19.7518L16.5192 22.5069C14.8795 24.0485 13.633 27.2628 13.4362 31.0677C13.4035 31.5926 13.8297 32.0188 14.3219 32.0188H23.1779C23.7027 32.0188 24.0963 31.5923 24.0635 31.0677C23.8668 27.2628 22.653 24.0485 20.9803 22.5069H20.9802Z" fill="#62CBC9"/>
<path d="M20.849 14.734C20.849 15.8933 19.9091 16.8332 18.7498 16.8332C17.5903 16.8332 16.6504 15.8933 16.6504 14.734C16.6504 13.5744 17.5903 12.6348 18.7498 12.6348C19.9091 12.6348 20.849 13.5744 20.849 14.734Z" fill="#62CBC9"/>
<path d="M15.4371 22.1476L15.2403 20.7373C14.7811 20.5732 14.1579 20.2781 13.797 19.8189C13.6659 19.6548 13.5346 19.4908 13.4362 19.327C12.7803 18.4413 12.157 17.7526 10.8122 17.4902L9.46733 20.7702C9.43461 20.8359 9.33622 20.8359 9.30328 20.7702L7.9914 17.523C7.20414 17.7197 6.51546 18.1462 5.95786 18.7365C4.3506 20.4749 4.54758 23.2301 4.58026 23.3284C4.61298 23.8203 5.03945 24.1811 5.49866 24.1811H5.56432C6.08917 24.1484 6.44998 23.6892 6.41706 23.1644C6.41706 23.1317 6.28596 21.3603 7.13866 20.2125L7.10594 23.9844L6.51566 30.938C6.48294 31.4956 6.90919 32.0204 7.46674 32.0531C8.05703 32.1188 8.54914 31.6596 8.58188 31.1021L9.13945 24.4109H9.53298L10.0906 31.1021C10.1233 31.6596 10.5825 32.0531 11.1403 32.0531H11.2387C11.7962 32.0204 12.2227 31.4956 12.1897 30.938L11.5995 23.9844L11.5667 19.9828C11.6651 20.1139 11.7635 20.2452 11.8948 20.4093C12.0259 20.606 12.1573 20.7701 12.3213 20.9668C13.174 22.0166 14.4532 22.4428 15.0437 22.6068C15.1746 22.4428 15.3059 22.2787 15.437 22.1477L15.4371 22.1476Z" fill="#62CBC9"/>
<path d="M10.1562 17.9153V17.1937C10.1562 17.1281 10.0906 17.0953 10.0251 17.1281L9.53323 17.3578C9.46757 17.2921 9.40213 17.2594 9.30352 17.2594C9.20514 17.2594 9.13948 17.2921 9.07381 17.3578L8.58191 17.1281C8.51624 17.0953 8.45081 17.1608 8.45081 17.1937V17.9153C8.45081 17.981 8.51647 18.0137 8.58191 17.981L9.07381 17.7513C9.13948 17.8169 9.20491 17.8497 9.30352 17.8497C9.40191 17.8497 9.46757 17.8169 9.53323 17.7513L10.0251 17.981C10.0906 18.0467 10.1562 17.981 10.1562 17.9153Z" fill="#62CBC9"/>
<path d="M9.5986 18.5065C9.5986 18.8564 9.07373 18.8564 9.07373 18.5065C9.07373 18.1567 9.5986 18.1567 9.5986 18.5065Z" fill="#62CBC9"/>
<path d="M9.5986 19.2938C9.5986 19.6436 9.07373 19.6436 9.07373 19.2938C9.07373 18.9437 9.5986 18.9437 9.5986 19.2938Z" fill="#62CBC9"/>
</svg>
