<svg width="73" height="73" viewBox="0 0 73 73" fill="none" xmlns="http://www.w3.org/2000/svg">
<path d="M22.5082 60.8331H51.7082C53.6444 60.8331 55.5012 60.064 56.8699 58.6953C58.2391 57.3261 59.0082 55.4693 59.0082 53.5331V24.3331C59.0082 23.0426 58.4953 21.8046 57.5828 20.8921C56.6699 19.9792 55.4323 19.4668 54.1414 19.4668H49.275V14.6C49.275 13.7306 48.811 12.9273 48.0582 12.4927C47.3054 12.058 46.3778 12.058 45.625 12.4927C44.8721 12.9273 44.4082 13.7306 44.4082 14.6V19.4668H29.8082V14.6C29.8082 13.7306 29.3442 12.9273 28.5914 12.4927C27.8386 12.058 26.911 12.058 26.1582 12.4927C25.4053 12.9273 24.9414 13.7306 24.9414 14.6V19.4668H20.075C18.784 19.4668 17.5465 19.9792 16.6336 20.8921C15.7211 21.8046 15.2082 23.0426 15.2082 24.3331V53.5331C15.2082 55.4693 15.9773 57.3261 17.3465 58.6953C18.7152 60.064 20.572 60.8331 22.5082 60.8331ZM20.075 37.7172C20.075 37.045 20.6196 36.5004 21.2914 36.5004H52.9254C53.248 36.5004 53.5572 36.6287 53.7858 36.8568C54.0139 37.0849 54.1418 37.3945 54.1418 37.7172V53.5331C54.1418 54.1788 53.8856 54.7976 53.4293 55.2539C52.9731 55.7101 52.3539 55.9667 51.7086 55.9667H22.5086C21.8633 55.9667 21.2441 55.7101 20.7879 55.2539C20.3316 54.7976 20.0754 54.1788 20.0754 53.5331L20.075 37.7172Z" fill="white"/>
</svg>
