<svg width="48" height="48" viewBox="0 0 48 48" fill="none" xmlns="http://www.w3.org/2000/svg">
<path fill-rule="evenodd" clip-rule="evenodd" d="M9.09843 6.03791H30.1762L38.8925 14.7576V42.0164H9.09843V6.03791ZM24.5039 37.956C23.988 37.956 23.5655 37.5371 23.5655 37.0212C23.5655 36.5053 23.988 36.0864 24.5039 36.0864H33.9828C34.5027 36.0864 34.9213 36.5053 34.9213 37.0212C34.9213 37.5371 34.5024 37.956 33.9828 37.956H24.5039ZM14.0081 16.7961C13.4883 16.7961 13.0697 16.3772 13.0697 15.8577C13.0697 15.3417 13.4886 14.9229 14.0081 14.9229H20.694C21.2099 14.9229 21.6324 15.3417 21.6324 15.8577C21.6324 16.3775 21.2099 16.7961 20.694 16.7961H14.0081ZM14.0081 21.5374C13.4883 21.5374 13.0697 21.1149 13.0697 20.599C13.0697 20.083 13.4886 19.6642 14.0081 19.6642H33.9828C34.5027 19.6642 34.9213 20.083 34.9213 20.599C34.9213 21.1149 34.5024 21.5374 33.9828 21.5374H14.0081ZM14.0081 26.2751C13.4883 26.2751 13.0697 25.8562 13.0697 25.3403C13.0697 24.8243 13.4886 24.4055 14.0081 24.4055H33.9828C34.5027 24.4055 34.9213 24.8243 34.9213 25.3403C34.9213 25.8562 34.5024 26.2751 33.9828 26.2751H14.0081ZM14.0081 31.0164C13.4883 31.0164 13.0697 30.5975 13.0697 30.0816C13.0697 29.5617 13.4886 29.1431 14.0081 29.1431H33.9828C34.5027 29.1431 34.9213 29.562 34.9213 30.0816C34.9213 30.5975 34.5024 31.0164 33.9828 31.0164H14.0081Z" fill="#62CBC9"/>
</svg>
