<svg width="89" height="90" viewBox="0 0 89 90" fill="none" xmlns="http://www.w3.org/2000/svg">
<g filter="url(#filter0_d_3938_15233)">
<rect x="12" y="6.5" width="57" height="57" rx="10" fill="white"/>
</g>
<path fill-rule="evenodd" clip-rule="evenodd" d="M26.0984 16.5391H47.1761L55.8925 25.2587V52.5175H26.0984V16.5391ZM41.5039 48.4571C40.988 48.4571 40.5654 48.0383 40.5654 47.5223C40.5654 47.0064 40.988 46.5875 41.5039 46.5875H50.9828C51.5026 46.5875 51.9212 47.0064 51.9212 47.5223C51.9212 48.0383 51.5024 48.4571 50.9828 48.4571H41.5039ZM31.0081 27.2973C30.4883 27.2973 30.0696 26.8784 30.0696 26.3588C30.0696 25.8429 30.4885 25.424 31.0081 25.424H37.6939C38.2098 25.424 38.6324 25.8429 38.6324 26.3588C38.6324 26.8786 38.2099 27.2973 37.6939 27.2973H31.0081ZM31.0081 32.0386C30.4883 32.0386 30.0696 31.616 30.0696 31.1001C30.0696 30.5842 30.4885 30.1653 31.0081 30.1653H50.9828C51.5026 30.1653 51.9212 30.5842 51.9212 31.1001C51.9212 31.616 51.5024 32.0386 50.9828 32.0386H31.0081ZM31.0081 36.7762C30.4883 36.7762 30.0696 36.3573 30.0696 35.8414C30.0696 35.3255 30.4885 34.9066 31.0081 34.9066H50.9828C51.5026 34.9066 51.9212 35.3255 51.9212 35.8414C51.9212 36.3573 51.5024 36.7762 50.9828 36.7762H31.0081ZM31.0081 41.5175C30.4883 41.5175 30.0696 41.0986 30.0696 40.5827C30.0696 40.0629 30.4885 39.6443 31.0081 39.6443H50.9828C51.5026 39.6443 51.9212 40.0631 51.9212 40.5827C51.9212 41.0986 51.5024 41.5175 50.9828 41.5175H31.0081Z" fill="#62CBC9"/>
<defs>
<filter id="filter0_d_3938_15233" x="0" y="0.5" width="89" height="89" filterUnits="userSpaceOnUse" color-interpolation-filters="sRGB">
<feFlood flood-opacity="0" result="BackgroundImageFix"/>
<feColorMatrix in="SourceAlpha" type="matrix" values="0 0 0 0 0 0 0 0 0 0 0 0 0 0 0 0 0 0 127 0" result="hardAlpha"/>
<feOffset dx="4" dy="10"/>
<feGaussianBlur stdDeviation="8"/>
<feComposite in2="hardAlpha" operator="out"/>
<feColorMatrix type="matrix" values="0 0 0 0 0.293333 0 0 0 0 0.733333 0 0 0 0 0.724952 0 0 0 1 0"/>
<feBlend mode="normal" in2="BackgroundImageFix" result="effect1_dropShadow_3938_15233"/>
<feBlend mode="normal" in="SourceGraphic" in2="effect1_dropShadow_3938_15233" result="shape"/>
</filter>
</defs>
</svg>
