<svg width="27" height="28" viewBox="0 0 27 28" fill="none" xmlns="http://www.w3.org/2000/svg">
<path d="M23.859 21.0625V23.8896H4.06859V21.0625H1.21094V26.6865H26.6557V21.0625H23.859Z" fill="white"/>
<path d="M23.555 21.0624V23.8895C23.6462 23.7983 23.7679 23.6766 23.8591 23.5854H4.06868L4.37277 23.8895V21.0624C4.37277 20.9103 4.22072 20.7583 4.06868 20.7583H1.24159C1.08954 20.7583 0.9375 20.9103 0.9375 21.0624V26.7168C0.9375 26.8688 1.08954 27.0209 1.24159 27.0209H26.6864C26.8384 27.0209 26.9905 26.8688 26.9905 26.7168V21.0624C26.9905 20.9103 26.8384 20.7583 26.6864 20.7583H23.8593C23.464 20.7583 23.464 21.3662 23.8593 21.3662H26.6864C26.5952 21.2751 26.4735 21.1533 26.3823 21.0622V26.7166C26.4735 26.6254 26.5952 26.5037 26.6864 26.4125H1.24159L1.54567 26.7166V21.0622C1.45449 21.1533 1.33277 21.2751 1.24159 21.3662H4.06868C3.9775 21.2751 3.85578 21.1533 3.76459 21.0622V23.8893C3.76459 24.0413 3.91664 24.1933 4.06868 24.1933H23.8591C24.0111 24.1933 24.1632 24.0413 24.1632 23.8893V21.0622C24.163 20.6671 23.555 20.6671 23.555 21.0624L23.555 21.0624Z" fill="white"/>
<path d="M6.89551 11.7296L10.5437 12.5505L10.6652 1.2417H17.2316L17.3531 12.5505L21.0316 11.7296L13.9484 21.0624L6.89551 11.7296Z" fill="white"/>
<path d="M6.80416 12.0034C8.02005 12.2769 9.26651 12.581 10.4827 12.8546C10.665 12.8849 10.8779 12.7634 10.8779 12.5505C10.8779 8.81135 10.9083 5.0113 10.9691 1.2417C10.8779 1.33288 10.7562 1.4546 10.665 1.54578H17.2618C17.1706 1.4546 17.0489 1.33288 16.9577 1.2417C16.9883 5.01135 17.0186 8.8113 17.0491 12.5505C17.0491 12.7634 17.2315 12.8849 17.4444 12.8546C18.6603 12.581 19.9067 12.2769 21.1229 12.0034C21.0014 11.8513 20.8797 11.6993 20.7885 11.5475C18.4173 14.6483 16.0764 17.7795 13.7053 20.8803H14.2221C11.8509 17.7794 9.51002 14.6483 7.13888 11.5475C6.89565 11.2434 6.37888 11.5475 6.6221 11.8516C8.96296 14.9524 11.3342 18.0836 13.6749 21.1844C13.8269 21.3667 14.0396 21.3667 14.1917 21.1844C16.5629 18.0835 18.9037 14.9524 21.2749 11.8516C21.4572 11.6387 21.1534 11.3651 20.9405 11.3956C19.7246 11.6692 18.4781 11.9733 17.262 12.2468C17.3835 12.338 17.5052 12.4292 17.6572 12.5509C17.6267 8.81135 17.5961 5.01119 17.5353 1.24159C17.5353 1.08954 17.3832 0.9375 17.2312 0.9375H10.6344C10.4824 0.9375 10.3303 1.08954 10.3303 1.24159C10.3002 5.01124 10.2697 8.81119 10.2393 12.5504C10.3609 12.4592 10.4826 12.368 10.6346 12.2463C9.41872 11.9728 8.17226 11.6686 6.9561 11.3951C6.59137 11.3345 6.40901 11.9121 6.80406 12.0033L6.80416 12.0034Z" fill="white"/>
</svg>
