<svg width="12" height="8" viewBox="0 0 12 8" fill="none" xmlns="http://www.w3.org/2000/svg">
<path d="M10.2095 7.05592L6.06743 2.71382L1.92531 7.05592C1.769 7.21382 1.57362 7.30592 1.35219 7.30592C1.13075 7.30592 0.922344 7.22698 0.766038 7.06908C0.609732 6.91119 0.518553 6.71382 0.518553 6.49013L0.518553 6.47698C0.518553 6.26645 0.596707 6.05592 0.753013 5.89803L5.48128 0.937501C5.63758 0.779607 5.84599 0.687501 6.06743 0.687501C6.28886 0.687501 6.51029 0.779607 6.65358 0.937502L11.3818 5.91119C11.5251 6.06908 11.6163 6.26645 11.6163 6.49014C11.6163 6.71382 11.5251 6.92435 11.3688 7.08224C11.2125 7.24014 11.0041 7.31908 10.7827 7.31908C10.5612 7.31908 10.3528 7.22698 10.2095 7.05592Z" fill="#62CBC9"/>
</svg>
