<svg width="12" height="8" viewBox="0 0 12 8" fill="none" xmlns="http://www.w3.org/2000/svg">
<path d="M2.23162 0.944079L6.37374 5.28618L10.5159 0.94408C10.6722 0.786185 10.8675 0.69408 11.089 0.69408C11.3104 0.69408 11.5188 0.773026 11.6751 0.930921C11.8314 1.08882 11.9226 1.28618 11.9226 1.50987L11.9226 1.52303C11.9226 1.73355 11.8445 1.94408 11.6881 2.10197L6.95988 7.0625C6.80358 7.22039 6.59517 7.3125 6.37374 7.3125C6.1523 7.3125 5.93087 7.22039 5.78759 7.0625L1.05932 2.08882C0.916041 1.93092 0.824863 1.73355 0.824863 1.50987C0.824863 1.28618 0.916042 1.07566 1.07235 0.917763C1.22865 0.759868 1.43706 0.680921 1.6585 0.680921C1.87993 0.680921 2.08834 0.773027 2.23162 0.944079Z" fill="#1C1C1C"/>
</svg>
