<svg width="29" height="41" viewBox="0 0 29 41" fill="none" xmlns="http://www.w3.org/2000/svg">
<path fill-rule="evenodd" clip-rule="evenodd" d="M10.605 0C11.7372 0 12.655 0.917816 12.655 2.05V10.25C12.655 13.5333 15.3167 16.195 18.6 16.195H26.8C27.9322 16.195 28.85 17.1128 28.85 18.245V36.9C28.85 39.1644 27.0144 41 24.75 41H4.25002C1.98566 41 0.150024 39.1644 0.150024 36.9V4.1C0.150024 1.83563 1.98566 0 4.25002 0H10.605ZM9.37523 22.7549C8.35626 22.7549 7.53023 23.581 7.53023 24.5999C7.53023 25.6189 8.35626 26.4449 9.37523 26.4449H14.5002C15.5192 26.4449 16.3452 25.6189 16.3452 24.5999C16.3452 23.581 15.5192 22.7549 14.5002 22.7549H9.37523ZM9.37523 29.9299C8.35626 29.9299 7.53023 30.756 7.53023 31.7749C7.53023 32.7939 8.35626 33.6199 9.37523 33.6199H19.6252C20.6442 33.6199 21.4702 32.7939 21.4702 31.7749C21.4702 30.756 20.6442 29.9299 19.6252 29.9299H9.37523Z" fill="#62CBC9"/>
<path d="M25.2552 10.7552C25.901 11.4009 25.4436 12.505 24.5305 12.505H18.6C17.3546 12.505 16.345 11.4954 16.345 10.25V4.31957C16.345 3.40639 17.4491 2.94907 18.0948 3.59478L25.2552 10.7552Z" fill="#62CBC9"/>
</svg>
