<svg width="33" height="33" viewBox="0 0 33 33" fill="none" xmlns="http://www.w3.org/2000/svg">
<path d="M18.4061 16.0003H10.8488V18.1021H15.9609C15.3595 20.6643 13.4919 22.2369 10.9833 22.2369C10.0112 22.2418 9.05257 22.0159 8.19135 21.5787C7.33013 21.1416 6.59254 20.5065 6.04301 19.7292C5.49347 18.9518 5.14878 18.0558 5.03904 17.1195C4.9293 16.1831 5.05787 15.235 5.41351 14.3579C5.76915 13.4809 6.34099 12.7017 7.07909 12.0884C7.8172 11.4751 8.69909 11.0464 9.6476 10.8399C10.5961 10.6333 11.5824 10.6552 12.5201 10.9035C13.4579 11.1519 14.3187 11.6191 15.0271 12.2644L16.7048 10.8683C15.7516 9.95866 14.5821 9.2904 13.2995 8.92246C12.0169 8.55452 10.6606 8.49821 9.35021 8.7585C8.03985 9.0188 6.81574 9.58769 5.78581 10.415C4.75588 11.2423 3.95178 12.3026 3.44451 13.5024C2.93724 14.7021 2.74234 16.0045 2.87703 17.2945C3.01172 18.5845 3.47186 19.8226 4.21683 20.8995C4.9618 21.9764 5.96869 22.859 7.14874 23.4695C8.32879 24.08 9.6457 24.3996 10.9833 24.4001C15.312 24.4001 18.4378 21.2013 18.4378 16.8364L18.4061 16.0003Z" fill="white"/>
<path d="M29.3029 16.0846H26.1771V13.0469H24.175V16.0846H21.0491V18.0177H24.175V21.0555H26.1771V18.0177H29.3029V16.0846Z" fill="white"/>
</svg>
