<svg width="29" height="17" viewBox="0 0 29 17" fill="none" xmlns="http://www.w3.org/2000/svg">
<path d="M16.8995 7.98774H9.13955V10.146H14.3887C13.7712 12.7768 11.8535 14.3915 9.27768 14.3915C8.27949 14.3966 7.2952 14.1646 6.4109 13.7157C5.5266 13.2668 4.76924 12.6148 4.20498 11.8166C3.64072 11.0184 3.28678 10.0984 3.1741 9.13694C3.06142 8.1755 3.19344 7.20195 3.55861 6.3014C3.92378 5.40085 4.51094 4.60072 5.26884 3.971C6.02673 3.34128 6.93226 2.90114 7.90618 2.68905C8.88011 2.47697 9.89281 2.4994 10.8557 2.75439C11.8186 3.00938 12.7025 3.48916 13.4299 4.15178L15.1525 2.71823C14.1738 1.7842 12.9729 1.09803 11.6559 0.720227C10.339 0.342425 8.94631 0.284605 7.60083 0.551878C6.25535 0.819151 4.99842 1.40329 3.94089 2.25278C2.88335 3.10227 2.0577 4.191 1.53683 5.42291C1.01596 6.65482 0.815848 7.99206 0.954146 9.31666C1.09244 10.6413 1.56491 11.9125 2.32985 13.0183C3.09479 14.124 4.12868 15.0303 5.34035 15.6572C6.55203 16.284 7.90424 16.6122 9.27768 16.6127C13.7224 16.6127 16.932 13.3281 16.932 8.8463L16.8995 7.98774Z" fill="#1C1C1C"/>
<path d="M28.0883 8.07621H24.8787V4.95703H22.823V8.07621H19.6133V10.0611H22.823V13.1803H24.8787V10.0611H28.0883V8.07621Z" fill="#1C1C1C"/>
</svg>
