<svg width="31" height="25" viewBox="0 0 31 25" fill="none" xmlns="http://www.w3.org/2000/svg">
<path d="M27.4791 14.1579C26.976 13.9145 26.2617 13.3766 24.8196 12.2777C23.464 11.2446 21.6083 9.83002 20.7169 9.41616C19.0794 8.6552 16.6103 7.33207 15.7514 6.86783C14.4308 6.89208 13.0498 6.92091 12.2863 6.94173C12.2584 6.9955 12.2307 7.04949 12.2055 7.09823C11.6516 8.17998 10.8142 9.81448 9.43095 10.3679C8.95734 10.5567 8.38193 10.6615 7.81109 10.6615C6.90417 10.6615 6.22117 10.3903 5.83683 9.87807C5.57166 9.52458 5.47121 9.08642 5.55198 8.65445C5.67415 7.45737 6.00087 5.08505 6.74584 3.51733C6.08304 3.2128 5.03239 2.68222 4.21034 2.26103C3.52283 1.90823 3.05742 2.25828 3.05742 2.25828C2.72155 2.44704 2.56093 2.88107 2.56093 2.88107L0.195407 9.63788C0.195407 9.63788 -0.0203467 10.3274 0.031817 10.6816C0.0729998 10.961 0.136145 11.2502 0.673584 11.6428C1.32062 12.1136 2.14677 12.776 2.64738 13.4027C3.0281 13.8783 3.12145 14.494 3.30514 15.169C3.79431 14.5958 4.46972 14.1876 5.25651 14.1876C5.4201 14.1876 5.58391 14.2055 5.74201 14.2419C6.57367 14.4313 7.16559 15.0401 7.48797 15.7794C7.77098 15.6776 8.06361 15.6178 8.35553 15.6178C8.76987 15.6178 9.17553 15.7286 9.5283 15.9372C10.0234 16.2303 10.3515 16.6717 10.522 17.1975C10.6862 17.1634 10.8528 17.14 11.0237 17.14C11.4827 17.14 11.9414 17.2711 12.3523 17.5185C13.1323 17.9921 13.4828 18.8539 13.3968 19.9311C13.7773 19.9494 14.1326 20.0482 14.4296 20.2283C15.4475 20.8494 15.695 22.4396 15.4118 23.6216L15.3956 23.6909L15.3734 23.7527C15.5411 23.8991 15.7125 24.0421 15.8344 24.0844C17.8975 24.9607 19.0318 23.1463 18.7554 22.2556C19.4773 22.7716 20.945 22.516 21.6428 21.791C22.3409 21.0671 22.0016 19.7947 22.0016 19.7947C22.0016 19.7947 23.9239 20.8941 25.3168 19.5236C26.2217 18.6345 25.5033 17.5297 25.5033 17.5297C25.5033 17.5297 27.3256 18.262 28.1804 17.0483C28.9906 15.9001 28.4788 15.0061 27.4792 14.1579L27.4791 14.1579Z" fill="#62CBC9"/>
<path d="M13.2884 24.2682C13.0573 24.2513 12.8288 24.178 12.6206 24.0435C11.9642 23.617 11.815 22.8561 12.2408 22.1992L12.3614 21.9748C12.7881 21.3181 13.7971 21.0491 14.2732 21.338C14.6688 21.5794 14.8587 22.5269 14.6688 23.3187L14.62 23.4544C14.1858 24.243 13.7877 24.3048 13.2885 24.2682L13.2884 24.2682Z" fill="#62CBC9"/>
<path d="M6.83742 8.8587C6.83742 8.8587 7.287 4.33131 8.39823 3.3459C9.50857 2.3605 10.3796 2.07402 11.8903 1.81801C13.4001 1.56176 16.6714 0.458273 17.8002 0.787269C18.9281 1.11673 20.8013 1.62554 21.9192 1.84542C23.0382 2.06666 24.3643 2.89192 25.0275 2.93725C25.4032 2.96242 26.3262 2.52084 27.0709 2.16733C27.45 1.9875 27.7873 2.10853 28.0241 2.2664C28.3936 2.51281 28.5013 2.95326 28.5013 2.95326L30.7696 10.0117C30.7696 10.0117 30.8877 10.4052 30.8463 10.7088C30.8149 10.9415 30.7426 11.2051 30.296 11.4982C29.4962 12.0237 28.3595 12.7954 28.24 13.019C28.0536 13.3649 23.2178 9.14438 21.2648 8.2374C19.312 7.33048 16.0693 5.56162 16.0693 5.56162C16.0693 5.56162 11.9103 5.6369 11.5843 5.6687C11.258 5.69981 10.3668 8.59381 8.94854 9.16032C8.11231 9.49481 6.67251 9.4232 6.83721 8.85877L6.83742 8.8587Z" fill="#62CBC9"/>
<path d="M5.00064 19.0736C4.92925 19.0688 4.85901 19.0585 4.78786 19.0422C4.02438 18.8686 3.5455 18.1094 3.71823 17.3448L3.80083 16.9838C3.97356 16.2193 4.69017 15.3337 5.45389 15.5087C6.2176 15.6828 6.6047 16.749 6.43133 17.5134L6.35285 18.0209C6.1959 18.7134 5.68865 19.1244 5.00067 19.0736L5.00064 19.0736Z" fill="#62CBC9"/>
<path d="M7.3698 20.9746C7.15885 20.959 7.01082 20.97 6.81497 20.8544C6.1414 20.4557 5.85452 19.5114 6.25397 18.8372L6.91541 17.8573C7.31557 17.1824 8.19256 16.6573 8.86748 17.0563C9.54176 17.4551 9.41979 18.3945 9.11824 19.0944L8.58652 20.2205C8.3035 20.6989 7.8894 21.0122 7.36982 20.9746L7.3698 20.9746Z" fill="#62CBC9"/>
<path d="M10.6088 22.5687C10.3917 22.5525 10.176 22.4868 9.97691 22.3667C9.30744 21.9604 9.09377 21.0884 9.50011 20.4183L10.3782 19.164C10.785 18.4948 11.5284 18.2248 12.198 18.6302C12.8673 19.0359 12.643 20.1922 12.3586 20.9369L11.9251 21.8892C11.64 22.361 11.1229 22.6055 10.6088 22.5687L10.6088 22.5687Z" fill="#62CBC9"/>
</svg>
