<svg width="73" height="73" viewBox="0 0 73 73" fill="none" xmlns="http://www.w3.org/2000/svg">
<path d="M32.7229 9.125C34.1454 9.125 35.2978 10.2775 35.2978 11.6999C35.2978 12.2886 35.7718 12.7626 36.3605 12.7626C36.9491 12.7626 37.4232 12.2886 37.4232 11.6999C37.4232 10.2774 38.584 9.125 40.0061 9.125C41.4287 9.125 42.581 10.2775 42.581 11.6999C42.581 12.1659 42.4504 12.6236 42.1968 13.0407L36.36 20.3489L30.6543 13.2207C30.3193 12.7711 30.1393 12.2478 30.1393 11.7004C30.1477 10.2776 31.3006 9.12509 32.7227 9.12509L32.7229 9.125ZM11.9764 61.4418V18.4925C11.9764 17.1113 12.8676 15.9913 13.9712 15.9913H30.1567L34.252 21.1168H32.0694L31.0231 21.1821L19.8236 21.1412C18.0172 21.1412 16.6026 22.9641 16.6026 25.2773V61.4413L11.9764 61.4418ZM18.7284 44.3165V25.2778C18.7284 24.1254 19.3086 23.2587 19.824 23.2587L31.088 23.2915L32.1342 23.2262L35.2814 23.2342C34.8238 40.6539 24.5481 43.8994 18.7278 44.316L18.7284 44.3165ZM37.5709 23.2431L53.1762 23.2675C53.6911 23.2675 54.2718 24.1339 54.2718 25.2867V44.3085C40.7759 43.1312 37.6855 32.398 37.5706 23.2426L37.5709 23.2431ZM61.0237 61.4428H56.3972V25.2788C56.3972 22.957 54.983 21.1426 53.1762 21.1426L38.4621 21.1182L42.5574 15.9927H59.0288C60.1244 15.9927 61.0236 17.1127 61.0236 18.5024V61.4433L61.0237 61.4428Z" fill="white"/>
</svg>
