<svg width="34" height="33" viewBox="0 0 34 33" fill="none" xmlns="http://www.w3.org/2000/svg">
<path fill-rule="evenodd" clip-rule="evenodd" d="M12.8074 6H20.1705C23.5588 6 26.3065 8.74767 26.3065 12.1359V19.4991C26.3065 22.8873 23.5588 25.635 20.1705 25.635H12.8074C9.41912 25.635 6.67145 22.8873 6.67145 19.4991V12.1359C6.67145 8.74767 9.41912 6 12.8074 6ZM20.1705 23.794C22.539 23.794 24.4657 21.8673 24.4657 19.4988V12.1357C24.4657 9.76722 22.539 7.84053 20.1705 7.84053H12.8074C10.4389 7.84053 8.51226 9.76722 8.51226 12.1357V19.4988C8.51226 21.8673 10.4389 23.794 12.8074 23.794H20.1705Z" fill="white"/>
<path fill-rule="evenodd" clip-rule="evenodd" d="M11.5801 15.8189C11.5801 13.1081 13.778 10.9102 16.4889 10.9102C19.1998 10.9102 21.3976 13.1081 21.3976 15.8189C21.3976 18.5298 19.1998 20.7277 16.4889 20.7277C13.778 20.7277 11.5801 18.5298 11.5801 15.8189ZM13.421 15.8189C13.421 17.5099 14.7979 18.8868 16.4889 18.8868C18.18 18.8868 19.5569 17.5099 19.5569 15.8189C19.5569 14.1266 18.18 12.7509 16.4889 12.7509C14.7979 12.7509 13.421 14.1266 13.421 15.8189Z" fill="white"/>
<circle cx="21.7657" cy="10.5408" r="0.654091" fill="white"/>
</svg>
