<svg width="21" height="20" viewBox="0 0 21 20" fill="none" xmlns="http://www.w3.org/2000/svg">
<path fill-rule="evenodd" clip-rule="evenodd" d="M6.53023 0H13.8934C17.2816 0 20.0293 2.74767 20.0293 6.13594V13.4991C20.0293 16.8873 17.2816 19.635 13.8934 19.635H6.53023C3.14196 19.635 0.394287 16.8873 0.394287 13.4991V6.13594C0.394287 2.74767 3.14196 0 6.53023 0ZM13.8934 17.794C16.2619 17.794 18.1885 15.8673 18.1885 13.4988V6.13569C18.1885 3.76722 16.2619 1.84053 13.8934 1.84053H6.53026C4.16178 1.84053 2.2351 3.76722 2.2351 6.13569V13.4988C2.2351 15.8673 4.16178 17.794 6.53026 17.794H13.8934Z" fill="#1C1C1C"/>
<path fill-rule="evenodd" clip-rule="evenodd" d="M5.30298 9.81891C5.30298 7.10805 7.50087 4.91016 10.2117 4.91016C12.9226 4.91016 15.1205 7.10805 15.1205 9.81891C15.1205 12.5298 12.9226 14.7277 10.2117 14.7277C7.50087 14.7277 5.30298 12.5298 5.30298 9.81891ZM7.1438 9.81886C7.1438 11.5099 8.52071 12.8868 10.2118 12.8868C11.9028 12.8868 13.2797 11.5099 13.2797 9.81886C13.2797 8.12657 11.9028 6.75089 10.2118 6.75089C8.52071 6.75089 7.1438 8.12657 7.1438 9.81886Z" fill="#1C1C1C"/>
<circle cx="15.4886" cy="4.54081" r="0.654091" fill="#1C1C1C"/>
</svg>
