<svg width="17" height="18" viewBox="0 0 17 18" fill="none" xmlns="http://www.w3.org/2000/svg">
<path d="M0.850098 4.01914C0.850098 3.08414 1.6151 2.31914 2.5501 2.31914H14.4501C14.901 2.31914 15.3334 2.49825 15.6522 2.81706C15.971 3.13587 16.1501 3.56827 16.1501 4.01914V15.9191C16.1501 16.37 15.971 16.8024 15.6522 17.1212C15.3334 17.44 14.901 17.6191 14.4501 17.6191H2.5501C2.09923 17.6191 1.66683 17.44 1.34802 17.1212C1.0292 16.8024 0.850098 16.37 0.850098 15.9191V4.01914ZM2.5501 5.71914V15.9191H14.4501V5.71914H2.5501ZM4.2501 0.619141H5.9501V2.31914H4.2501V0.619141ZM11.0501 0.619141H12.7501V2.31914H11.0501V0.619141ZM4.2501 8.26914H5.9501V9.96914H4.2501V8.26914ZM4.2501 11.6691H5.9501V13.3691H4.2501V11.6691ZM7.6501 8.26914H9.3501V9.96914H7.6501V8.26914ZM7.6501 11.6691H9.3501V13.3691H7.6501V11.6691ZM11.0501 8.26914H12.7501V9.96914H11.0501V8.26914ZM11.0501 11.6691H12.7501V13.3691H11.0501V11.6691Z" fill="#1C1C1C"/>
</svg>
