<svg width="13" height="17" viewBox="0 0 13 17" fill="none" xmlns="http://www.w3.org/2000/svg">
<path d="M5.83241 0.889335C2.41008 1.24702 -0.16815 4.54112 0.128464 7.96989C0.519887 12.4588 4.65096 15.8134 6.06846 16.8324C6.35202 17.0349 6.72329 17.0282 6.99989 16.8123C8.47131 15.6648 12.9804 11.7768 12.9804 7.28126C12.9736 3.50126 9.70664 0.47726 5.83233 0.889203L5.83241 0.889335ZM6.54116 9.83983C5.13044 9.83983 3.98294 8.69912 3.98294 7.28162C3.98294 5.86397 5.12366 4.73004 6.54116 4.73004C7.95866 4.73004 9.09937 5.87076 9.09937 7.28825C9.09937 8.70575 7.95187 9.83983 6.54116 9.83983Z" fill="black"/>
</svg>
