<svg width="23" height="23" viewBox="0 0 23 23" fill="none" xmlns="http://www.w3.org/2000/svg">
<path d="M11.3562 2.15625C6.27555 2.15625 2.15625 6.27555 2.15625 11.3562C2.15625 16.4369 6.27555 20.5562 11.3562 20.5562C16.4369 20.5562 20.5562 16.4369 20.5562 11.3562C20.5562 6.27555 16.4369 2.15625 11.3562 2.15625ZM14.3889 14.3978C14.1646 14.6221 13.799 14.6209 13.5758 14.3978L11.3562 12.1704L9.13787 14.398C8.91364 14.621 8.549 14.6222 8.32478 14.398C8.0994 14.1749 8.0994 13.8091 8.32363 13.5849L10.5443 11.3561L8.32363 9.12748C8.0994 8.90198 8.0994 8.53862 8.32478 8.31325C8.55029 8.09018 8.91365 8.09018 9.13787 8.31556L11.3562 10.5419L13.5758 8.31543C13.7989 8.09005 14.1623 8.09005 14.3866 8.31196C14.6119 8.53734 14.6119 8.90083 14.3889 9.1262L12.167 11.3561L14.3889 13.5847C14.6131 13.8091 14.6131 14.1736 14.3889 14.3978L14.3889 14.3978Z" fill="#62CBC9"/>
</svg>
