<svg width="153" height="107" viewBox="0 0 153 107" fill="none" xmlns="http://www.w3.org/2000/svg">
<g clip-path="url(#clip0_3360_3186)">
<path d="M36.3827 85.6745C35.6697 85.4754 35.0082 85.1262 34.4434 84.6507L35.0623 83.3504C35.5616 83.8028 36.1474 84.151 36.785 84.3743C37.4768 84.6197 38.2062 84.7444 38.9409 84.7428C39.6993 84.7942 40.4562 84.6233 41.1175 84.2514C41.3416 84.1159 41.5261 83.9246 41.6527 83.6965C41.7794 83.4685 41.8438 83.2115 41.8396 82.9511C41.8512 82.7626 41.8222 82.5739 41.7546 82.3973C41.6871 82.2208 41.5824 82.0606 41.4476 81.9273C41.1504 81.6632 40.7982 81.4675 40.4161 81.354C40.0344 81.2209 39.4877 81.0775 38.7862 80.9035C38.0581 80.7417 37.3414 80.5331 36.6406 80.279C36.1007 80.0528 35.6233 79.7018 35.248 79.2551C34.8409 78.7562 34.6351 78.125 34.6703 77.4839C34.6642 76.8879 34.8366 76.3035 35.1655 75.8048C35.5397 75.2689 36.063 74.8527 36.6715 74.607C37.4634 74.2873 38.3134 74.1339 39.1679 74.1565C39.8642 74.1571 40.5576 74.2466 41.231 74.4227C41.8479 74.5712 42.432 74.8315 42.9537 75.1905L42.3967 76.5215C41.9097 76.2147 41.3819 75.9769 40.8287 75.8151C40.2931 75.6557 39.7374 75.573 39.1782 75.5694C38.4289 75.5167 37.6818 75.6994 37.0429 76.0915C36.8218 76.2368 36.6407 76.4347 36.5164 76.6671C36.3921 76.8996 36.3284 77.1593 36.3311 77.4225C36.3243 77.6037 36.3567 77.7843 36.4261 77.9521C36.4955 78.1198 36.6003 78.2709 36.7334 78.3951C37.0329 78.6585 37.3841 78.8572 37.765 78.9787C38.2934 79.153 38.8305 79.2999 39.3742 79.4189C40.0998 79.5818 40.8132 79.7939 41.5095 80.0537C42.0424 80.258 42.5169 80.5884 42.8918 81.0161C43.3011 81.5059 43.5076 82.1317 43.4695 82.7668C43.4741 83.3595 43.3018 83.9402 42.9743 84.4357C42.596 84.9802 42.0601 85.3979 41.4373 85.6335C40.6415 85.9511 39.7879 86.101 38.9307 86.0738C38.0619 86.0769 37.1982 85.9421 36.3724 85.6745" fill="white"/>
<path d="M70.4034 85.9407L70.3931 77.4429L66.1431 84.5278H65.3798L61.1298 77.4941V85.9407H59.5205V74.2793H60.8925L65.7924 82.4801L70.6304 74.2793H72.0023L72.023 85.9407H70.4034Z" fill="white"/>
<path d="M87.909 75.3754C88.318 75.7582 88.6438 76.22 88.8666 76.7323C89.0893 77.2446 89.2042 77.7967 89.2042 78.3547C89.2042 78.9127 89.0893 79.4648 88.8666 79.9771C88.6438 80.4895 88.318 80.9512 87.909 81.3341C86.878 82.1032 85.6071 82.4875 84.3192 82.4193H81.4205V85.9413H79.7803V74.2901H84.3604C85.649 74.2166 86.9218 74.6014 87.9502 75.3754H87.909ZM86.7433 80.2897C87.0076 80.0393 87.218 79.7382 87.3618 79.4047C87.5055 79.0713 87.5796 78.7123 87.5796 78.3496C87.5796 77.9869 87.5055 77.6279 87.3618 77.2945C87.218 76.961 87.0076 76.6599 86.7433 76.4095C86.0338 75.914 85.1744 75.6755 84.3089 75.7337H81.4618V80.9655H84.3089C85.1744 81.0237 86.0338 80.7852 86.7433 80.2897Z" fill="white"/>
<path d="M95.873 74.2891H97.5545V84.4966H103.908V85.9402H95.873V74.2891Z" fill="white"/>
<path d="M118.556 84.4966V85.9402H110.036V74.2891H118.319V75.7327H111.707V79.316H117.597V80.7289H111.707V84.4966H118.556Z" fill="white"/>
<path d="M51.8044 74.2891H50.123V85.9402H51.8044V74.2891Z" fill="white"/>
<path d="M52.8675 69.8565C52.8695 70.232 52.7591 70.5996 52.5502 70.9126C52.3413 71.2257 52.0433 71.4701 51.6942 71.6147C51.3451 71.7593 50.9605 71.7977 50.5893 71.7249C50.2182 71.6522 49.8772 71.4716 49.6097 71.2061C49.3422 70.9406 49.1603 70.6021 49.087 70.2338C49.0137 69.8654 49.0523 69.4837 49.198 69.1372C49.3437 68.7907 49.5899 68.495 49.9053 68.2876C50.2207 68.0803 50.5911 67.9707 50.9694 67.9727C51.472 67.9754 51.9532 68.1747 52.3086 68.5274C52.6639 68.8801 52.8648 69.3577 52.8675 69.8565Z" fill="#67C8C8"/>
<path d="M3.03292 106.233C2.10927 105.737 1.33906 105 0.804793 104.103C0.27147 103.166 -0.00878906 102.108 -0.00878906 101.032C-0.00878906 99.9553 0.27147 98.8972 0.804793 97.9601C1.33592 97.0577 2.10667 96.3175 3.03292 95.8203C3.91041 95.3739 4.8728 95.1159 5.85741 95.0629C6.84202 95.01 7.82683 95.1634 8.74776 95.5131C9.49112 95.8081 10.1551 96.2708 10.6871 96.8646L9.59364 97.8884C9.17373 97.4388 8.66217 97.083 8.09303 96.8447C7.52389 96.6064 6.91019 96.491 6.29266 96.5063C5.46767 96.495 4.65378 96.6961 3.93036 97.0898C3.2385 97.4558 2.66602 98.0098 2.2799 98.687C1.88793 99.3888 1.68228 100.178 1.68228 100.98C1.68228 101.783 1.88793 102.572 2.2799 103.274C2.6685 103.952 3.24011 104.508 3.93036 104.881C4.65378 105.275 5.46767 105.476 6.29266 105.465C6.91165 105.477 7.5261 105.358 8.09524 105.116C8.66437 104.874 9.17517 104.515 9.59364 104.062L10.6871 105.086C10.1519 105.686 9.48475 106.155 8.73744 106.458C7.93274 106.771 7.07458 106.928 6.21012 106.919C5.10243 106.936 4.00873 106.671 3.03292 106.151" fill="white"/>
<path d="M25.1389 105.545V106.999H16.6182V95.3379H24.9016V96.7917H18.2893V100.375H24.1795V101.788H18.2893V105.545H25.1389Z" fill="white"/>
<path d="M39.901 106.999L37.3737 103.426H36.6309H33.7323V106.968H32.0508V95.3476H36.6309C37.9199 95.2704 39.194 95.6556 40.2208 96.4328C40.6565 96.795 41.0017 97.2525 41.229 97.7695C41.4563 98.2865 41.5596 98.8488 41.5308 99.4122C41.5523 100.227 41.318 101.029 40.8603 101.706C40.3906 102.358 39.7213 102.843 38.9519 103.088L41.7371 106.999H39.901ZM39.0138 101.357C39.2944 101.119 39.5158 100.819 39.6607 100.482C39.8056 100.144 39.8701 99.7784 39.8494 99.4122C39.8717 99.0458 39.8079 98.6793 39.6629 98.3417C39.5179 98.004 39.2956 97.7045 39.0138 97.4669C38.3043 96.9715 37.4449 96.7329 36.5794 96.7912H33.7323V102.043H36.5794C37.4461 102.099 38.3056 101.856 39.0138 101.357Z" fill="white"/>
<path d="M56.9621 105.545V106.999H48.4414V95.3379H56.7248V96.7917H50.1229V100.375H56.013V101.788H50.1229V105.545H56.9621Z" fill="white"/>
<path d="M74.7672 106.999L74.7466 98.5015L70.5069 105.586H69.7332L65.4832 98.5527V106.999H63.874V95.3379H65.2563L70.1561 103.539L74.9838 95.3379H76.3558L76.3764 106.999H74.7672Z" fill="white"/>
<path d="M86.1972 106.232C85.2649 105.735 84.4872 104.995 83.9484 104.092C83.4131 103.155 83.1318 102.097 83.1318 101.02C83.1318 99.9436 83.4131 98.8853 83.9484 97.9488C84.4901 97.0475 85.267 96.3082 86.1972 95.809C87.1846 95.3043 88.2792 95.041 89.3899 95.041C90.5005 95.041 91.5951 95.3043 92.5825 95.809C93.5097 96.3085 94.2833 97.0479 94.821 97.9488C95.237 98.6313 95.5094 99.3903 95.6219 100.18C95.7343 100.97 95.6844 101.774 95.4752 102.544C95.2661 103.314 94.9019 104.034 94.4048 104.661C93.9076 105.288 93.2877 105.808 92.5825 106.191C91.5951 106.695 90.5005 106.959 89.3899 106.959C88.2792 106.959 87.1846 106.695 86.1972 106.191V106.232ZM91.716 104.901C92.3958 104.521 92.9591 103.965 93.3459 103.293C93.7379 102.591 93.9435 101.802 93.9435 101C93.9435 100.197 93.7379 99.4082 93.3459 98.7064C92.9618 98.0348 92.3976 97.4819 91.716 97.1093C91.0084 96.7135 90.2072 96.512 89.395 96.5257C88.5767 96.5157 87.7698 96.7168 87.0534 97.1093C86.3689 97.4817 85.8014 98.0344 85.4132 98.7064C85.0213 99.4082 84.8155 100.197 84.8155 101C84.8155 101.802 85.0213 102.591 85.4132 103.293C85.8041 103.966 86.3707 104.521 87.0534 104.901C87.7698 105.293 88.5767 105.494 89.395 105.484C90.2072 105.498 91.0084 105.296 91.716 104.901Z" fill="white"/>
<path d="M112.481 95.3379V106.999H111.098L104.053 98.307V106.999H102.382V95.3379H103.754L110.799 104.03V95.3379H112.481Z" fill="white"/>
<path d="M138.115 105.545V106.999H129.594V95.3379H137.877V96.7917H131.265V100.375H137.155V101.788H131.265V105.545H138.115Z" fill="white"/>
<path d="M145.893 106.599C145.181 106.398 144.52 106.049 143.953 105.576L144.572 104.275C145.076 104.722 145.66 105.069 146.295 105.299C146.987 105.544 147.716 105.668 148.451 105.668C149.209 105.72 149.967 105.549 150.627 105.176C150.852 105.039 151.037 104.846 151.164 104.616C151.29 104.386 151.354 104.128 151.35 103.866C151.368 103.674 151.343 103.48 151.275 103.299C151.207 103.118 151.099 102.954 150.958 102.821C150.679 102.564 150.349 102.368 149.988 102.248C149.596 102.115 149.049 101.972 148.348 101.798C147.623 101.636 146.91 101.427 146.212 101.173C145.669 100.952 145.191 100.6 144.82 100.149C144.409 99.6522 144.203 99.0196 144.242 98.378C144.235 97.7819 144.407 97.1971 144.737 96.6989C145.107 96.1633 145.627 95.7469 146.233 95.5011C147.026 95.1741 147.881 95.0204 148.74 95.0506C149.436 95.0503 150.13 95.1398 150.803 95.3168C151.42 95.4654 152.004 95.7257 152.525 96.0847L151.979 97.4156C151.015 96.8099 149.901 96.4804 148.76 96.4635C148.008 96.4093 147.257 96.592 146.615 96.9856C146.394 97.1309 146.213 97.3288 146.088 97.5613C145.964 97.7937 145.9 98.0534 145.903 98.3166C145.897 98.4978 145.929 98.6781 145.999 98.8458C146.068 99.0135 146.173 99.1646 146.305 99.2892C146.605 99.5525 146.956 99.7513 147.337 99.8728C147.869 100.047 148.409 100.194 148.956 100.313C149.68 100.471 150.39 100.683 151.081 100.948C151.616 101.155 152.093 101.484 152.474 101.91C152.879 102.402 153.085 103.026 153.052 103.661C153.053 104.255 152.877 104.835 152.546 105.33C152.167 105.869 151.636 106.286 151.019 106.528C150.22 106.844 149.363 106.994 148.502 106.968C147.634 106.97 146.77 106.836 145.944 106.569" fill="white"/>
<path d="M121.981 95.3379H120.3V106.989H121.981V95.3379Z" fill="white"/>
<path d="M123.033 90.9152C123.033 91.2878 122.922 91.652 122.714 91.9618C122.505 92.2716 122.208 92.5131 121.862 92.6556C121.515 92.7982 121.133 92.8355 120.765 92.7628C120.397 92.6901 120.059 92.5107 119.793 92.2473C119.528 91.9838 119.347 91.6481 119.274 91.2827C119.2 90.9173 119.238 90.5385 119.382 90.1943C119.525 89.85 119.769 89.5558 120.081 89.3488C120.393 89.1418 120.76 89.0312 121.135 89.0312C121.639 89.0312 122.121 89.2298 122.477 89.5831C122.833 89.9364 123.033 90.4156 123.033 90.9152Z" fill="#DFBF9D"/>
<path d="M116.277 31.6362C116.277 37.8933 114.407 44.0098 110.905 49.2123C107.402 54.4149 102.424 58.4698 96.5994 60.8643C90.775 63.2587 84.366 63.8852 78.1829 62.6645C71.9998 61.4439 66.3201 58.4308 61.8623 54.0064C57.4045 49.582 54.3687 43.9449 53.1388 37.8081C51.9089 31.6713 52.5402 25.3103 54.9527 19.5295C57.3653 13.7488 61.4508 8.80789 66.6926 5.33165C71.9344 1.85542 78.0971 0 84.4014 0C92.8543 0.00271377 100.961 3.33666 106.938 9.26901C112.915 15.2014 116.274 23.2466 116.277 31.6362Z" fill="#E0F2F0"/>
<path d="M59.366 55.3271C59.2783 55.3261 59.1939 55.2933 59.1287 55.235C56.0936 52.3114 53.6685 48.8231 51.9917 44.9692C50.3149 41.1153 49.4193 36.9714 49.3561 32.774C49.2928 28.5766 50.0632 24.408 51.6232 20.5061C53.1832 16.6042 55.5022 13.0455 58.4479 10.0331C61.3936 7.02075 64.9083 4.61372 68.7912 2.94948C72.6742 1.28524 76.8494 0.396396 81.0785 0.33365C85.3075 0.270903 89.5077 1.0355 93.4391 2.5838C97.3704 4.1321 100.956 6.43376 103.991 9.35739C104.023 9.38794 104.048 9.42454 104.065 9.465C104.083 9.50545 104.091 9.54894 104.091 9.59288C104.091 9.63682 104.083 9.68031 104.065 9.72077C104.048 9.76122 104.023 9.79782 103.991 9.82837C103.927 9.88967 103.842 9.92395 103.754 9.92395C103.665 9.92395 103.58 9.88967 103.516 9.82837C100.556 6.91226 97.0427 4.60793 93.179 3.04884C89.3153 1.48976 85.1782 0.706869 81.0076 0.745517C76.8369 0.784164 72.7155 1.64358 68.8818 3.27399C65.0481 4.9044 61.5783 7.27343 58.6735 10.2439C55.7686 13.2144 53.4863 16.7273 51.9587 20.5792C50.4311 24.4311 49.6885 28.5456 49.7741 32.6843C49.8596 36.823 50.7714 40.9037 52.4569 44.6902C54.1423 48.4767 56.5678 51.8938 59.5929 54.7436C59.6547 54.8066 59.6893 54.8911 59.6893 54.979C59.6893 55.067 59.6547 55.1515 59.5929 55.2145C59.5608 55.2473 59.5223 55.2734 59.4797 55.291C59.4372 55.3086 59.3915 55.3174 59.3454 55.3169" fill="#010101"/>
<path d="M100.081 37.6965C99.8865 39.0692 99.494 40.4071 98.9155 41.6689C98.2464 42.9657 97.3118 44.1095 96.1716 45.027C94.8743 46.0434 93.3932 46.8044 91.8081 47.2692C90.2878 47.7166 88.7106 47.9441 87.1249 47.9449C85.4306 47.9445 83.7525 47.6177 82.1838 46.9825C80.5282 46.3156 79.0236 45.327 77.7584 44.0749C76.3622 42.6733 75.2796 40.9953 74.5812 39.1503C73.9355 37.457 73.5562 35.6752 73.4568 33.8673L71.8682 33.6523C71.9454 35.7742 72.3813 37.868 73.1577 39.8465C73.9054 41.7751 75.053 43.5263 76.5261 44.9867C77.9993 46.447 79.7651 47.584 81.7092 48.3237C83.4186 48.9894 85.2371 49.3364 87.0733 49.3476C88.8978 49.3645 90.7141 49.1021 92.458 48.5695C95.7036 47.5075 98.4377 45.2898 100.133 42.3446C100.875 40.8986 101.326 39.3235 101.464 37.7067L100.081 37.6965Z" fill="#010101"/>
<path d="M81.0806 20.444C82.1122 21.8774 82.1844 23.2391 82.1122 25.4608H83.3809C83.4 24.6547 83.3759 23.8481 83.3087 23.0445C83.1792 21.519 82.5444 20.079 81.5035 18.9492C81.0981 19.1445 80.7084 19.3704 80.3379 19.6249C80.5867 19.8785 80.8177 20.1487 81.029 20.4338" fill="#010101"/>
<path d="M64.1838 29.9457C66.3522 31.4474 68.883 32.3518 71.5182 32.5667L76.2736 33.2015C77.8326 33.3345 79.3537 33.7509 80.7609 34.4301C81.7749 34.9397 82.5908 35.7675 83.0819 36.7848C83.5914 37.9709 83.8309 39.2539 83.7834 40.5423C83.8131 41.4906 83.6451 42.4347 83.2901 43.3156C82.9351 44.1965 82.4007 44.9951 81.7203 45.6614C81.9575 45.774 82.2051 45.8969 82.4527 45.989C82.7002 46.0812 82.9581 46.1631 83.216 46.245C83.5713 45.8766 83.886 45.4716 84.1547 45.0369C84.9962 43.64 85.4251 42.0364 85.3926 40.4092C85.4367 38.9105 85.1221 37.4228 84.4745 36.0682C83.8359 34.8469 82.8349 33.8499 81.6068 33.2117C80.0206 32.4135 78.3004 31.9103 76.5315 31.7271L71.7142 31.0924C69.5448 30.8656 67.4525 30.1664 65.5867 29.0447C64.0394 28.0277 63.2658 26.2395 63.2658 23.6799C63.2314 22.7101 63.4197 21.7453 63.8165 20.8584C64.2132 19.9716 64.808 19.1859 65.5558 18.5608C67.4179 17.154 69.7298 16.4631 72.0649 16.6155C73.894 16.5721 75.7136 16.8888 77.4187 17.5472C77.8004 17.2502 78.182 16.9533 78.5946 16.6871C76.5401 15.6982 74.2751 15.217 71.9927 15.2845C70.0564 15.2218 68.129 15.5709 66.3398 16.3083C64.8955 16.9227 63.6676 17.949 62.8119 19.257C61.9884 20.5958 61.5729 22.1426 61.6153 23.7106C61.6153 26.5022 62.4543 28.5499 64.1323 29.8536" fill="#010101"/>
<path d="M78.1716 47.5363C77.1074 47.7884 76.0163 47.9122 74.9222 47.9048C72.5496 48.011 70.1836 47.5841 68.0005 46.6558C66.4192 45.9172 65.1515 44.648 64.421 43.0723C63.6951 41.3597 63.3435 39.5137 63.3894 37.6562H61.9453C61.9777 38.9353 62.1401 40.208 62.4301 41.4547C62.9421 43.2835 63.9189 44.951 65.2669 46.2973C66.4406 47.3144 67.819 48.0718 69.3105 48.5191C71.1362 49.0659 73.0362 49.3283 74.9428 49.2971C76.5869 49.3406 78.2256 49.091 79.7808 48.5601C79.2272 48.2462 78.6901 47.9045 78.1716 47.5363Z" fill="#010101"/>
<path d="M100.133 22.2264C98.4379 19.2812 95.7037 17.0636 92.4581 16.0016C90.7362 15.4522 88.933 15.1961 87.125 15.2439C84.2711 15.2346 81.4784 16.0647 79.0995 17.6295C76.798 19.1334 74.9455 21.2231 73.7354 23.6803C72.7373 25.6873 72.1218 27.8602 71.9199 30.0894L73.4879 30.3044C73.6738 28.337 74.1861 26.4135 75.0042 24.6119C76.0128 22.315 77.6272 20.3307 79.6772 18.8683C81.8568 17.3568 84.4669 16.5782 87.125 16.6466C88.7089 16.5915 90.2911 16.7956 91.8082 17.2507C93.3933 17.7154 94.8744 18.4764 96.1717 19.4928C97.3119 20.4104 98.2465 21.5542 98.9156 22.851C99.3118 23.6711 99.6128 24.5332 99.8131 25.4208H101.113C101.022 24.2853 100.688 23.1822 100.133 22.1855" fill="#010101"/>
</g>
<defs>
<clipPath id="clip0_3360_3186">
<rect width="153" height="107" fill="white"/>
</clipPath>
</defs>
</svg>
