<svg width="150" height="50" viewBox="0 0 150 50" fill="none" xmlns="http://www.w3.org/2000/svg">
<g clip-path="url(#clip0_1496_5248)">
<path d="M43.7608 24.9737C43.7608 29.0937 42.5385 33.1212 40.2484 36.5469C37.9583 39.9726 34.7034 42.6425 30.8951 44.2192C27.0868 45.7959 22.8964 46.2083 18.8535 45.4046C14.8107 44.6008 11.0972 42.6169 8.18242 39.7036C5.26771 36.7903 3.28277 33.0786 2.4786 29.0377C1.67443 24.9969 2.08715 20.8084 3.66457 17.002C5.242 13.1956 7.9133 9.94218 11.3407 7.65323C14.768 5.36427 18.7974 4.14258 22.9195 4.14258C28.4469 4.14258 33.748 6.33724 37.6565 10.2439C41.565 14.1505 43.7608 19.449 43.7608 24.9737Z" fill="#E0F2F0"/>
<path d="M6.54589 40.6069C6.51732 40.6075 6.48897 40.6019 6.46277 40.5905C6.43657 40.5791 6.41315 40.5622 6.39411 40.5409C4.35388 38.6286 2.71507 36.3293 1.57332 33.7772C0.431569 31.2251 -0.190261 28.4714 -0.255914 25.6765C-0.321567 22.8817 0.17028 20.1017 1.19094 17.4988C2.21159 14.896 3.74061 12.5224 5.6888 10.5165C7.63699 8.5106 9.96535 6.9125 12.538 5.81553C15.1106 4.71855 17.8761 4.14461 20.673 4.12724C23.4699 4.10986 26.2423 4.64939 28.8284 5.71431C31.4145 6.77924 33.7626 8.34831 35.7356 10.3299C35.7675 10.3727 35.7831 10.4256 35.7795 10.4789C35.7759 10.5323 35.7534 10.5825 35.7159 10.6207C35.6785 10.6589 35.6287 10.6825 35.5754 10.6872C35.5222 10.6919 35.4689 10.6775 35.4254 10.6465C33.4915 8.71683 31.1933 7.19054 28.6642 6.15629C26.1351 5.12204 23.4256 4.60041 20.6931 4.6218C17.9606 4.64319 15.2596 5.20714 12.747 6.28086C10.2344 7.35458 7.96046 8.91667 6.05709 10.8764C4.15371 12.8361 2.65896 15.1543 1.65966 17.6964C0.660362 20.2384 0.176448 22.9536 0.23605 25.6842C0.295652 28.4148 0.897567 31.1064 2.00684 33.6025C3.1161 36.0986 4.71061 38.3494 6.69768 40.2243C6.7396 40.2663 6.76312 40.3233 6.76312 40.3826C6.76312 40.4419 6.7396 40.4989 6.69768 40.5409C6.65461 40.5813 6.59834 40.6047 6.5393 40.6069" fill="#010101"/>
<path d="M33.1554 28.9907C33.0364 29.9033 32.7806 30.7928 32.3965 31.6293C31.9563 32.4831 31.3453 33.2375 30.6014 33.8456C29.7483 34.5103 28.7794 35.0113 27.7438 35.3232C26.749 35.6138 25.7181 35.7626 24.6816 35.7652C23.5734 35.7557 22.4774 35.5317 21.4544 35.1055C20.3719 34.6658 19.389 34.013 18.5639 33.186C17.6502 32.2611 16.9399 31.1558 16.4784 29.9406C16.0587 28.8262 15.8138 27.6536 15.7525 26.4644L14.7031 26.3193C14.7559 27.7184 15.0437 29.0986 15.5545 30.4024C16.2718 32.2335 17.5215 33.8079 19.1424 34.9225C20.7633 36.0371 22.6812 36.6407 24.6486 36.6556C25.8449 36.6649 27.0355 36.4915 28.1794 36.1412C29.2759 35.7866 30.2918 35.2195 31.1689 34.4723C31.9885 33.7926 32.6754 32.9674 33.195 32.0382C33.6791 31.0856 33.9749 30.0487 34.0662 28.9841L33.1554 28.9907Z" fill="#010101"/>
<path d="M20.7409 17.6319C21.4339 18.5751 21.4669 19.4788 21.4537 20.93H22.2852C22.2852 20.2704 22.2852 19.8944 22.239 19.3403C22.1816 18.5391 21.9029 17.7696 21.4339 17.1173C21.3175 16.9542 21.1919 16.7979 21.0577 16.649C20.7945 16.7781 20.5409 16.9258 20.2988 17.091C20.4564 17.2603 20.6041 17.4387 20.7409 17.6252" fill="#010101"/>
<path d="M9.69297 23.8853C11.11 24.8776 12.7662 25.4741 14.4908 25.6135L17.5992 26.0357C18.6193 26.1212 19.6148 26.394 20.536 26.8404C21.1991 27.1787 21.7325 27.7258 22.0538 28.3971C22.388 29.1777 22.5457 30.0223 22.5158 30.8707C22.5403 31.4942 22.4357 32.116 22.2085 32.6971C21.9814 33.2783 21.6367 33.8063 21.1959 34.2481C21.3543 34.3273 21.5127 34.4064 21.6777 34.4724C21.8427 34.5383 22.0076 34.5845 22.1792 34.6373C22.4074 34.3926 22.6128 34.1276 22.793 33.8457C23.3396 32.922 23.6184 31.8645 23.5981 30.7916C23.628 29.806 23.4244 28.8274 23.0042 27.9354C22.5797 27.1346 21.9245 26.4797 21.1233 26.0555C20.0928 25.5301 18.9741 25.1992 17.8235 25.0792L14.6756 24.6571C13.2571 24.5183 11.8869 24.0678 10.6631 23.3378C9.65557 22.6738 9.1496 21.4974 9.1452 19.8088C9.12594 19.1725 9.25066 18.5401 9.51006 17.9587C9.76945 17.3774 10.1568 16.862 10.6433 16.4512C11.6398 15.5937 13.0587 15.1716 14.9066 15.1716C16.1017 15.1408 17.291 15.3493 18.4043 15.785C18.6551 15.5871 18.9059 15.3958 19.1699 15.2177C17.8269 14.5659 16.346 14.2491 14.8538 14.2943C13.5869 14.2506 12.3251 14.4754 11.1514 14.9539C10.207 15.3557 9.40478 16.0312 8.84823 16.8932C8.30613 17.7747 8.03106 18.7941 8.05628 19.8285C8.05628 21.6689 8.61064 23.0277 9.70616 23.8919" fill="#010101"/>
<path d="M18.8479 35.5277C18.1522 35.6957 17.4385 35.7776 16.7228 35.7718C15.1708 35.8428 13.6228 35.5609 12.1955 34.9472C11.1605 34.4608 10.3307 33.6244 9.85275 32.5858C9.36926 31.4594 9.13298 30.2425 9.1598 29.0172H8.22266C8.2398 29.8615 8.34599 30.7017 8.53945 31.5238C8.8773 32.7262 9.51281 33.8242 10.3873 34.7164C11.1546 35.3828 12.0542 35.8795 13.0271 36.1741C14.2206 36.535 15.4629 36.7086 16.7096 36.6887C17.79 36.7087 18.8653 36.5344 19.884 36.1741C19.5221 35.9742 19.1717 35.754 18.8347 35.5145" fill="#010101"/>
<path d="M33.2089 18.8061C32.6837 17.8865 31.9949 17.0706 31.1763 16.3985C30.3021 15.647 29.2853 15.0794 28.1867 14.7296C27.0593 14.368 25.8791 14.1985 24.6955 14.2282C22.8302 14.2173 21.0038 14.7615 19.4489 15.7916C17.9461 16.7739 16.7338 18.1405 15.938 19.7493C15.2846 21.0712 14.8818 22.5025 14.75 23.971L15.7796 24.1095C15.9 22.8152 16.2322 21.5495 16.7629 20.3628C17.4304 18.8593 18.4876 17.5613 19.8251 16.603C21.2515 15.6098 22.9576 15.0968 24.6955 15.1385C25.7292 15.1048 26.7615 15.2407 27.7511 15.5409C28.789 15.8473 29.7589 16.3487 30.6087 17.0185C31.3535 17.6248 31.9666 18.3768 32.4104 19.2283C32.6663 19.7701 32.8611 20.3386 32.9911 20.9235H33.8425C33.7769 20.1744 33.5519 19.448 33.1825 18.7929" fill="#010101"/>
<path d="M51.3238 22.1569C50.8592 22.0298 50.4271 21.8049 50.0566 21.4972L50.4592 20.6398C50.7863 20.9311 51.1675 21.1552 51.5811 21.2994C52.0339 21.464 52.5117 21.5488 52.9934 21.55C53.4899 21.5823 53.985 21.4699 54.4189 21.2268C54.5664 21.1363 54.6877 21.0092 54.771 20.8576C54.8543 20.7061 54.8967 20.5355 54.8941 20.3627C54.9015 20.2407 54.8824 20.1185 54.8379 20.0046C54.7935 19.8907 54.7248 19.7878 54.6367 19.703C54.4476 19.53 54.2221 19.4015 53.9768 19.327C53.6267 19.2066 53.2697 19.1075 52.9076 19.0302C52.4326 18.9228 51.9652 18.784 51.5085 18.6146C51.1547 18.4741 50.8416 18.2473 50.5978 17.955C50.3316 17.6261 50.1975 17.2098 50.2216 16.7875C50.2168 16.3941 50.3294 16.0084 50.545 15.6793C50.7917 15.3298 51.1327 15.0575 51.5283 14.8943C52.0447 14.6816 52.6002 14.5805 53.1584 14.5975C53.6038 14.5997 54.0472 14.6573 54.4783 14.769C54.8814 14.871 55.2633 15.0429 55.6068 15.277L55.2439 16.1542C54.6153 15.7511 53.8855 15.5339 53.1386 15.5276C52.6478 15.4918 52.1581 15.6118 51.7395 15.8706C51.5948 15.9661 51.4766 16.0966 51.3959 16.25C51.3151 16.4033 51.2744 16.5746 51.2776 16.7479C51.2696 16.8706 51.2892 16.9935 51.3348 17.1076C51.3805 17.2217 51.4511 17.3242 51.5415 17.4075C51.731 17.5815 51.9563 17.7121 52.2015 17.7901C52.5471 17.9085 52.8998 18.0055 53.2574 18.0804C53.7306 18.1868 54.1959 18.3256 54.6499 18.496C54.9998 18.6403 55.3099 18.8665 55.5541 19.1556C55.8202 19.4772 55.9567 19.8865 55.9368 20.3033C55.9383 20.6951 55.8235 21.0784 55.6068 21.4049C55.3586 21.7625 55.0094 22.0381 54.6037 22.1965C54.0814 22.4038 53.5222 22.5025 52.9604 22.4867C52.3926 22.4908 51.8282 22.3993 51.2908 22.2162" fill="white"/>
<path d="M73.5779 22.3417L73.5647 16.748L70.7929 21.405H70.2847L67.5129 16.781V22.3417H66.457V14.6636H67.3545L70.5619 20.0594L73.7165 14.6636H74.6206L74.6272 22.3417H73.5779Z" fill="white"/>
<path d="M85.0214 15.3759C85.2977 15.6263 85.5184 15.9317 85.6695 16.2726C85.8206 16.6134 85.8987 16.982 85.8987 17.3548C85.8987 17.7275 85.8206 18.0962 85.6695 18.4371C85.5184 18.7779 85.2977 19.0832 85.0214 19.3337C84.3474 19.8418 83.5148 20.0943 82.672 20.0461H80.7779V22.335H79.6758V14.6569H82.6522C83.495 14.6087 84.3276 14.8612 85.0016 15.3693L85.0214 15.3759ZM84.2097 18.6081C84.3951 18.4543 84.5415 18.2587 84.6367 18.0374C84.732 17.8161 84.7733 17.5754 84.7574 17.335C84.7728 17.0938 84.7312 16.8522 84.636 16.6299C84.5409 16.4076 84.3949 16.2108 84.2097 16.0553C83.746 15.7299 83.1844 15.5739 82.6192 15.6134H80.7581V19.0369H82.6522C83.2182 19.0744 83.7798 18.916 84.2427 18.5883" fill="white"/>
<path d="M90.2285 14.6636H91.3306V21.3852H95.4883V22.3417H90.2285V14.6636Z" fill="white"/>
<path d="M105.063 21.3852V22.3417H99.4863V14.6636H104.911V15.62H100.588V17.9749H104.436V18.905H100.588V21.3852H105.063Z" fill="white"/>
<path d="M51.5818 35.6992C50.9773 35.3739 50.4747 34.8876 50.1299 34.2942C49.7836 33.6802 49.6016 32.9872 49.6016 32.2823C49.6016 31.5774 49.7836 30.8845 50.1299 30.2705C50.4792 29.6783 50.9835 29.1925 51.5884 28.8654C52.2297 28.5233 52.947 28.3486 53.6739 28.3575C54.2363 28.3493 54.7948 28.4524 55.3172 28.6609C55.8066 28.8521 56.2433 29.1574 56.5909 29.5514L55.8781 30.211C55.6037 29.9149 55.2693 29.6806 54.8972 29.5236C54.5251 29.3667 54.1238 29.2907 53.7201 29.3008C53.1787 29.2917 52.6442 29.4236 52.1692 29.6834C51.7178 29.9292 51.345 30.2973 51.0935 30.7454C50.8381 31.2067 50.7041 31.7254 50.7041 32.2526C50.7041 32.7799 50.8381 33.2985 51.0935 33.7598C51.3471 34.2046 51.7195 34.5702 52.1692 34.8153C52.6442 35.0751 53.1787 35.207 53.7201 35.1979C54.1242 35.2063 54.5255 35.1289 54.8975 34.9709C55.2695 34.8128 55.6038 34.5777 55.8781 34.281L56.5909 34.9406C56.2406 35.3331 55.8048 35.64 55.3172 35.8377C54.79 36.0456 54.2273 36.1487 53.6607 36.1412C52.9356 36.1534 52.2196 35.9784 51.5818 35.6333" fill="white"/>
<path d="M66.0473 35.2573V36.2071H60.4707V28.5356H65.8889V29.4855H61.5662V31.847H65.4203V32.7771H61.5662V35.2573H66.0473Z" fill="white"/>
<path d="M75.695 36.1873L74.0385 33.8325H73.5567H71.6627V36.1873H70.5605V28.5356H73.5567C74.3996 28.4869 75.2324 28.7393 75.9062 29.248C76.1936 29.4881 76.421 29.7921 76.5699 30.1357C76.7189 30.4793 76.7854 30.853 76.7641 31.2269C76.7814 31.7667 76.6266 32.298 76.3219 32.7441C76.014 33.1727 75.5769 33.4917 75.0746 33.6543L76.8961 36.2269L75.695 36.1873ZM75.1142 32.4736C75.3042 32.3133 75.4531 32.11 75.5484 31.8805C75.6437 31.6509 75.6826 31.402 75.662 31.1543C75.6773 30.914 75.6357 30.6735 75.5405 30.4523C75.4453 30.231 75.2993 30.0354 75.1142 29.8812C74.6518 29.5525 74.0898 29.394 73.5237 29.4327H71.6627V32.8892H73.5237C74.0898 32.9278 74.6518 32.7693 75.1142 32.4406" fill="white"/>
<path d="M86.8552 35.2573V36.2071H81.2852V28.5356H86.7034V29.4855H82.3807V31.847H86.2282V32.7771H82.3807V35.2573H86.8552Z" fill="white"/>
<path d="M98.4979 36.2071L98.4847 30.6135L95.7129 35.2771H95.2047L92.4329 30.6465V36.2071H91.377V28.5356H92.2745L95.4819 33.9248L98.6431 28.5356H99.5406L99.5538 36.2071H98.4979Z" fill="white"/>
<path d="M105.968 35.6992C105.361 35.3723 104.854 34.8867 104.503 34.2942C104.157 33.6812 103.975 32.9893 103.975 32.2856C103.975 31.5819 104.157 30.8901 104.503 30.2771C104.854 29.6826 105.36 29.1947 105.968 28.8655C106.614 28.5317 107.332 28.3575 108.06 28.3575C108.788 28.3575 109.505 28.5317 110.152 28.8655C110.757 29.1925 111.261 29.6783 111.61 30.2705C111.957 30.8845 112.139 31.5774 112.139 32.2823C112.139 32.9872 111.957 33.6802 111.61 34.2942C111.265 34.8894 110.76 35.3761 110.152 35.6992C109.505 36.033 108.788 36.2072 108.06 36.2072C107.332 36.2072 106.614 36.033 105.968 35.6992ZM109.584 34.8483C110.029 34.6009 110.396 34.2357 110.647 33.7929C110.902 33.3315 111.036 32.8129 111.036 32.2856C111.036 31.7583 110.902 31.2398 110.647 30.7784C110.397 30.3338 110.029 29.9664 109.584 29.7163C109.121 29.4566 108.597 29.3246 108.066 29.3338C107.531 29.3248 107.003 29.4567 106.535 29.7163C106.085 29.9639 105.713 30.3316 105.459 30.7784C105.204 31.2398 105.07 31.7583 105.07 32.2856C105.07 32.8129 105.204 33.3315 105.459 33.7929C105.713 34.2377 106.086 34.6031 106.535 34.8483C107.003 35.1079 107.531 35.2399 108.066 35.2309C108.597 35.2401 109.121 35.108 109.584 34.8483Z" fill="white"/>
<path d="M123.16 28.5356V36.2071H122.263L117.656 30.4816V36.2071H116.561V28.5356H117.458L122.065 34.2546V28.5356H123.16Z" fill="white"/>
<path d="M139.929 35.2573V36.2071H134.352V28.5356H139.77V29.4855H135.448V31.847H139.302V32.7771H135.448V35.2573H139.929Z" fill="white"/>
<path d="M145.009 35.9433C144.543 35.8011 144.111 35.5629 143.742 35.244L144.152 34.3866C144.479 34.6777 144.86 34.9019 145.273 35.0462C145.726 35.2097 146.204 35.2923 146.686 35.2903C147.182 35.3248 147.678 35.2124 148.111 34.9671C148.256 34.8759 148.375 34.7492 148.457 34.5992C148.539 34.4491 148.581 34.2805 148.58 34.1095C148.586 33.9876 148.567 33.8657 148.522 33.7519C148.478 33.6381 148.41 33.5352 148.322 33.4499C148.134 33.2761 147.908 33.1476 147.663 33.0739C147.403 32.9904 147.047 32.8914 146.593 32.777C146.118 32.6706 145.651 32.5318 145.194 32.3615C144.841 32.219 144.529 31.9926 144.284 31.7018C144.014 31.3742 143.878 30.9577 143.901 30.5344C143.898 30.1414 144.011 29.7562 144.224 29.4261C144.47 29.0742 144.811 28.7996 145.207 28.6346C145.726 28.421 146.284 28.3197 146.844 28.3377C147.29 28.3393 147.734 28.3992 148.164 28.5158C148.567 28.6154 148.949 28.7851 149.293 29.0172L148.93 29.8945C148.609 29.6933 148.263 29.5359 147.9 29.4261C147.551 29.3233 147.189 29.2701 146.824 29.2678C146.334 29.2356 145.845 29.3554 145.425 29.6109C145.28 29.7065 145.161 29.8368 145.08 29.99C144.998 30.1432 144.955 30.3145 144.957 30.4881C144.951 30.6106 144.971 30.7329 145.017 30.8468C145.062 30.9606 145.132 31.0633 145.221 31.1478C145.41 31.3214 145.636 31.4519 145.881 31.5303C146.227 31.6479 146.579 31.7448 146.937 31.8206C147.411 31.9328 147.878 32.0738 148.336 32.2428C148.686 32.3864 148.996 32.6127 149.24 32.9024C149.505 33.2267 149.639 33.6385 149.616 34.0568C149.617 34.4485 149.503 34.8318 149.286 35.1583C149.039 35.5133 148.692 35.7866 148.289 35.9433C147.768 36.1526 147.208 36.2514 146.646 36.2335C146.077 36.2365 145.511 36.1474 144.97 35.9697" fill="white"/>
<path d="M61.408 14.6636H60.3125V22.3417H61.408V14.6636Z" fill="white"/>
<path d="M62.1079 11.781C62.1079 12.0276 62.0347 12.2686 61.8976 12.4737C61.7606 12.6787 61.5658 12.8384 61.3379 12.9328C61.11 13.0271 60.8591 13.0518 60.6172 13.0037C60.3752 12.9556 60.153 12.8369 59.9785 12.6626C59.8041 12.4882 59.6853 12.2661 59.6372 12.0243C59.5891 11.7824 59.6138 11.5317 59.7082 11.3039C59.8026 11.0761 59.9624 10.8814 60.1676 10.7444C60.3727 10.6074 60.6139 10.5343 60.8605 10.5343C61.1914 10.5343 61.5086 10.6657 61.7425 10.8995C61.9764 11.1333 62.1079 11.4504 62.1079 11.781Z" fill="#67C8C8"/>
<path d="M129.369 28.5356H128.273V36.2137H129.369V28.5356Z" fill="white"/>
<path d="M130.063 25.6333C130.064 25.8804 129.992 26.1224 129.855 26.3284C129.719 26.5344 129.524 26.6952 129.296 26.7903C129.067 26.8855 128.816 26.9108 128.573 26.8629C128.331 26.815 128.108 26.6962 127.933 26.5214C127.758 26.3467 127.639 26.1239 127.592 25.8814C127.544 25.639 127.569 25.3878 127.664 25.1597C127.759 24.9316 127.92 24.737 128.126 24.6005C128.332 24.464 128.575 24.3918 128.822 24.3931C129.15 24.3949 129.465 24.5261 129.697 24.7583C129.93 24.9905 130.061 25.3049 130.063 25.6333Z" fill="#DFBF9D"/>
</g>
<defs>
<clipPath id="clip0_1496_5248">
<rect width="150" height="50" fill="white"/>
</clipPath>
</defs>
</svg>
