<svg width="7" height="8" viewBox="0 0 7 8" fill="none" xmlns="http://www.w3.org/2000/svg">
<path d="M3.17858 0.0845931C1.5308 0.256813 0.289426 1.84286 0.43224 3.49375C0.620703 5.65509 2.60974 7.27025 3.29224 7.7609C3.42877 7.8584 3.60753 7.85514 3.7407 7.75118C4.44917 7.19868 6.6202 5.32668 6.6202 3.16218C6.61694 1.34219 5.04395 -0.113813 3.17855 0.0845293L3.17858 0.0845931ZM3.51983 4.39409C2.8406 4.39409 2.2881 3.84486 2.2881 3.16236C2.2881 2.47979 2.83733 1.93382 3.51983 1.93382C4.20233 1.93382 4.75156 2.48305 4.75156 3.16555C4.75156 3.84805 4.19906 4.39409 3.51983 4.39409Z" fill="#62CBC9"/>
</svg>
