<svg width="227" height="76" viewBox="0 0 227 76" fill="none" xmlns="http://www.w3.org/2000/svg">
<g clip-path="url(#clip0_5602_5673)">
<path d="M9.92075 61.5601C9.87747 61.561 9.83451 61.5525 9.79481 61.5353C9.7551 61.518 9.71962 61.4924 9.69077 61.4601C6.59929 58.561 4.11607 55.0753 2.38602 51.2063C0.655979 47.3373 -0.286255 43.1627 -0.385736 38.9257C-0.485217 34.6887 0.260059 30.4742 1.80662 26.5283C3.35317 22.5824 5.67003 18.9841 8.62205 15.9431C11.5741 12.9021 15.1021 10.4794 19.0004 8.81641C22.8986 7.1534 27.089 6.2833 31.3271 6.25696C35.5652 6.23062 39.766 7.04854 43.6847 8.66297C47.6033 10.2774 51.1612 12.6561 54.1508 15.6602C54.1992 15.7251 54.2228 15.8053 54.2174 15.8861C54.2119 15.967 54.1777 16.0432 54.121 16.1011C54.0643 16.159 53.9888 16.1948 53.9081 16.2019C53.8274 16.2091 53.7468 16.1872 53.6808 16.1401C50.7505 13.2148 47.268 10.9009 43.4358 9.33301C39.6036 7.76509 35.498 6.97429 31.3575 7.00672C27.2171 7.03915 23.1243 7.8941 19.3171 9.52186C15.5099 11.1496 12.0642 13.5177 9.18009 16.4887C6.29598 19.4596 4.03104 22.974 2.51685 26.8278C1.00266 30.6815 0.269404 34.7978 0.359717 38.9374C0.45003 43.077 1.36209 47.1573 3.04291 50.9414C4.72374 54.7255 7.13983 58.1378 10.1508 60.9801C10.2143 61.0438 10.2499 61.1301 10.2499 61.2201C10.2499 61.3101 10.2143 61.3964 10.1508 61.4601C10.0855 61.5214 10.0002 61.5569 9.91077 61.5601" fill="white"/>
<path d="M50.2393 43.9498C50.059 45.3334 49.6713 46.6818 49.0893 47.9498C48.4223 49.2443 47.4965 50.3879 46.3693 51.3098C45.0767 52.3175 43.6086 53.0769 42.0393 53.5498C40.5318 53.9903 38.9698 54.2159 37.3993 54.2198C35.72 54.2055 34.0594 53.8659 32.5093 53.2198C30.869 52.5532 29.3795 51.5635 28.1293 50.3098C26.7449 48.9077 25.6686 47.232 24.9693 45.3899C24.3333 43.7004 23.9623 41.9227 23.8693 40.1199L22.2793 39.8999C22.3592 42.021 22.7953 44.1134 23.5693 46.0898C24.6562 48.8659 26.5498 51.2527 29.006 52.9424C31.4621 54.6321 34.3681 55.5472 37.3493 55.5698C39.1619 55.5839 40.9661 55.321 42.6993 54.7899C44.3608 54.2524 45.9002 53.3927 47.2293 52.2599C48.4711 51.2295 49.512 49.9784 50.2993 48.5698C51.0328 47.1257 51.481 45.5537 51.6193 43.9398L50.2393 43.9498Z" fill="white"/>
<path d="M31.4298 26.7302C32.4798 28.1602 32.5298 29.5302 32.5098 31.7302H33.7698C33.7698 30.7302 33.7698 30.1602 33.6998 29.3202C33.6128 28.1056 33.1904 26.939 32.4798 25.9502C32.3034 25.7029 32.1131 25.4659 31.9098 25.2402C31.511 25.4359 31.1267 25.6599 30.7598 25.9103C30.9987 26.167 31.2224 26.4374 31.4298 26.7202" fill="white"/>
<path d="M14.6895 36.2101C16.8367 37.7145 19.3462 38.6189 21.9594 38.8301L26.6694 39.4701C28.2151 39.5999 29.7237 40.0134 31.1194 40.6901C32.1243 41.203 32.9326 42.0323 33.4194 43.0501C33.9257 44.2334 34.1648 45.5138 34.1194 46.8001C34.1565 47.7452 33.998 48.6879 33.6538 49.5689C33.3097 50.4499 32.7873 51.2504 32.1194 51.9202C32.3594 52.0402 32.5994 52.1602 32.8494 52.2602C33.0994 52.3602 33.3494 52.4302 33.6094 52.5102C33.9552 52.1392 34.2665 51.7375 34.5394 51.3101C35.3677 49.9098 35.7901 48.3067 35.7594 46.6801C35.8046 45.186 35.4963 43.7025 34.8594 42.3501C34.2162 41.1362 33.2234 40.1434 32.0094 39.5002C30.4479 38.7037 28.7529 38.202 27.0094 38.0202L22.2394 37.3802C20.0901 37.1698 18.0139 36.4868 16.1595 35.3802C14.6328 34.3735 13.8661 32.5902 13.8594 30.0302C13.8303 29.0656 14.0192 28.1068 14.4123 27.2255C14.8053 26.3442 15.3923 25.5629 16.1295 24.9401C17.6395 23.6401 19.7894 23.0002 22.5894 23.0002C24.4005 22.9535 26.2025 23.2697 27.8894 23.9301C28.2694 23.6301 28.6494 23.3401 29.0494 23.0701C27.0146 22.0819 24.7705 21.6017 22.5094 21.6702C20.5898 21.6039 18.6779 21.9447 16.8994 22.6702C15.4684 23.2793 14.2528 24.3033 13.4095 25.6102C12.588 26.9464 12.1712 28.492 12.2094 30.0601C12.2094 32.8501 13.0494 34.9101 14.7094 36.2201" fill="white"/>
<path d="M28.5609 53.8602C27.5068 54.1149 26.4254 54.2391 25.3409 54.2302C22.9892 54.3379 20.6436 53.9105 18.4809 52.9802C16.9125 52.2428 15.6552 50.9748 14.9309 49.4003C14.1983 47.6927 13.8403 45.8479 13.881 43.9902H12.4609C12.4869 45.2703 12.6478 46.544 12.9409 47.7903C13.4529 49.6132 14.4158 51.2777 15.7409 52.6302C16.9037 53.6405 18.2668 54.3936 19.7409 54.8402C21.5494 55.3873 23.4318 55.6505 25.3209 55.6202C26.958 55.6506 28.5873 55.3864 30.131 54.8402C29.5825 54.5372 29.0516 54.2033 28.5409 53.8402" fill="white"/>
<path d="M50.3196 28.51C49.5238 27.116 48.48 25.879 47.2396 24.86C45.915 23.7209 44.3743 22.8604 42.7096 22.33C41.0014 21.7819 39.2131 21.5249 37.4196 21.57C34.5931 21.5535 31.8257 22.3785 29.4696 23.94C27.1925 25.4292 25.3556 27.5009 24.1496 29.94C23.1596 31.9439 22.5493 34.1138 22.3496 36.34L23.9096 36.55C24.092 34.5878 24.5954 32.669 25.3996 30.87C26.4111 28.5907 28.0129 26.6229 30.0396 25.1701C32.2011 23.6644 34.7862 22.8867 37.4196 22.95C38.9859 22.8988 40.55 23.1048 42.0496 23.56C43.6223 24.0244 45.0919 24.7847 46.3796 25.8C47.5082 26.7191 48.4372 27.8592 49.1096 29.1501C49.4974 29.9714 49.7926 30.8333 49.9896 31.72H51.2796C51.1802 30.5844 50.8393 29.4831 50.2796 28.49" fill="white"/>
<path d="M77.7696 33.5902C77.0657 33.3975 76.411 33.0566 75.8496 32.5902L76.4596 31.2903C76.9552 31.7319 77.5329 32.0717 78.1596 32.2903C78.8456 32.5398 79.5697 32.6683 80.2996 32.6703C81.0518 32.7191 81.8021 32.5488 82.4596 32.1802C82.683 32.0431 82.8669 31.8503 82.9931 31.6206C83.1193 31.3909 83.1836 31.1323 83.1796 30.8702C83.1909 30.6853 83.1618 30.5 83.0945 30.3274C83.0272 30.1547 82.9231 29.9988 82.7896 29.8702C82.5031 29.6079 82.1613 29.4131 81.7896 29.3002C81.2592 29.1177 80.7182 28.9675 80.1696 28.8502C79.4498 28.6874 78.7415 28.477 78.0496 28.2202C77.5134 28.0072 77.039 27.6634 76.6696 27.2202C76.2662 26.7216 76.063 26.0905 76.0996 25.4502C76.0923 24.8539 76.263 24.2691 76.5896 23.7703C76.9634 23.2404 77.4802 22.8276 78.0796 22.5802C78.862 22.2577 79.7038 22.1044 80.5496 22.1302C81.2245 22.1336 81.8963 22.2209 82.5496 22.3903C83.1603 22.5448 83.7391 22.8055 84.2596 23.1603L83.7096 24.4902C82.7572 23.8791 81.6513 23.5498 80.5196 23.5403C79.7758 23.486 79.0339 23.6679 78.3996 24.0602C78.1804 24.205 78.0013 24.4029 77.8789 24.6354C77.7565 24.8679 77.6949 25.1276 77.6996 25.3903C77.6875 25.5762 77.7172 25.7625 77.7864 25.9355C77.8556 26.1086 77.9626 26.2639 78.0996 26.3903C78.3868 26.654 78.7281 26.8519 79.0996 26.9702C79.6234 27.1497 80.1577 27.2967 80.6996 27.4103C81.4166 27.5716 82.1216 27.7821 82.8096 28.0403C83.3398 28.2591 83.8097 28.602 84.1796 29.0403C84.5829 29.5278 84.7897 30.1483 84.7596 30.7803C84.7619 31.3742 84.5879 31.9553 84.2596 32.4502C83.8835 32.9924 83.3543 33.4102 82.7396 33.6503C81.9481 33.9645 81.1009 34.1142 80.2496 34.0902C79.3893 34.0964 78.534 33.9578 77.7196 33.6802" fill="white"/>
<path d="M111.489 33.87L111.469 25.39L107.269 32.45H106.499L102.299 25.44V33.87H100.699V22.23H102.059L106.919 30.41L111.699 22.23H113.069L113.079 33.87H111.489Z" fill="white"/>
<path d="M128.83 23.3102C129.249 23.6898 129.584 24.1529 129.813 24.6696C130.041 25.1863 130.16 25.7451 130.16 26.3102C130.16 26.8753 130.041 27.4343 129.813 27.951C129.584 28.4676 129.249 28.9306 128.83 29.3102C127.809 30.0805 126.548 30.4633 125.27 30.3903H122.4V33.8603H120.73V22.2202H125.24C126.518 22.1472 127.779 22.5299 128.8 23.3002L128.83 23.3102ZM127.6 28.2102C127.882 27.977 128.103 27.6806 128.248 27.3451C128.392 27.0096 128.455 26.6447 128.43 26.2803C128.454 25.9145 128.391 25.5483 128.247 25.2113C128.102 24.8744 127.881 24.576 127.6 24.3402C126.898 23.8469 126.047 23.6104 125.19 23.6703H122.37V28.8603H125.24C126.098 28.9172 126.949 28.6771 127.65 28.1802" fill="white"/>
<path d="M136.721 22.23H138.391V32.42H144.691V33.87H136.721V22.23Z" fill="white"/>
<path d="M159.2 32.42V33.87H150.75V22.23H158.97V23.68H152.42V27.25H158.25V28.66H152.42V32.42H159.2Z" fill="white"/>
<path d="M78.1608 54.1199C77.2447 53.6268 76.4832 52.8896 75.9608 51.9899C75.4359 51.0591 75.1602 50.0085 75.1602 48.9399C75.1602 47.8713 75.4359 46.8208 75.9608 45.89C76.49 44.9922 77.2541 44.2558 78.1707 43.76C79.1424 43.2413 80.2294 42.9764 81.3307 42.9899C82.183 42.9775 83.0292 43.1338 83.8207 43.4499C84.5624 43.7398 85.2241 44.2026 85.7508 44.7999L84.6707 45.7999C84.2549 45.3509 83.7482 44.9957 83.1844 44.7578C82.6206 44.5198 82.0125 44.4047 81.4008 44.42C80.5804 44.4062 79.7705 44.6061 79.0508 45C78.3668 45.3726 77.8018 45.9306 77.4207 46.6099C77.0338 47.3094 76.8308 48.0956 76.8308 48.895C76.8308 49.6943 77.0338 50.4805 77.4207 51.1799C77.805 51.8542 78.3694 52.4083 79.0508 52.78C79.7705 53.1739 80.5804 53.3737 81.4008 53.3599C82.0131 53.3727 82.6212 53.2554 83.1849 53.0158C83.7486 52.7762 84.255 52.4197 84.6707 51.9699L85.7508 52.9699C85.22 53.565 84.5597 54.0302 83.8207 54.3299C83.022 54.6451 82.1694 54.8014 81.3108 54.79C80.212 54.8085 79.1271 54.5432 78.1608 54.02" fill="white"/>
<path d="M100.081 53.4498V54.8898H91.6309V43.2598H99.8409V44.6998H93.2909V48.2798H99.1309V49.6898H93.2909V53.4498H100.081Z" fill="white"/>
<path d="M114.7 54.86L112.19 51.29H111.46H108.59V54.86H106.92V43.26H111.46C112.737 43.1861 113.999 43.5688 115.02 44.3399C115.456 44.704 115.8 45.1649 116.026 45.6858C116.251 46.2067 116.352 46.7732 116.32 47.3399C116.346 48.1583 116.112 48.9638 115.65 49.64C115.183 50.2898 114.521 50.7734 113.76 51.02L116.52 54.92L114.7 54.86ZM113.82 49.23C114.108 48.987 114.333 48.6787 114.478 48.3308C114.622 47.9828 114.681 47.6054 114.65 47.23C114.673 46.8656 114.61 46.501 114.466 46.1656C114.322 45.8303 114.1 45.5336 113.82 45.2999C113.119 44.8015 112.268 44.5613 111.41 44.62H108.59V49.86H111.41C112.268 49.9186 113.119 49.6783 113.82 49.1799" fill="white"/>
<path d="M131.61 53.4498V54.8898H123.17V43.2598H131.38V44.6998H124.83V48.2798H130.66V49.6898H124.83V53.4498H131.61Z" fill="white"/>
<path d="M149.251 54.8898L149.231 46.4098L145.031 53.4798H144.261L140.061 46.4598V54.8898H138.461V43.2598H139.821L144.681 51.4298L149.471 43.2598H150.831L150.851 54.8898H149.251Z" fill="white"/>
<path d="M160.57 54.1202C159.651 53.6247 158.883 52.8884 158.35 51.9902C157.826 51.0609 157.551 50.0121 157.551 48.9452C157.551 47.8783 157.826 46.8296 158.35 45.9003C158.883 44.9991 159.65 44.2594 160.57 43.7603C161.55 43.2543 162.637 42.9902 163.74 42.9902C164.843 42.9902 165.93 43.2543 166.91 43.7603C167.827 44.2561 168.591 44.9925 169.12 45.8903C169.645 46.8211 169.921 47.8716 169.921 48.9402C169.921 50.0088 169.645 51.0594 169.12 51.9902C168.597 52.8925 167.831 53.6304 166.91 54.1202C165.93 54.6262 164.843 54.8903 163.74 54.8903C162.637 54.8903 161.55 54.6262 160.57 54.1202V54.1202ZM166.05 52.8302C166.724 52.4552 167.281 51.9015 167.66 51.2302C168.047 50.5308 168.25 49.7445 168.25 48.9452C168.25 48.1459 168.047 47.3597 167.66 46.6603C167.281 45.9862 166.724 45.4292 166.05 45.0502C165.348 44.6564 164.555 44.4563 163.75 44.4702C162.939 44.4566 162.139 44.6566 161.43 45.0502C160.748 45.4254 160.184 45.9829 159.8 46.6603C159.413 47.3597 159.21 48.1459 159.21 48.9452C159.21 49.7445 159.413 50.5308 159.8 51.2302C160.184 51.9045 160.749 52.4585 161.43 52.8302C162.139 53.2238 162.939 53.4239 163.75 53.4103C164.555 53.4242 165.348 53.2239 166.05 52.8302" fill="white"/>
<path d="M186.619 43.2598V54.8898H185.259L178.279 46.2098V54.8898H176.619V43.2598H177.979L184.959 51.9298V43.2598H186.619Z" fill="white"/>
<path d="M212.03 53.4498V54.8898H203.58V43.2598H211.79V44.6998H205.24V48.2798H211.08V49.6898H205.24V53.4498H212.03Z" fill="white"/>
<path d="M219.731 54.4902C219.024 54.2746 218.37 53.9134 217.811 53.4301L218.431 52.1302C218.926 52.5716 219.504 52.9113 220.131 53.1302C220.817 53.378 221.541 53.5033 222.271 53.5002C223.023 53.5525 223.774 53.3821 224.431 53.0102C224.65 52.872 224.83 52.68 224.955 52.4524C225.079 52.2249 225.143 51.9694 225.141 51.7101C225.151 51.5253 225.121 51.3405 225.054 51.168C224.986 50.9956 224.883 50.8394 224.751 50.7101C224.465 50.4467 224.123 50.2518 223.751 50.1402C223.357 50.0135 222.817 49.8634 222.131 49.6901C221.41 49.5288 220.702 49.3183 220.011 49.0601C219.476 48.8441 219.002 48.5008 218.631 48.0601C218.223 47.5634 218.016 46.932 218.051 46.2902C218.047 45.6944 218.217 45.1105 218.541 44.6101C218.913 44.0765 219.43 43.6603 220.031 43.4102C220.816 43.0863 221.661 42.9328 222.511 42.9601C223.186 42.9626 223.859 43.0534 224.511 43.2301C225.121 43.3811 225.7 43.6383 226.221 43.9902L225.671 45.3201C225.184 45.0152 224.66 44.7765 224.111 44.6101C223.581 44.4543 223.032 44.3735 222.481 44.3702C221.737 44.3212 220.997 44.5028 220.361 44.8902C220.141 45.0352 219.961 45.2327 219.837 45.465C219.713 45.6973 219.649 45.9568 219.651 46.2201C219.641 46.4058 219.672 46.5912 219.741 46.7638C219.81 46.9364 219.916 47.0921 220.051 47.2201C220.338 47.4834 220.679 47.6812 221.051 47.8001C221.575 47.9783 222.109 48.1253 222.651 48.2402C223.37 48.4103 224.078 48.624 224.771 48.8802C225.301 49.0979 225.771 49.441 226.141 49.8802C226.543 50.3717 226.746 50.9961 226.711 51.6302C226.713 52.2241 226.539 52.8052 226.211 53.3001C225.837 53.8383 225.311 54.2527 224.701 54.4902C223.91 54.8074 223.062 54.9572 222.211 54.9301C221.348 54.9346 220.49 54.7996 219.671 54.5302" fill="white"/>
<path d="M93.0506 22.23H91.3906V33.87H93.0506V22.23Z" fill="white"/>
<path d="M94.1101 17.8602C94.1101 18.234 93.9992 18.5995 93.7916 18.9103C93.5839 19.2211 93.2887 19.4633 92.9434 19.6063C92.598 19.7494 92.218 19.7868 91.8514 19.7139C91.4847 19.6409 91.148 19.461 90.8836 19.1967C90.6193 18.9323 90.4393 18.5956 90.3664 18.229C90.2935 17.8624 90.3309 17.4823 90.4739 17.137C90.617 16.7916 90.8592 16.4964 91.17 16.2887C91.4809 16.081 91.8463 15.9702 92.2201 15.9702C92.7214 15.9702 93.2021 16.1694 93.5565 16.5238C93.911 16.8782 94.1101 17.359 94.1101 17.8602" fill="white"/>
<path d="M196.029 43.2598H194.369V54.8998H196.029V43.2598Z" fill="white"/>
<path d="M197.081 38.86C197.083 39.2347 196.973 39.6015 196.766 39.9138C196.559 40.2262 196.264 40.4699 195.919 40.6142C195.573 40.7584 195.192 40.7968 194.824 40.7241C194.457 40.6515 194.119 40.4714 193.854 40.2064C193.589 39.9415 193.409 39.6038 193.337 39.2362C193.264 38.8687 193.302 38.4879 193.447 38.1421C193.591 37.7964 193.835 37.5013 194.147 37.2943C194.459 37.0874 194.826 36.978 195.201 36.98C195.699 36.9826 196.175 37.1816 196.527 37.5336C196.879 37.8856 197.078 38.3622 197.081 38.86" fill="white"/>
</g>
<defs>
<clipPath id="clip0_5602_5673">
<rect width="226.77" height="75.8" fill="white"/>
</clipPath>
</defs>
</svg>
