<svg width="17" height="14" viewBox="0 0 17 14" fill="none" xmlns="http://www.w3.org/2000/svg">
<path d="M1.63166 4.44529C1.84671 4.59704 2.49494 5.04774 3.57639 5.79715C4.65787 6.54655 5.48636 7.12358 6.06189 7.52826C6.12513 7.57261 6.25946 7.66904 6.46497 7.81767C6.67052 7.96639 6.84131 8.08658 6.97721 8.17825C7.11321 8.26989 7.27762 8.37269 7.4706 8.4865C7.66352 8.6002 7.84537 8.68573 8.01613 8.74235C8.18692 8.79943 8.34501 8.82771 8.49045 8.82771H8.50955C8.65499 8.82771 8.81315 8.7994 8.98394 8.74235C9.15463 8.68573 9.33665 8.6001 9.5294 8.4865C9.72225 8.37256 9.88666 8.26986 10.0227 8.17825C10.1587 8.08658 10.3293 7.96639 10.5349 7.81767C10.7404 7.66891 10.8749 7.57261 10.9381 7.52826C11.5199 7.12358 12.9999 6.09583 15.3778 4.44509C15.8395 4.12269 16.2252 3.73366 16.535 3.27828C16.8451 2.8231 17 2.34559 17 1.84602C17 1.42855 16.8497 1.07119 16.5492 0.773969C16.2488 0.476684 15.893 0.328125 15.4821 0.328125H1.51779C1.03084 0.328125 0.656107 0.492534 0.393644 0.821352C0.131215 1.15024 0 1.56132 0 2.05458C0 2.45301 0.173978 2.88477 0.521769 3.34959C0.869526 3.81444 1.23961 4.17971 1.63166 4.44529Z" fill="#1C1C1C"/>
<path d="M16.0512 5.46027C13.977 6.86416 12.402 7.95521 11.327 8.7332C10.9665 8.99872 10.6741 9.20599 10.4495 9.35451C10.2249 9.50314 9.92627 9.65492 9.55306 9.80979C9.17998 9.9649 8.83229 10.0422 8.50969 10.0422H8.49048C8.16794 10.0422 7.82005 9.9649 7.44698 9.80979C7.0739 9.65492 6.77502 9.50314 6.5505 9.35451C6.32605 9.20599 6.03352 8.99872 5.67307 8.7332C4.81923 8.10713 3.24764 7.01601 0.958243 5.46027C0.59766 5.2201 0.278279 4.94482 0 4.63497V12.1671C0 12.5848 0.148559 12.9419 0.445844 13.2392C0.743063 13.5365 1.10046 13.6852 1.51789 13.6852H15.4822C15.8995 13.6852 16.2569 13.5365 16.5542 13.2392C16.8515 12.9418 17 12.5848 17 12.1671V4.63497C16.728 4.9384 16.4119 5.21369 16.0512 5.46027Z" fill="#1C1C1C"/>
</svg>
