<svg width="150" height="50" viewBox="0 0 150 50" fill="none" xmlns="http://www.w3.org/2000/svg">
<g clip-path="url(#clip0_14_149)">
<path d="M43.7615 24.9736C43.7615 29.0936 42.5392 33.1211 40.2491 36.5468C37.959 39.9725 34.7041 42.6424 30.8958 44.2191C27.0875 45.7958 22.8971 46.2082 18.8542 45.4045C14.8114 44.6007 11.0979 42.6168 8.18315 39.7035C5.26844 36.7902 3.2835 33.0785 2.47933 29.0376C1.67516 24.9968 2.08788 20.8083 3.6653 17.0019C5.24273 13.1955 7.91403 9.94212 11.3414 7.65317C14.7687 5.36421 18.7981 4.14252 22.9202 4.14252C28.4476 4.14252 33.7487 6.33718 37.6572 10.2438C41.5657 14.1504 43.7615 19.4489 43.7615 24.9736Z" fill="#E0F2F0"/>
<path d="M6.54674 40.6069C6.51817 40.6075 6.48982 40.6019 6.46362 40.5905C6.43742 40.5791 6.414 40.5622 6.39496 40.5409C4.35473 38.6286 2.71592 36.3293 1.57417 33.7772C0.432423 31.2251 -0.189407 28.4714 -0.25506 25.6765C-0.320713 22.8817 0.171134 20.1017 1.19179 17.4988C2.21244 14.896 3.74146 12.5224 5.68965 10.5165C7.63784 8.5106 9.9662 6.9125 12.5389 5.81553C15.1115 4.71855 17.877 4.14461 20.6739 4.12724C23.4708 4.10986 26.2432 4.64939 28.8293 5.71431C31.4154 6.77924 33.7635 8.34831 35.7365 10.3299C35.7684 10.3727 35.784 10.4256 35.7804 10.4789C35.7768 10.5323 35.7543 10.5825 35.7168 10.6207C35.6794 10.6589 35.6296 10.6825 35.5763 10.6872C35.5231 10.6919 35.4698 10.6775 35.4263 10.6465C33.4924 8.71683 31.1942 7.19054 28.6651 6.15629C26.136 5.12204 23.4265 4.60041 20.694 4.6218C17.9615 4.64319 15.2605 5.20714 12.7479 6.28086C10.2353 7.35458 7.96131 8.91667 6.05794 10.8764C4.15456 12.8361 2.65981 15.1543 1.66051 17.6964C0.661216 20.2384 0.177302 22.9536 0.236904 25.6842C0.296506 28.4148 0.898421 31.1064 2.00769 33.6025C3.11695 36.0986 4.71146 38.3494 6.69853 40.2243C6.74045 40.2663 6.76397 40.3233 6.76397 40.3826C6.76397 40.4419 6.74045 40.4989 6.69853 40.5409C6.65546 40.5813 6.59919 40.6047 6.54015 40.6069" fill="#010101"/>
<path d="M33.156 28.9907C33.037 29.9033 32.7812 30.7928 32.3971 31.6293C31.9569 32.4831 31.3459 33.2375 30.602 33.8456C29.7489 34.5103 28.78 35.0113 27.7444 35.3232C26.7496 35.6138 25.7187 35.7626 24.6822 35.7652C23.574 35.7557 22.478 35.5317 21.455 35.1055C20.3725 34.6658 19.3896 34.013 18.5645 33.186C17.6508 32.2611 16.9405 31.1558 16.479 29.9406C16.0593 28.8262 15.8144 27.6536 15.7531 26.4644L14.7037 26.3193C14.7565 27.7184 15.0443 29.0986 15.5551 30.4024C16.2724 32.2335 17.5221 33.8079 19.143 34.9225C20.7639 36.0371 22.6818 36.6407 24.6492 36.6556C25.8455 36.6649 27.0361 36.4915 28.18 36.1412C29.2765 35.7866 30.2924 35.2195 31.1695 34.4723C31.9891 33.7926 32.676 32.9674 33.1956 32.0382C33.6797 31.0856 33.9755 30.0487 34.0668 28.9841L33.156 28.9907Z" fill="#010101"/>
<path d="M20.7423 17.632C21.4353 18.5752 21.4683 19.4789 21.4551 20.9301H22.2866C22.2866 20.2705 22.2866 19.8945 22.2404 19.3404C22.183 18.5392 21.9043 17.7697 21.4353 17.1174C21.3189 16.9543 21.1933 16.798 21.0591 16.6491C20.7959 16.7782 20.5423 16.9259 20.3002 17.0911C20.4578 17.2604 20.6055 17.4388 20.7423 17.6253" fill="#010101"/>
<path d="M9.69474 23.8853C11.1118 24.8776 12.768 25.4741 14.4926 25.6135L17.601 26.0357C18.6211 26.1212 19.6166 26.394 20.5378 26.8404C21.2009 27.1787 21.7343 27.7258 22.0556 28.3971C22.3898 29.1777 22.5475 30.0223 22.5176 30.8707C22.5421 31.4942 22.4375 32.116 22.2103 32.6971C21.9832 33.2783 21.6385 33.8063 21.1977 34.2481C21.3561 34.3273 21.5145 34.4064 21.6795 34.4724C21.8445 34.5383 22.0094 34.5845 22.181 34.6373C22.4092 34.3926 22.6146 34.1276 22.7948 33.8457C23.3414 32.922 23.6202 31.8645 23.5999 30.7916C23.6298 29.806 23.4262 28.8274 23.006 27.9354C22.5815 27.1346 21.9263 26.4797 21.1251 26.0555C20.0946 25.5301 18.9759 25.1992 17.8253 25.0792L14.6774 24.6571C13.2589 24.5183 11.8887 24.0678 10.6649 23.3378C9.65734 22.6738 9.15137 21.4974 9.14697 19.8088C9.12771 19.1725 9.25243 18.5401 9.51183 17.9587C9.77122 17.3774 10.1586 16.862 10.6451 16.4512C11.6416 15.5937 13.0605 15.1716 14.9084 15.1716C16.1035 15.1408 17.2928 15.3493 18.4061 15.785C18.6569 15.5871 18.9077 15.3958 19.1717 15.2177C17.8287 14.5659 16.3478 14.2491 14.8556 14.2943C13.5887 14.2506 12.3269 14.4754 11.1532 14.9539C10.2088 15.3557 9.40655 16.0312 8.85 16.8932C8.3079 17.7747 8.03283 18.7941 8.05805 19.8285C8.05805 21.6689 8.61241 23.0277 9.70793 23.8919" fill="#010101"/>
<path d="M18.8483 35.5277C18.1526 35.6957 17.4389 35.7776 16.7232 35.7718C15.1712 35.8428 13.6232 35.5609 12.1959 34.9472C11.1609 34.4608 10.3311 33.6244 9.85311 32.5858C9.36962 31.4594 9.13334 30.2425 9.16016 29.0172H8.22302C8.24016 29.8615 8.34635 30.7017 8.53981 31.5238C8.87766 32.7262 9.51317 33.8242 10.3877 34.7164C11.155 35.3828 12.0546 35.8795 13.0275 36.1741C14.221 36.535 15.4633 36.7086 16.71 36.6887C17.7904 36.7087 18.8657 36.5344 19.8844 36.1741C19.5225 35.9742 19.1721 35.754 18.8351 35.5145" fill="#010101"/>
<path d="M33.2088 18.8061C32.6836 17.8865 31.9948 17.0706 31.1762 16.3985C30.302 15.647 29.2852 15.0794 28.1866 14.7296C27.0592 14.368 25.879 14.1985 24.6954 14.2282C22.8301 14.2173 21.0037 14.7615 19.4488 15.7916C17.946 16.7739 16.7337 18.1405 15.9379 19.7493C15.2845 21.0712 14.8817 22.5025 14.7499 23.971L15.7795 24.1095C15.8999 22.8152 16.2321 21.5495 16.7628 20.3628C17.4303 18.8593 18.4875 17.5613 19.825 16.603C21.2514 15.6098 22.9575 15.0968 24.6954 15.1385C25.7291 15.1048 26.7614 15.2407 27.751 15.5409C28.7889 15.8473 29.7588 16.3487 30.6086 17.0185C31.3534 17.6248 31.9665 18.3768 32.4103 19.2283C32.6662 19.7701 32.861 20.3386 32.991 20.9235H33.8424C33.7768 20.1744 33.5518 19.448 33.1824 18.7929" fill="#010101"/>
<path d="M51.3246 22.157C50.86 22.0299 50.4279 21.805 50.0574 21.4973L50.46 20.6399C50.7871 20.9312 51.1683 21.1553 51.5819 21.2995C52.0347 21.4641 52.5125 21.5489 52.9942 21.5501C53.4907 21.5824 53.9858 21.47 54.4197 21.2269C54.5672 21.1364 54.6885 21.0093 54.7718 20.8577C54.8551 20.7062 54.8975 20.5356 54.8949 20.3628C54.9023 20.2408 54.8832 20.1186 54.8387 20.0047C54.7943 19.8908 54.7256 19.7879 54.6375 19.7031C54.4484 19.5301 54.2229 19.4016 53.9776 19.3271C53.6275 19.2067 53.2705 19.1076 52.9084 19.0303C52.4334 18.9229 51.966 18.7841 51.5093 18.6147C51.1555 18.4742 50.8424 18.2474 50.5986 17.9551C50.3324 17.6262 50.1983 17.2099 50.2224 16.7876C50.2176 16.3942 50.3302 16.0085 50.5458 15.6794C50.7925 15.3299 51.1335 15.0576 51.5291 14.8944C52.0455 14.6817 52.601 14.5806 53.1592 14.5976C53.6046 14.5998 54.048 14.6574 54.4791 14.7691C54.8822 14.8711 55.2641 15.043 55.6076 15.2771L55.2447 16.1543C54.6161 15.7512 53.8863 15.534 53.1394 15.5277C52.6486 15.4919 52.1589 15.6119 51.7403 15.8707C51.5956 15.9662 51.4774 16.0967 51.3967 16.2501C51.3159 16.4034 51.2752 16.5747 51.2784 16.748C51.2704 16.8707 51.29 16.9936 51.3356 17.1077C51.3813 17.2218 51.4519 17.3243 51.5423 17.4076C51.7318 17.5816 51.9571 17.7122 52.2023 17.7902C52.5479 17.9086 52.9006 18.0056 53.2582 18.0805C53.7314 18.1869 54.1967 18.3257 54.6507 18.4961C55.0006 18.6404 55.3107 18.8666 55.5549 19.1557C55.821 19.4773 55.9575 19.8866 55.9376 20.3034C55.9391 20.6952 55.8243 21.0785 55.6076 21.405C55.3594 21.7626 55.0102 22.0382 54.6045 22.1966C54.0822 22.4039 53.523 22.5026 52.9612 22.4868C52.3934 22.4909 51.829 22.3994 51.2916 22.2163" fill="#010101"/>
<path d="M73.5782 22.3417L73.565 16.748L70.7932 21.405H70.285L67.5132 16.781V22.3417H66.4573V14.6636H67.3548L70.5622 20.0594L73.7168 14.6636H74.6209L74.6275 22.3417H73.5782Z" fill="#010101"/>
<path d="M85.0217 15.376C85.298 15.6264 85.5187 15.9318 85.6698 16.2727C85.8209 16.6135 85.899 16.9821 85.899 17.3549C85.899 17.7276 85.8209 18.0963 85.6698 18.4372C85.5187 18.778 85.298 19.0833 85.0217 19.3338C84.3477 19.8419 83.5151 20.0944 82.6723 20.0462H80.7782V22.3351H79.6761V14.657H82.6525C83.4953 14.6088 84.3279 14.8613 85.0019 15.3694L85.0217 15.376ZM84.21 18.6082C84.3954 18.4544 84.5418 18.2588 84.637 18.0375C84.7323 17.8162 84.7736 17.5755 84.7577 17.3351C84.7731 17.0939 84.7315 16.8523 84.6363 16.63C84.5412 16.4077 84.3952 16.2109 84.21 16.0554C83.7463 15.73 83.1847 15.574 82.6195 15.6135H80.7584V19.037H82.6525C83.2185 19.0745 83.7801 18.9161 84.243 18.5884" fill="#010101"/>
<path d="M90.2288 14.6636H91.3309V21.3852H95.4886V22.3417H90.2288V14.6636Z" fill="#010101"/>
<path d="M105.065 21.3852V22.3417H99.4879V14.6636H104.913V15.62H100.59V17.9749H104.438V18.905H100.59V21.3852H105.065Z" fill="#010101"/>
<path d="M51.5819 35.6992C50.9774 35.3739 50.4748 34.8876 50.13 34.2942C49.7837 33.6802 49.6017 32.9872 49.6017 32.2823C49.6017 31.5774 49.7837 30.8845 50.13 30.2705C50.4793 29.6783 50.9836 29.1925 51.5885 28.8654C52.2298 28.5233 52.9471 28.3486 53.674 28.3575C54.2364 28.3493 54.7949 28.4524 55.3173 28.6609C55.8067 28.8521 56.2434 29.1574 56.591 29.5514L55.8782 30.211C55.6038 29.9149 55.2694 29.6806 54.8973 29.5236C54.5252 29.3667 54.1239 29.2907 53.7202 29.3008C53.1788 29.2917 52.6443 29.4236 52.1693 29.6834C51.7179 29.9292 51.3451 30.2973 51.0936 30.7454C50.8382 31.2067 50.7042 31.7254 50.7042 32.2526C50.7042 32.7799 50.8382 33.2985 51.0936 33.7598C51.3472 34.2046 51.7196 34.5702 52.1693 34.8153C52.6443 35.0751 53.1788 35.207 53.7202 35.1979C54.1243 35.2063 54.5256 35.1289 54.8976 34.9709C55.2696 34.8128 55.6039 34.5777 55.8782 34.281L56.591 34.9406C56.2407 35.3331 55.8049 35.64 55.3173 35.8377C54.7901 36.0456 54.2274 36.1487 53.6608 36.1412C52.9357 36.1534 52.2197 35.9784 51.5819 35.6333" fill="#010101"/>
<path d="M66.0481 35.2573V36.2071H60.4715V28.5356H65.8897V29.4855H61.567V31.847H65.4211V32.7771H61.567V35.2573H66.0481Z" fill="#010101"/>
<path d="M75.6966 36.1873L74.0401 33.8325H73.5583H71.6643V36.1873H70.5621V28.5356H73.5583C74.4012 28.4869 75.234 28.7393 75.9078 29.248C76.1952 29.4881 76.4226 29.7921 76.5715 30.1357C76.7205 30.4793 76.787 30.853 76.7657 31.2269C76.783 31.7667 76.6282 32.298 76.3235 32.7441C76.0156 33.1727 75.5785 33.4917 75.0762 33.6543L76.8977 36.2269L75.6966 36.1873ZM75.1158 32.4736C75.3058 32.3133 75.4547 32.11 75.55 31.8805C75.6453 31.6509 75.6842 31.402 75.6636 31.1543C75.6789 30.914 75.6373 30.6735 75.5421 30.4523C75.4469 30.231 75.3009 30.0354 75.1158 29.8812C74.6534 29.5525 74.0914 29.394 73.5253 29.4327H71.6643V32.8892H73.5253C74.0914 32.9278 74.6534 32.7693 75.1158 32.4406" fill="#010101"/>
<path d="M86.8564 35.2573V36.2071H81.2864V28.5356H86.7046V29.4855H82.3819V31.847H86.2294V32.7771H82.3819V35.2573H86.8564Z" fill="#010101"/>
<path d="M98.498 36.2071L98.4848 30.6135L95.713 35.2771H95.2048L92.433 30.6465V36.2071H91.3771V28.5356H92.2746L95.482 33.9248L98.6432 28.5356H99.5407L99.5539 36.2071H98.498Z" fill="#010101"/>
<path d="M105.969 35.6992C105.362 35.3723 104.855 34.8867 104.504 34.2942C104.158 33.6812 103.976 32.9893 103.976 32.2856C103.976 31.5819 104.158 30.8901 104.504 30.2771C104.855 29.6826 105.361 29.1947 105.969 28.8655C106.615 28.5317 107.333 28.3575 108.061 28.3575C108.789 28.3575 109.506 28.5317 110.153 28.8655C110.758 29.1925 111.262 29.6783 111.611 30.2705C111.958 30.8845 112.14 31.5774 112.14 32.2823C112.14 32.9872 111.958 33.6802 111.611 34.2942C111.266 34.8894 110.761 35.3761 110.153 35.6992C109.506 36.033 108.789 36.2072 108.061 36.2072C107.333 36.2072 106.615 36.033 105.969 35.6992V35.6992ZM109.585 34.8483C110.03 34.6009 110.397 34.2357 110.648 33.7929C110.903 33.3315 111.037 32.8129 111.037 32.2856C111.037 31.7583 110.903 31.2398 110.648 30.7784C110.398 30.3338 110.03 29.9664 109.585 29.7163C109.122 29.4566 108.598 29.3246 108.067 29.3338C107.532 29.3248 107.004 29.4567 106.536 29.7163C106.086 29.9639 105.714 30.3316 105.46 30.7784C105.205 31.2398 105.071 31.7583 105.071 32.2856C105.071 32.8129 105.205 33.3315 105.46 33.7929C105.714 34.2377 106.087 34.6031 106.536 34.8483C107.004 35.1079 107.532 35.2399 108.067 35.2309C108.598 35.2401 109.122 35.108 109.585 34.8483" fill="#010101"/>
<path d="M123.16 28.5356V36.2071H122.263L117.656 30.4816V36.2071H116.561V28.5356H117.458L122.065 34.2546V28.5356H123.16Z" fill="#010101"/>
<path d="M139.93 35.2573V36.2071H134.353V28.5356H139.771V29.4855H135.449V31.847H139.303V32.7771H135.449V35.2573H139.93Z" fill="#010101"/>
<path d="M145.011 35.9433C144.545 35.8011 144.113 35.5629 143.744 35.244L144.154 34.3866C144.481 34.6777 144.862 34.9019 145.275 35.0462C145.728 35.2097 146.206 35.2923 146.688 35.2903C147.184 35.3248 147.68 35.2124 148.113 34.9671C148.258 34.8759 148.377 34.7492 148.459 34.5992C148.541 34.4491 148.583 34.2805 148.582 34.1095C148.588 33.9876 148.569 33.8657 148.524 33.7519C148.48 33.6381 148.412 33.5352 148.324 33.4499C148.136 33.2761 147.91 33.1476 147.665 33.0739C147.405 32.9904 147.049 32.8914 146.595 32.777C146.12 32.6706 145.653 32.5318 145.196 32.3615C144.843 32.219 144.531 31.9926 144.286 31.7018C144.016 31.3742 143.88 30.9577 143.903 30.5344C143.9 30.1414 144.013 29.7562 144.226 29.4261C144.472 29.0742 144.813 28.7996 145.209 28.6346C145.728 28.421 146.286 28.3197 146.846 28.3377C147.292 28.3393 147.736 28.3992 148.166 28.5158C148.569 28.6154 148.951 28.7851 149.295 29.0172L148.932 29.8945C148.611 29.6933 148.265 29.5359 147.902 29.4261C147.553 29.3233 147.191 29.2701 146.826 29.2678C146.336 29.2356 145.847 29.3554 145.427 29.6109C145.282 29.7065 145.163 29.8368 145.082 29.99C145 30.1432 144.957 30.3145 144.959 30.4881C144.953 30.6106 144.973 30.7329 145.019 30.8468C145.064 30.9606 145.134 31.0633 145.223 31.1478C145.412 31.3214 145.638 31.4519 145.883 31.5303C146.229 31.6479 146.581 31.7448 146.939 31.8206C147.413 31.9328 147.88 32.0738 148.338 32.2428C148.688 32.3864 148.998 32.6127 149.242 32.9024C149.507 33.2267 149.641 33.6385 149.618 34.0568C149.619 34.4485 149.505 34.8318 149.288 35.1583C149.041 35.5133 148.694 35.7866 148.291 35.9433C147.77 36.1526 147.21 36.2514 146.648 36.2335C146.079 36.2365 145.513 36.1474 144.972 35.9697" fill="#010101"/>
<path d="M61.4086 14.6636H60.3131V22.3417H61.4086V14.6636Z" fill="#010101"/>
<path d="M62.1082 11.781C62.1082 12.0276 62.035 12.2686 61.8979 12.4737C61.7609 12.6787 61.5661 12.8384 61.3382 12.9328C61.1103 13.0271 60.8594 13.0518 60.6175 13.0037C60.3755 12.9556 60.1533 12.8369 59.9788 12.6626C59.8044 12.4882 59.6856 12.2661 59.6375 12.0243C59.5894 11.7824 59.6141 11.5317 59.7085 11.3039C59.8029 11.0761 59.9627 10.8814 60.1679 10.7444C60.373 10.6074 60.6142 10.5343 60.8608 10.5343C61.1917 10.5343 61.5089 10.6657 61.7428 10.8995C61.9767 11.1333 62.1082 11.4504 62.1082 11.781" fill="#67C8C8"/>
<path d="M129.371 28.5356H128.275V36.2137H129.371V28.5356Z" fill="#010101"/>
<path d="M130.064 25.6333C130.065 25.8804 129.993 26.1224 129.856 26.3284C129.72 26.5344 129.525 26.6952 129.297 26.7903C129.068 26.8855 128.817 26.9108 128.574 26.8629C128.332 26.815 128.109 26.6962 127.934 26.5214C127.759 26.3467 127.64 26.1239 127.593 25.8814C127.545 25.639 127.57 25.3878 127.665 25.1597C127.76 24.9316 127.921 24.737 128.127 24.6005C128.333 24.464 128.576 24.3918 128.823 24.3931C129.151 24.3949 129.466 24.5261 129.698 24.7583C129.931 24.9905 130.062 25.3049 130.064 25.6333" fill="#DFBF9D"/>
</g>
<defs>
<clipPath id="clip0_14_149">
<rect width="149.658" height="50" fill="white"/>
</clipPath>
</defs>
</svg>
