<svg width="89" height="90" viewBox="0 0 89 90" fill="none" xmlns="http://www.w3.org/2000/svg">
<g filter="url(#filter0_d_3938_15158)">
<rect x="12" y="6.5" width="57" height="57" rx="10" fill="white"/>
</g>
<path fill-rule="evenodd" clip-rule="evenodd" d="M47.4532 23.0001H45.9323V25.3796C45.9323 26.3509 45.1457 27.1381 44.1744 27.1381C43.203 27.1381 42.4164 26.3504 42.4164 25.3796V23.0001H35.575V25.3796C35.575 26.3509 34.7889 27.1381 33.8176 27.1381C32.8463 27.1381 32.0596 26.3504 32.0596 25.3796V23.0001H30.5388C28.6496 23.0001 27.1178 24.5317 27.1178 26.421V44.1902C27.1178 46.0799 28.6494 47.6108 30.5388 47.6108L43.4203 47.6105C42.1172 46.2177 41.3181 44.3476 41.3181 42.2896C41.3181 37.9863 44.8063 34.4974 49.1096 34.4974C49.7174 34.4974 50.3071 34.5694 50.8747 34.7008L50.8741 26.4205C50.8741 24.5316 49.3431 23 47.4534 23L47.4532 23.0001ZM37.0949 41.885H29.7788C29.3325 41.885 28.9707 41.5233 28.9707 41.077C28.9707 40.6307 29.332 40.2689 29.7788 40.2689H37.0949C37.5412 40.2689 37.903 40.6307 37.903 41.077C37.9032 41.5232 37.5415 41.885 37.0949 41.885ZM37.0949 36.6831H29.7788C29.3325 36.6831 28.9707 36.3214 28.9707 35.8751C28.9707 35.4288 29.332 35.067 29.7788 35.067H37.0949C37.5412 35.067 37.903 35.4288 37.903 35.8751C37.9032 36.3213 37.5415 36.6831 37.0949 36.6831ZM48.213 31.1236H29.7788C29.3325 31.1236 28.9707 30.7629 28.9707 30.3155C28.9707 29.8695 29.332 29.5083 29.7788 29.5083H48.213C48.659 29.5083 49.0211 29.869 49.0211 30.3155C49.0214 30.7623 48.6596 31.1236 48.213 31.1236Z" fill="#62CBC9"/>
<path fill-rule="evenodd" clip-rule="evenodd" d="M34.8634 25.041C34.8634 25.6182 34.395 26.0866 33.8178 26.0866C33.2411 26.0866 32.7727 25.6187 32.7727 25.041V21.5256C32.7727 20.9484 33.2411 20.4805 33.8178 20.4805C34.395 20.4805 34.8634 20.9484 34.8634 21.5256V25.041Z" fill="#62CBC9"/>
<path fill-rule="evenodd" clip-rule="evenodd" d="M45.2203 25.041C45.2203 25.6182 44.7524 26.0866 44.1752 26.0866C43.598 26.0866 43.1306 25.6187 43.1306 25.041V21.5256C43.1306 20.9484 43.598 20.4805 44.1752 20.4805C44.7524 20.4805 45.2203 20.9484 45.2203 21.5256V25.041Z" fill="#62CBC9"/>
<path fill-rule="evenodd" clip-rule="evenodd" d="M49.1091 36.0781C45.6802 36.0781 42.9012 38.8583 42.9012 42.2871C42.9012 45.7154 45.6802 48.495 49.1091 48.495C52.5379 48.495 55.3175 45.7154 55.3175 42.2871C55.318 38.8585 52.5379 36.0781 49.1091 36.0781ZM51.4868 43.4817H48.6291C48.5342 43.4817 48.444 43.4627 48.3618 43.4293C48.3584 43.4275 48.3542 43.4275 48.3511 43.4257C48.3146 43.4103 48.2804 43.3902 48.2468 43.3691C48.2408 43.3657 48.235 43.3633 48.2296 43.3597C48.2061 43.3438 48.1847 43.3237 48.1633 43.3046C48.1508 43.294 48.1357 43.2851 48.1239 43.2728C48.1117 43.2606 48.1025 43.2457 48.0916 43.2332C48.0728 43.2118 48.0527 43.1907 48.0368 43.1669C48.0332 43.1617 48.0311 43.1562 48.0274 43.15C48.006 43.1169 47.9862 43.0822 47.9708 43.0454C47.969 43.042 47.9685 43.0378 47.9672 43.0352C47.934 42.952 47.9147 42.8628 47.9147 42.7679V39.9102C47.9147 39.5159 48.2345 39.1961 48.6289 39.1961C49.0232 39.1961 49.343 39.5164 49.343 39.9102V42.0537H51.4865C51.8809 42.0537 52.2006 42.3735 52.2006 42.7679C52.2009 43.162 51.8811 43.4817 51.4868 43.4817L51.4868 43.4817Z" fill="#62CBC9"/>
<defs>
<filter id="filter0_d_3938_15158" x="0" y="0.5" width="89" height="89" filterUnits="userSpaceOnUse" color-interpolation-filters="sRGB">
<feFlood flood-opacity="0" result="BackgroundImageFix"/>
<feColorMatrix in="SourceAlpha" type="matrix" values="0 0 0 0 0 0 0 0 0 0 0 0 0 0 0 0 0 0 127 0" result="hardAlpha"/>
<feOffset dx="4" dy="10"/>
<feGaussianBlur stdDeviation="8"/>
<feComposite in2="hardAlpha" operator="out"/>
<feColorMatrix type="matrix" values="0 0 0 0 0.293333 0 0 0 0 0.733333 0 0 0 0 0.724952 0 0 0 1 0"/>
<feBlend mode="normal" in2="BackgroundImageFix" result="effect1_dropShadow_3938_15158"/>
<feBlend mode="normal" in="SourceGraphic" in2="effect1_dropShadow_3938_15158" result="shape"/>
</filter>
</defs>
</svg>
