<svg width="89" height="90" viewBox="0 0 89 90" fill="none" xmlns="http://www.w3.org/2000/svg">
<g filter="url(#filter0_d_3938_15280)">
<rect x="12" y="6.5" width="57" height="57" rx="10" fill="white"/>
</g>
<path d="M38.6516 16.9062C39.5624 16.9062 40.3002 17.6441 40.3002 18.5549C40.3002 18.9318 40.6037 19.2353 40.9806 19.2353C41.3575 19.2353 41.661 18.9318 41.661 18.5549C41.661 17.6441 42.4043 16.9062 43.3148 16.9062C44.2257 16.9062 44.9635 17.6441 44.9635 18.5549C44.9635 18.8533 44.8798 19.1463 44.7174 19.4134L40.9803 24.0926L37.3271 19.5286C37.1126 19.2407 36.9974 18.9057 36.9974 18.5552C37.0028 17.6442 37.7409 16.9063 38.6514 16.9063L38.6516 16.9062ZM25.3682 50.4034V22.904C25.3682 22.0196 25.9388 21.3026 26.6454 21.3026H37.0085L39.6306 24.5843H38.2331L37.5633 24.6261L30.3925 24.5999C29.2359 24.5999 28.3302 25.7671 28.3302 27.2482V50.403L25.3682 50.4034ZM29.6913 39.4384V27.2485C29.6913 26.5106 30.0628 25.9557 30.3927 25.9557L37.6048 25.9767L38.2747 25.9349L40.2897 25.94C39.9967 37.0934 33.4175 39.1714 29.6909 39.4382L29.6913 39.4384ZM41.7556 25.9457L51.7473 25.9613C52.077 25.9613 52.4488 26.516 52.4488 27.2541V39.4333C43.8077 38.6795 41.829 31.8074 41.7554 25.9454L41.7556 25.9457ZM56.7719 50.404H53.8096V27.2491C53.8096 25.7625 52.9042 24.6008 51.7473 24.6008L42.3263 24.5852L44.9484 21.3035H55.4946C56.196 21.3035 56.7718 22.0206 56.7718 22.9103V50.4043L56.7719 50.404Z" fill="#62CBC9"/>
<defs>
<filter id="filter0_d_3938_15280" x="0" y="0.5" width="89" height="89" filterUnits="userSpaceOnUse" color-interpolation-filters="sRGB">
<feFlood flood-opacity="0" result="BackgroundImageFix"/>
<feColorMatrix in="SourceAlpha" type="matrix" values="0 0 0 0 0 0 0 0 0 0 0 0 0 0 0 0 0 0 127 0" result="hardAlpha"/>
<feOffset dx="4" dy="10"/>
<feGaussianBlur stdDeviation="8"/>
<feComposite in2="hardAlpha" operator="out"/>
<feColorMatrix type="matrix" values="0 0 0 0 0.293333 0 0 0 0 0.733333 0 0 0 0 0.724952 0 0 0 1 0"/>
<feBlend mode="normal" in2="BackgroundImageFix" result="effect1_dropShadow_3938_15280"/>
<feBlend mode="normal" in="SourceGraphic" in2="effect1_dropShadow_3938_15280" result="shape"/>
</filter>
</defs>
</svg>
