<svg width="15" height="12" viewBox="0 0 15 12" fill="none" xmlns="http://www.w3.org/2000/svg">
<path d="M1.4397 3.7451C1.62945 3.87899 2.20142 4.27667 3.15564 4.93791C4.10989 5.59915 4.84091 6.1083 5.34873 6.46536C5.40452 6.5045 5.52306 6.58958 5.70439 6.72072C5.88575 6.85195 6.03645 6.958 6.15636 7.03889C6.27636 7.11975 6.42143 7.21046 6.59171 7.31087C6.76193 7.4112 6.92239 7.48666 7.07305 7.53662C7.22375 7.58699 7.36325 7.61194 7.49157 7.61194H7.50843C7.63675 7.61194 7.77631 7.58696 7.927 7.53662C8.07761 7.48666 8.23822 7.41111 8.40829 7.31087C8.57846 7.21034 8.72352 7.11972 8.84352 7.03889C8.96352 6.958 9.1141 6.85195 9.29552 6.72072C9.47683 6.58947 9.59551 6.5045 9.6513 6.46536C10.1646 6.1083 11.4705 5.20145 13.5687 3.74492C13.976 3.46045 14.3163 3.11719 14.5897 2.71538C14.8633 2.31375 15 1.89242 15 1.45162C15 1.08327 14.8674 0.767948 14.6023 0.505697C14.3372 0.243387 14.0233 0.112305 13.6607 0.112305H1.33923C0.909569 0.112305 0.578918 0.257371 0.347333 0.547505C0.115778 0.837697 0 1.20042 0 1.63565C0 1.98721 0.15351 2.36817 0.460384 2.7783C0.767229 3.18846 1.09378 3.51076 1.4397 3.7451Z" fill="#62CBC9"/>
<path d="M14.1628 4.64067C12.3327 5.87939 10.943 6.84209 9.99444 7.52854C9.67636 7.76283 9.41834 7.94571 9.22017 8.07677C9.02201 8.20791 8.75847 8.34183 8.42917 8.47848C8.09998 8.61534 7.7932 8.68357 7.50855 8.68357H7.4916C7.20701 8.68357 6.90005 8.61534 6.57086 8.47848C6.24168 8.34183 5.97796 8.20791 5.77985 8.07677C5.58181 7.94571 5.32369 7.76283 5.00565 7.52854C4.25226 6.97613 2.86556 6.01338 0.845509 4.64067C0.527347 4.42876 0.24554 4.18585 0 3.91246V10.5585C0 10.927 0.131082 11.2421 0.393392 11.5044C0.655644 11.7668 0.970991 11.8979 1.33932 11.8979H13.6608C14.029 11.8979 14.3443 11.7668 14.6066 11.5044C14.869 11.2421 15 10.927 15 10.5585V3.91246C14.76 4.1802 14.4811 4.4231 14.1628 4.64067Z" fill="#62CBC9"/>
</svg>
