<svg width="17" height="17" viewBox="0 0 17 17" fill="none" xmlns="http://www.w3.org/2000/svg">
<path d="M15.9178 13.6551C15.0613 15.7085 13.0532 16.0684 12.397 16.0684C12.2043 16.0684 9.2032 16.2275 4.8895 12.1354C1.4179 8.84228 0.9937 5.30107 0.9568 4.62817C0.920824 3.97285 1.10844 2.32882 3.37003 1.10737C3.65022 0.955966 4.2058 0.888937 4.34926 1.03249C4.41289 1.09612 6.3112 4.21969 6.36103 4.32319C6.41095 4.42655 6.43591 4.52827 6.43591 4.62811C6.43591 4.77073 6.33431 4.9492 6.13087 5.16319C5.92755 5.37718 5.70652 5.57347 5.46748 5.7517C5.22842 5.93006 5.00728 6.11908 4.80385 6.31888C4.60053 6.51845 4.49893 6.68275 4.49893 6.81106C4.51276 7.14421 4.78569 8.33755 6.86542 10.1648C8.9455 11.9925 9.94732 12.5075 10.0439 12.5431C10.1404 12.5787 10.2205 12.5963 10.2846 12.5963C10.4132 12.5963 10.5772 12.4948 10.777 12.2915C10.9766 12.088 11.6481 11.1678 11.8622 10.9643C12.0762 10.7612 12.2547 10.6595 12.3974 10.6595C12.4972 10.6595 12.5988 10.6844 12.7022 10.7343C12.8057 10.7842 15.9332 12.6143 15.9932 12.6755C16.1554 12.842 16.0408 13.3612 15.9182 13.6551" fill="#62CBC9"/>
</svg>
