<svg width="126" height="91" viewBox="0 0 126 91" fill="none" xmlns="http://www.w3.org/2000/svg">
<g clip-path="url(#clip0_4568_257)">
<path d="M26.7453 58.8936C25.1057 68.7139 21.9393 78.2169 17.361 87.0573C17.0969 87.5506 16.9992 88.1159 17.0823 88.6692C17.1653 89.2225 17.4248 89.7342 17.8221 90.1281C18.2193 90.522 18.7331 90.777 19.2869 90.8552C19.8408 90.9334 20.405 90.8306 20.8957 90.5621C47.2656 75.1973 58.8083 52.7602 60.2472 34.798C61.4985 19.1515 50.8629 3.31726 34.8783 0.375724C30.9468 -0.372752 26.9041 -0.31306 22.9963 0.551173C19.0885 1.41541 15.3974 3.0661 12.1476 5.40278C8.89781 7.73947 6.15733 10.7133 4.09294 14.1432C2.02855 17.5731 0.683433 21.3874 0.139469 25.3539C-0.404495 29.3204 -0.135945 33.3562 0.928798 37.2155C1.99354 41.0749 3.83221 44.6771 6.33286 47.803C8.83351 50.9289 11.9438 53.5131 15.4746 55.3982C19.0053 57.2834 22.8826 58.43 26.8704 58.7684L26.7453 58.8936Z" fill="#62CBC9"/>
<path d="M92.498 58.8936C90.8706 68.7169 87.7035 78.2218 83.1137 87.0573C82.8497 87.5505 82.7519 88.1159 82.835 88.6692C82.9181 89.2225 83.1776 89.7342 83.5748 90.1281C83.9721 90.522 84.4859 90.777 85.0397 90.8552C85.5935 90.9334 86.1578 90.8306 86.6485 90.5621C113.018 75.1972 124.561 52.7602 126 34.798C127.251 19.1515 116.616 3.31725 100.631 0.375706C96.7023 -0.368613 92.6633 -0.306091 88.7594 0.559476C84.8555 1.42504 81.1683 3.07558 77.9218 5.4108C74.6753 7.74602 71.9373 10.7172 69.8741 14.1437C67.8109 17.5703 66.4657 21.3807 65.9201 25.3434C65.3746 29.3061 65.6401 33.3384 66.7005 37.1954C67.7609 41.0523 69.5941 44.6533 72.0887 47.7795C74.5833 50.9057 77.6872 53.4919 81.2118 55.381C84.7365 57.2701 88.6082 58.4226 92.5919 58.7684L92.498 58.8936Z" fill="#62CBC9"/>
</g>
<defs>
<clipPath id="clip0_4568_257">
<rect width="126" height="91" fill="white"/>
</clipPath>
</defs>
</svg>
