<svg width="29" height="33" viewBox="0 0 29 33" fill="none" xmlns="http://www.w3.org/2000/svg">
<path d="M17.5693 27.2909L23.5992 21.2598L26.1741 23.8342L20.1442 29.8653L17.5693 27.2909Z" fill="#62CBC9"/>
<path d="M15.9902 28.882C15.9246 28.9477 15.8591 29.0461 15.8591 29.1445L15.3343 31.4734C15.2359 31.8669 15.5967 32.2277 15.9902 32.1293L18.3191 31.6045C18.4175 31.5718 18.5159 31.5388 18.5815 31.4734L19.3031 30.7518L16.7448 28.1934L15.9902 28.882Z" fill="#62CBC9"/>
<path d="M28.2574 20.9441L26.4534 19.173C26.2566 18.9762 25.8958 18.9762 25.699 19.173L24.4855 20.3865L27.0439 22.9449L28.2574 21.7314C28.4871 21.5017 28.4871 21.1738 28.2574 20.9441V20.9441Z" fill="#62CBC9"/>
<path d="M22.0582 20.6158V2.28063C22.0582 1.55903 21.4679 0.96875 20.7463 0.96875H1.85354C1.13194 0.96875 0.541656 1.55903 0.541656 2.28063V24.7814C0.541656 25.503 1.13194 26.0933 1.85354 26.0933H16.6135L22.0582 20.6158ZM9.62703 5.39663H17.0726C17.4991 5.39663 17.827 5.75745 17.827 6.15098C17.827 6.57745 17.4662 6.90532 17.0726 6.90532H9.62703C9.20055 6.90532 8.87268 6.54451 8.87268 6.15098C8.83974 5.7245 9.20055 5.39663 9.62703 5.39663ZM9.62703 10.2837H17.0726C17.4991 10.2837 17.827 10.6445 17.827 11.0381C17.827 11.4645 17.4662 11.7924 17.0726 11.7924L9.62703 11.7926C9.20055 11.7926 8.87268 11.4318 8.87268 11.0383C8.83974 10.6445 9.20055 10.2837 9.62703 10.2837V10.2837ZM9.62703 15.2366H17.0726C17.4991 15.2366 17.827 15.5974 17.827 15.991C17.827 16.4174 17.4662 16.7453 17.0726 16.7453H9.62703C9.20055 16.7453 8.87268 16.3845 8.87268 15.991C8.83974 15.5645 9.20055 15.2366 9.62703 15.2366ZM6.08462 21.6982H5.52705C5.10058 21.6982 4.77271 21.3374 4.77271 20.9439C4.77271 20.5174 5.13352 20.1896 5.52705 20.1896H6.08462C6.5111 20.1896 6.83897 20.5504 6.83897 20.9439C6.87168 21.3374 6.5111 21.6982 6.08462 21.6982ZM6.08462 16.7453H5.52705C5.10058 16.7453 4.77271 16.3845 4.77271 15.991C4.77271 15.5645 5.13352 15.2366 5.52705 15.2366H6.08462C6.5111 15.2366 6.83897 15.5974 6.83897 15.991C6.87168 16.4174 6.5111 16.7453 6.08462 16.7453ZM6.08462 11.8253H5.52705C5.10058 11.8253 4.77271 11.4645 4.77271 11.071C4.77271 10.6445 5.13352 10.3166 5.52705 10.3166H6.08462C6.5111 10.3166 6.83897 10.6774 6.83897 11.071C6.87168 11.4974 6.5111 11.8253 6.08462 11.8253ZM6.08462 6.93823H5.52705C5.10058 6.93823 4.77271 6.57742 4.77271 6.18389C4.77271 5.75742 5.13352 5.42955 5.52705 5.42955H6.08462C6.5111 5.42955 6.83897 5.79036 6.83897 6.18389C6.87168 6.57742 6.5111 6.93823 6.08462 6.93823ZM8.83977 20.911C8.83977 20.4846 9.20058 20.1567 9.59411 20.1567H17.0397C17.4662 20.1567 17.7941 20.5175 17.7941 20.911C17.7941 21.3375 17.4332 21.6654 17.0397 21.6654H9.62691C9.20044 21.6983 8.83965 21.3375 8.83965 20.911H8.83977Z" fill="#62CBC9"/>
</svg>
