<svg width="14" height="14" viewBox="0 0 14 14" fill="none" xmlns="http://www.w3.org/2000/svg">
<path d="M6.99968 0.333496C5.68114 0.333496 4.3922 0.724489 3.29588 1.45703C2.19955 2.18957 1.34506 3.23077 0.840481 4.44894C0.335896 5.66711 0.203874 7.00756 0.461109 8.30077C0.718344 9.59397 1.35328 10.7819 2.28563 11.7142C3.21798 12.6466 4.40587 13.2815 5.69908 13.5387C6.99228 13.796 8.33273 13.6639 9.5509 13.1594C10.7691 12.6548 11.8103 11.8003 12.5428 10.704C13.2754 9.60764 13.6663 8.31871 13.6663 7.00016C13.6663 6.12468 13.4939 5.25778 13.1589 4.44894C12.8238 3.6401 12.3328 2.90517 11.7137 2.28612C11.0947 1.66706 10.3597 1.176 9.5509 0.840966C8.74206 0.505935 7.87516 0.333496 6.99968 0.333496ZM6.99968 10.3335C6.86782 10.3335 6.73893 10.2944 6.6293 10.2211C6.51966 10.1479 6.43422 10.0438 6.38376 9.92195C6.3333 9.80013 6.3201 9.66609 6.34582 9.53677C6.37154 9.40745 6.43504 9.28866 6.52827 9.19543C6.62151 9.10219 6.7403 9.0387 6.86962 9.01297C6.99894 8.98725 7.13298 9.00045 7.2548 9.05091C7.37662 9.10137 7.48074 9.18682 7.55399 9.29645C7.62724 9.40608 7.66634 9.53498 7.66634 9.66683C7.66634 9.84364 7.59611 10.0132 7.47108 10.1382C7.34606 10.2633 7.17649 10.3335 6.99968 10.3335ZM7.66634 7.66683C7.66634 7.84364 7.59611 8.01321 7.47108 8.13823C7.34606 8.26326 7.17649 8.3335 6.99968 8.3335C6.82287 8.3335 6.6533 8.26326 6.52827 8.13823C6.40325 8.01321 6.33301 7.84364 6.33301 7.66683V4.3335C6.33301 4.15669 6.40325 3.98712 6.52827 3.86209C6.6533 3.73707 6.82287 3.66683 6.99968 3.66683C7.17649 3.66683 7.34606 3.73707 7.47108 3.86209C7.59611 3.98712 7.66634 4.15669 7.66634 4.3335V7.66683Z" fill="#D81919"/>
</svg>
