<svg width="19" height="19" viewBox="0 0 19 19" fill="none" xmlns="http://www.w3.org/2000/svg">
<path d="M5.41939 6.4668C4.4502 6.4668 3.66455 7.25245 3.66455 8.22164C3.66455 8.34367 3.67727 8.46539 3.70261 8.58478L4.75418 13.5563C5.00197 14.7274 6.03562 15.5653 7.23265 15.5653H11.7498C12.9467 15.5653 13.9805 14.7275 14.2282 13.5563L15.2798 8.58478C15.305 8.4654 15.3179 8.34368 15.3179 8.22164C15.3179 7.25245 14.5322 6.4668 13.563 6.4668H5.41939Z" fill="white"/>
<path fill-rule="evenodd" clip-rule="evenodd" d="M6.21729 6.74078C6.21729 4.92506 7.683 3.44727 9.49831 3.44727C11.3135 3.44727 12.7793 4.92495 12.7793 6.74078C12.7793 7.13245 12.4617 7.4501 12.0699 7.4501C11.6782 7.4501 11.3606 7.13245 11.3606 6.74078C11.3606 5.70213 10.5236 4.86613 9.49834 4.86613C8.47297 4.86613 7.63599 5.70216 7.63599 6.74078C7.63599 7.13245 7.31844 7.4501 6.92666 7.4501C6.53488 7.4501 6.21734 7.13245 6.21734 6.74078H6.21729Z" fill="white"/>
</svg>
