<svg width="550" height="64" viewBox="0 0 550 64" fill="none" xmlns="http://www.w3.org/2000/svg">
<path d="M212.479 0.896484L250.413 62.4011H549.241V0.896484H212.479Z" fill="#F7FCFC"/>
<path d="M331.705 63.5325L289.642 1.34808H20.8802V63.5325H331.705Z" fill="#E2F3F2"/>
<path d="M264.256 63.5326L222.161 1.34821L0.38353 1.34808V63.5325L264.256 63.5326Z" fill="#62CBC9"/>
<path d="M306.869 63.5336L290.517 39.3526H139.622V63.5336H306.869Z" fill="#62CBC9"/>
<g clip-path="url(#clip0_1_210)">
<path d="M421.574 33.2431C421.574 36.9774 420.436 40.6279 418.306 43.7328C416.175 46.8378 413.147 49.2578 409.604 50.6869C406.061 52.1159 402.162 52.4898 398.4 51.7613C394.639 51.0327 391.184 49.2345 388.472 46.594C385.761 43.9534 383.914 40.5892 383.166 36.9266C382.417 33.2641 382.801 29.4677 384.269 26.0177C385.737 22.5676 388.222 19.6188 391.411 17.5441C394.599 15.4694 398.348 14.3621 402.183 14.3621C407.326 14.3621 412.258 16.3513 415.894 19.8922C419.531 23.4331 421.574 28.2355 421.574 33.2431Z" fill="#E0F2F0"/>
<path d="M386.95 47.4128C386.923 47.4134 386.897 47.4083 386.872 47.398C386.848 47.3877 386.826 47.3724 386.809 47.3531C384.91 45.6198 383.386 43.5357 382.323 41.2225C381.261 38.9094 380.683 36.4134 380.622 33.8802C380.56 31.347 381.018 28.8273 381.968 26.4681C382.917 24.1089 384.34 21.9576 386.152 20.1394C387.965 18.3213 390.131 16.8728 392.525 15.8785C394.918 14.8842 397.491 14.364 400.093 14.3483C402.696 14.3325 405.275 14.8215 407.681 15.7868C410.087 16.752 412.272 18.1742 414.107 19.9702C414.137 20.0091 414.152 20.057 414.148 20.1053C414.145 20.1537 414.124 20.1992 414.089 20.2339C414.054 20.2685 414.008 20.2899 413.958 20.2941C413.909 20.2984 413.859 20.2853 413.819 20.2572C412.02 18.5082 409.881 17.1248 407.528 16.1874C405.175 15.2499 402.654 14.7771 400.112 14.7965C397.57 14.8159 395.057 15.3271 392.719 16.3003C390.382 17.2735 388.266 18.6893 386.495 20.4656C384.724 22.2418 383.334 24.343 382.404 26.6471C381.474 28.9512 381.024 31.4122 381.079 33.8872C381.135 36.3622 381.695 38.8017 382.727 41.0642C383.759 43.3266 385.242 45.3667 387.091 47.0661C387.13 47.1042 387.152 47.1558 387.152 47.2096C387.152 47.2634 387.13 47.315 387.091 47.3531C387.051 47.3897 386.999 47.4109 386.944 47.4128" fill="#010101"/>
<path d="M411.707 36.8842C411.596 37.7114 411.358 38.5176 411 39.2757C410.591 40.0497 410.022 40.7334 409.33 41.2846C408.537 41.887 407.635 42.3411 406.672 42.6238C405.746 42.8872 404.787 43.0221 403.823 43.0244C402.792 43.0158 401.772 42.8128 400.82 42.4265C399.813 42.028 398.899 41.4363 398.131 40.6867C397.281 39.8484 396.62 38.8465 396.191 37.7452C395.8 36.7351 395.572 35.6722 395.515 34.5943L394.539 34.4628C394.588 35.731 394.856 36.982 395.331 38.1637C395.998 39.8234 397.161 41.2504 398.669 42.2607C400.177 43.2709 401.962 43.818 403.792 43.8315C404.905 43.84 406.013 43.6828 407.077 43.3653C408.097 43.0439 409.042 42.5299 409.858 41.8526C410.621 41.2365 411.26 40.4886 411.743 39.6464C412.194 38.783 412.469 37.8431 412.554 36.8782L411.707 36.8842Z" fill="#010101"/>
<path d="M400.157 26.5887C400.802 27.4437 400.832 28.2628 400.82 29.5781H401.594C401.594 28.9802 401.594 28.6394 401.551 28.1372C401.497 27.411 401.238 26.7135 400.802 26.1223C400.693 25.9745 400.577 25.8328 400.452 25.6979C400.207 25.8149 399.971 25.9488 399.746 26.0985C399.892 26.252 400.03 26.4136 400.157 26.5827" fill="#010101"/>
<path d="M389.879 32.2566C391.197 33.156 392.738 33.6967 394.342 33.823L397.234 34.2057C398.183 34.2833 399.11 34.5305 399.967 34.9351C400.584 35.2418 401.08 35.7376 401.379 36.3461C401.69 37.0536 401.837 37.8191 401.809 38.5881C401.832 39.1532 401.734 39.7168 401.523 40.2435C401.312 40.7703 400.991 41.2489 400.581 41.6493C400.728 41.7211 400.875 41.7928 401.029 41.8526C401.182 41.9124 401.336 41.9542 401.496 42.0021C401.708 41.7803 401.899 41.5401 402.067 41.2846C402.575 40.4474 402.835 39.4889 402.816 38.5164C402.843 37.6231 402.654 36.7361 402.263 35.9276C401.868 35.2018 401.259 34.6082 400.513 34.2237C399.554 33.7475 398.514 33.4475 397.443 33.3388L394.514 32.9562C393.195 32.8304 391.92 32.422 390.781 31.7604C389.844 31.1585 389.373 30.0923 389.369 28.5618C389.351 27.9851 389.467 27.4118 389.708 26.8849C389.95 26.358 390.31 25.8909 390.763 25.5185C391.69 24.7413 393.01 24.3587 394.729 24.3587C395.841 24.3308 396.948 24.5198 397.984 24.9146C398.217 24.7353 398.45 24.5619 398.696 24.4005C397.446 23.8097 396.068 23.5225 394.68 23.5635C393.501 23.5239 392.328 23.7276 391.236 24.1614C390.357 24.5256 389.611 25.1378 389.093 25.9191C388.588 26.718 388.332 27.6421 388.356 28.5796C388.356 30.2477 388.872 31.4794 389.891 32.2626" fill="#010101"/>
<path d="M398.395 42.8091C397.748 42.9614 397.084 43.0357 396.418 43.0304C394.974 43.0947 393.534 42.8392 392.206 42.283C391.243 41.8421 390.471 41.084 390.026 40.1426C389.576 39.1217 389.356 38.0187 389.381 36.9081H388.509C388.525 37.6734 388.624 38.4349 388.804 39.1801C389.118 40.2699 389.71 41.2651 390.523 42.0738C391.237 42.6778 392.074 43.128 392.979 43.3951C394.09 43.7222 395.246 43.8795 396.405 43.8614C397.411 43.8796 398.411 43.7216 399.359 43.3951C399.022 43.2139 398.696 43.0142 398.383 42.7972" fill="#010101"/>
<path d="M411.756 27.653C411.267 26.8195 410.626 26.0799 409.865 25.4707C409.051 24.7896 408.105 24.2752 407.083 23.9581C406.034 23.6304 404.936 23.4768 403.835 23.5037C402.099 23.4938 400.4 23.9871 398.954 24.9207C397.555 25.811 396.428 27.0497 395.687 28.5079C395.079 29.706 394.705 31.0034 394.582 32.3344L395.54 32.4599C395.652 31.2868 395.961 30.1396 396.455 29.064C397.076 27.7012 398.059 26.5247 399.304 25.6561C400.631 24.7559 402.218 24.2909 403.835 24.3288C404.797 24.2981 405.757 24.4213 406.678 24.6935C407.643 24.9711 408.546 25.4257 409.336 26.0327C410.029 26.5823 410.6 27.2639 411.013 28.0357C411.251 28.5267 411.432 29.0421 411.553 29.5722H412.345C412.284 28.8932 412.075 28.2348 411.731 27.641" fill="#010101"/>
<path d="M428.61 30.6901C428.178 30.5749 427.776 30.3711 427.431 30.0923L427.806 29.3151C428.11 29.5791 428.465 29.7822 428.85 29.9129C429.271 30.0621 429.715 30.139 430.164 30.1401C430.625 30.1693 431.086 30.0675 431.49 29.8471C431.627 29.7651 431.74 29.6499 431.817 29.5126C431.895 29.3752 431.934 29.2206 431.932 29.0639C431.939 28.9533 431.921 28.8426 431.88 28.7394C431.838 28.6361 431.774 28.5429 431.692 28.466C431.516 28.3092 431.307 28.1927 431.078 28.1252C430.753 28.0161 430.421 27.9263 430.084 27.8562C429.642 27.7589 429.207 27.633 428.782 27.4795C428.453 27.3521 428.162 27.1466 427.935 26.8817C427.687 26.5835 427.562 26.2062 427.585 25.8234C427.58 25.4669 427.685 25.1173 427.886 24.819C428.115 24.5022 428.432 24.2554 428.8 24.1075C429.281 23.9147 429.798 23.823 430.317 23.8385C430.731 23.8405 431.144 23.8927 431.545 23.9939C431.92 24.0863 432.275 24.2422 432.595 24.4543L432.257 25.2495C431.672 24.884 430.993 24.6872 430.299 24.6815C429.842 24.649 429.386 24.7578 428.997 24.9923C428.862 25.0789 428.752 25.1972 428.677 25.3362C428.602 25.4752 428.564 25.6305 428.567 25.7876C428.56 25.8987 428.578 26.0101 428.62 26.1136C428.663 26.217 428.729 26.3099 428.813 26.3854C428.989 26.5431 429.199 26.6615 429.427 26.7322C429.748 26.8395 430.076 26.9274 430.409 26.9953C430.849 27.0917 431.282 27.2176 431.705 27.372C432.03 27.5028 432.319 27.7078 432.546 27.9698C432.793 28.2613 432.92 28.6323 432.902 29.0101C432.903 29.3652 432.797 29.7127 432.595 30.0085C432.364 30.3327 432.039 30.5825 431.662 30.726C431.176 30.9139 430.656 31.0034 430.133 30.9891C429.605 30.9928 429.079 30.9099 428.579 30.7439" fill="#010101"/>
<path d="M449.314 30.8576L449.302 25.7876L446.723 30.0086H446.25L443.672 25.8174V30.8576H442.689V23.8983H443.524L446.508 28.7889L449.443 23.8983H450.285L450.291 30.8576H449.314Z" fill="#010101"/>
<path d="M459.961 24.5439C460.218 24.7709 460.424 25.0478 460.564 25.3567C460.705 25.6656 460.777 25.9997 460.777 26.3376C460.777 26.6754 460.705 27.0096 460.564 27.3185C460.424 27.6274 460.218 27.9042 459.961 28.1312C459.334 28.5918 458.56 28.8206 457.775 28.777H456.013V30.8516H454.988V23.8923H457.757C458.541 23.8486 459.316 24.0774 459.943 24.5379L459.961 24.5439ZM459.206 27.4736C459.379 27.3341 459.515 27.1569 459.603 26.9563C459.692 26.7557 459.73 26.5376 459.716 26.3197C459.73 26.101 459.691 25.882 459.603 25.6806C459.514 25.4791 459.378 25.3007 459.206 25.1598C458.775 24.8648 458.252 24.7234 457.726 24.7592H455.995V27.8622H457.757C458.284 27.8963 458.806 27.7527 459.237 27.4556" fill="#010101"/>
<path d="M464.806 23.8983H465.831V29.9906H469.699V30.8576H464.806V23.8983Z" fill="#010101"/>
<path d="M478.609 29.9906V30.8576H473.42V23.8983H478.467V24.7652H474.446V26.8996H478.025V27.7426H474.446V29.9906H478.609Z" fill="#010101"/>
<path d="M428.85 42.9646C428.287 42.6698 427.82 42.229 427.499 41.6911C427.177 41.1346 427.007 40.5064 427.007 39.8675C427.007 39.2286 427.177 38.6006 427.499 38.0441C427.824 37.5073 428.293 37.067 428.856 36.7706C429.452 36.4605 430.12 36.3021 430.796 36.3102C431.319 36.3028 431.839 36.3962 432.325 36.5852C432.78 36.7585 433.187 37.0352 433.51 37.3923L432.847 37.9902C432.591 37.7218 432.28 37.5094 431.934 37.3671C431.588 37.2249 431.215 37.156 430.839 37.1652C430.335 37.157 429.838 37.2764 429.396 37.5119C428.976 37.7347 428.629 38.0684 428.395 38.4745C428.158 38.8927 428.033 39.3628 428.033 39.8407C428.033 40.3186 428.158 40.7886 428.395 41.2068C428.631 41.6099 428.978 41.9412 429.396 42.1635C429.838 42.3989 430.335 42.5184 430.839 42.5102C431.215 42.5178 431.588 42.4477 431.934 42.3045C432.281 42.1612 432.591 41.9481 432.847 41.6791L433.51 42.277C433.184 42.6328 432.779 42.911 432.325 43.0901C431.834 43.2785 431.311 43.372 430.784 43.3652C430.109 43.3762 429.443 43.2177 428.85 42.9048" fill="#010101"/>
<path d="M442.309 42.564V43.425H437.12V36.4716H442.161V37.3326H438.139V39.473H441.725V40.316H438.139V42.564H442.309Z" fill="#010101"/>
<path d="M451.285 43.407L449.744 41.2726H449.296H447.534V43.407H446.508V36.4716H449.296C450.08 36.4274 450.855 36.6563 451.482 37.1173C451.749 37.335 451.961 37.6105 452.099 37.922C452.238 38.2334 452.3 38.5721 452.28 38.911C452.296 39.4002 452.152 39.8818 451.869 40.2861C451.582 40.6746 451.175 40.9637 450.708 41.1112L452.403 43.4429L451.285 43.407ZM450.745 40.041C450.922 39.8957 451.06 39.7114 451.149 39.5034C451.238 39.2953 451.274 39.0696 451.255 38.8452C451.269 38.6274 451.23 38.4094 451.142 38.2089C451.053 38.0083 450.917 37.831 450.745 37.6913C450.315 37.3933 449.792 37.2497 449.265 37.2847H447.534V40.4176H449.265C449.792 40.4527 450.315 40.309 450.745 40.011" fill="#010101"/>
<path d="M461.668 42.564V43.425H456.486V36.4716H461.527V37.3326H457.505V39.473H461.085V40.316H457.505V42.564H461.668Z" fill="#010101"/>
<path d="M472.499 43.425L472.487 38.355L469.908 42.582H469.435L466.857 38.3849V43.425H465.874V36.4716H466.709L469.693 41.3563L472.634 36.4716H473.469L473.482 43.425H472.499Z" fill="#010101"/>
<path d="M479.45 42.9646C478.885 42.6683 478.414 42.2281 478.087 41.6912C477.765 41.1355 477.596 40.5084 477.596 39.8706C477.596 39.2327 477.765 38.6057 478.087 38.0501C478.414 37.5113 478.885 37.069 479.45 36.7706C480.052 36.4681 480.719 36.3102 481.396 36.3102C482.073 36.3102 482.741 36.4681 483.343 36.7706C483.905 37.0671 484.375 37.5074 484.7 38.0441C485.022 38.6006 485.191 39.2287 485.191 39.8676C485.191 40.5065 485.022 41.1346 484.7 41.6912C484.378 42.2306 483.908 42.6717 483.343 42.9646C482.741 43.2672 482.073 43.425 481.396 43.425C480.719 43.425 480.052 43.2672 479.45 42.9646V42.9646ZM482.815 42.1933C483.228 41.9691 483.57 41.6381 483.803 41.2368C484.041 40.8186 484.165 40.3485 484.165 39.8706C484.165 39.3927 484.041 38.9227 483.803 38.5045C483.57 38.1015 483.228 37.7684 482.815 37.5418C482.384 37.3064 481.896 37.1868 481.402 37.1951C480.904 37.1869 480.413 37.3065 479.978 37.5418C479.559 37.7662 479.213 38.0995 478.977 38.5045C478.739 38.9227 478.615 39.3927 478.615 39.8706C478.615 40.3485 478.739 40.8186 478.977 41.2368C479.213 41.6399 479.559 41.9711 479.978 42.1933C480.413 42.4287 480.904 42.5483 481.402 42.5402C481.896 42.5485 482.384 42.4288 482.815 42.1933" fill="#010101"/>
<path d="M495.445 36.4716V43.425H494.61L490.324 38.2354V43.425H489.305V36.4716H490.14L494.425 41.6553V36.4716H495.445Z" fill="#010101"/>
<path d="M511.046 42.564V43.425H505.858V36.4716H510.899V37.3326H506.877V39.473H510.463V40.316H506.877V42.564H511.046Z" fill="#010101"/>
<path d="M515.774 43.1859C515.34 43.057 514.939 42.8411 514.595 42.5521L514.976 41.7749C515.281 42.0388 515.635 42.242 516.02 42.3728C516.441 42.521 516.886 42.5959 517.334 42.594C517.796 42.6253 518.257 42.5234 518.66 42.3011C518.795 42.2185 518.906 42.1036 518.982 41.9676C519.058 41.8316 519.098 41.6788 519.096 41.5238C519.102 41.4133 519.084 41.3028 519.043 41.1997C519.001 41.0966 518.938 41.0032 518.857 40.9259C518.681 40.7684 518.471 40.6519 518.243 40.5851C518.001 40.5094 517.67 40.4197 517.248 40.3161C516.806 40.2196 516.371 40.0937 515.946 39.9394C515.618 39.8103 515.327 39.605 515.099 39.3415C514.849 39.0445 514.721 38.667 514.743 38.2833C514.741 37.9271 514.845 37.578 515.044 37.2789C515.272 36.9598 515.59 36.711 515.959 36.5614C516.441 36.3678 516.96 36.276 517.481 36.2923C517.896 36.2938 518.309 36.3481 518.709 36.4538C519.084 36.544 519.439 36.6978 519.759 36.9082L519.422 37.7033C519.123 37.521 518.801 37.3783 518.464 37.2789C518.139 37.1857 517.802 37.1374 517.463 37.1354C517.006 37.1061 516.552 37.2147 516.161 37.4463C516.026 37.533 515.916 37.6511 515.84 37.79C515.763 37.9288 515.724 38.084 515.725 38.2414C515.719 38.3524 515.739 38.4633 515.781 38.5665C515.823 38.6697 515.888 38.7628 515.971 38.8393C516.147 38.9967 516.357 39.115 516.585 39.1861C516.907 39.2926 517.235 39.3805 517.567 39.4492C518.009 39.5509 518.443 39.6787 518.869 39.8318C519.195 39.962 519.483 40.1671 519.71 40.4297C519.957 40.7236 520.082 41.0969 520.06 41.476C520.062 41.8311 519.955 42.1785 519.753 42.4744C519.524 42.7962 519.201 43.0439 518.826 43.1859C518.341 43.3756 517.82 43.4651 517.297 43.4489C516.767 43.4516 516.241 43.3709 515.738 43.2098" fill="#010101"/>
<path d="M437.992 23.8983H436.973V30.8576H437.992V23.8983Z" fill="#010101"/>
<path d="M438.643 21.2855C438.643 21.509 438.575 21.7275 438.447 21.9133C438.32 22.0992 438.139 22.244 437.927 22.3295C437.715 22.415 437.481 22.4374 437.256 22.3938C437.031 22.3502 436.824 22.2426 436.662 22.0846C436.5 21.9265 436.389 21.7252 436.344 21.506C436.3 21.2868 436.322 21.0596 436.41 20.8531C436.498 20.6466 436.647 20.4701 436.838 20.346C437.029 20.2218 437.253 20.1555 437.482 20.1555C437.79 20.1555 438.085 20.2746 438.303 20.4865C438.521 20.6984 438.643 20.9859 438.643 21.2855" fill="#67C8C8"/>
<path d="M501.222 36.4716H500.203V43.431H501.222V36.4716Z" fill="#010101"/>
<path d="M501.867 33.841C501.868 34.065 501.801 34.2843 501.674 34.471C501.547 34.6578 501.366 34.8035 501.154 34.8897C500.941 34.976 500.707 34.9989 500.482 34.9555C500.256 34.9121 500.049 34.8044 499.886 34.646C499.723 34.4876 499.613 34.2857 499.568 34.0659C499.524 33.8462 499.547 33.6185 499.636 33.4118C499.724 33.205 499.874 33.0286 500.066 32.9049C500.258 32.7812 500.483 32.7158 500.713 32.717C501.018 32.7185 501.311 32.8375 501.527 33.0479C501.743 33.2584 501.866 33.5434 501.867 33.841" fill="#DFBF9D"/>
</g>
<path d="M53.1377 41H57.4987V25.7096H63.5287V22.1562H47.1077V25.7096H53.1377V41ZM79.0078 41H83.5841L75.1583 22.1562H70.8511L62.4521 41H66.9208L68.5898 36.962H77.3388L79.0078 41ZM69.9897 33.6509L72.9778 26.4364L75.9659 33.6509H69.9897ZM101.472 41L94.446 31.2551L101.014 22.1562H96.3035L92.0502 28.267L87.7161 22.1562H82.7629L89.3851 31.4166L82.4129 41H87.42L91.8887 34.4585L96.4381 41H101.472ZM111.407 41H115.768V22.1562H111.407V41ZM133.216 22.1562V33.5971L123.848 22.1562H120.24V41H124.548V29.5591L133.943 41H137.523V22.1562H133.216ZM155.659 22.1562L149.844 35.6161L144.11 22.1562H139.399L147.529 41H151.836L159.993 22.1562H155.659ZM170.456 41.323C176.378 41.323 180.766 37.2043 180.766 31.5781C180.766 25.9519 176.378 21.8331 170.456 21.8331C164.506 21.8331 160.145 25.9788 160.145 31.5781C160.145 37.1774 164.506 41.323 170.456 41.323ZM170.456 37.6081C167.091 37.6081 164.56 35.1584 164.56 31.5781C164.56 27.9978 167.091 25.5481 170.456 25.5481C173.821 25.5481 176.351 27.9978 176.351 31.5781C176.351 35.1584 173.821 37.6081 170.456 37.6081ZM184.043 41H188.404V22.1562H184.043V41ZM201.895 41.323C205.179 41.323 207.898 40.1386 209.674 37.9581L206.875 35.3738C205.609 36.8544 204.021 37.6081 202.137 37.6081C198.61 37.6081 196.107 35.1315 196.107 31.5781C196.107 28.0247 198.61 25.5481 202.137 25.5481C204.021 25.5481 205.609 26.3018 206.875 27.7555L209.674 25.1712C207.898 23.0176 205.179 21.8331 201.921 21.8331C196.053 21.8331 191.692 25.898 191.692 31.5781C191.692 37.2582 196.053 41.323 201.895 41.323ZM216.953 37.5004V33.1394H225.702V29.7475H216.953V25.6557H226.86V22.1562H212.619V41H227.21V37.5004H216.953Z" fill="white"/>
<defs>
<clipPath id="clip0_1_210">
<rect width="139.238" height="45.3192" fill="white" transform="translate(380.859 10.6074)"/>
</clipPath>
</defs>
</svg>
