<svg width="37" height="36" viewBox="0 0 37 36" fill="none" xmlns="http://www.w3.org/2000/svg">
<circle cx="18.5" cy="18" r="18" fill="white"/>
<path d="M17.243 29.12C15.783 29.12 14.333 28.93 12.893 28.55C11.453 28.15 10.233 27.59 9.23304 26.87L11.123 23.15C11.923 23.73 12.853 24.19 13.913 24.53C14.973 24.87 16.043 25.04 17.123 25.04C18.343 25.04 19.303 24.8 20.003 24.32C20.703 23.84 21.053 23.18 21.053 22.34C21.053 21.54 20.743 20.91 20.123 20.45C19.503 19.99 18.503 19.76 17.123 19.76H14.903V16.55L20.753 9.92L21.293 11.66H10.283V7.76H24.983V10.91L19.163 17.54L16.703 16.13H18.113C20.693 16.13 22.643 16.71 23.963 17.87C25.283 19.03 25.943 20.52 25.943 22.34C25.943 23.52 25.633 24.63 25.013 25.67C24.393 26.69 23.443 27.52 22.163 28.16C20.883 28.8 19.243 29.12 17.243 29.12Z" fill="#1C1C1C"/>
</svg>
