<svg width="37" height="36" viewBox="0 0 37 36" fill="none" xmlns="http://www.w3.org/2000/svg">
<circle cx="18.5" cy="18" r="18" fill="white"/>
<path d="M10.2823 28.76V25.61L18.3823 17.96C19.0223 17.38 19.4923 16.86 19.7924 16.4C20.0923 15.94 20.2923 15.52 20.3923 15.14C20.5123 14.76 20.5723 14.41 20.5723 14.09C20.5723 13.25 20.2823 12.61 19.7023 12.17C19.1423 11.71 18.3123 11.48 17.2123 11.48C16.3323 11.48 15.5123 11.65 14.7523 11.99C14.0123 12.33 13.3823 12.86 12.8623 13.58L9.32235 11.3C10.1223 10.1 11.2423 9.15 12.6823 8.45C14.1223 7.75 15.7823 7.4 17.6623 7.4C19.2223 7.4 20.5824 7.66 21.7423 8.18C22.9224 8.68 23.8324 9.39 24.4724 10.31C25.1324 11.23 25.4624 12.33 25.4624 13.61C25.4624 14.29 25.3724 14.97 25.1924 15.65C25.0323 16.31 24.6923 17.01 24.1723 17.75C23.6723 18.49 22.9323 19.32 21.9523 20.24L15.2323 26.57L14.3023 24.8H26.1524V28.76H10.2823Z" fill="#1C1C1C"/>
</svg>
