<svg width="48" height="47" viewBox="0 0 48 47" fill="none" xmlns="http://www.w3.org/2000/svg">
<path d="M21.6516 5.90305C22.5624 5.90305 23.3003 6.64094 23.3003 7.5517C23.3003 7.92859 23.6038 8.23211 23.9807 8.23211C24.3576 8.23211 24.6611 7.92859 24.6611 7.5517C24.6611 6.64088 25.4044 5.90305 26.3149 5.90305C27.2257 5.90305 27.9636 6.64094 27.9636 7.5517C27.9636 7.85008 27.8799 8.14309 27.7175 8.41018L23.9804 13.0894L20.3272 8.52539C20.1127 8.23752 19.9975 7.90246 19.9975 7.552C20.0028 6.641 20.741 5.90311 21.6515 5.90311L21.6516 5.90305ZM8.36823 39.4002V11.9008C8.36823 11.0164 8.93882 10.2994 9.64542 10.2994H20.0086L22.6307 13.5811H21.2332L20.5633 13.6229L13.3926 13.5967C12.2359 13.5967 11.3303 14.7639 11.3303 16.245V39.3998L8.36823 39.4002ZM12.6913 28.4352V16.2453C12.6913 15.5074 13.0628 14.9525 13.3928 14.9525L20.6048 14.9735L21.2747 14.9317L23.2898 14.9368C22.9968 26.0902 16.4175 28.1682 12.691 28.435L12.6913 28.4352ZM24.7557 14.9425L34.7474 14.9581C35.0771 14.9581 35.4488 15.5128 35.4488 16.2509V28.4301C26.8078 27.6763 24.8291 20.8042 24.7555 14.9422L24.7557 14.9425ZM39.7719 39.4008H36.8097V16.2459C36.8097 14.7593 35.9042 13.5976 34.7474 13.5976L25.3263 13.582L27.9484 10.3003H38.4946C39.1961 10.3003 39.7718 11.0174 39.7718 11.9071V39.4011L39.7719 39.4008Z" fill="#62CBC9"/>
</svg>
