<svg width="73" height="73" viewBox="0 0 73 73" fill="none" xmlns="http://www.w3.org/2000/svg">
<path d="M32.7229 9.125C34.1455 9.125 35.2978 10.2775 35.2978 11.6999C35.2978 12.2886 35.7719 12.7626 36.3605 12.7626C36.9492 12.7626 37.4232 12.2886 37.4232 11.6999C37.4232 10.2774 38.5841 9.125 40.0062 9.125C41.4287 9.125 42.5811 10.2775 42.5811 11.6999C42.5811 12.1659 42.4505 12.6236 42.1968 13.0407L36.36 20.3489L30.6543 13.2207C30.3193 12.7711 30.1394 12.2478 30.1394 11.7004C30.1478 10.2776 31.3007 9.12509 32.7227 9.12509L32.7229 9.125ZM11.9765 61.4418V18.4925C11.9765 17.1113 12.8677 15.9913 13.9713 15.9913H30.1568L34.2521 21.1168H32.0694L31.0232 21.1821L19.8237 21.1412C18.0172 21.1412 16.6027 22.9641 16.6027 25.2773V61.4413L11.9765 61.4418ZM18.7285 44.3165V25.2778C18.7285 24.1254 19.3087 23.2587 19.824 23.2587L31.088 23.2915L32.1343 23.2262L35.2815 23.2342C34.8239 40.6539 24.5481 43.8994 18.7279 44.316L18.7285 44.3165ZM37.5709 23.2431L53.1763 23.2675C53.6912 23.2675 54.2719 24.1339 54.2719 25.2867V44.3085C40.776 43.1312 37.6856 32.398 37.5706 23.2426L37.5709 23.2431ZM61.0238 61.4428H56.3972V25.2788C56.3972 22.957 54.9831 21.1426 53.1763 21.1426L38.4622 21.1182L42.5575 15.9927H59.0289C60.1244 15.9927 61.0236 17.1127 61.0236 18.5024V61.4433L61.0238 61.4428Z" fill="white"/>
</svg>
