<svg width="15" height="16" viewBox="0 0 15 16" fill="none" xmlns="http://www.w3.org/2000/svg">
<path d="M2.39994 15.9999H11.9999C12.6365 15.9999 13.2469 15.7471 13.6969 15.2971C14.1471 14.8469 14.3999 14.2365 14.3999 13.5999V3.99994C14.3999 3.57566 14.2313 3.16865 13.9313 2.86865C13.6312 2.56852 13.2243 2.40003 12.7999 2.40003H11.2V0.799988C11.2 0.514186 11.0474 0.25008 10.7999 0.107177C10.5524 -0.0357257 10.2475 -0.0357257 9.99998 0.107177C9.75247 0.25008 9.59994 0.514183 9.59994 0.799988V2.40003H4.79994V0.799988C4.79994 0.514186 4.64739 0.25008 4.39989 0.107177C4.15239 -0.0357257 3.84745 -0.0357257 3.59994 0.107177C3.35243 0.25008 3.19989 0.514183 3.19989 0.799988V2.40003H1.59998C1.17556 2.40003 0.768693 2.56852 0.468556 2.86865C0.168556 3.16865 -6.10352e-05 3.57566 -6.10352e-05 3.99994V13.5999C-6.10352e-05 14.2365 0.252796 14.8469 0.702933 15.2971C1.15293 15.7471 1.76339 15.9999 2.39994 15.9999ZM1.59998 8.40017C1.59998 8.17919 1.77905 8.00012 1.99989 8.00012H12.4001C12.5062 8.00012 12.6078 8.04231 12.683 8.11731C12.758 8.19231 12.8 8.2941 12.8 8.40017V13.5999C12.8 13.8122 12.7158 14.0157 12.5658 14.1657C12.4158 14.3157 12.2122 14.4 12.0001 14.4H2.40008C2.18794 14.4 1.98437 14.3157 1.83437 14.1657C1.68437 14.0157 1.60013 13.8122 1.60013 13.5999L1.59998 8.40017Z" fill="#1C1C1C"/>
</svg>
