<svg width="23" height="23" viewBox="0 0 23 23" fill="none" xmlns="http://www.w3.org/2000/svg">
<path d="M21.625 10.3849H10.1725C9.85237 9.55466 9.18917 8.88638 8.33815 8.53703C7.4874 8.18766 6.52382 8.18766 5.6728 8.53703C4.82205 8.88641 4.15881 9.55466 3.83867 10.3849H1.37498C0.972947 10.3849 0.601562 10.5898 0.40067 10.9224C0.199777 11.255 0.199777 11.6649 0.40067 11.9974C0.601562 12.33 0.97296 12.5349 1.37498 12.5349H3.82735C4.14753 13.3652 4.81073 14.0335 5.66175 14.3828C6.5125 14.7322 7.47608 14.7322 8.3271 14.3828C9.17785 14.0334 9.84109 13.3652 10.1612 12.5349H21.6247C22.0267 12.5349 22.3981 12.33 22.599 11.9974C22.7999 11.6648 22.7999 11.255 22.599 10.9224C22.3981 10.5899 22.0267 10.3849 21.6247 10.3849H21.625ZM7.00005 12.5349C6.70172 12.5349 6.41545 12.4217 6.20451 12.2201C5.99358 12.0185 5.87505 11.745 5.87505 11.4599C5.87505 11.1749 5.99358 10.9013 6.20451 10.6997C6.41545 10.4982 6.70172 10.3849 7.00005 10.3849C7.29837 10.3849 7.58465 10.4982 7.79558 10.6997C8.00652 10.9013 8.12505 11.1749 8.12505 11.4599C8.12505 11.745 8.00652 12.0185 7.79558 12.2201C7.58465 12.4217 7.29837 12.5349 7.00005 12.5349ZM21.625 17.9099H16.9227C16.6025 17.0797 15.9393 16.4114 15.0883 16.062C14.2375 15.7127 13.2739 15.7127 12.4229 16.062C11.5722 16.4114 10.9089 17.0797 10.5888 17.9099H1.37537C0.973333 17.9099 0.601948 18.1148 0.401055 18.4474C0.200162 18.78 0.200162 19.1899 0.401055 19.5224C0.601948 19.855 0.973346 20.0599 1.37537 20.0599H10.5779C10.898 20.8902 11.5612 21.5585 12.4123 21.9078C13.263 22.2572 14.2266 22.2572 15.0776 21.9078C15.9284 21.5584 16.5916 20.8902 16.9117 20.0599H21.6254C22.0275 20.0599 22.3988 19.855 22.5997 19.5224C22.8006 19.1898 22.8006 18.78 22.5997 18.4474C22.3988 18.1149 22.0275 17.9099 21.6254 17.9099H21.625ZM13.75 20.0599C13.4517 20.0599 13.1654 19.9467 12.9545 19.7451C12.7436 19.5435 12.625 19.27 12.625 18.9849C12.625 18.6999 12.7436 18.4263 12.9545 18.2247C13.1654 18.0232 13.4517 17.9099 13.75 17.9099C14.0484 17.9099 14.3346 18.0232 14.5456 18.2247C14.7565 18.4263 14.875 18.6999 14.875 18.9849C14.875 19.27 14.7565 19.5435 14.5456 19.7451C14.3346 19.9467 14.0484 20.0599 13.75 20.0599ZM1.37505 5.00993H13.9525C14.2727 5.84019 14.9359 6.50848 15.7869 6.85782C16.6377 7.2072 17.6013 7.2072 18.4523 6.85782C19.303 6.50845 19.9663 5.84019 20.2864 5.00993H21.6251C22.0271 5.00993 22.3985 4.80501 22.5994 4.47243C22.8003 4.13985 22.8003 3.73 22.5994 3.39743C22.3985 3.06485 22.0271 2.85993 21.6251 2.85993H20.2977C19.9776 2.02966 19.3144 1.36138 18.4633 1.01203C17.6126 0.662656 16.649 0.662656 15.798 1.01203C14.9472 1.36141 14.284 2.02966 13.9639 2.85993H1.37543C0.973397 2.85993 0.602013 3.06485 0.40112 3.39743C0.200227 3.73001 0.200227 4.13985 0.40112 4.47243C0.602013 4.805 0.97341 5.00993 1.37543 5.00993H1.37505ZM17.125 2.85993C17.4234 2.85993 17.7096 2.97319 17.9206 3.17475C18.1315 3.37631 18.25 3.64986 18.25 3.93493C18.25 4.21999 18.1315 4.49355 17.9206 4.6951C17.7096 4.89666 17.4234 5.00993 17.125 5.00993C16.8267 5.00993 16.5404 4.89666 16.3295 4.6951C16.1186 4.49355 16 4.21999 16 3.93493C16 3.64986 16.1186 3.37631 16.3295 3.17475C16.5404 2.97319 16.8267 2.85993 17.125 2.85993Z" fill="#62CBC9"/>
</svg>
