<svg width="12" height="18" viewBox="0 0 12 18" fill="none" xmlns="http://www.w3.org/2000/svg">
<path d="M0.959105 9.96274L5.8263 17.3472L10.6935 9.96274C11.4688 8.78578 11.7913 7.36772 11.6011 5.9712C11.4111 4.57474 10.7214 3.29451 9.65984 2.36742C8.59819 1.44051 7.23653 0.929688 5.82705 0.929688C4.41774 0.929688 3.05622 1.44048 1.9946 2.36742C0.93298 3.29437 0.243221 4.57457 0.0531756 5.9712C-0.13687 7.36765 0.185631 8.78571 0.960956 9.96274H0.959105ZM5.8263 3.7632C6.60698 3.7632 7.35561 4.07338 7.90754 4.62531C8.4596 5.17738 8.76965 5.92604 8.76965 6.70656C8.76965 7.48724 8.4596 8.23587 7.90754 8.7878C7.35561 9.33987 6.60695 9.64992 5.8263 9.64992C5.04565 9.64992 4.29698 9.33987 3.74505 8.7878C3.19299 8.23587 2.88294 7.48721 2.88294 6.70656C2.88388 5.92628 3.19432 5.17817 3.74612 4.62651C4.29791 4.07472 5.04602 3.76429 5.8263 3.7632Z" fill="#1C1C1C"/>
</svg>
