<svg width="437" height="146" viewBox="0 0 437 146" fill="none" xmlns="http://www.w3.org/2000/svg">
<g clip-path="url(#clip0_535_99666)">
<path d="M127.784 72.923C127.784 84.9534 124.214 96.7137 117.527 106.717C110.84 116.72 101.336 124.516 90.2158 129.12C79.0957 133.724 66.8594 134.928 55.0544 132.581C43.2494 130.234 32.4058 124.441 23.8948 115.934C15.3839 107.427 9.58786 96.5891 7.2397 84.7899C4.89153 72.9906 6.09664 60.7603 10.7027 49.6457C15.3088 38.531 23.109 29.031 33.1168 22.3473C43.1247 15.6635 54.8906 12.0962 66.9269 12.0962C83.0671 12.0962 98.5463 18.5046 109.959 29.9119C121.372 41.3191 127.784 56.7907 127.784 72.923Z" fill="#E0F2F0"/>
<path d="M19.1165 118.572C19.0331 118.574 18.9503 118.557 18.8738 118.524C18.7973 118.491 18.7289 118.442 18.6733 118.379C12.7158 112.795 7.93049 106.081 4.59658 98.6294C1.26268 91.1773 -0.553064 83.1363 -0.74477 74.9754C-0.936476 66.8144 0.499717 58.6969 3.48003 51.0966C6.46034 43.4963 10.9251 36.5655 16.6138 30.7082C22.3025 24.8509 29.1013 20.1845 36.6135 16.9813C44.1256 13.7781 52.2008 12.1022 60.3678 12.0515C68.5349 12.0007 76.6302 13.5762 84.1817 16.6857C91.7331 19.7953 98.5894 24.377 104.35 30.1632C104.444 30.2884 104.489 30.4426 104.479 30.5984C104.468 30.7541 104.402 30.9009 104.293 31.0124C104.184 31.124 104.038 31.1929 103.883 31.2067C103.727 31.2204 103.572 31.1783 103.445 31.0877C97.7979 25.4531 91.087 20.9963 83.7021 17.9763C76.3171 14.9563 68.4054 13.4331 60.4265 13.4956C52.4476 13.5581 44.5606 15.2048 37.2239 18.3401C29.8872 21.4753 23.247 26.0366 17.6892 31.759C12.1313 37.4813 7.76664 44.2505 4.8487 51.6733C1.93075 59.0962 0.517726 67.0246 0.691765 74.9979C0.865804 82.9713 2.62339 90.8306 5.86245 98.1192C9.10151 105.408 13.7575 111.98 19.5597 117.455C19.6821 117.578 19.7508 117.744 19.7508 117.917C19.7508 118.09 19.6821 118.257 19.5597 118.379C19.434 118.497 19.2697 118.566 19.0972 118.572" fill="#010101"/>
<path d="M96.8152 84.6532C96.4678 87.318 95.7208 89.9153 94.5991 92.3577C93.3139 94.851 91.5298 97.0538 89.3575 98.8294C86.8666 100.77 84.0374 102.233 81.0133 103.144C78.1084 103.992 75.0982 104.427 72.0717 104.434C68.8357 104.407 65.6355 103.753 62.6484 102.508C59.4875 101.224 56.6172 99.3181 54.2079 96.9033C51.5401 94.2027 49.4659 90.9751 48.1184 87.4269C46.8928 84.1727 46.1778 80.7487 45.9986 77.2762L42.9346 76.8525C43.0886 80.938 43.9289 84.9683 45.4204 88.7751C47.515 94.1221 51.1641 98.7193 55.8973 101.974C60.6304 105.229 66.2305 106.991 71.9754 107.035C75.4685 107.062 78.9452 106.555 82.2852 105.533C85.4871 104.497 88.4535 102.841 91.0148 100.659C93.4079 98.6747 95.4136 96.265 96.9308 93.5519C98.3444 90.7703 99.208 87.7423 99.4746 84.6339L96.8152 84.6532Z" fill="#010101"/>
<path d="M60.5675 51.4851C62.5909 54.2395 62.6873 56.8783 62.6487 61.1157H65.0768C65.0768 59.1896 65.0768 58.0917 64.9419 56.4737C64.7743 54.1343 63.9604 51.8873 62.5909 49.9827C62.251 49.5064 61.8844 49.0499 61.4925 48.6152C60.724 48.9921 59.9834 49.4235 59.2764 49.9058C59.7368 50.4003 60.1679 50.9211 60.5675 51.4659" fill="#010101"/>
<path d="M28.3082 69.7449C32.446 72.6424 37.2821 74.3844 42.3179 74.7913L51.3944 76.0241C54.373 76.2739 57.2801 77.0705 59.9698 78.3739C61.9063 79.3618 63.4638 80.9591 64.402 82.9195C65.3777 85.1987 65.8383 87.6649 65.751 90.1424C65.8224 91.9629 65.517 93.7785 64.8538 95.4755C64.1906 97.1724 63.1839 98.7143 61.8969 100.004C62.3594 100.236 62.8218 100.467 63.3036 100.659C63.7854 100.852 64.2672 100.987 64.7682 101.141C65.4345 100.426 66.0343 99.6524 66.5603 98.8293C68.1564 96.1321 68.9704 93.0444 68.9114 89.9113C68.9984 87.0336 68.4042 84.176 67.177 81.5713C65.9375 79.2331 64.0242 77.3208 61.6849 76.0819C58.6757 74.5478 55.4093 73.5815 52.0496 73.2313L42.8575 71.9985C38.7156 71.5933 34.7147 70.2778 31.141 68.1463C28.199 66.2073 26.7215 62.7725 26.7087 57.8416C26.6525 55.9837 27.0167 54.137 27.7741 52.4394C28.5315 50.7419 29.6627 49.2371 31.0832 48.0375C33.993 45.5335 38.1362 44.3009 43.532 44.3009C47.0219 44.2111 50.4945 44.82 53.7454 46.0921C54.4777 45.5142 55.21 44.9557 55.9808 44.4356C52.0594 42.5323 47.735 41.6072 43.3778 41.7392C39.6786 41.6116 35.9942 42.268 32.567 43.6654C29.8093 44.8386 27.4667 46.811 25.8416 49.328C24.2586 51.9019 23.4554 54.8788 23.5291 57.8992C23.5291 63.2731 25.1478 67.2409 28.3467 69.7642" fill="#010101"/>
<path d="M55.0365 103.741C53.0051 104.231 50.9211 104.471 48.8313 104.453C44.2993 104.661 39.7792 103.838 35.6116 102.046C32.5892 100.625 30.1662 98.1831 28.7706 95.1504C27.3588 91.8614 26.6689 88.308 26.7472 84.73H24.0107C24.0608 87.1955 24.3709 89.6489 24.9358 92.0493C25.9223 95.5605 27.778 98.7666 30.3315 101.372C32.5721 103.318 35.199 104.768 38.0398 105.628C41.5247 106.682 45.1522 107.189 48.7927 107.131C51.9476 107.189 55.0873 106.68 58.062 105.628C57.0051 105.045 55.982 104.402 54.9979 103.702" fill="#010101"/>
<path d="M96.9693 54.9137C95.4357 52.2286 93.4242 49.846 91.034 47.8833C88.4813 45.6892 85.5123 44.0318 82.3044 43.0102C79.0125 41.9545 75.5663 41.4596 72.1102 41.5463C66.6634 41.5145 61.3303 43.1036 56.7901 46.1112C52.4019 48.9797 48.862 52.9701 46.5381 57.668C44.6303 61.5277 43.4542 65.7073 43.0693 69.9952L46.0756 70.3996C46.4271 66.6203 47.3971 62.9245 48.9469 59.4594C50.896 55.0691 53.9829 51.2789 57.8885 48.4806C62.0537 45.5804 67.0354 44.0824 72.1102 44.2044C75.1286 44.1058 78.1427 44.5026 81.0325 45.3793C84.0631 46.2739 86.8952 47.7382 89.3767 49.6938C91.5515 51.4642 93.3417 53.6601 94.6376 56.1465C95.3848 57.7285 95.9536 59.3887 96.3334 61.0965H98.8193C98.6278 58.9092 97.9707 56.7881 96.8922 54.8752" fill="#010101"/>
<path d="M149.868 64.6983C148.511 64.3272 147.25 63.6705 146.168 62.7722L147.344 60.2684C148.299 61.119 149.412 61.7734 150.62 62.1945C151.941 62.675 153.337 62.9227 154.743 62.9264C156.193 63.0205 157.639 62.6925 158.906 61.9824C159.336 61.7184 159.691 61.347 159.934 60.9046C160.177 60.4622 160.301 59.9641 160.293 59.4593C160.315 59.103 160.259 58.7463 160.129 58.4137C160 58.0812 159.799 57.7807 159.542 57.5332C158.99 57.0279 158.331 56.6526 157.615 56.4352C156.593 56.0837 155.55 55.7943 154.493 55.5685C153.106 55.255 151.741 54.8496 150.408 54.355C149.374 53.9447 148.46 53.2825 147.748 52.4289C146.971 51.4685 146.579 50.253 146.65 49.0196C146.636 47.8712 146.965 46.7448 147.594 45.7839C148.314 44.7632 149.31 43.9682 150.465 43.4917C151.973 42.8705 153.595 42.5752 155.225 42.625C156.526 42.6314 157.82 42.7997 159.079 43.1258C160.256 43.4236 161.372 43.9256 162.375 44.609L161.315 47.1706C159.479 45.9935 157.348 45.3592 155.167 45.3409C153.734 45.2363 152.304 45.5867 151.082 46.3423C150.66 46.6212 150.314 47.0024 150.079 47.4502C149.843 47.898 149.724 48.3982 149.733 48.9042C149.71 49.2624 149.767 49.6212 149.9 49.9545C150.034 50.2878 150.24 50.587 150.504 50.8303C151.057 51.3384 151.715 51.7196 152.431 51.9474C153.44 52.2931 154.47 52.5763 155.514 52.795C156.896 53.1057 158.254 53.5111 159.58 54.0085C160.602 54.4299 161.507 55.0904 162.22 55.9346C162.998 56.8736 163.396 58.0687 163.338 59.286C163.343 60.4299 163.007 61.5493 162.375 62.5025C161.65 63.5468 160.63 64.3516 159.445 64.814C157.92 65.4193 156.288 65.7075 154.647 65.6614C152.989 65.6733 151.341 65.4063 149.772 64.8716" fill="#010101"/>
<path d="M214.849 65.2379L214.81 48.9044L206.716 62.5028H205.233L197.139 49.0007V65.2379H194.056V42.8179H196.676L206.042 58.5735L215.253 42.8179H217.893L217.913 65.2379H214.849Z" fill="#010101"/>
<path d="M248.264 44.8976C249.07 45.6289 249.715 46.5208 250.156 47.516C250.597 48.5111 250.825 49.5875 250.825 50.676C250.825 51.7645 250.597 52.8411 250.156 53.8363C249.715 54.8314 249.07 55.7231 248.264 56.4544C246.295 57.9381 243.864 58.6754 241.403 58.5347H235.873V65.2183H232.654V42.7982H241.345C243.806 42.6576 246.238 43.3947 248.206 44.8784L248.264 44.8976ZM245.893 54.3357C246.435 53.8865 246.862 53.3156 247.14 52.6694C247.418 52.0232 247.539 51.3203 247.493 50.6184C247.537 49.9139 247.416 49.2085 247.138 48.5594C246.86 47.9104 246.434 47.3357 245.893 46.8816C244.539 45.9314 242.899 45.4759 241.249 45.5912H235.815V55.5877H241.345C242.998 55.6975 244.638 55.2348 245.99 54.2778" fill="#010101"/>
<path d="M263.468 42.8179H266.686V62.445H278.826V65.2379H263.468V42.8179Z" fill="#010101"/>
<path d="M306.789 62.445V65.2379H290.505V42.8179H306.345V45.6107H293.723V52.487H304.958V55.2028H293.723V62.445H306.789Z" fill="#010101"/>
<path d="M150.619 104.242C148.854 103.292 147.387 101.872 146.38 100.139C145.368 98.3462 144.837 96.3227 144.837 94.2644C144.837 92.2061 145.368 90.1828 146.38 88.3899C147.4 86.6607 148.872 85.2422 150.639 84.2872C152.511 83.2882 154.606 82.778 156.728 82.8041C158.37 82.7801 160.001 83.0812 161.526 83.69C162.956 84.2484 164.231 85.1398 165.246 86.2902L163.164 88.2163C162.363 87.3515 161.387 86.6674 160.3 86.2091C159.214 85.7508 158.042 85.529 156.863 85.5585C155.282 85.532 153.721 85.9169 152.334 86.6756C151.016 87.3933 149.928 88.4682 149.193 89.7766C148.448 91.1238 148.056 92.6382 148.056 94.1779C148.056 95.7175 148.448 97.2317 149.193 98.5789C149.934 99.8777 151.021 100.945 152.334 101.661C153.721 102.42 155.282 102.804 156.863 102.778C158.043 102.803 159.215 102.577 160.301 102.115C161.387 101.654 162.363 100.967 163.164 100.101L165.246 102.027C164.223 103.173 162.95 104.069 161.526 104.646C159.987 105.253 158.344 105.554 156.69 105.532C154.572 105.568 152.481 105.057 150.619 104.049" fill="#010101"/>
<path d="M192.861 102.951V105.725H176.577V83.3242H192.398V86.0978H179.776V92.9933H191.03V95.7092H179.776V102.951H192.861Z" fill="#010101"/>
<path d="M221.035 105.667L216.198 98.7908H214.791H209.26V105.667H206.042V83.324H214.791C217.252 83.1816 219.684 83.9189 221.651 85.4041C222.491 86.1053 223.154 86.993 223.589 87.9963C224.024 88.9997 224.219 90.0908 224.156 91.1825C224.207 92.7587 223.755 94.3102 222.865 95.6127C221.966 96.8643 220.69 97.7957 219.223 98.2707L224.542 105.783L221.035 105.667ZM219.339 94.8229C219.894 94.355 220.328 93.7612 220.607 93.091C220.885 92.4208 220.999 91.6937 220.938 90.9706C220.983 90.2689 220.862 89.5665 220.584 88.9206C220.306 88.2747 219.879 87.7033 219.339 87.2531C217.989 86.2932 216.348 85.8305 214.695 85.9435H209.26V96.0363H214.695C216.348 96.1493 217.989 95.6864 219.339 94.7265" fill="#010101"/>
<path d="M253.621 102.951V105.725H237.356V83.3242H253.178V86.0978H240.555V92.9933H251.79V95.7092H240.555V102.951H253.621Z" fill="#010101"/>
<path d="M287.614 105.725L287.576 89.3915L279.482 103.009H277.998L269.905 89.4878V105.725H266.821V83.3242H269.442L278.808 99.0606L288.038 83.3242H290.659L290.698 105.725H287.614Z" fill="#010101"/>
<path d="M309.429 104.242C307.657 103.287 306.178 101.869 305.151 100.139C304.141 98.3493 303.61 96.3291 303.61 94.2742C303.61 92.2193 304.141 90.1993 305.151 88.4093C306.177 86.6735 307.655 85.2488 309.429 84.2873C311.317 83.3127 313.412 82.8042 315.537 82.8042C317.663 82.8042 319.758 83.3127 321.646 84.2873C323.413 85.2423 324.885 86.6608 325.905 88.39C326.916 90.1829 327.448 92.2062 327.448 94.2645C327.448 96.3228 326.916 98.3464 325.905 100.139C324.896 101.877 323.421 103.298 321.646 104.242C319.758 105.217 317.663 105.725 315.537 105.725C313.412 105.725 311.317 105.217 309.429 104.242ZM319.989 101.757C321.287 101.035 322.361 99.9684 323.092 98.6754C323.837 97.3282 324.228 95.8138 324.228 94.2742C324.228 92.7345 323.837 91.2203 323.092 89.8731C322.361 88.5749 321.288 87.5019 319.989 86.7719C318.637 86.0135 317.107 85.628 315.557 85.6548C313.994 85.6286 312.452 86.0138 311.086 86.7719C309.772 87.4946 308.684 88.5685 307.945 89.8731C307.199 91.2203 306.808 92.7345 306.808 94.2742C306.808 95.8138 307.199 97.3282 307.945 98.6754C308.685 99.9742 309.773 101.041 311.086 101.757C312.452 102.515 313.994 102.901 315.557 102.874C317.107 102.901 318.637 102.516 319.989 101.757Z" fill="#010101"/>
<path d="M359.628 83.3242V105.725H357.007L343.556 89.0063V105.725H340.357V83.3242H342.978L356.429 100.024V83.3242H359.628Z" fill="#010101"/>
<path d="M408.595 102.951V105.725H392.312V83.3242H408.133V86.0978H395.51V92.9933H406.764V95.7092H395.51V102.951H408.595Z" fill="#010101"/>
<path d="M423.433 104.954C422.071 104.539 420.811 103.844 419.733 102.913L420.928 100.409C421.883 101.259 422.997 101.913 424.204 102.335C425.526 102.812 426.922 103.054 428.328 103.048C429.778 103.148 431.226 102.82 432.491 102.104C432.913 101.838 433.261 101.468 433.5 101.03C433.74 100.591 433.863 100.099 433.859 99.5998C433.878 99.2437 433.821 98.8877 433.691 98.5556C433.562 98.2234 433.362 97.9227 433.107 97.6736C432.557 97.1662 431.898 96.7909 431.18 96.5758C430.422 96.3319 429.382 96.0428 428.058 95.7089C426.67 95.3982 425.305 94.9927 423.973 94.4955C422.943 94.0795 422.03 93.4183 421.314 92.5694C420.528 91.6126 420.129 90.3964 420.196 89.1603C420.189 88.0128 420.517 86.8881 421.14 85.9243C421.858 84.8966 422.854 84.0948 424.011 83.6131C425.525 82.9892 427.154 82.6936 428.791 82.7462C430.093 82.7509 431.388 82.9258 432.645 83.2663C433.821 83.5569 434.936 84.0525 435.94 84.7302L434.88 87.2918C433.943 86.7045 432.932 86.2447 431.874 85.9243C430.854 85.6242 429.796 85.4686 428.733 85.4621C427.3 85.3678 425.874 85.7177 424.647 86.4637C424.224 86.7429 423.877 87.1235 423.638 87.5709C423.399 88.0183 423.276 88.5182 423.279 89.0254C423.261 89.383 423.321 89.7402 423.454 90.0726C423.587 90.405 423.79 90.7049 424.05 90.9515C424.604 91.4586 425.262 91.8396 425.977 92.0686C426.987 92.4117 428.017 92.6949 429.06 92.9162C430.446 93.2439 431.81 93.6556 433.146 94.1489C434.169 94.5683 435.074 95.2292 435.786 96.075C436.561 97.0218 436.953 98.2244 436.884 99.4457C436.889 100.59 436.553 101.709 435.921 102.662C435.201 103.699 434.188 104.497 433.011 104.954C431.487 105.566 429.853 105.854 428.212 105.802C426.55 105.81 424.897 105.55 423.318 105.032" fill="#010101"/>
<path d="M179.313 42.8179H176.114V65.2379H179.313V42.8179Z" fill="#010101"/>
<path d="M181.356 34.4007C181.356 35.1206 181.142 35.8245 180.742 36.4232C180.342 37.0218 179.773 37.4883 179.107 37.7638C178.442 38.0394 177.709 38.1114 177.003 37.971C176.296 37.8305 175.647 37.4839 175.138 36.9748C174.629 36.4657 174.282 35.8171 174.141 35.111C174.001 34.4048 174.073 33.6727 174.349 33.0076C174.624 32.3424 175.091 31.7737 175.69 31.3737C176.289 30.9737 176.993 30.7603 177.713 30.7603C178.679 30.7603 179.606 31.1438 180.289 31.8265C180.972 32.5092 181.356 33.4352 181.356 34.4007Z" fill="#67C8C8"/>
<path d="M377.762 83.3242H374.563V105.744H377.762V83.3242Z" fill="#010101"/>
<path d="M379.785 74.8492C379.789 75.5708 379.578 76.2774 379.179 76.879C378.781 77.4806 378.212 77.95 377.546 78.2279C376.88 78.5058 376.146 78.5796 375.437 78.4397C374.729 78.2999 374.078 77.9529 373.568 77.4426C373.057 76.9323 372.71 76.2818 372.57 75.5738C372.43 74.8659 372.504 74.1324 372.782 73.4664C373.06 72.8005 373.53 72.2321 374.132 71.8335C374.734 71.435 375.44 71.2243 376.162 71.2281C377.122 71.2331 378.04 71.6164 378.719 72.2944C379.397 72.9724 379.78 73.8904 379.785 74.8492Z" fill="#DFBF9D"/>
</g>
<defs>
<clipPath id="clip0_535_99666">
<rect width="437" height="146" fill="white"/>
</clipPath>
</defs>
</svg>
