<svg width="15" height="14" viewBox="0 0 15 14" fill="none" xmlns="http://www.w3.org/2000/svg">
<path d="M14.1097 12.9368L10.9975 9.82456C11.9495 8.69919 12.4299 7.24949 12.3378 5.77837C12.2459 4.30726 11.589 2.92864 10.5042 1.9306C9.41943 0.932556 7.99092 0.392467 6.51717 0.423111C5.04351 0.453753 3.63867 1.05291 2.59639 2.09517C1.5541 3.13742 0.954976 4.54215 0.924332 6.01595C0.89369 7.48962 1.4338 8.91807 2.43182 10.003C3.42975 11.0877 4.80842 11.7447 6.27959 11.8366C7.75071 11.9286 9.20044 11.4483 10.3258 10.4963L13.438 13.6085C13.5586 13.725 13.7318 13.7694 13.8936 13.725C14.0553 13.6806 14.1816 13.5542 14.2261 13.3925C14.2704 13.2307 14.2261 13.0576 14.1095 12.9369L14.1097 12.9368ZM1.89898 6.14751C1.89898 4.88771 2.39944 3.67952 3.29027 2.78886C4.18099 1.89803 5.38917 1.39757 6.64893 1.39757C7.90868 1.39757 9.11692 1.89803 10.0076 2.78886C10.8984 3.67958 11.3989 4.88776 11.3989 6.14751C11.3989 7.40727 10.8984 8.61551 10.0076 9.50617C9.11686 10.397 7.90868 10.8975 6.64893 10.8975C5.38955 10.8961 4.18221 10.3952 3.29162 9.50471C2.40104 8.6142 1.90023 7.40686 1.89887 6.14741L1.89898 6.14751Z" fill="white"/>
</svg>
