<svg width="11" height="13" viewBox="0 0 11 13" fill="none" xmlns="http://www.w3.org/2000/svg">
<path d="M4.98078 0.160238C2.31897 0.43844 0.313681 3.00052 0.544381 5.66734C0.848821 9.15873 4.06188 11.7678 5.16438 12.5604C5.38493 12.7179 5.67369 12.7127 5.88882 12.5447C7.03326 11.6522 10.5403 8.62823 10.5403 5.13173C10.535 2.19173 7.99407 -0.160265 4.98072 0.160135L4.98078 0.160238ZM5.53203 7.12174C4.43481 7.12174 3.54231 6.23452 3.54231 5.13202C3.54231 4.0294 4.42953 3.14746 5.53203 3.14746C6.63453 3.14746 7.52175 4.03468 7.52175 5.13718C7.52175 6.23968 6.62925 7.12174 5.53203 7.12174Z" fill="white"/>
</svg>
