<svg width="19" height="20" viewBox="0 0 19 20" fill="none" xmlns="http://www.w3.org/2000/svg">
<path d="M3.27134 5.18298C1.79205 5.18298 0.592896 6.38213 0.592896 7.86142C0.592896 8.04769 0.612315 8.23347 0.650991 8.4157L2.25602 16.0038C2.63421 17.7913 4.2119 19.0701 6.03894 19.0701H12.9335C14.7604 19.0701 16.3383 17.7914 16.7164 16.0038L18.3214 8.4157C18.36 8.23348 18.3795 8.04769 18.3795 7.86142C18.3795 6.38213 17.1804 5.18298 15.7011 5.18298H3.27134Z" fill="#62CBC9"/>
<path fill-rule="evenodd" clip-rule="evenodd" d="M4.48889 5.60116C4.48889 2.8298 6.72603 0.574219 9.49678 0.574219C12.2673 0.574219 14.5047 2.82963 14.5047 5.60116C14.5047 6.19898 14.0198 6.68381 13.4218 6.68381C12.824 6.68381 12.3392 6.19898 12.3392 5.60116C12.3392 4.01586 11.0617 2.73986 9.49682 2.73986C7.93177 2.73986 6.65428 4.0159 6.65428 5.60116C6.65428 6.19898 6.16961 6.68381 5.57163 6.68381C4.97365 6.68381 4.48897 6.19898 4.48897 5.60116H4.48889Z" fill="#62CBC9"/>
</svg>
