<svg width="13" height="13" viewBox="0 0 13 13" fill="none" xmlns="http://www.w3.org/2000/svg">
<path d="M2.41915 3.46484C1.44996 3.46484 0.664307 4.25049 0.664307 5.21968C0.664307 5.34172 0.67703 5.46344 0.702369 5.58283L1.75394 10.5543C2.00172 11.7255 3.03538 12.5633 4.23241 12.5633H8.74952C9.94647 12.5633 10.9802 11.7255 11.228 10.5543L12.2796 5.58283C12.3048 5.46344 12.3176 5.34172 12.3176 5.21968C12.3176 4.25049 11.532 3.46484 10.5628 3.46484H2.41915Z" fill="white"/>
<path fill-rule="evenodd" clip-rule="evenodd" d="M3.2168 3.73883C3.2168 1.92311 4.68251 0.445312 6.49783 0.445312C8.313 0.445312 9.77885 1.923 9.77885 3.73883C9.77885 4.1305 9.4612 4.44815 9.06942 4.44815C8.67775 4.44815 8.3601 4.1305 8.3601 3.73883C8.3601 2.70018 7.52312 1.86418 6.49785 1.86418C5.47248 1.86418 4.6355 2.70021 4.6355 3.73883C4.6355 4.1305 4.31796 4.44815 3.92618 4.44815C3.5344 4.44815 3.21685 4.1305 3.21685 3.73883H3.2168Z" fill="white"/>
</svg>
