<svg width="748" height="491" viewBox="0 0 748 491" fill="none" xmlns="http://www.w3.org/2000/svg">
<path d="M1 11C1 5.47714 5.47715 1 11 1H737C742.523 1 747 5.47715 747 11V417C747 422.523 742.523 427 737 427H11C5.47717 427 1 422.523 1 417V11Z" fill="white"/>
<path d="M72.1187 119V109.2H73.6167L77.9007 116.354H77.1167L81.3307 109.2H82.8287L82.8427 119H81.1207L81.1067 111.902H81.4707L77.8867 117.88H77.0747L73.4347 111.902H73.8547V119H72.1187ZM88.6818 119.098C87.9165 119.098 87.2352 118.935 86.6378 118.608C86.0405 118.272 85.5692 117.815 85.2238 117.236C84.8785 116.657 84.7058 115.999 84.7058 115.262C84.7058 114.515 84.8785 113.857 85.2238 113.288C85.5692 112.709 86.0405 112.257 86.6378 111.93C87.2352 111.603 87.9165 111.44 88.6818 111.44C89.4565 111.44 90.1425 111.603 90.7398 111.93C91.3465 112.257 91.8178 112.705 92.1538 113.274C92.4992 113.843 92.6718 114.506 92.6718 115.262C92.6718 115.999 92.4992 116.657 92.1538 117.236C91.8178 117.815 91.3465 118.272 90.7398 118.608C90.1425 118.935 89.4565 119.098 88.6818 119.098ZM88.6818 117.6C89.1112 117.6 89.4938 117.507 89.8298 117.32C90.1658 117.133 90.4272 116.863 90.6138 116.508C90.8098 116.153 90.9078 115.738 90.9078 115.262C90.9078 114.777 90.8098 114.361 90.6138 114.016C90.4272 113.661 90.1658 113.391 89.8298 113.204C89.4938 113.017 89.1158 112.924 88.6958 112.924C88.2665 112.924 87.8838 113.017 87.5478 113.204C87.2212 113.391 86.9598 113.661 86.7638 114.016C86.5678 114.361 86.4698 114.777 86.4698 115.262C86.4698 115.738 86.5678 116.153 86.7638 116.508C86.9598 116.863 87.2212 117.133 87.5478 117.32C87.8838 117.507 88.2618 117.6 88.6818 117.6Z" fill="#2C3855"/>
<path d="M173.846 119V110.74H170.598V109.2H178.914V110.74H175.666V119H173.846ZM183.098 119.098C182.463 119.098 181.903 118.981 181.418 118.748C180.933 118.505 180.555 118.141 180.284 117.656C180.013 117.161 179.878 116.541 179.878 115.794V111.524H181.628V115.556C181.628 116.228 181.777 116.732 182.076 117.068C182.384 117.395 182.818 117.558 183.378 117.558C183.789 117.558 184.143 117.474 184.442 117.306C184.75 117.138 184.988 116.886 185.156 116.55C185.333 116.214 185.422 115.799 185.422 115.304V111.524H187.172V119H185.506V116.984L185.8 117.6C185.548 118.085 185.179 118.459 184.694 118.72C184.209 118.972 183.677 119.098 183.098 119.098Z" fill="#2C3855"/>
<path d="M268.507 119L265.259 109.2H267.149L270.047 118.062H269.109L272.119 109.2H273.799L276.725 118.062H275.815L278.783 109.2H280.519L277.271 119H275.339L272.665 111.006H273.169L270.453 119H268.507ZM284.787 119.098C283.956 119.098 283.228 118.935 282.603 118.608C281.987 118.272 281.506 117.815 281.161 117.236C280.825 116.657 280.657 115.999 280.657 115.262C280.657 114.515 280.82 113.857 281.147 113.288C281.483 112.709 281.94 112.257 282.519 111.93C283.107 111.603 283.774 111.44 284.521 111.44C285.249 111.44 285.897 111.599 286.467 111.916C287.036 112.233 287.484 112.681 287.811 113.26C288.137 113.839 288.301 114.52 288.301 115.304C288.301 115.379 288.296 115.463 288.287 115.556C288.287 115.649 288.282 115.738 288.273 115.822H282.043V114.66H287.349L286.663 115.024C286.672 114.595 286.583 114.217 286.397 113.89C286.21 113.563 285.953 113.307 285.627 113.12C285.309 112.933 284.941 112.84 284.521 112.84C284.091 112.84 283.713 112.933 283.387 113.12C283.069 113.307 282.817 113.568 282.631 113.904C282.453 114.231 282.365 114.618 282.365 115.066V115.346C282.365 115.794 282.467 116.191 282.673 116.536C282.878 116.881 283.167 117.147 283.541 117.334C283.914 117.521 284.343 117.614 284.829 117.614C285.249 117.614 285.627 117.549 285.963 117.418C286.299 117.287 286.597 117.082 286.859 116.802L287.797 117.88C287.461 118.272 287.036 118.575 286.523 118.79C286.019 118.995 285.44 119.098 284.787 119.098Z" fill="#2C3855"/>
<path d="M368.587 119V110.74H365.339V109.2H373.655V110.74H370.407V119H368.587ZM379.095 111.44C379.692 111.44 380.224 111.557 380.691 111.79C381.167 112.023 381.54 112.383 381.811 112.868C382.081 113.344 382.217 113.96 382.217 114.716V119H380.467V114.94C380.467 114.277 380.308 113.783 379.991 113.456C379.683 113.129 379.249 112.966 378.689 112.966C378.278 112.966 377.914 113.05 377.597 113.218C377.279 113.386 377.032 113.638 376.855 113.974C376.687 114.301 376.603 114.716 376.603 115.22V119H374.853V108.612H376.603V113.54L376.225 112.924C376.486 112.448 376.864 112.084 377.359 111.832C377.863 111.571 378.441 111.44 379.095 111.44Z" fill="#2C3855"/>
<path d="M465.379 113.708H470.265V115.248H465.379V113.708ZM465.533 119H463.713V109.2H470.867V110.726H465.533V119ZM472.322 119V111.524H473.988V113.582L473.792 112.98C474.016 112.476 474.366 112.093 474.842 111.832C475.328 111.571 475.93 111.44 476.648 111.44V113.106C476.574 113.087 476.504 113.078 476.438 113.078C476.373 113.069 476.308 113.064 476.242 113.064C475.58 113.064 475.052 113.26 474.66 113.652C474.268 114.035 474.072 114.609 474.072 115.374V119H472.322ZM478.133 119V111.524H479.883V119H478.133ZM479.015 110.292C478.688 110.292 478.418 110.189 478.203 109.984C477.998 109.779 477.895 109.531 477.895 109.242C477.895 108.943 477.998 108.696 478.203 108.5C478.418 108.295 478.688 108.192 479.015 108.192C479.342 108.192 479.608 108.29 479.813 108.486C480.028 108.673 480.135 108.911 480.135 109.2C480.135 109.508 480.032 109.769 479.827 109.984C479.622 110.189 479.351 110.292 479.015 110.292Z" fill="#2C3855"/>
<path d="M564.843 119.14C564.077 119.14 563.345 119.033 562.645 118.818C561.945 118.594 561.389 118.309 560.979 117.964L561.609 116.55C562.001 116.858 562.486 117.115 563.065 117.32C563.643 117.525 564.236 117.628 564.843 117.628C565.356 117.628 565.771 117.572 566.089 117.46C566.406 117.348 566.639 117.199 566.789 117.012C566.938 116.816 567.013 116.597 567.013 116.354C567.013 116.055 566.905 115.817 566.691 115.64C566.476 115.453 566.196 115.309 565.851 115.206C565.515 115.094 565.137 114.991 564.717 114.898C564.306 114.805 563.891 114.697 563.471 114.576C563.06 114.445 562.682 114.282 562.337 114.086C562.001 113.881 561.725 113.61 561.511 113.274C561.296 112.938 561.189 112.509 561.189 111.986C561.189 111.454 561.329 110.969 561.609 110.53C561.898 110.082 562.332 109.727 562.911 109.466C563.499 109.195 564.241 109.06 565.137 109.06C565.725 109.06 566.308 109.135 566.887 109.284C567.465 109.433 567.969 109.648 568.399 109.928L567.825 111.342C567.386 111.081 566.933 110.889 566.467 110.768C566 110.637 565.552 110.572 565.123 110.572C564.619 110.572 564.208 110.633 563.891 110.754C563.583 110.875 563.354 111.034 563.205 111.23C563.065 111.426 562.995 111.65 562.995 111.902C562.995 112.201 563.097 112.443 563.303 112.63C563.517 112.807 563.793 112.947 564.129 113.05C564.474 113.153 564.857 113.255 565.277 113.358C565.697 113.451 566.112 113.559 566.523 113.68C566.943 113.801 567.321 113.96 567.657 114.156C568.002 114.352 568.277 114.618 568.483 114.954C568.697 115.29 568.805 115.715 568.805 116.228C568.805 116.751 568.66 117.236 568.371 117.684C568.091 118.123 567.657 118.477 567.069 118.748C566.481 119.009 565.739 119.14 564.843 119.14ZM575.047 119V117.488L574.949 117.166V114.52C574.949 114.007 574.795 113.61 574.487 113.33C574.179 113.041 573.713 112.896 573.087 112.896C572.667 112.896 572.252 112.961 571.841 113.092C571.44 113.223 571.099 113.405 570.819 113.638L570.133 112.364C570.535 112.056 571.011 111.827 571.561 111.678C572.121 111.519 572.7 111.44 573.297 111.44C574.38 111.44 575.215 111.701 575.803 112.224C576.401 112.737 576.699 113.535 576.699 114.618V119H575.047ZM572.695 119.098C572.135 119.098 571.645 119.005 571.225 118.818C570.805 118.622 570.479 118.356 570.245 118.02C570.021 117.675 569.909 117.287 569.909 116.858C569.909 116.438 570.007 116.06 570.203 115.724C570.409 115.388 570.74 115.122 571.197 114.926C571.655 114.73 572.261 114.632 573.017 114.632H575.187V115.794H573.143C572.546 115.794 572.145 115.892 571.939 116.088C571.734 116.275 571.631 116.508 571.631 116.788C571.631 117.105 571.757 117.357 572.009 117.544C572.261 117.731 572.611 117.824 573.059 117.824C573.489 117.824 573.871 117.726 574.207 117.53C574.553 117.334 574.8 117.045 574.949 116.662L575.243 117.712C575.075 118.151 574.772 118.491 574.333 118.734C573.904 118.977 573.358 119.098 572.695 119.098Z" fill="#2C3855"/>
<path d="M661.759 119.14C660.993 119.14 660.261 119.033 659.561 118.818C658.861 118.594 658.305 118.309 657.895 117.964L658.525 116.55C658.917 116.858 659.402 117.115 659.981 117.32C660.559 117.525 661.152 117.628 661.759 117.628C662.272 117.628 662.687 117.572 663.005 117.46C663.322 117.348 663.555 117.199 663.705 117.012C663.854 116.816 663.929 116.597 663.929 116.354C663.929 116.055 663.821 115.817 663.607 115.64C663.392 115.453 663.112 115.309 662.767 115.206C662.431 115.094 662.053 114.991 661.633 114.898C661.222 114.805 660.807 114.697 660.387 114.576C659.976 114.445 659.598 114.282 659.253 114.086C658.917 113.881 658.641 113.61 658.427 113.274C658.212 112.938 658.105 112.509 658.105 111.986C658.105 111.454 658.245 110.969 658.525 110.53C658.814 110.082 659.248 109.727 659.827 109.466C660.415 109.195 661.157 109.06 662.053 109.06C662.641 109.06 663.224 109.135 663.803 109.284C664.381 109.433 664.885 109.648 665.315 109.928L664.741 111.342C664.302 111.081 663.849 110.889 663.383 110.768C662.916 110.637 662.468 110.572 662.039 110.572C661.535 110.572 661.124 110.633 660.807 110.754C660.499 110.875 660.27 111.034 660.121 111.23C659.981 111.426 659.911 111.65 659.911 111.902C659.911 112.201 660.013 112.443 660.219 112.63C660.433 112.807 660.709 112.947 661.045 113.05C661.39 113.153 661.773 113.255 662.193 113.358C662.613 113.451 663.028 113.559 663.439 113.68C663.859 113.801 664.237 113.96 664.573 114.156C664.918 114.352 665.193 114.618 665.399 114.954C665.613 115.29 665.721 115.715 665.721 116.228C665.721 116.751 665.576 117.236 665.287 117.684C665.007 118.123 664.573 118.477 663.985 118.748C663.397 119.009 662.655 119.14 661.759 119.14ZM670.521 119.098C669.887 119.098 669.327 118.981 668.841 118.748C668.356 118.505 667.978 118.141 667.707 117.656C667.437 117.161 667.301 116.541 667.301 115.794V111.524H669.051V115.556C669.051 116.228 669.201 116.732 669.499 117.068C669.807 117.395 670.241 117.558 670.801 117.558C671.212 117.558 671.567 117.474 671.865 117.306C672.173 117.138 672.411 116.886 672.579 116.55C672.757 116.214 672.845 115.799 672.845 115.304V111.524H674.595V119H672.929V116.984L673.223 117.6C672.971 118.085 672.603 118.459 672.117 118.72C671.632 118.972 671.1 119.098 670.521 119.098Z" fill="#2C3855"/>
<g opacity="0.4">
<path d="M81.518 174V164.9L82.316 165.726H79.446V164.2H83.338V174H81.518Z" fill="#A4ABBB"/>
</g>
<g opacity="0.4">
<path d="M175.844 174V172.782L179.736 169.086C180.063 168.778 180.306 168.507 180.464 168.274C180.623 168.041 180.726 167.826 180.772 167.63C180.828 167.425 180.856 167.233 180.856 167.056C180.856 166.608 180.702 166.263 180.394 166.02C180.086 165.768 179.634 165.642 179.036 165.642C178.56 165.642 178.126 165.726 177.734 165.894C177.352 166.062 177.02 166.319 176.74 166.664L175.466 165.684C175.849 165.171 176.362 164.774 177.006 164.494C177.66 164.205 178.388 164.06 179.19 164.06C179.9 164.06 180.516 164.177 181.038 164.41C181.57 164.634 181.976 164.956 182.256 165.376C182.546 165.796 182.69 166.295 182.69 166.874C182.69 167.191 182.648 167.509 182.564 167.826C182.48 168.134 182.322 168.461 182.088 168.806C181.855 169.151 181.514 169.539 181.066 169.968L177.72 173.146L177.342 172.46H183.068V174H175.844Z" fill="#A4ABBB"/>
</g>
<g opacity="0.4">
<path d="M276.479 174.14C275.788 174.14 275.112 174.042 274.449 173.846C273.796 173.641 273.245 173.361 272.797 173.006L273.581 171.592C273.936 171.881 274.365 172.115 274.869 172.292C275.373 172.469 275.9 172.558 276.451 172.558C277.104 172.558 277.613 172.427 277.977 172.166C278.341 171.895 278.523 171.531 278.523 171.074C278.523 170.626 278.355 170.271 278.019 170.01C277.683 169.749 277.142 169.618 276.395 169.618H275.499V168.372L278.299 165.04L278.537 165.726H273.273V164.2H279.951V165.418L277.151 168.75L276.199 168.19H276.745C277.949 168.19 278.85 168.461 279.447 169.002C280.054 169.534 280.357 170.22 280.357 171.06C280.357 171.611 280.217 172.119 279.937 172.586C279.657 173.053 279.228 173.431 278.649 173.72C278.08 174 277.356 174.14 276.479 174.14Z" fill="#A4ABBB"/>
</g>
<path d="M370.011 171.774V170.514L374.841 164.2H376.787L372.027 170.514L371.117 170.234H378.887V171.774H370.011ZM375.387 174V171.774L375.443 170.234V168.26H377.151V174H375.387Z" fill="#CDCDCD"/>
<rect x="422.714" y="152" width="97.4286" height="40" rx="10" fill="white"/>
<path d="M471.49 174.14C470.8 174.14 470.123 174.042 469.46 173.846C468.807 173.641 468.256 173.361 467.808 173.006L468.578 171.592C468.933 171.881 469.362 172.115 469.866 172.292C470.38 172.469 470.912 172.558 471.462 172.558C472.106 172.558 472.61 172.423 472.974 172.152C473.348 171.881 473.534 171.517 473.534 171.06C473.534 170.752 473.455 170.481 473.296 170.248C473.147 170.015 472.876 169.837 472.484 169.716C472.102 169.595 471.574 169.534 470.902 169.534H468.536L469.04 164.2H474.794V165.726H469.712L470.664 164.858L470.286 168.848L469.334 167.994H471.308C472.279 167.994 473.058 168.125 473.646 168.386C474.244 168.638 474.678 168.993 474.948 169.45C475.228 169.898 475.368 170.411 475.368 170.99C475.368 171.559 475.228 172.082 474.948 172.558C474.668 173.034 474.239 173.417 473.66 173.706C473.091 173.995 472.368 174.14 471.49 174.14Z" fill="#CDCDCD"/>
<path d="M569.612 174.14C568.725 174.14 567.965 173.953 567.33 173.58C566.695 173.197 566.21 172.647 565.874 171.928C565.538 171.209 565.37 170.323 565.37 169.268C565.37 168.148 565.571 167.201 565.972 166.426C566.383 165.651 566.947 165.063 567.666 164.662C568.394 164.261 569.229 164.06 570.172 164.06C570.667 164.06 571.138 164.111 571.586 164.214C572.043 164.317 572.431 164.475 572.748 164.69L572.076 166.062C571.805 165.885 571.511 165.763 571.194 165.698C570.886 165.623 570.559 165.586 570.214 165.586C569.29 165.586 568.557 165.871 568.016 166.44C567.475 167.009 567.204 167.849 567.204 168.96C567.204 169.137 567.209 169.347 567.218 169.59C567.227 169.823 567.26 170.061 567.316 170.304L566.756 169.688C566.924 169.305 567.153 168.988 567.442 168.736C567.741 168.475 568.091 168.279 568.492 168.148C568.903 168.017 569.346 167.952 569.822 167.952C570.466 167.952 571.04 168.078 571.544 168.33C572.048 168.573 572.449 168.923 572.748 169.38C573.047 169.828 573.196 170.355 573.196 170.962C573.196 171.606 573.037 172.166 572.72 172.642C572.403 173.118 571.973 173.487 571.432 173.748C570.891 174.009 570.284 174.14 569.612 174.14ZM569.514 172.712C569.887 172.712 570.219 172.647 570.508 172.516C570.797 172.376 571.021 172.18 571.18 171.928C571.348 171.676 571.432 171.382 571.432 171.046C571.432 170.533 571.255 170.127 570.9 169.828C570.545 169.529 570.069 169.38 569.472 169.38C569.08 169.38 568.735 169.455 568.436 169.604C568.147 169.744 567.913 169.94 567.736 170.192C567.568 170.444 567.484 170.733 567.484 171.06C567.484 171.359 567.563 171.634 567.722 171.886C567.881 172.138 568.109 172.339 568.408 172.488C568.716 172.637 569.085 172.712 569.514 172.712Z" fill="#E9C4C6"/>
<path d="M664.567 174L668.613 164.928L669.089 165.74H663.531L664.399 164.858V167.406H662.705V164.2H670.321V165.418L666.513 174H664.567Z" fill="#E9C4C6"/>
<path d="M81.9836 229.14C81.1716 229.14 80.4669 229.019 79.8696 228.776C79.2723 228.533 78.8103 228.193 78.4836 227.754C78.1569 227.306 77.9936 226.783 77.9936 226.186C77.9936 225.589 78.1523 225.085 78.4696 224.674C78.7869 224.263 79.2443 223.951 79.8416 223.736C80.4389 223.521 81.1529 223.414 81.9836 223.414C82.8143 223.414 83.5283 223.521 84.1256 223.736C84.7323 223.951 85.1943 224.268 85.5116 224.688C85.8383 225.099 86.0016 225.598 86.0016 226.186C86.0016 226.783 85.8336 227.306 85.4976 227.754C85.1709 228.193 84.7043 228.533 84.0976 228.776C83.5003 229.019 82.7956 229.14 81.9836 229.14ZM81.9836 227.712C82.6556 227.712 83.1876 227.572 83.5796 227.292C83.9716 227.012 84.1676 226.625 84.1676 226.13C84.1676 225.645 83.9716 225.262 83.5796 224.982C83.1876 224.702 82.6556 224.562 81.9836 224.562C81.3116 224.562 80.7843 224.702 80.4016 224.982C80.0189 225.262 79.8276 225.645 79.8276 226.13C79.8276 226.625 80.0189 227.012 80.4016 227.292C80.7843 227.572 81.3116 227.712 81.9836 227.712ZM81.9836 224.366C81.2276 224.366 80.5789 224.268 80.0376 224.072C79.4963 223.867 79.0763 223.573 78.7776 223.19C78.4883 222.798 78.3436 222.331 78.3436 221.79C78.3436 221.23 78.4929 220.749 78.7916 220.348C79.0996 219.937 79.5289 219.62 80.0796 219.396C80.6303 219.172 81.2649 219.06 81.9836 219.06C82.7116 219.06 83.3509 219.172 83.9016 219.396C84.4523 219.62 84.8816 219.937 85.1896 220.348C85.4976 220.749 85.6516 221.23 85.6516 221.79C85.6516 222.331 85.5023 222.798 85.2036 223.19C84.9143 223.573 84.4943 223.867 83.9436 224.072C83.3929 224.268 82.7396 224.366 81.9836 224.366ZM81.9836 223.246C82.5623 223.246 83.0196 223.125 83.3556 222.882C83.6916 222.63 83.8596 222.294 83.8596 221.874C83.8596 221.435 83.6869 221.095 83.3416 220.852C82.9963 220.609 82.5436 220.488 81.9836 220.488C81.4236 220.488 80.9756 220.609 80.6396 220.852C80.3036 221.095 80.1356 221.435 80.1356 221.874C80.1356 222.294 80.2989 222.63 80.6256 222.882C80.9616 223.125 81.4143 223.246 81.9836 223.246Z" fill="#CDCDCD"/>
<path d="M178.96 219.06C179.856 219.06 180.617 219.251 181.242 219.634C181.877 220.007 182.362 220.553 182.698 221.272C183.034 221.991 183.202 222.877 183.202 223.932C183.202 225.052 182.997 225.999 182.586 226.774C182.185 227.549 181.625 228.137 180.906 228.538C180.187 228.939 179.352 229.14 178.4 229.14C177.905 229.14 177.434 229.089 176.986 228.986C176.538 228.883 176.151 228.725 175.824 228.51L176.496 227.138C176.767 227.315 177.061 227.441 177.378 227.516C177.695 227.581 178.022 227.614 178.358 227.614C179.282 227.614 180.015 227.329 180.556 226.76C181.097 226.191 181.368 225.351 181.368 224.24C181.368 224.063 181.363 223.857 181.354 223.624C181.345 223.381 181.312 223.139 181.256 222.896L181.816 223.512C181.657 223.895 181.429 224.217 181.13 224.478C180.831 224.73 180.481 224.921 180.08 225.052C179.679 225.183 179.235 225.248 178.75 225.248C178.115 225.248 177.541 225.127 177.028 224.884C176.524 224.632 176.123 224.282 175.824 223.834C175.525 223.377 175.376 222.845 175.376 222.238C175.376 221.585 175.535 221.025 175.852 220.558C176.169 220.082 176.599 219.713 177.14 219.452C177.691 219.191 178.297 219.06 178.96 219.06ZM179.058 220.488C178.685 220.488 178.353 220.558 178.064 220.698C177.775 220.829 177.546 221.02 177.378 221.272C177.219 221.515 177.14 221.809 177.14 222.154C177.14 222.667 177.317 223.073 177.672 223.372C178.027 223.671 178.503 223.82 179.1 223.82C179.492 223.82 179.837 223.75 180.136 223.61C180.435 223.461 180.668 223.26 180.836 223.008C181.004 222.747 181.088 222.457 181.088 222.14C181.088 221.832 181.009 221.557 180.85 221.314C180.691 221.062 180.463 220.861 180.164 220.712C179.865 220.563 179.497 220.488 179.058 220.488Z" fill="#CDCDCD"/>
<path d="M271.665 229V219.9L272.463 220.726H269.593V219.2H273.485V229H271.665ZM279.517 229.14C278.743 229.14 278.043 228.944 277.417 228.552C276.801 228.16 276.316 227.591 275.961 226.844C275.607 226.088 275.429 225.173 275.429 224.1C275.429 223.027 275.607 222.117 275.961 221.37C276.316 220.614 276.801 220.04 277.417 219.648C278.043 219.256 278.743 219.06 279.517 219.06C280.301 219.06 281.001 219.256 281.617 219.648C282.233 220.04 282.719 220.614 283.073 221.37C283.437 222.117 283.619 223.027 283.619 224.1C283.619 225.173 283.437 226.088 283.073 226.844C282.719 227.591 282.233 228.16 281.617 228.552C281.001 228.944 280.301 229.14 279.517 229.14ZM279.517 227.558C279.975 227.558 280.371 227.437 280.707 227.194C281.043 226.942 281.305 226.559 281.491 226.046C281.687 225.533 281.785 224.884 281.785 224.1C281.785 223.307 281.687 222.658 281.491 222.154C281.305 221.641 281.043 221.263 280.707 221.02C280.371 220.768 279.975 220.642 279.517 220.642C279.079 220.642 278.687 220.768 278.341 221.02C278.005 221.263 277.739 221.641 277.543 222.154C277.357 222.658 277.263 223.307 277.263 224.1C277.263 224.884 277.357 225.533 277.543 226.046C277.739 226.559 278.005 226.942 278.341 227.194C278.687 227.437 279.079 227.558 279.517 227.558Z" fill="#CDCDCD"/>
<path d="M369.729 229V219.9L370.527 220.726H367.657V219.2H371.549V229H369.729ZM373.367 229V227.782L377.259 224.086C377.586 223.778 377.829 223.507 377.987 223.274C378.146 223.041 378.249 222.826 378.295 222.63C378.351 222.425 378.379 222.233 378.379 222.056C378.379 221.608 378.225 221.263 377.917 221.02C377.609 220.768 377.157 220.642 376.559 220.642C376.083 220.642 375.649 220.726 375.257 220.894C374.875 221.062 374.543 221.319 374.263 221.664L372.989 220.684C373.372 220.171 373.885 219.774 374.529 219.494C375.183 219.205 375.911 219.06 376.713 219.06C377.423 219.06 378.039 219.177 378.561 219.41C379.093 219.634 379.499 219.956 379.779 220.376C380.069 220.796 380.213 221.295 380.213 221.874C380.213 222.191 380.171 222.509 380.087 222.826C380.003 223.134 379.845 223.461 379.611 223.806C379.378 224.151 379.037 224.539 378.589 224.968L375.243 228.146L374.865 227.46H380.591V229H373.367Z" fill="#CDCDCD"/>
<path d="M467.158 229V219.9L467.956 220.726H465.086V219.2H468.978V229H467.158ZM470.796 229V227.782L474.688 224.086C475.015 223.778 475.257 223.507 475.416 223.274C475.575 223.041 475.677 222.826 475.724 222.63C475.78 222.425 475.808 222.233 475.808 222.056C475.808 221.608 475.654 221.263 475.346 221.02C475.038 220.768 474.585 220.642 473.988 220.642C473.512 220.642 473.078 220.726 472.686 220.894C472.303 221.062 471.972 221.319 471.692 221.664L470.418 220.684C470.801 220.171 471.314 219.774 471.958 219.494C472.611 219.205 473.339 219.06 474.142 219.06C474.851 219.06 475.467 219.177 475.99 219.41C476.522 219.634 476.928 219.956 477.208 220.376C477.497 220.796 477.642 221.295 477.642 221.874C477.642 222.191 477.6 222.509 477.516 222.826C477.432 223.134 477.273 223.461 477.04 223.806C476.807 224.151 476.466 224.539 476.018 224.968L472.672 228.146L472.294 227.46H478.02V229H470.796Z" fill="#CDCDCD"/>
<path d="M564.587 229V219.9L565.385 220.726H562.515V219.2H566.407V229H564.587ZM571.431 229.14C570.74 229.14 570.063 229.042 569.401 228.846C568.747 228.641 568.197 228.361 567.749 228.006L568.533 226.592C568.887 226.881 569.317 227.115 569.821 227.292C570.325 227.469 570.852 227.558 571.403 227.558C572.056 227.558 572.565 227.427 572.929 227.166C573.293 226.895 573.475 226.531 573.475 226.074C573.475 225.626 573.307 225.271 572.971 225.01C572.635 224.749 572.093 224.618 571.347 224.618H570.451V223.372L573.251 220.04L573.489 220.726H568.225V219.2H574.903V220.418L572.103 223.75L571.151 223.19H571.697C572.901 223.19 573.801 223.461 574.399 224.002C575.005 224.534 575.309 225.22 575.309 226.06C575.309 226.611 575.169 227.119 574.889 227.586C574.609 228.053 574.179 228.431 573.601 228.72C573.031 229 572.308 229.14 571.431 229.14Z" fill="#E9C4C6"/>
<path d="M661.339 229V219.9L662.137 220.726H659.267V219.2H663.159V229H661.339ZM664.963 226.774V225.514L669.793 219.2H671.739L666.979 225.514L666.069 225.234H673.839V226.774H664.963ZM670.339 229V226.774L670.395 225.234V223.26H672.103V229H670.339Z" fill="#E9C4C6"/>
<path d="M77.4301 284V274.9L78.2281 275.726H75.3581V274.2H79.2501V284H77.4301ZM84.4421 284.14C83.7515 284.14 83.0748 284.042 82.4121 283.846C81.7588 283.641 81.2081 283.361 80.7601 283.006L81.5301 281.592C81.8848 281.881 82.3141 282.115 82.8181 282.292C83.3315 282.469 83.8635 282.558 84.4141 282.558C85.0581 282.558 85.5621 282.423 85.9261 282.152C86.2995 281.881 86.4861 281.517 86.4861 281.06C86.4861 280.752 86.4068 280.481 86.2481 280.248C86.0988 280.015 85.8281 279.837 85.4361 279.716C85.0535 279.595 84.5261 279.534 83.8541 279.534H81.4881L81.9921 274.2H87.7461V275.726H82.6641L83.6161 274.858L83.2381 278.848L82.2861 277.994H84.2601C85.2308 277.994 86.0101 278.125 86.5981 278.386C87.1955 278.638 87.6295 278.993 87.9001 279.45C88.1801 279.898 88.3201 280.411 88.3201 280.99C88.3201 281.559 88.1801 282.082 87.9001 282.558C87.6201 283.034 87.1908 283.417 86.6121 283.706C86.0428 283.995 85.3195 284.14 84.4421 284.14Z" fill="#CDCDCD"/>
<path d="M174.558 284V274.9L175.356 275.726H172.486V274.2H176.378V284H174.558ZM182.564 284.14C181.677 284.14 180.917 283.953 180.282 283.58C179.647 283.197 179.162 282.647 178.826 281.928C178.49 281.209 178.322 280.323 178.322 279.268C178.322 278.148 178.523 277.201 178.924 276.426C179.335 275.651 179.899 275.063 180.618 274.662C181.346 274.261 182.181 274.06 183.124 274.06C183.619 274.06 184.09 274.111 184.538 274.214C184.995 274.317 185.383 274.475 185.7 274.69L185.028 276.062C184.757 275.885 184.463 275.763 184.146 275.698C183.838 275.623 183.511 275.586 183.166 275.586C182.242 275.586 181.509 275.871 180.968 276.44C180.427 277.009 180.156 277.849 180.156 278.96C180.156 279.137 180.161 279.347 180.17 279.59C180.179 279.823 180.212 280.061 180.268 280.304L179.708 279.688C179.876 279.305 180.105 278.988 180.394 278.736C180.693 278.475 181.043 278.279 181.444 278.148C181.855 278.017 182.298 277.952 182.774 277.952C183.418 277.952 183.992 278.078 184.496 278.33C185 278.573 185.401 278.923 185.7 279.38C185.999 279.828 186.148 280.355 186.148 280.962C186.148 281.606 185.989 282.166 185.672 282.642C185.355 283.118 184.925 283.487 184.384 283.748C183.843 284.009 183.236 284.14 182.564 284.14ZM182.466 282.712C182.839 282.712 183.171 282.647 183.46 282.516C183.749 282.376 183.973 282.18 184.132 281.928C184.3 281.676 184.384 281.382 184.384 281.046C184.384 280.533 184.207 280.127 183.852 279.828C183.497 279.529 183.021 279.38 182.424 279.38C182.032 279.38 181.687 279.455 181.388 279.604C181.099 279.744 180.865 279.94 180.688 280.192C180.52 280.444 180.436 280.733 180.436 281.06C180.436 281.359 180.515 281.634 180.674 281.886C180.833 282.138 181.061 282.339 181.36 282.488C181.668 282.637 182.037 282.712 182.466 282.712Z" fill="#CDCDCD"/>
<path d="M272.116 284V274.9L272.914 275.726H270.044V274.2H273.936V284H272.116ZM277.518 284L281.564 274.928L282.04 275.74H276.482L277.35 274.858V277.406H275.656V274.2H283.272V275.418L279.464 284H277.518Z" fill="#CDCDCD"/>
<path d="M369.237 284V274.9L370.035 275.726H367.165V274.2H371.057V284H369.237ZM376.935 284.14C376.123 284.14 375.419 284.019 374.821 283.776C374.224 283.533 373.762 283.193 373.435 282.754C373.109 282.306 372.945 281.783 372.945 281.186C372.945 280.589 373.104 280.085 373.421 279.674C373.739 279.263 374.196 278.951 374.793 278.736C375.391 278.521 376.105 278.414 376.935 278.414C377.766 278.414 378.48 278.521 379.077 278.736C379.684 278.951 380.146 279.268 380.463 279.688C380.79 280.099 380.953 280.598 380.953 281.186C380.953 281.783 380.785 282.306 380.449 282.754C380.123 283.193 379.656 283.533 379.049 283.776C378.452 284.019 377.747 284.14 376.935 284.14ZM376.935 282.712C377.607 282.712 378.139 282.572 378.531 282.292C378.923 282.012 379.119 281.625 379.119 281.13C379.119 280.645 378.923 280.262 378.531 279.982C378.139 279.702 377.607 279.562 376.935 279.562C376.263 279.562 375.736 279.702 375.353 279.982C374.971 280.262 374.779 280.645 374.779 281.13C374.779 281.625 374.971 282.012 375.353 282.292C375.736 282.572 376.263 282.712 376.935 282.712ZM376.935 279.366C376.179 279.366 375.531 279.268 374.989 279.072C374.448 278.867 374.028 278.573 373.729 278.19C373.44 277.798 373.295 277.331 373.295 276.79C373.295 276.23 373.445 275.749 373.743 275.348C374.051 274.937 374.481 274.62 375.031 274.396C375.582 274.172 376.217 274.06 376.935 274.06C377.663 274.06 378.303 274.172 378.853 274.396C379.404 274.62 379.833 274.937 380.141 275.348C380.449 275.749 380.603 276.23 380.603 276.79C380.603 277.331 380.454 277.798 380.155 278.19C379.866 278.573 379.446 278.867 378.895 279.072C378.345 279.268 377.691 279.366 376.935 279.366ZM376.935 278.246C377.514 278.246 377.971 278.125 378.307 277.882C378.643 277.63 378.811 277.294 378.811 276.874C378.811 276.435 378.639 276.095 378.293 275.852C377.948 275.609 377.495 275.488 376.935 275.488C376.375 275.488 375.927 275.609 375.591 275.852C375.255 276.095 375.087 276.435 375.087 276.874C375.087 277.294 375.251 277.63 375.577 277.882C375.913 278.125 376.366 278.246 376.935 278.246Z" fill="#2C3855"/>
<path d="M466.844 284V274.9L467.642 275.726H464.772V274.2H468.664V284H466.844ZM473.912 274.06C474.808 274.06 475.568 274.251 476.194 274.634C476.828 275.007 477.314 275.553 477.65 276.272C477.986 276.991 478.154 277.877 478.154 278.932C478.154 280.052 477.948 280.999 477.538 281.774C477.136 282.549 476.576 283.137 475.858 283.538C475.139 283.939 474.304 284.14 473.352 284.14C472.857 284.14 472.386 284.089 471.938 283.986C471.49 283.883 471.102 283.725 470.776 283.51L471.448 282.138C471.718 282.315 472.012 282.441 472.33 282.516C472.647 282.581 472.974 282.614 473.31 282.614C474.234 282.614 474.966 282.329 475.508 281.76C476.049 281.191 476.32 280.351 476.32 279.24C476.32 279.063 476.315 278.857 476.306 278.624C476.296 278.381 476.264 278.139 476.208 277.896L476.768 278.512C476.609 278.895 476.38 279.217 476.082 279.478C475.783 279.73 475.433 279.921 475.032 280.052C474.63 280.183 474.187 280.248 473.702 280.248C473.067 280.248 472.493 280.127 471.98 279.884C471.476 279.632 471.074 279.282 470.776 278.834C470.477 278.377 470.328 277.845 470.328 277.238C470.328 276.585 470.486 276.025 470.804 275.558C471.121 275.082 471.55 274.713 472.092 274.452C472.642 274.191 473.249 274.06 473.912 274.06ZM474.01 275.488C473.636 275.488 473.305 275.558 473.016 275.698C472.726 275.829 472.498 276.02 472.33 276.272C472.171 276.515 472.092 276.809 472.092 277.154C472.092 277.667 472.269 278.073 472.624 278.372C472.978 278.671 473.454 278.82 474.052 278.82C474.444 278.82 474.789 278.75 475.088 278.61C475.386 278.461 475.62 278.26 475.788 278.008C475.956 277.747 476.04 277.457 476.04 277.14C476.04 276.832 475.96 276.557 475.802 276.314C475.643 276.062 475.414 275.861 475.116 275.712C474.817 275.563 474.448 275.488 474.01 275.488Z" fill="#2C3855"/>
<path d="M560.849 284V282.782L564.741 279.086C565.067 278.778 565.31 278.507 565.469 278.274C565.627 278.041 565.73 277.826 565.777 277.63C565.833 277.425 565.861 277.233 565.861 277.056C565.861 276.608 565.707 276.263 565.399 276.02C565.091 275.768 564.638 275.642 564.041 275.642C563.565 275.642 563.131 275.726 562.739 275.894C562.356 276.062 562.025 276.319 561.745 276.664L560.471 275.684C560.853 275.171 561.367 274.774 562.011 274.494C562.664 274.205 563.392 274.06 564.195 274.06C564.904 274.06 565.52 274.177 566.043 274.41C566.575 274.634 566.981 274.956 567.261 275.376C567.55 275.796 567.695 276.295 567.695 276.874C567.695 277.191 567.653 277.509 567.569 277.826C567.485 278.134 567.326 278.461 567.093 278.806C566.859 279.151 566.519 279.539 566.071 279.968L562.725 283.146L562.347 282.46H568.073V284H560.849ZM573.211 284.14C572.436 284.14 571.736 283.944 571.111 283.552C570.495 283.16 570.01 282.591 569.655 281.844C569.3 281.088 569.123 280.173 569.123 279.1C569.123 278.027 569.3 277.117 569.655 276.37C570.01 275.614 570.495 275.04 571.111 274.648C571.736 274.256 572.436 274.06 573.211 274.06C573.995 274.06 574.695 274.256 575.311 274.648C575.927 275.04 576.412 275.614 576.767 276.37C577.131 277.117 577.313 278.027 577.313 279.1C577.313 280.173 577.131 281.088 576.767 281.844C576.412 282.591 575.927 283.16 575.311 283.552C574.695 283.944 573.995 284.14 573.211 284.14ZM573.211 282.558C573.668 282.558 574.065 282.437 574.401 282.194C574.737 281.942 574.998 281.559 575.185 281.046C575.381 280.533 575.479 279.884 575.479 279.1C575.479 278.307 575.381 277.658 575.185 277.154C574.998 276.641 574.737 276.263 574.401 276.02C574.065 275.768 573.668 275.642 573.211 275.642C572.772 275.642 572.38 275.768 572.035 276.02C571.699 276.263 571.433 276.641 571.237 277.154C571.05 277.658 570.957 278.307 570.957 279.1C570.957 279.884 571.05 280.533 571.237 281.046C571.433 281.559 571.699 281.942 572.035 282.194C572.38 282.437 572.772 282.558 573.211 282.558Z" fill="#E9C4C6"/>
<path d="M660.321 284V282.782L664.213 279.086C664.54 278.778 664.783 278.507 664.941 278.274C665.1 278.041 665.203 277.826 665.249 277.63C665.305 277.425 665.333 277.233 665.333 277.056C665.333 276.608 665.179 276.263 664.871 276.02C664.563 275.768 664.111 275.642 663.513 275.642C663.037 275.642 662.603 275.726 662.211 275.894C661.829 276.062 661.497 276.319 661.217 276.664L659.943 275.684C660.326 275.171 660.839 274.774 661.483 274.494C662.137 274.205 662.865 274.06 663.667 274.06C664.377 274.06 664.993 274.177 665.515 274.41C666.047 274.634 666.453 274.956 666.733 275.376C667.023 275.796 667.167 276.295 667.167 276.874C667.167 277.191 667.125 277.509 667.041 277.826C666.957 278.134 666.799 278.461 666.565 278.806C666.332 279.151 665.991 279.539 665.543 279.968L662.197 283.146L661.819 282.46H667.545V284H660.321ZM670.164 284V274.9L670.962 275.726H668.092V274.2H671.984V284H670.164Z" fill="#E9C4C6"/>
<path d="M74.3416 339V337.782L78.2336 334.086C78.5602 333.778 78.8029 333.507 78.9616 333.274C79.1202 333.041 79.2229 332.826 79.2696 332.63C79.3256 332.425 79.3536 332.233 79.3536 332.056C79.3536 331.608 79.1996 331.263 78.8916 331.02C78.5836 330.768 78.1309 330.642 77.5336 330.642C77.0576 330.642 76.6236 330.726 76.2316 330.894C75.8489 331.062 75.5176 331.319 75.2376 331.664L73.9636 330.684C74.3462 330.171 74.8596 329.774 75.5036 329.494C76.1569 329.205 76.8849 329.06 77.6876 329.06C78.3969 329.06 79.0129 329.177 79.5356 329.41C80.0676 329.634 80.4736 329.956 80.7536 330.376C81.0429 330.796 81.1876 331.295 81.1876 331.874C81.1876 332.191 81.1456 332.509 81.0616 332.826C80.9776 333.134 80.8189 333.461 80.5856 333.806C80.3522 334.151 80.0116 334.539 79.5636 334.968L76.2176 338.146L75.8396 337.46H81.5656V339H74.3416ZM82.49 339V337.782L86.382 334.086C86.7087 333.778 86.9513 333.507 87.11 333.274C87.2687 333.041 87.3713 332.826 87.418 332.63C87.474 332.425 87.502 332.233 87.502 332.056C87.502 331.608 87.348 331.263 87.04 331.02C86.732 330.768 86.2793 330.642 85.682 330.642C85.206 330.642 84.772 330.726 84.38 330.894C83.9973 331.062 83.666 331.319 83.386 331.664L82.112 330.684C82.4947 330.171 83.008 329.774 83.652 329.494C84.3053 329.205 85.0333 329.06 85.836 329.06C86.5453 329.06 87.1613 329.177 87.684 329.41C88.216 329.634 88.622 329.956 88.902 330.376C89.1913 330.796 89.336 331.295 89.336 331.874C89.336 332.191 89.294 332.509 89.21 332.826C89.126 333.134 88.9673 333.461 88.734 333.806C88.5007 334.151 88.16 334.539 87.712 334.968L84.366 338.146L83.988 337.46H89.714V339H82.49Z" fill="#2C3855"/>
<path d="M171.77 339V337.782L175.662 334.086C175.989 333.778 176.231 333.507 176.39 333.274C176.549 333.041 176.651 332.826 176.698 332.63C176.754 332.425 176.782 332.233 176.782 332.056C176.782 331.608 176.628 331.263 176.32 331.02C176.012 330.768 175.559 330.642 174.962 330.642C174.486 330.642 174.052 330.726 173.66 330.894C173.277 331.062 172.946 331.319 172.666 331.664L171.392 330.684C171.775 330.171 172.288 329.774 172.932 329.494C173.585 329.205 174.313 329.06 175.116 329.06C175.825 329.06 176.441 329.177 176.964 329.41C177.496 329.634 177.902 329.956 178.182 330.376C178.471 330.796 178.616 331.295 178.616 331.874C178.616 332.191 178.574 332.509 178.49 332.826C178.406 333.134 178.247 333.461 178.014 333.806C177.781 334.151 177.44 334.539 176.992 334.968L173.646 338.146L173.268 337.46H178.994V339H171.77ZM183.125 339.14C182.434 339.14 181.757 339.042 181.095 338.846C180.441 338.641 179.891 338.361 179.443 338.006L180.227 336.592C180.581 336.881 181.011 337.115 181.515 337.292C182.019 337.469 182.546 337.558 183.097 337.558C183.75 337.558 184.259 337.427 184.623 337.166C184.987 336.895 185.169 336.531 185.169 336.074C185.169 335.626 185.001 335.271 184.665 335.01C184.329 334.749 183.787 334.618 183.041 334.618H182.145V333.372L184.945 330.04L185.183 330.726H179.919V329.2H186.597V330.418L183.797 333.75L182.845 333.19H183.391C184.595 333.19 185.495 333.461 186.093 334.002C186.699 334.534 187.003 335.22 187.003 336.06C187.003 336.611 186.863 337.119 186.583 337.586C186.303 338.053 185.873 338.431 185.295 338.72C184.725 339 184.002 339.14 183.125 339.14Z" fill="#2C3855"/>
<path d="M268.625 339V337.782L272.517 334.086C272.843 333.778 273.086 333.507 273.245 333.274C273.403 333.041 273.506 332.826 273.553 332.63C273.609 332.425 273.637 332.233 273.637 332.056C273.637 331.608 273.483 331.263 273.175 331.02C272.867 330.768 272.414 330.642 271.817 330.642C271.341 330.642 270.907 330.726 270.515 330.894C270.132 331.062 269.801 331.319 269.521 331.664L268.247 330.684C268.629 330.171 269.143 329.774 269.787 329.494C270.44 329.205 271.168 329.06 271.971 329.06C272.68 329.06 273.296 329.177 273.819 329.41C274.351 329.634 274.757 329.956 275.037 330.376C275.326 330.796 275.471 331.295 275.471 331.874C275.471 332.191 275.429 332.509 275.345 332.826C275.261 333.134 275.102 333.461 274.869 333.806C274.635 334.151 274.295 334.539 273.847 334.968L270.501 338.146L270.123 337.46H275.849V339H268.625ZM276.554 336.774V335.514L281.384 329.2H283.33L278.57 335.514L277.66 335.234H285.43V336.774H276.554ZM281.93 339V336.774L281.986 335.234V333.26H283.694V339H281.93Z" fill="#E9C4C6"/>
<path d="M366.614 339V337.782L370.506 334.086C370.832 333.778 371.075 333.507 371.234 333.274C371.392 333.041 371.495 332.826 371.542 332.63C371.598 332.425 371.626 332.233 371.626 332.056C371.626 331.608 371.472 331.263 371.164 331.02C370.856 330.768 370.403 330.642 369.806 330.642C369.33 330.642 368.896 330.726 368.504 330.894C368.121 331.062 367.79 331.319 367.51 331.664L366.236 330.684C366.618 330.171 367.132 329.774 367.776 329.494C368.429 329.205 369.157 329.06 369.96 329.06C370.669 329.06 371.285 329.177 371.808 329.41C372.34 329.634 372.746 329.956 373.026 330.376C373.315 330.796 373.46 331.295 373.46 331.874C373.46 332.191 373.418 332.509 373.334 332.826C373.25 333.134 373.091 333.461 372.858 333.806C372.624 334.151 372.284 334.539 371.836 334.968L368.49 338.146L368.112 337.46H373.838V339H366.614ZM378.136 339.14C377.445 339.14 376.769 339.042 376.106 338.846C375.453 338.641 374.902 338.361 374.454 338.006L375.224 336.592C375.579 336.881 376.008 337.115 376.512 337.292C377.025 337.469 377.557 337.558 378.108 337.558C378.752 337.558 379.256 337.423 379.62 337.152C379.993 336.881 380.18 336.517 380.18 336.06C380.18 335.752 380.101 335.481 379.942 335.248C379.793 335.015 379.522 334.837 379.13 334.716C378.747 334.595 378.22 334.534 377.548 334.534H375.182L375.686 329.2H381.44V330.726H376.358L377.31 329.858L376.932 333.848L375.98 332.994H377.954C378.925 332.994 379.704 333.125 380.292 333.386C380.889 333.638 381.323 333.993 381.594 334.45C381.874 334.898 382.014 335.411 382.014 335.99C382.014 336.559 381.874 337.082 381.594 337.558C381.314 338.034 380.885 338.417 380.306 338.706C379.737 338.995 379.013 339.14 378.136 339.14Z" fill="#2C3855"/>
<path d="M463.741 339V337.782L467.633 334.086C467.96 333.778 468.203 333.507 468.361 333.274C468.52 333.041 468.623 332.826 468.669 332.63C468.725 332.425 468.753 332.233 468.753 332.056C468.753 331.608 468.599 331.263 468.291 331.02C467.983 330.768 467.531 330.642 466.933 330.642C466.457 330.642 466.023 330.726 465.631 330.894C465.249 331.062 464.917 331.319 464.637 331.664L463.363 330.684C463.746 330.171 464.259 329.774 464.903 329.494C465.557 329.205 466.285 329.06 467.087 329.06C467.797 329.06 468.413 329.177 468.935 329.41C469.467 329.634 469.873 329.956 470.153 330.376C470.443 330.796 470.587 331.295 470.587 331.874C470.587 332.191 470.545 332.509 470.461 332.826C470.377 333.134 470.219 333.461 469.985 333.806C469.752 334.151 469.411 334.539 468.963 334.968L465.617 338.146L465.239 337.46H470.965V339H463.741ZM476.258 339.14C475.371 339.14 474.611 338.953 473.976 338.58C473.341 338.197 472.856 337.647 472.52 336.928C472.184 336.209 472.016 335.323 472.016 334.268C472.016 333.148 472.217 332.201 472.618 331.426C473.029 330.651 473.593 330.063 474.312 329.662C475.04 329.261 475.875 329.06 476.818 329.06C477.313 329.06 477.784 329.111 478.232 329.214C478.689 329.317 479.077 329.475 479.394 329.69L478.722 331.062C478.451 330.885 478.157 330.763 477.84 330.698C477.532 330.623 477.205 330.586 476.86 330.586C475.936 330.586 475.203 330.871 474.662 331.44C474.121 332.009 473.85 332.849 473.85 333.96C473.85 334.137 473.855 334.347 473.864 334.59C473.873 334.823 473.906 335.061 473.962 335.304L473.402 334.688C473.57 334.305 473.799 333.988 474.088 333.736C474.387 333.475 474.737 333.279 475.138 333.148C475.549 333.017 475.992 332.952 476.468 332.952C477.112 332.952 477.686 333.078 478.19 333.33C478.694 333.573 479.095 333.923 479.394 334.38C479.693 334.828 479.842 335.355 479.842 335.962C479.842 336.606 479.683 337.166 479.366 337.642C479.049 338.118 478.619 338.487 478.078 338.748C477.537 339.009 476.93 339.14 476.258 339.14ZM476.16 337.712C476.533 337.712 476.865 337.647 477.154 337.516C477.443 337.376 477.667 337.18 477.826 336.928C477.994 336.676 478.078 336.382 478.078 336.046C478.078 335.533 477.901 335.127 477.546 334.828C477.191 334.529 476.715 334.38 476.118 334.38C475.726 334.38 475.381 334.455 475.082 334.604C474.793 334.744 474.559 334.94 474.382 335.192C474.214 335.444 474.13 335.733 474.13 336.06C474.13 336.359 474.209 336.634 474.368 336.886C474.527 337.138 474.755 337.339 475.054 337.488C475.362 337.637 475.731 337.712 476.16 337.712Z" fill="#2C3855"/>
<path d="M561.3 339V337.782L565.192 334.086C565.518 333.778 565.761 333.507 565.92 333.274C566.078 333.041 566.181 332.826 566.228 332.63C566.284 332.425 566.312 332.233 566.312 332.056C566.312 331.608 566.158 331.263 565.85 331.02C565.542 330.768 565.089 330.642 564.492 330.642C564.016 330.642 563.582 330.726 563.19 330.894C562.807 331.062 562.476 331.319 562.196 331.664L560.922 330.684C561.304 330.171 561.818 329.774 562.462 329.494C563.115 329.205 563.843 329.06 564.646 329.06C565.355 329.06 565.971 329.177 566.494 329.41C567.026 329.634 567.432 329.956 567.712 330.376C568.001 330.796 568.146 331.295 568.146 331.874C568.146 332.191 568.104 332.509 568.02 332.826C567.936 333.134 567.777 333.461 567.544 333.806C567.31 334.151 566.97 334.539 566.522 334.968L563.176 338.146L562.798 337.46H568.524V339H561.3ZM571.212 339L575.258 329.928L575.734 330.74H570.176L571.044 329.858V332.406H569.35V329.2H576.966V330.418L573.158 339H571.212Z" fill="#E9C4C6"/>
<path d="M658.421 339V337.782L662.313 334.086C662.64 333.778 662.882 333.507 663.041 333.274C663.2 333.041 663.302 332.826 663.349 332.63C663.405 332.425 663.433 332.233 663.433 332.056C663.433 331.608 663.279 331.263 662.971 331.02C662.663 330.768 662.21 330.642 661.613 330.642C661.137 330.642 660.703 330.726 660.311 330.894C659.928 331.062 659.597 331.319 659.317 331.664L658.043 330.684C658.426 330.171 658.939 329.774 659.583 329.494C660.236 329.205 660.964 329.06 661.767 329.06C662.476 329.06 663.092 329.177 663.615 329.41C664.147 329.634 664.553 329.956 664.833 330.376C665.122 330.796 665.267 331.295 665.267 331.874C665.267 332.191 665.225 332.509 665.141 332.826C665.057 333.134 664.898 333.461 664.665 333.806C664.432 334.151 664.091 334.539 663.643 334.968L660.297 338.146L659.919 337.46H665.645V339H658.421ZM670.629 339.14C669.817 339.14 669.113 339.019 668.515 338.776C667.918 338.533 667.456 338.193 667.129 337.754C666.803 337.306 666.639 336.783 666.639 336.186C666.639 335.589 666.798 335.085 667.115 334.674C667.433 334.263 667.89 333.951 668.487 333.736C669.085 333.521 669.799 333.414 670.629 333.414C671.46 333.414 672.174 333.521 672.771 333.736C673.378 333.951 673.84 334.268 674.157 334.688C674.484 335.099 674.647 335.598 674.647 336.186C674.647 336.783 674.479 337.306 674.143 337.754C673.817 338.193 673.35 338.533 672.743 338.776C672.146 339.019 671.441 339.14 670.629 339.14ZM670.629 337.712C671.301 337.712 671.833 337.572 672.225 337.292C672.617 337.012 672.813 336.625 672.813 336.13C672.813 335.645 672.617 335.262 672.225 334.982C671.833 334.702 671.301 334.562 670.629 334.562C669.957 334.562 669.43 334.702 669.047 334.982C668.665 335.262 668.473 335.645 668.473 336.13C668.473 336.625 668.665 337.012 669.047 337.292C669.43 337.572 669.957 337.712 670.629 337.712ZM670.629 334.366C669.873 334.366 669.225 334.268 668.683 334.072C668.142 333.867 667.722 333.573 667.423 333.19C667.134 332.798 666.989 332.331 666.989 331.79C666.989 331.23 667.139 330.749 667.437 330.348C667.745 329.937 668.175 329.62 668.725 329.396C669.276 329.172 669.911 329.06 670.629 329.06C671.357 329.06 671.997 329.172 672.547 329.396C673.098 329.62 673.527 329.937 673.835 330.348C674.143 330.749 674.297 331.23 674.297 331.79C674.297 332.331 674.148 332.798 673.849 333.19C673.56 333.573 673.14 333.867 672.589 334.072C672.039 334.268 671.385 334.366 670.629 334.366ZM670.629 333.246C671.208 333.246 671.665 333.125 672.001 332.882C672.337 332.63 672.505 332.294 672.505 331.874C672.505 331.435 672.333 331.095 671.987 330.852C671.642 330.609 671.189 330.488 670.629 330.488C670.069 330.488 669.621 330.609 669.285 330.852C668.949 331.095 668.781 331.435 668.781 331.874C668.781 332.294 668.945 332.63 669.271 332.882C669.607 333.125 670.06 333.246 670.629 333.246Z" fill="#E9C4C6"/>
<path d="M74.0271 394V392.782L77.9191 389.086C78.2458 388.778 78.4884 388.507 78.6471 388.274C78.8058 388.041 78.9084 387.826 78.9551 387.63C79.0111 387.425 79.0391 387.233 79.0391 387.056C79.0391 386.608 78.8851 386.263 78.5771 386.02C78.2691 385.768 77.8164 385.642 77.2191 385.642C76.7431 385.642 76.3091 385.726 75.9171 385.894C75.5344 386.062 75.2031 386.319 74.9231 386.664L73.6491 385.684C74.0318 385.171 74.5451 384.774 75.1891 384.494C75.8424 384.205 76.5704 384.06 77.3731 384.06C78.0824 384.06 78.6984 384.177 79.2211 384.41C79.7531 384.634 80.1591 384.956 80.4391 385.376C80.7284 385.796 80.8731 386.295 80.8731 386.874C80.8731 387.191 80.8311 387.509 80.7471 387.826C80.6631 388.134 80.5044 388.461 80.2711 388.806C80.0378 389.151 79.6971 389.539 79.2491 389.968L75.9031 393.146L75.5251 392.46H81.2511V394H74.0271ZM85.6055 384.06C86.5015 384.06 87.2622 384.251 87.8875 384.634C88.5222 385.007 89.0075 385.553 89.3435 386.272C89.6795 386.991 89.8475 387.877 89.8475 388.932C89.8475 390.052 89.6422 390.999 89.2315 391.774C88.8302 392.549 88.2702 393.137 87.5515 393.538C86.8329 393.939 85.9975 394.14 85.0455 394.14C84.5509 394.14 84.0795 394.089 83.6315 393.986C83.1835 393.883 82.7962 393.725 82.4695 393.51L83.1415 392.138C83.4122 392.315 83.7062 392.441 84.0235 392.516C84.3409 392.581 84.6675 392.614 85.0035 392.614C85.9275 392.614 86.6602 392.329 87.2015 391.76C87.7429 391.191 88.0135 390.351 88.0135 389.24C88.0135 389.063 88.0089 388.857 87.9995 388.624C87.9902 388.381 87.9575 388.139 87.9015 387.896L88.4615 388.512C88.3029 388.895 88.0742 389.217 87.7755 389.478C87.4769 389.73 87.1269 389.921 86.7255 390.052C86.3242 390.183 85.8809 390.248 85.3955 390.248C84.7609 390.248 84.1869 390.127 83.6735 389.884C83.1695 389.632 82.7682 389.282 82.4695 388.834C82.1709 388.377 82.0215 387.845 82.0215 387.238C82.0215 386.585 82.1802 386.025 82.4975 385.558C82.8149 385.082 83.2442 384.713 83.7855 384.452C84.3362 384.191 84.9429 384.06 85.6055 384.06ZM85.7035 385.488C85.3302 385.488 84.9989 385.558 84.7095 385.698C84.4202 385.829 84.1915 386.02 84.0235 386.272C83.8649 386.515 83.7855 386.809 83.7855 387.154C83.7855 387.667 83.9629 388.073 84.3175 388.372C84.6722 388.671 85.1482 388.82 85.7455 388.82C86.1375 388.82 86.4829 388.75 86.7815 388.61C87.0802 388.461 87.3135 388.26 87.4815 388.008C87.6495 387.747 87.7335 387.457 87.7335 387.14C87.7335 386.832 87.6542 386.557 87.4955 386.314C87.3369 386.062 87.1082 385.861 86.8095 385.712C86.5109 385.563 86.1422 385.488 85.7035 385.488Z" fill="#2C3855"/>
<rect x="130.429" y="372" width="97.4286" height="40" rx="10" fill="white"/>
<path d="M174.34 394.14C173.65 394.14 172.973 394.042 172.31 393.846C171.657 393.641 171.106 393.361 170.658 393.006L171.442 391.592C171.797 391.881 172.226 392.115 172.73 392.292C173.234 392.469 173.762 392.558 174.312 392.558C174.966 392.558 175.474 392.427 175.838 392.166C176.202 391.895 176.384 391.531 176.384 391.074C176.384 390.626 176.216 390.271 175.88 390.01C175.544 389.749 175.003 389.618 174.256 389.618H173.36V388.372L176.16 385.04L176.398 385.726H171.134V384.2H177.812V385.418L175.012 388.75L174.06 388.19H174.606C175.81 388.19 176.711 388.461 177.308 389.002C177.915 389.534 178.218 390.22 178.218 391.06C178.218 391.611 178.078 392.119 177.798 392.586C177.518 393.053 177.089 393.431 176.51 393.72C175.941 394 175.218 394.14 174.34 394.14ZM183.497 394.14C182.722 394.14 182.022 393.944 181.397 393.552C180.781 393.16 180.296 392.591 179.941 391.844C179.586 391.088 179.409 390.173 179.409 389.1C179.409 388.027 179.586 387.117 179.941 386.37C180.296 385.614 180.781 385.04 181.397 384.648C182.022 384.256 182.722 384.06 183.497 384.06C184.281 384.06 184.981 384.256 185.597 384.648C186.213 385.04 186.698 385.614 187.053 386.37C187.417 387.117 187.599 388.027 187.599 389.1C187.599 390.173 187.417 391.088 187.053 391.844C186.698 392.591 186.213 393.16 185.597 393.552C184.981 393.944 184.281 394.14 183.497 394.14ZM183.497 392.558C183.954 392.558 184.351 392.437 184.687 392.194C185.023 391.942 185.284 391.559 185.471 391.046C185.667 390.533 185.765 389.884 185.765 389.1C185.765 388.307 185.667 387.658 185.471 387.154C185.284 386.641 185.023 386.263 184.687 386.02C184.351 385.768 183.954 385.642 183.497 385.642C183.058 385.642 182.666 385.768 182.321 386.02C181.985 386.263 181.719 386.641 181.523 387.154C181.336 387.658 181.243 388.307 181.243 389.1C181.243 389.884 181.336 390.533 181.523 391.046C181.719 391.559 181.985 391.942 182.321 392.194C182.666 392.437 183.058 392.558 183.497 392.558Z" fill="#2C3855"/>
<rect x="36.5" y="28.5" width="119" height="50" rx="7.5" fill="white" stroke="#E2F3F2"/>
<path d="M51.99 64V43H56.01L64.95 57.82H62.82L71.61 43H75.6L75.66 64H71.1L71.07 49.99H71.91L64.89 61.78H62.7L55.53 49.99H56.55V64H51.99ZM90.2123 64V60.85L89.9123 60.16V54.52C89.9123 53.52 89.6023 52.74 88.9823 52.18C88.3823 51.62 87.4523 51.34 86.1923 51.34C85.3323 51.34 84.4823 51.48 83.6423 51.76C82.8223 52.02 82.1223 52.38 81.5423 52.84L79.8623 49.57C80.7423 48.95 81.8023 48.47 83.0423 48.13C84.2823 47.79 85.5423 47.62 86.8223 47.62C89.2823 47.62 91.1923 48.2 92.5523 49.36C93.9123 50.52 94.5923 52.33 94.5923 54.79V64H90.2123ZM85.2923 64.24C84.0323 64.24 82.9523 64.03 82.0523 63.61C81.1523 63.17 80.4623 62.58 79.9823 61.84C79.5023 61.1 79.2623 60.27 79.2623 59.35C79.2623 58.39 79.4923 57.55 79.9523 56.83C80.4323 56.11 81.1823 55.55 82.2023 55.15C83.2223 54.73 84.5523 54.52 86.1923 54.52H90.4823V57.25H86.7023C85.6023 57.25 84.8423 57.43 84.4223 57.79C84.0223 58.15 83.8223 58.6 83.8223 59.14C83.8223 59.74 84.0523 60.22 84.5123 60.58C84.9923 60.92 85.6423 61.09 86.4623 61.09C87.2423 61.09 87.9423 60.91 88.5623 60.55C89.1823 60.17 89.6323 59.62 89.9123 58.9L90.6323 61.06C90.2923 62.1 89.6723 62.89 88.7723 63.43C87.8723 63.97 86.7123 64.24 85.2923 64.24ZM98.828 64V47.86H103.298V52.42L102.668 51.1C103.148 49.96 103.918 49.1 104.978 48.52C106.038 47.92 107.328 47.62 108.848 47.62V51.94C108.648 51.92 108.468 51.91 108.308 51.91C108.148 51.89 107.978 51.88 107.798 51.88C106.518 51.88 105.478 52.25 104.678 52.99C103.898 53.71 103.508 54.84 103.508 56.38V64H98.828Z" fill="#1C1C1C"/>
<path d="M128.25 51.25L132.5 55.75L136.75 51.25" stroke="#2C3855" stroke-width="1.5" stroke-linecap="round" stroke-linejoin="round"/>
<rect x="172.5" y="28.5" width="128" height="50" rx="7.5" fill="white" stroke="#E2F3F2"/>
<path d="M184.561 64V60.85L192.661 53.2C193.301 52.62 193.771 52.1 194.071 51.64C194.371 51.18 194.571 50.76 194.671 50.38C194.791 50 194.851 49.65 194.851 49.33C194.851 48.49 194.561 47.85 193.981 47.41C193.421 46.95 192.591 46.72 191.491 46.72C190.611 46.72 189.791 46.89 189.031 47.23C188.291 47.57 187.661 48.1 187.141 48.82L183.601 46.54C184.401 45.34 185.521 44.39 186.961 43.69C188.401 42.99 190.061 42.64 191.941 42.64C193.501 42.64 194.861 42.9 196.021 43.42C197.201 43.92 198.111 44.63 198.751 45.55C199.411 46.47 199.741 47.57 199.741 48.85C199.741 49.53 199.651 50.21 199.471 50.89C199.311 51.55 198.971 52.25 198.451 52.99C197.951 53.73 197.211 54.56 196.231 55.48L189.511 61.81L188.581 60.04H200.431V64H184.561ZM211.437 64.36C209.717 64.36 208.177 63.94 206.817 63.1C205.457 62.24 204.387 61 203.607 59.38C202.827 57.76 202.437 55.8 202.437 53.5C202.437 51.2 202.827 49.24 203.607 47.62C204.387 46 205.457 44.77 206.817 43.93C208.177 43.07 209.717 42.64 211.437 42.64C213.177 42.64 214.717 43.07 216.057 43.93C217.417 44.77 218.487 46 219.267 47.62C220.047 49.24 220.437 51.2 220.437 53.5C220.437 55.8 220.047 57.76 219.267 59.38C218.487 61 217.417 62.24 216.057 63.1C214.717 63.94 213.177 64.36 211.437 64.36ZM211.437 60.25C212.257 60.25 212.967 60.02 213.567 59.56C214.187 59.1 214.667 58.37 215.007 57.37C215.367 56.37 215.547 55.08 215.547 53.5C215.547 51.92 215.367 50.63 215.007 49.63C214.667 48.63 214.187 47.9 213.567 47.44C212.967 46.98 212.257 46.75 211.437 46.75C210.637 46.75 209.927 46.98 209.307 47.44C208.707 47.9 208.227 48.63 207.867 49.63C207.527 50.63 207.357 51.92 207.357 53.5C207.357 55.08 207.527 56.37 207.867 57.37C208.227 58.37 208.707 59.1 209.307 59.56C209.927 60.02 210.637 60.25 211.437 60.25ZM222.501 64V60.85L230.601 53.2C231.241 52.62 231.711 52.1 232.011 51.64C232.311 51.18 232.511 50.76 232.611 50.38C232.731 50 232.791 49.65 232.791 49.33C232.791 48.49 232.501 47.85 231.921 47.41C231.361 46.95 230.531 46.72 229.431 46.72C228.551 46.72 227.731 46.89 226.971 47.23C226.231 47.57 225.601 48.1 225.081 48.82L221.541 46.54C222.341 45.34 223.461 44.39 224.901 43.69C226.341 42.99 228.001 42.64 229.881 42.64C231.441 42.64 232.801 42.9 233.961 43.42C235.141 43.92 236.051 44.63 236.691 45.55C237.351 46.47 237.681 47.57 237.681 48.85C237.681 49.53 237.591 50.21 237.411 50.89C237.251 51.55 236.911 52.25 236.391 52.99C235.891 53.73 235.151 54.56 234.171 55.48L227.451 61.81L226.521 60.04H238.371V64H222.501ZM240.196 64V60.85L248.296 53.2C248.936 52.62 249.406 52.1 249.706 51.64C250.006 51.18 250.206 50.76 250.306 50.38C250.426 50 250.486 49.65 250.486 49.33C250.486 48.49 250.196 47.85 249.616 47.41C249.056 46.95 248.226 46.72 247.126 46.72C246.246 46.72 245.426 46.89 244.666 47.23C243.926 47.57 243.296 48.1 242.776 48.82L239.236 46.54C240.036 45.34 241.156 44.39 242.596 43.69C244.036 42.99 245.696 42.64 247.576 42.64C249.136 42.64 250.496 42.9 251.656 43.42C252.836 43.92 253.746 44.63 254.386 45.55C255.046 46.47 255.376 47.57 255.376 48.85C255.376 49.53 255.286 50.21 255.106 50.89C254.946 51.55 254.606 52.25 254.086 52.99C253.586 53.73 252.846 54.56 251.866 55.48L245.146 61.81L244.216 60.04H256.066V64H240.196Z" fill="#1C1C1C"/>
<path d="M275.321 51.25L279.571 55.75L283.821 51.25" stroke="#2C3855" stroke-width="1.5" stroke-linecap="round" stroke-linejoin="round"/>
<path d="M11 1.5H737V0.5H11V1.5ZM746.5 11V417H747.5V11H746.5ZM737 426.5H11V427.5H737V426.5ZM1.5 417V11H0.5V417H1.5ZM11 426.5C5.75331 426.5 1.5 422.247 1.5 417H0.5C0.5 422.799 5.20103 427.5 11 427.5V426.5ZM746.5 417C746.5 422.247 742.247 426.5 737 426.5V427.5C742.799 427.5 747.5 422.799 747.5 417H746.5ZM737 1.5C742.247 1.5 746.5 5.7533 746.5 11H747.5C747.5 5.20101 742.799 0.5 737 0.5V1.5ZM11 0.5C5.20101 0.5 0.5 5.201 0.5 11H1.5C1.5 5.75329 5.75329 1.5 11 1.5V0.5Z" fill="#E2F3F2"/>
</svg>
