<svg width="45" height="46" viewBox="0 0 45 46" fill="none" xmlns="http://www.w3.org/2000/svg">
<rect y="0.800781" width="45" height="45" rx="4" fill="white"/>
<path d="M16.9416 32.9674H28.5416C29.3108 32.9674 30.0484 32.6618 30.5922 32.1181C31.1361 31.5742 31.4416 30.8365 31.4416 30.0674V18.4674C31.4416 17.9547 31.2379 17.4629 30.8754 17.1004C30.5127 16.7377 30.0211 16.5341 29.5082 16.5341H27.575V14.6007C27.575 14.2554 27.3907 13.9363 27.0916 13.7636C26.7926 13.5909 26.4241 13.5909 26.125 13.7636C25.8259 13.9363 25.6416 14.2554 25.6416 14.6007V16.5341H19.8416V14.6007C19.8416 14.2554 19.6573 13.9363 19.3582 13.7636C19.0592 13.5909 18.6907 13.5909 18.3916 13.7636C18.0926 13.9363 17.9082 14.2554 17.9082 14.6007V16.5341H15.975C15.4622 16.5341 14.9705 16.7377 14.6079 17.1004C14.2454 17.4629 14.0416 17.9547 14.0416 18.4674V30.0674C14.0416 30.8365 14.3472 31.5742 14.8911 32.1181C15.4348 32.6618 16.1725 32.9674 16.9416 32.9674ZM15.975 23.7843C15.975 23.5173 16.1914 23.3009 16.4582 23.3009H29.0252C29.1533 23.3009 29.2762 23.3519 29.367 23.4425C29.4576 23.5331 29.5084 23.6561 29.5084 23.7843V30.0674C29.5084 30.3239 29.4066 30.5697 29.2254 30.7509C29.0441 30.9322 28.7982 31.0341 28.5418 31.0341H16.9418C16.6855 31.0341 16.4395 30.9322 16.2582 30.7509C16.077 30.5697 15.9752 30.3238 15.9752 30.0674L15.975 23.7843Z" fill="#62CBC9"/>
</svg>
