<svg width="228" height="255" viewBox="0 0 228 255" fill="none" xmlns="http://www.w3.org/2000/svg">
<rect width="227.682" height="255" rx="10" fill="#F9F9F9"/>
<g clip-path="url(#clip0_15_59)">
<path d="M114 130.764V149.389L137.144 117.276L114 130.764Z" fill="#9C9C9C"/>
<path d="M114 102.548V126.455L137.144 112.931L114 102.548Z" fill="#828384"/>
<path d="M114 75V102.548L137.144 112.931L114 75Z" fill="#9C9C9C"/>
<path d="M114 130.764V149.389L90.8561 117.276L114 130.764Z" fill="#828384"/>
<path d="M114 102.548V126.455L90.8561 112.931L114 102.548Z" fill="#737373"/>
<path d="M114 75V102.548L90.8561 112.931L114 75Z" fill="#828384"/>
<path d="M41.1661 173.288C41.323 175.714 43.328 178.744 46.7303 178.744C49.0541 178.744 50.4596 177.683 51.4473 176.318C51.5461 176.202 51.6838 176.124 51.8354 176.1C51.9869 176.076 52.1423 176.106 52.2731 176.185V176.185C52.3417 176.225 52.4014 176.278 52.4484 176.341C52.4955 176.404 52.5288 176.476 52.5465 176.553C52.5641 176.629 52.5657 176.709 52.5511 176.786C52.5364 176.863 52.5059 176.936 52.4614 177.001C51.8317 177.942 50.9641 178.703 49.9446 179.21C48.9251 179.717 47.7891 179.951 46.6494 179.891C44.4528 179.891 42.8507 178.749 41.6797 177.504C40.7268 176.497 40.0017 174.787 40.0017 172.723C40.0017 170.695 40.6222 169.055 41.8631 167.803C43.1034 166.55 44.5899 165.641 46.6527 165.641C48.7156 165.641 50.2036 166.406 51.3845 167.657C52.9073 169.271 53.3202 170.934 53.3813 172.691C53.3836 172.768 53.3702 172.845 53.3418 172.918C53.3135 172.99 53.2707 173.056 53.2162 173.112C53.1619 173.167 53.0967 173.212 53.0246 173.242C52.9525 173.272 52.875 173.288 52.7967 173.288H41.1661ZM46.6428 166.762C45.125 166.773 43.992 167.434 43.0192 168.281C42.0464 169.127 41.3791 170.728 41.2189 172.211H52.0584C51.9489 170.794 51.3542 169.455 50.3721 168.416C49.51 167.506 48.6132 166.741 46.6428 166.754V166.762Z" fill="#C3C3C3"/>
<path d="M94.8051 173.288C94.9554 175.714 96.967 178.742 100.369 178.749C102.695 178.749 104.099 177.688 105.086 176.323C105.185 176.208 105.321 176.133 105.471 176.108C105.62 176.084 105.774 176.113 105.904 176.19V176.19C105.972 176.23 106.032 176.283 106.079 176.346C106.126 176.409 106.16 176.481 106.177 176.558C106.195 176.634 106.197 176.713 106.183 176.79C106.168 176.868 106.138 176.941 106.094 177.006C105.464 177.946 104.597 178.706 103.578 179.213C102.559 179.72 101.424 179.955 100.285 179.896C98.0885 179.896 96.4864 178.753 95.3154 177.509C94.369 176.497 93.6423 174.787 93.6423 172.723C93.6423 170.695 94.2628 169.055 95.5037 167.803C96.744 166.55 98.2305 165.641 100.293 165.641C102.356 165.641 103.844 166.406 105.025 167.657C106.548 169.271 106.961 170.934 107.022 172.691C107.024 172.768 107.011 172.845 106.982 172.918C106.954 172.99 106.911 173.056 106.857 173.112C106.803 173.167 106.737 173.212 106.665 173.242C106.593 173.272 106.516 173.288 106.437 173.288H94.8051ZM100.282 166.762C98.764 166.773 97.631 167.434 96.6582 168.281C95.6854 169.127 95.0181 170.728 94.8579 172.211H105.694C105.584 170.797 104.99 169.462 104.011 168.424C103.149 167.506 102.252 166.741 100.285 166.754L100.282 166.762Z" fill="#C3C3C3"/>
<path d="M128.001 173.288C128.151 175.714 130.163 178.744 133.565 178.744C135.889 178.744 137.294 177.683 138.282 176.318C138.381 176.202 138.518 176.124 138.67 176.1C138.821 176.076 138.977 176.106 139.108 176.186C139.176 176.225 139.236 176.278 139.283 176.341C139.33 176.404 139.363 176.477 139.381 176.553C139.399 176.63 139.4 176.709 139.386 176.786C139.371 176.863 139.34 176.936 139.296 177.001C138.667 177.943 137.799 178.705 136.779 179.213C135.759 179.721 134.623 179.956 133.482 179.896C131.287 179.896 129.684 178.754 128.514 177.509C127.568 176.497 126.841 174.787 126.841 172.723C126.841 170.695 127.462 169.055 128.703 167.803C129.943 166.55 131.429 165.641 133.482 165.641C135.535 165.641 137.035 166.406 138.216 167.658C139.739 169.271 140.151 170.934 140.211 172.691C140.214 172.768 140.201 172.846 140.172 172.918C140.144 172.99 140.101 173.056 140.046 173.112C139.991 173.167 139.926 173.211 139.854 173.242C139.782 173.272 139.705 173.288 139.626 173.288H128.001ZM133.476 166.762C131.96 166.773 130.833 167.434 129.854 168.281C128.874 169.128 128.214 170.728 128.053 172.211H138.89C138.779 170.797 138.186 169.462 137.207 168.424C136.344 167.506 135.446 166.741 133.482 166.754L133.476 166.762Z" fill="#C3C3C3"/>
<path d="M64.2406 166.997V179.171C64.2401 179.313 64.1829 179.449 64.0814 179.549C63.9799 179.649 63.8424 179.706 63.6988 179.706V179.706C63.5553 179.706 63.4178 179.649 63.3163 179.549C63.2148 179.449 63.1576 179.313 63.1571 179.171V166.997H60.0604C59.9211 166.997 59.7875 166.942 59.689 166.845C59.5905 166.748 59.5352 166.616 59.5352 166.478C59.5352 166.34 59.5905 166.208 59.689 166.111C59.7875 166.014 59.9211 165.959 60.0604 165.959H63.1571V161.45C63.1576 161.306 63.2153 161.169 63.3177 161.068C63.4201 160.967 63.5589 160.91 63.7038 160.91H63.7154C63.8542 160.91 63.9873 160.965 64.0857 161.061C64.184 161.158 64.2397 161.29 64.2406 161.427V165.957H67.4348C67.5741 165.957 67.7076 166.012 67.8061 166.109C67.9046 166.207 67.96 166.339 67.96 166.476C67.96 166.614 67.9046 166.746 67.8061 166.843C67.7076 166.94 67.5741 166.995 67.4348 166.995L64.2406 166.997Z" fill="#C3C3C3"/>
<path d="M81.693 165.806C79.5459 165.514 77.5029 166.22 76.0974 168.512V155.002C76.0969 154.865 76.0416 154.733 75.9435 154.637C75.8454 154.54 75.7125 154.485 75.5738 154.485H75.5622C75.4172 154.485 75.2783 154.542 75.1756 154.643C75.0729 154.744 75.0148 154.881 75.0139 155.025V179.171C75.0144 179.313 75.0716 179.449 75.1731 179.549C75.2746 179.649 75.4121 179.706 75.5556 179.706V179.706C75.6989 179.705 75.836 179.649 75.9372 179.549C76.0383 179.448 76.0953 179.313 76.0957 179.171V171.014C76.0957 168.729 79.029 166.266 81.688 166.855C83.4024 167.233 85.1151 168.912 85.1085 171.599V179.176C85.1089 179.318 85.1662 179.454 85.2676 179.554C85.3691 179.654 85.5067 179.711 85.6502 179.711C85.7938 179.711 85.9313 179.654 86.0328 179.554C86.1343 179.454 86.1915 179.318 86.192 179.176V171.619C86.3489 169.315 84.7402 166.222 81.693 165.806Z" fill="#C3C3C3"/>
<path d="M152.112 179.938C154.259 180.232 156.304 179.524 157.708 177.231V179.174C157.708 179.312 157.764 179.443 157.862 179.54C157.961 179.637 158.094 179.692 158.233 179.692H158.245C158.39 179.691 158.528 179.634 158.631 179.533C158.733 179.432 158.791 179.295 158.791 179.152V166.573C158.791 166.431 158.734 166.295 158.632 166.195C158.531 166.095 158.393 166.039 158.25 166.039V166.039C158.106 166.039 157.969 166.096 157.868 166.196C157.766 166.296 157.709 166.431 157.708 166.573L157.774 173.239C157.774 176.698 155.042 179.468 152.182 178.868C150.462 178.507 148.69 176.838 148.697 174.149V166.573C148.696 166.431 148.639 166.296 148.537 166.196C148.436 166.096 148.298 166.039 148.155 166.039C148.012 166.039 147.875 166.096 147.774 166.196C147.672 166.296 147.615 166.431 147.615 166.573V174.127C147.613 176.949 149.065 179.522 152.112 179.938Z" fill="#C3C3C3"/>
<path d="M183.489 165.806C181.377 165.519 178.713 166.421 177.6 169.371C176.952 167.666 175.492 166.095 173.382 165.806C171.235 165.514 169.172 166.161 167.766 168.452V166.507C167.766 166.37 167.71 166.238 167.612 166.141C167.513 166.044 167.38 165.989 167.241 165.988H167.229C167.085 165.989 166.946 166.046 166.843 166.147C166.741 166.248 166.683 166.385 166.683 166.529V179.108C166.683 179.249 166.74 179.385 166.841 179.485C166.942 179.585 167.08 179.642 167.223 179.643V179.643C167.366 179.642 167.504 179.586 167.605 179.485C167.707 179.385 167.764 179.249 167.765 179.108L167.698 172.443C167.698 168.982 170.448 166.274 173.314 166.873C174.966 167.22 176.67 168.778 176.791 171.289V179.108C176.789 179.127 176.789 179.146 176.791 179.165V179.165C176.791 179.458 177.121 179.7 177.418 179.7C177.562 179.699 177.699 179.643 177.801 179.543C177.902 179.442 177.959 179.306 177.96 179.165V177.347C177.96 176.15 177.97 174.574 177.97 173.352C177.97 169.615 179.674 166.305 183.42 166.876C185.158 167.142 186.912 168.907 186.907 171.594V179.171C186.907 179.313 186.964 179.448 187.065 179.548C187.166 179.649 187.303 179.705 187.447 179.706V179.706C187.59 179.706 187.728 179.649 187.829 179.549C187.931 179.449 187.988 179.313 187.988 179.171V171.619C188.15 169.315 186.537 166.222 183.489 165.806Z" fill="#C3C3C3"/>
<path d="M121.206 166.556C121.206 166.476 121.188 166.398 121.153 166.326C121.118 166.254 121.067 166.19 121.004 166.14C120.872 166.05 120.71 166.011 120.55 166.031C118.321 166.086 116.213 167.884 115.671 169.258V166.468C115.671 166.331 115.615 166.199 115.517 166.102C115.419 166.005 115.285 165.95 115.146 165.949H115.135C114.989 165.95 114.85 166.007 114.748 166.109C114.645 166.21 114.588 166.348 114.588 166.491V179.07C114.588 179.212 114.646 179.348 114.747 179.448C114.849 179.548 114.986 179.605 115.13 179.605V179.605C115.273 179.605 115.411 179.548 115.512 179.448C115.614 179.348 115.671 179.212 115.671 179.07L115.706 172.774C115.706 169.754 118.061 167.193 120.786 167.064C120.907 167.045 121.016 166.984 121.093 166.891C121.17 166.799 121.211 166.681 121.206 166.561V166.556Z" fill="#C3C3C3"/>
</g>
<defs>
<clipPath id="clip0_15_59">
<rect width="148" height="105" fill="white" transform="translate(40 75)"/>
</clipPath>
</defs>
</svg>
