<svg width="78" height="78" viewBox="0 0 78 78" fill="none" xmlns="http://www.w3.org/2000/svg">
<circle cx="39.0733" cy="39.0733" r="38.5147" fill="#62CBC9"/>
<path d="M45.0115 33.7398H31.9414V40.8095H36.3262V53.4008H31.9414V60.4705H49.0591V53.4008H45.0115V33.7398Z" fill="white"/>
<path d="M36.2419 23.3417C35.999 23.8923 35.8765 24.4857 35.8765 25.122C35.8765 25.7583 35.999 26.3605 36.2419 26.9281C36.5049 27.4787 36.8603 27.9602 37.31 28.373C37.7597 28.7859 38.2837 29.1125 38.884 29.3535C39.1972 29.4761 39.5225 29.5673 39.8618 29.6272C40.189 29.6857 40.5283 29.7147 40.8797 29.7147C41.5543 29.7147 42.1907 29.5945 42.791 29.3535C43.0841 29.236 43.3592 29.0978 43.6162 28.9398C43.8852 28.7734 44.1342 28.5845 44.3651 28.373C44.8148 27.9602 45.1701 27.4787 45.4331 26.9281C45.5536 26.6664 45.648 26.3974 45.7122 26.1209C45.7885 25.7979 45.8267 25.4648 45.8267 25.122C45.8267 24.8175 45.7965 24.5226 45.7363 24.2374C45.6721 23.9273 45.5697 23.6287 45.4331 23.3417C45.1701 22.7741 44.8148 22.2838 44.3651 21.871C44.0358 21.5697 43.6684 21.3139 43.2608 21.1043C43.1102 21.0269 42.9536 20.9555 42.791 20.8905C42.1907 20.6496 41.5543 20.5293 40.8797 20.5293C40.4822 20.5293 40.0987 20.5671 39.7293 20.6417C39.4382 20.7012 39.1571 20.7841 38.884 20.8905C38.2837 21.1315 37.7597 21.4582 37.31 21.871C36.8603 22.2838 36.5049 22.7741 36.2419 23.3417Z" fill="white"/>
</svg>
