<svg width="45" height="45" viewBox="0 0 45 45" fill="none" xmlns="http://www.w3.org/2000/svg">
<rect width="45" height="45" rx="4" fill="white"/>
<path d="M30.8318 26.9008C30.2518 27.1096 29.3006 27.3648 28.2566 27.5969C27.8854 28.2 27.2127 28.7104 26.1454 28.9193C25.8902 28.9658 25.6118 28.9889 25.3102 28.9889C24.5677 29.0121 23.7093 28.9425 22.735 28.8498C22.6654 28.8498 22.5958 28.8498 22.5262 28.8266C22.2942 28.8035 22.0854 28.6179 22.0623 28.3858C22.0391 28.0841 22.2943 27.8522 22.5727 27.8754C22.6423 27.8754 22.7351 27.8985 22.8047 27.8985C24.0575 28.0146 25.2175 28.1073 25.9599 27.9681C27.3287 27.7129 27.7231 26.8777 27.6303 26.1817C27.5607 25.6017 27.1431 25.0681 26.4472 25.1144C25.4728 25.184 24.3359 25.1144 23.2455 25.0216C21.9928 24.9289 20.6935 24.9056 19.7655 24.9985C18.7447 25.1145 16.6568 25.8802 14.8239 27.1098C13.9191 27.7129 12.9215 28.4554 12.3183 28.8962C12.0167 29.1283 11.9471 29.5458 12.1792 29.8474L14.8471 33.3043C15.0791 33.6059 15.4967 33.6522 15.7983 33.4203L16.7727 32.6547C17.0048 32.4691 17.3063 32.4226 17.5848 32.5155C19.3712 33.0955 21.2969 33.4668 22.5496 33.5364C25.3104 33.7217 30.5768 30.4736 32.0848 29.4296C33.5927 28.3856 32.5023 26.2977 30.8319 26.9008L30.8318 26.9008Z" fill="#62CBC9"/>
<path d="M24.0343 23.2816C27.2591 23.2816 29.8807 20.66 29.8807 17.4352C29.8807 14.2104 27.259 11.5656 24.0343 11.5656C20.8095 11.5656 18.1647 14.1873 18.1647 17.412C18.1647 20.6368 20.7861 23.2816 24.0343 23.2816ZM23.5239 14.512V13.7695C23.5239 13.6999 23.5935 13.6304 23.663 13.6304H24.3822C24.4518 13.6304 24.5214 13.6999 24.5214 13.7695V14.4887C25.2639 14.5351 25.8439 15.0918 25.9135 15.8343C25.9135 15.927 25.8439 15.9968 25.7743 15.9968H25.0551C24.9855 15.9968 24.9391 15.9503 24.916 15.8807C24.8695 15.6487 24.6607 15.4864 24.4287 15.4864H23.8022C23.431 15.4864 23.0831 15.7647 23.0366 16.136C22.9902 16.5535 23.3383 16.9247 23.7558 16.9247H24.2895C25.287 16.9247 26.0991 17.7831 26.0064 18.8039C25.9368 19.5926 25.2872 20.196 24.5216 20.3118V21.0543C24.5216 21.1239 24.452 21.1934 24.3824 21.1934H23.6632C23.5936 21.1934 23.524 21.1239 23.524 21.0543V20.3351C22.7816 20.2887 22.2016 19.732 22.132 18.9895C22.132 18.8968 22.2015 18.8503 22.2711 18.8503H22.9903C23.0599 18.8503 23.1063 18.8968 23.1295 18.9664C23.1759 19.1984 23.3847 19.3608 23.6168 19.3608H24.2432C24.6144 19.3608 24.9624 19.0824 25.0088 18.7112C25.0552 18.2936 24.7071 17.9224 24.2896 17.9224H23.8257C22.9209 17.9224 22.1321 17.2728 22.0392 16.368C21.9462 15.4399 22.6191 14.628 23.5239 14.512V14.512Z" fill="#62CBC9"/>
</svg>
