<svg width="227" height="76" viewBox="0 0 227 76" fill="none" xmlns="http://www.w3.org/2000/svg">
<g clip-path="url(#clip0_3_124)">
<path d="M9.92002 61.5599C9.87674 61.5609 9.83378 61.5524 9.79407 61.5352C9.75437 61.5179 9.71889 61.4922 9.69004 61.46C6.59856 58.5609 4.11533 55.0752 2.38529 51.2062C0.655246 47.3372 -0.286987 43.1625 -0.386468 38.9255C-0.485949 34.6886 0.259326 30.4741 1.80588 26.5282C3.35244 22.5823 5.6693 18.984 8.62131 15.943C11.5733 12.902 15.1014 10.4793 18.9996 8.81629C22.8979 7.15328 27.0883 6.28318 31.3264 6.25684C35.5644 6.2305 39.7653 7.04842 43.6839 8.66285C47.6026 10.2773 51.1604 12.656 54.15 15.66C54.1985 15.725 54.2221 15.8051 54.2166 15.886C54.2112 15.9669 54.177 16.0431 54.1203 16.101C54.0636 16.1589 53.9881 16.1946 53.9074 16.2018C53.8267 16.2089 53.746 16.1871 53.68 16.14C50.7497 13.2147 47.2673 10.9008 43.4351 9.33289C39.6028 7.76497 35.4972 6.97417 31.3568 7.0066C27.2163 7.03903 23.1236 7.89398 19.3164 9.52173C15.5092 11.1495 12.0635 13.5176 9.17936 16.4885C6.29525 19.4594 4.03031 22.9739 2.51612 26.8276C1.00193 30.6814 0.268671 34.7977 0.358984 38.9373C0.449298 43.0769 1.36135 47.1572 3.04218 50.9413C4.72301 54.7254 7.1391 58.1377 10.15 60.98C10.2135 61.0437 10.2492 61.13 10.2492 61.22C10.2492 61.3099 10.2135 61.3962 10.15 61.46C10.0848 61.5212 9.9995 61.5567 9.91004 61.5599" fill="white"/>
<path d="M50.24 43.95C50.0598 45.3335 49.6721 46.6819 49.09 47.95C48.4231 49.2444 47.4973 50.3881 46.37 51.3099C45.0774 52.3176 43.6093 53.0771 42.04 53.5499C40.5326 53.9905 38.9705 54.2161 37.4 54.22C35.7207 54.2056 34.0601 53.866 32.51 53.22C30.8697 52.5533 29.3803 51.5637 28.13 50.3099C26.7456 48.9078 25.6693 47.2321 24.97 45.39C24.334 43.7005 23.963 41.9228 23.87 40.12L22.28 39.9C22.36 42.0211 22.796 44.1135 23.57 46.09C24.6569 48.866 26.5505 51.2528 29.0067 52.9425C31.4628 54.6322 34.3689 55.5474 37.35 55.5699C39.1627 55.584 40.9668 55.3211 42.7 54.79C44.3616 54.2525 45.9009 53.3928 47.23 52.26C48.4719 51.2296 49.5127 49.9785 50.3 48.5699C51.0335 47.1258 51.4817 45.5538 51.62 43.9399L50.24 43.95Z" fill="white"/>
<path d="M31.43 26.73C32.48 28.16 32.53 29.53 32.51 31.73H33.77C33.77 30.73 33.77 30.1599 33.7 29.3199C33.613 28.1054 33.1907 26.9388 32.48 25.95C32.3036 25.7027 32.1134 25.4656 31.91 25.24C31.5112 25.4357 31.1269 25.6596 30.76 25.91C30.9989 26.1667 31.2227 26.4371 31.43 26.72" fill="white"/>
<path d="M14.6901 36.21C16.8373 37.7143 19.3468 38.6188 21.9601 38.83L26.67 39.47C28.2157 39.5998 29.7243 40.0133 31.1201 40.69C32.125 41.2029 32.9332 42.0322 33.42 43.05C33.9263 44.2333 34.1654 45.5137 34.1201 46.8C34.1571 47.7451 33.9986 48.6877 33.6544 49.5688C33.3103 50.4498 32.7879 51.2503 32.1201 51.9201C32.3601 52.0401 32.6 52.1601 32.85 52.2601C33.1 52.3601 33.35 52.4301 33.61 52.5101C33.9558 52.1391 34.2671 51.7374 34.54 51.31C35.3683 49.9097 35.7907 48.3066 35.76 46.68C35.8052 45.1859 35.4969 43.7023 34.86 42.35C34.2169 41.1361 33.224 40.1432 32.01 39.5C30.4485 38.7036 28.7535 38.2019 27.01 38.0201L22.2401 37.3801C20.0907 37.1697 18.0145 36.4867 16.1601 35.3801C14.6334 34.3734 13.8667 32.5901 13.86 30.0301C13.8309 29.0655 14.0198 28.1067 14.4129 27.2254C14.806 26.3441 15.393 25.5628 16.1301 24.94C17.6401 23.64 19.7901 23 22.5901 23C24.4011 22.9534 26.2031 23.2696 27.89 23.93C28.27 23.63 28.65 23.34 29.05 23.07C27.0152 22.0818 24.7711 21.6015 22.51 21.6701C20.5904 21.6038 18.6785 21.9446 16.9001 22.6701C15.469 23.2792 14.2534 24.3032 13.4101 25.61C12.5886 26.9463 12.1718 28.4919 12.2101 30.06C12.2101 32.85 13.0501 34.91 14.7101 36.22" fill="white"/>
<path d="M28.56 53.86C27.5058 54.1146 26.4244 54.2389 25.34 54.23C22.9882 54.3376 20.6426 53.9102 18.4799 52.98C16.9115 52.2425 15.6542 50.9746 14.93 49.4C14.1974 47.6925 13.8393 45.8476 13.88 43.99H12.46C12.4859 45.27 12.6468 46.5438 12.94 47.79C13.4519 49.613 14.4149 51.2775 15.74 52.63C16.9027 53.6403 18.2658 54.3934 19.74 54.84C21.5484 55.3871 23.4308 55.6502 25.3199 55.62C26.9571 55.6504 28.5863 55.3861 30.13 54.84C29.5815 54.5369 29.0506 54.203 28.5399 53.84" fill="white"/>
<path d="M50.32 28.51C49.5241 27.116 48.4804 25.879 47.24 24.86C45.9153 23.7209 44.3747 22.8604 42.71 22.33C41.0017 21.7819 39.2135 21.5249 37.42 21.57C34.5935 21.5535 31.8261 22.3785 29.47 23.94C27.1929 25.4292 25.3559 27.5009 24.15 29.94C23.16 31.9439 22.5497 34.1138 22.35 36.34L23.91 36.55C24.0924 34.5878 24.5958 32.669 25.4 30.87C26.4114 28.5907 28.0133 26.6229 30.04 25.1701C32.2014 23.6644 34.7865 22.8867 37.42 22.95C38.9863 22.8988 40.5504 23.1048 42.05 23.56C43.6227 24.0244 45.0923 24.7847 46.38 25.8C47.5086 26.7191 48.4375 27.8592 49.11 29.1501C49.4978 29.9714 49.7929 30.8333 49.99 31.72H51.28C51.1806 30.5844 50.8397 29.4831 50.28 28.49" fill="white"/>
<path d="M77.77 33.59C77.066 33.3973 76.4114 33.0563 75.85 32.59L76.46 31.29C76.9556 31.7316 77.5332 32.0714 78.16 32.29C78.846 32.5395 79.57 32.6681 80.3 32.67C81.0522 32.7189 81.8025 32.5486 82.46 32.1799C82.6834 32.0428 82.8672 31.85 82.9935 31.6204C83.1197 31.3907 83.184 31.1321 83.18 30.87C83.1913 30.685 83.1622 30.4998 83.0949 30.3271C83.0275 30.1545 82.9235 29.9985 82.79 29.87C82.5034 29.6077 82.1617 29.4128 81.79 29.2999C81.2595 29.1174 80.7186 28.9672 80.17 28.85C79.4501 28.6872 78.7419 28.4767 78.05 28.22C77.5138 28.0069 77.0394 27.6631 76.67 27.22C76.2666 26.7213 76.0634 26.0903 76.1 25.4499C76.0927 24.8537 76.2633 24.2689 76.59 23.77C76.9638 23.2401 77.4805 22.8273 78.08 22.58C78.8624 22.2574 79.7041 22.1041 80.55 22.13C81.2249 22.1333 81.8967 22.2207 82.55 22.39C83.1607 22.5446 83.7395 22.8052 84.26 23.16L83.71 24.49C82.7575 23.8788 81.6516 23.5495 80.52 23.54C79.7762 23.4857 79.0342 23.6676 78.4 24.0599C78.1808 24.2047 78.0016 24.4026 77.8793 24.6351C77.7569 24.8676 77.6952 25.1273 77.7 25.39C77.6879 25.576 77.7176 25.7623 77.7868 25.9353C77.856 26.1083 77.963 26.2637 78.1 26.39C78.3871 26.6538 78.7284 26.8517 79.1 26.97C79.6237 27.1495 80.1581 27.2965 80.7 27.41C81.4169 27.5713 82.122 27.7818 82.81 28.04C83.3402 28.2588 83.81 28.6018 84.18 29.04C84.5833 29.5276 84.7901 30.148 84.76 30.78C84.7623 31.3739 84.5883 31.955 84.26 32.4499C83.8838 32.9921 83.3547 33.41 82.74 33.65C81.9485 33.9643 81.1013 34.1139 80.25 34.09C79.3896 34.0962 78.5344 33.9575 77.72 33.6799" fill="white"/>
<path d="M111.49 33.87L111.47 25.39L107.27 32.45H106.5L102.3 25.44V33.87H100.7V22.23H102.06L106.92 30.41L111.7 22.23H113.07L113.08 33.87H111.49Z" fill="white"/>
<path d="M128.83 23.31C129.249 23.6896 129.583 24.1527 129.812 24.6693C130.041 25.186 130.159 25.7448 130.159 26.31C130.159 26.8751 130.041 27.434 129.812 27.9507C129.583 28.4674 129.249 28.9303 128.83 29.31C127.809 30.0803 126.547 30.4631 125.27 30.39H122.4V33.86H120.73V22.22H125.24C126.517 22.147 127.779 22.5296 128.8 23.3L128.83 23.31ZM127.6 28.21C127.881 27.9768 128.103 27.6804 128.247 27.3449C128.391 27.0094 128.454 26.6445 128.43 26.2801C128.453 25.9143 128.39 25.5481 128.246 25.2111C128.102 24.8741 127.881 24.5758 127.6 24.34C126.897 23.8467 126.046 23.6102 125.19 23.6701H122.37V28.86H125.24C126.098 28.917 126.949 28.6768 127.65 28.18" fill="white"/>
<path d="M136.72 22.23H138.39V32.42H144.69V33.87H136.72V22.23Z" fill="white"/>
<path d="M159.2 32.42V33.87H150.75V22.23H158.97V23.68H152.42V27.25H158.25V28.66H152.42V32.42H159.2Z" fill="white"/>
<path d="M78.16 54.1199C77.244 53.6268 76.4825 52.8896 75.96 51.9899C75.4352 51.0591 75.1594 50.0085 75.1594 48.9399C75.1594 47.8713 75.4352 46.8208 75.96 45.89C76.4893 44.9922 77.2534 44.2558 78.17 43.76C79.1417 43.2413 80.2286 42.9764 81.33 42.9899C82.1822 42.9775 83.0285 43.1338 83.82 43.4499C84.5617 43.7398 85.2234 44.2026 85.75 44.7999L84.67 45.7999C84.2542 45.3509 83.7475 44.9957 83.1837 44.7578C82.6198 44.5198 82.0118 44.4047 81.4 44.42C80.5796 44.4062 79.7698 44.6061 79.05 45C78.3661 45.3726 77.8011 45.9306 77.42 46.6099C77.033 47.3094 76.83 48.0956 76.83 48.895C76.83 49.6943 77.033 50.4805 77.42 51.1799C77.8043 51.8542 78.3687 52.4083 79.05 52.78C79.7698 53.1739 80.5796 53.3737 81.4 53.3599C82.0124 53.3727 82.6205 53.2554 83.1842 53.0158C83.7479 52.7762 84.2543 52.4197 84.67 51.9699L85.75 52.9699C85.2192 53.565 84.5589 54.0302 83.82 54.3299C83.0212 54.6451 82.1687 54.8014 81.31 54.79C80.2113 54.8085 79.1264 54.5432 78.16 54.02" fill="white"/>
<path d="M100.08 53.45V54.89H91.63V43.26H99.84V44.7H93.29V48.28H99.13V49.69H93.29V53.45H100.08Z" fill="white"/>
<path d="M114.7 54.86L112.19 51.29H111.46H108.59V54.86H106.92V43.26H111.46C112.737 43.1861 113.999 43.5688 115.02 44.3399C115.456 44.704 115.8 45.1649 116.026 45.6858C116.252 46.2067 116.352 46.7732 116.32 47.3399C116.346 48.1583 116.112 48.9638 115.65 49.64C115.183 50.2898 114.521 50.7734 113.76 51.02L116.52 54.92L114.7 54.86ZM113.82 49.23C114.108 48.987 114.334 48.6787 114.478 48.3308C114.622 47.9828 114.681 47.6054 114.65 47.23C114.673 46.8656 114.61 46.501 114.466 46.1656C114.322 45.8303 114.1 45.5336 113.82 45.2999C113.119 44.8015 112.268 44.5613 111.41 44.62H108.59V49.86H111.41C112.268 49.9186 113.119 49.6783 113.82 49.1799" fill="white"/>
<path d="M131.61 53.45V54.89H123.17V43.26H131.38V44.7H124.83V48.28H130.66V49.69H124.83V53.45H131.61Z" fill="white"/>
<path d="M149.25 54.89L149.23 46.41L145.03 53.48H144.26L140.06 46.46V54.89H138.46V43.26H139.82L144.68 51.43L149.47 43.26H150.83L150.85 54.89H149.25Z" fill="white"/>
<path d="M160.57 54.12C159.651 53.6244 158.883 52.8881 158.35 51.99C157.826 51.0607 157.551 50.0118 157.551 48.9449C157.551 47.8781 157.826 46.8294 158.35 45.9C158.883 44.9988 159.65 44.2592 160.57 43.76C161.55 43.254 162.637 42.99 163.74 42.99C164.843 42.99 165.93 43.254 166.91 43.76C167.827 44.2558 168.591 44.9923 169.12 45.89C169.645 46.8209 169.921 47.8713 169.921 48.9399C169.921 50.0086 169.645 51.0591 169.12 51.99C168.597 52.8923 167.831 53.6301 166.91 54.12C165.93 54.626 164.843 54.89 163.74 54.89C162.637 54.89 161.55 54.626 160.57 54.12V54.12ZM166.05 52.83C166.724 52.4549 167.281 51.9013 167.66 51.23C168.047 50.5306 168.25 49.7443 168.25 48.9449C168.25 48.1456 168.047 47.3595 167.66 46.66C167.281 45.986 166.724 45.4289 166.05 45.0499C165.348 44.6562 164.555 44.4561 163.75 44.47C162.939 44.4563 162.139 44.6563 161.43 45.0499C160.748 45.4252 160.184 45.9827 159.8 46.66C159.413 47.3595 159.21 48.1456 159.21 48.9449C159.21 49.7443 159.413 50.5306 159.8 51.23C160.184 51.9043 160.749 52.4583 161.43 52.83C162.139 53.2236 162.939 53.4237 163.75 53.41C164.555 53.4239 165.348 53.2237 166.05 52.83" fill="white"/>
<path d="M186.62 43.26V54.89H185.26L178.28 46.21V54.89H176.62V43.26H177.98L184.96 51.93V43.26H186.62Z" fill="white"/>
<path d="M212.03 53.45V54.89H203.58V43.26H211.79V44.7H205.24V48.28H211.08V49.69H205.24V53.45H212.03Z" fill="white"/>
<path d="M219.73 54.49C219.023 54.2744 218.369 53.9133 217.81 53.43L218.43 52.13C218.926 52.5715 219.503 52.9112 220.13 53.13C220.816 53.3779 221.541 53.5032 222.27 53.5C223.023 53.5524 223.774 53.382 224.43 53.0101C224.649 52.8719 224.83 52.6799 224.954 52.4523C225.078 52.2248 225.142 51.9693 225.14 51.71C225.15 51.5252 225.12 51.3403 225.053 51.1679C224.986 50.9954 224.883 50.8393 224.75 50.71C224.464 50.4466 224.122 50.2517 223.75 50.1401C223.357 50.0134 222.817 49.8633 222.13 49.69C221.41 49.5286 220.702 49.3181 220.01 49.06C219.476 48.844 219.002 48.5007 218.63 48.06C218.222 47.5633 218.015 46.9318 218.05 46.2901C218.046 45.6943 218.217 45.1104 218.54 44.61C218.912 44.0764 219.429 43.6602 220.03 43.4101C220.816 43.0862 221.661 42.9327 222.51 42.96C223.186 42.9624 223.858 43.0532 224.51 43.23C225.12 43.3809 225.699 43.6382 226.22 43.99L225.67 45.32C225.184 45.0151 224.659 44.7764 224.11 44.61C223.581 44.4542 223.032 44.3734 222.48 44.37C221.737 44.3211 220.996 44.5027 220.36 44.8901C220.14 45.035 219.96 45.2326 219.836 45.4649C219.712 45.6972 219.648 45.9567 219.65 46.22C219.641 46.4057 219.672 46.5911 219.741 46.7637C219.81 46.9363 219.915 47.092 220.05 47.22C220.338 47.4833 220.679 47.6811 221.05 47.8C221.574 47.9781 222.108 48.1251 222.65 48.24C223.369 48.4102 224.077 48.6239 224.77 48.88C225.301 49.0978 225.771 49.4409 226.14 49.88C226.542 50.3716 226.745 50.996 226.71 51.63C226.712 52.2239 226.538 52.8051 226.21 53.3C225.836 53.8381 225.311 54.2526 224.7 54.49C223.909 54.8073 223.062 54.9571 222.21 54.93C221.347 54.9345 220.49 54.7995 219.67 54.5301" fill="white"/>
<path d="M93.05 22.23H91.39V33.87H93.05V22.23Z" fill="white"/>
<path d="M94.11 17.86C94.11 18.2338 93.9991 18.5992 93.7914 18.91C93.5838 19.2208 93.2886 19.463 92.9432 19.6061C92.5979 19.7491 92.2179 19.7865 91.8512 19.7136C91.4846 19.6407 91.1478 19.4607 90.8835 19.1964C90.6192 18.9321 90.4392 18.5954 90.3663 18.2288C90.2933 17.8621 90.3308 17.4821 90.4738 17.1367C90.6169 16.7914 90.8591 16.4961 91.1699 16.2885C91.4807 16.0808 91.8462 15.97 92.22 15.97C92.7212 15.97 93.202 16.1691 93.5564 16.5236C93.9108 16.878 94.11 17.3587 94.11 17.86" fill="white"/>
<path d="M196.03 43.26H194.37V54.9H196.03V43.26Z" fill="white"/>
<path d="M197.08 38.86C197.082 39.2347 196.973 39.6015 196.766 39.9138C196.559 40.2262 196.264 40.4699 195.918 40.6142C195.572 40.7584 195.191 40.7968 194.824 40.7241C194.456 40.6515 194.119 40.4714 193.854 40.2064C193.589 39.9415 193.408 39.6038 193.336 39.2362C193.263 38.8687 193.302 38.4879 193.446 38.1421C193.59 37.7964 193.834 37.5013 194.146 37.2943C194.459 37.0874 194.825 36.978 195.2 36.98C195.698 36.9826 196.174 37.1816 196.526 37.5336C196.878 37.8856 197.077 38.3622 197.08 38.86" fill="white"/>
</g>
<defs>
<clipPath id="clip0_3_124">
<rect width="226.77" height="75.8" fill="white"/>
</clipPath>
</defs>
</svg>
