<svg width="228" height="255" viewBox="0 0 228 255" fill="none" xmlns="http://www.w3.org/2000/svg">
<rect width="227.682" height="255" rx="10" fill="#F9F9F9"/>
<g clip-path="url(#clip0_15_27)">
<path d="M109.858 155.539H101.838L106.854 124.562H114.873L109.858 155.539Z" fill="#A9A9A9"/>
<path d="M138.93 125.319C137.348 124.692 134.839 124 131.737 124C123.817 124 118.24 128.218 118.206 134.248C118.14 138.697 122.199 141.169 125.234 142.652C128.337 144.168 129.392 145.157 129.392 146.509C129.36 148.584 126.884 149.54 124.576 149.54C121.374 149.54 119.658 149.047 117.051 147.893L115.995 147.398L114.873 154.351C116.754 155.207 120.219 155.967 123.817 156C132.232 156 137.71 151.847 137.775 145.421C137.807 141.895 135.664 139.193 131.043 136.985C128.238 135.567 126.52 134.612 126.52 133.162C126.553 131.843 127.973 130.493 131.14 130.493C133.747 130.427 135.662 131.053 137.114 131.679L137.839 132.008L138.93 125.319V125.319Z" fill="#A9A9A9"/>
<path d="M149.588 144.565C150.249 142.786 152.79 135.898 152.79 135.898C152.757 135.964 153.449 134.086 153.845 132.933L154.406 135.602C154.406 135.602 155.924 143.017 156.254 144.565C155.001 144.565 151.172 144.565 149.588 144.565ZM159.488 124.562H153.284C151.372 124.562 149.918 125.122 149.093 127.133L137.181 155.539H145.595C145.595 155.539 146.981 151.716 147.279 150.892C148.202 150.892 156.388 150.892 157.575 150.892C157.805 151.98 158.532 155.539 158.532 155.539H165.957L159.488 124.562V124.562Z" fill="#A9A9A9"/>
<path d="M95.1393 124.562L87.2854 145.686L86.4271 141.402C84.9751 136.458 80.4212 131.088 75.3394 128.417L82.5333 155.507H91.0139L103.619 124.562H95.1393V124.562Z" fill="#A9A9A9"/>
<path d="M79.9924 124.562H67.0895L66.9575 125.188C77.0226 127.759 83.6885 133.955 86.4272 141.403L83.6223 127.166C83.1605 125.188 81.7413 124.628 79.9924 124.562Z" fill="#DFDFDF"/>
</g>
<g clip-path="url(#clip1_15_27)">
<path d="M162.354 64.1466C162.358 78.2837 150.196 89.7462 135.189 89.75C120.181 89.7534 108.014 78.2967 108.01 64.1596V64.1466C108.006 50.0098 120.168 38.5467 135.175 38.543C150.182 38.5392 162.35 49.9965 162.354 64.1336V64.1466Z" fill="#DFDFDF"/>
<path d="M131.873 64.1466C131.877 78.2837 119.715 89.7462 104.708 89.75C89.7004 89.7534 77.5328 78.2967 77.5288 64.1596V64.1466C77.5248 50.0098 89.6872 38.5467 104.694 38.543C119.701 38.5392 131.869 49.9965 131.873 64.1336V64.1466Z" fill="#A9A9A9"/>
</g>
<path d="M75.5635 202.136C74.3735 202.136 73.2969 201.875 72.3335 201.354C71.3815 200.821 70.6335 200.096 70.0895 199.178C69.5455 198.249 69.2735 197.206 69.2735 196.05C69.2735 194.894 69.5455 193.857 70.0895 192.939C70.6335 192.01 71.3872 191.284 72.3505 190.763C73.3139 190.23 74.3905 189.964 75.5805 189.964C76.5099 189.964 77.3599 190.123 78.1305 190.44C78.9012 190.746 79.5585 191.205 80.1025 191.817L78.9975 192.888C78.1022 191.947 76.9859 191.477 75.6485 191.477C74.7645 191.477 73.9655 191.675 73.2515 192.072C72.5375 192.469 71.9765 193.018 71.5685 193.721C71.1719 194.412 70.9735 195.189 70.9735 196.05C70.9735 196.911 71.1719 197.693 71.5685 198.396C71.9765 199.087 72.5375 199.631 73.2515 200.028C73.9655 200.425 74.7645 200.623 75.6485 200.623C76.9745 200.623 78.0909 200.147 78.9975 199.195L80.1025 200.266C79.5585 200.878 78.8955 201.343 78.1135 201.66C77.3429 201.977 76.4929 202.136 75.5635 202.136ZM83.8537 194.503C84.137 193.982 84.5563 193.585 85.1117 193.313C85.667 193.041 86.3413 192.905 87.1347 192.905V194.486C87.044 194.475 86.9193 194.469 86.7607 194.469C85.8767 194.469 85.1797 194.735 84.6697 195.268C84.171 195.789 83.9217 196.537 83.9217 197.512V202H82.2897V192.99H83.8537V194.503ZM97.2061 197.546C97.2061 197.671 97.1948 197.835 97.1721 198.039H89.8621C89.9641 198.832 90.3098 199.473 90.8991 199.96C91.4998 200.436 92.2421 200.674 93.1261 200.674C94.2028 200.674 95.0698 200.311 95.7271 199.586L96.6281 200.64C96.2201 201.116 95.7101 201.479 95.0981 201.728C94.4974 201.977 93.8231 202.102 93.0751 202.102C92.1231 202.102 91.2788 201.909 90.5421 201.524C89.8054 201.127 89.2331 200.578 88.8251 199.875C88.4284 199.172 88.2301 198.379 88.2301 197.495C88.2301 196.622 88.4228 195.835 88.8081 195.132C89.2048 194.429 89.7431 193.885 90.4231 193.5C91.1144 193.103 91.8908 192.905 92.7521 192.905C93.6134 192.905 94.3784 193.103 95.0471 193.5C95.7271 193.885 96.2541 194.429 96.6281 195.132C97.0134 195.835 97.2061 196.639 97.2061 197.546ZM92.7521 194.282C91.9701 194.282 91.3128 194.52 90.7801 194.996C90.2588 195.472 89.9528 196.095 89.8621 196.866H95.6421C95.5514 196.107 95.2398 195.489 94.7071 195.013C94.1858 194.526 93.5341 194.282 92.7521 194.282ZM107.972 189.386V202H106.408V200.572C106.046 201.071 105.587 201.45 105.031 201.711C104.476 201.972 103.864 202.102 103.195 202.102C102.323 202.102 101.541 201.909 100.849 201.524C100.158 201.139 99.614 200.6 99.2173 199.909C98.832 199.206 98.6393 198.402 98.6393 197.495C98.6393 196.588 98.832 195.789 99.2173 195.098C99.614 194.407 100.158 193.868 100.849 193.483C101.541 193.098 102.323 192.905 103.195 192.905C103.841 192.905 104.436 193.03 104.98 193.279C105.524 193.517 105.978 193.874 106.34 194.35V189.386H107.972ZM103.331 200.674C103.898 200.674 104.414 200.544 104.878 200.283C105.343 200.011 105.706 199.637 105.966 199.161C106.227 198.674 106.357 198.118 106.357 197.495C106.357 196.872 106.227 196.322 105.966 195.846C105.706 195.359 105.343 194.985 104.878 194.724C104.414 194.463 103.898 194.333 103.331 194.333C102.753 194.333 102.232 194.463 101.767 194.724C101.314 194.985 100.951 195.359 100.679 195.846C100.419 196.322 100.288 196.872 100.288 197.495C100.288 198.118 100.419 198.674 100.679 199.161C100.951 199.637 101.314 200.011 101.767 200.283C102.232 200.544 102.753 200.674 103.331 200.674ZM111.06 192.99H112.692V202H111.06V192.99ZM111.876 191.256C111.559 191.256 111.293 191.154 111.077 190.95C110.873 190.746 110.771 190.497 110.771 190.202C110.771 189.907 110.873 189.658 111.077 189.454C111.293 189.239 111.559 189.131 111.876 189.131C112.194 189.131 112.454 189.233 112.658 189.437C112.874 189.63 112.981 189.873 112.981 190.168C112.981 190.474 112.874 190.735 112.658 190.95C112.454 191.154 112.194 191.256 111.876 191.256ZM120.874 201.473C120.636 201.677 120.342 201.836 119.99 201.949C119.639 202.051 119.276 202.102 118.902 202.102C117.996 202.102 117.293 201.858 116.794 201.371C116.296 200.884 116.046 200.187 116.046 199.28V194.333H114.516V192.99H116.046V191.018H117.678V192.99H120.262V194.333H117.678V199.212C117.678 199.699 117.797 200.073 118.035 200.334C118.285 200.595 118.636 200.725 119.089 200.725C119.588 200.725 120.013 200.583 120.364 200.3L120.874 201.473ZM131.34 202.102C130.422 202.102 129.6 201.904 128.875 201.507C128.161 201.11 127.6 200.566 127.192 199.875C126.784 199.172 126.58 198.379 126.58 197.495C126.58 196.611 126.784 195.823 127.192 195.132C127.6 194.429 128.161 193.885 128.875 193.5C129.6 193.103 130.422 192.905 131.34 192.905C132.156 192.905 132.881 193.069 133.516 193.398C134.162 193.727 134.66 194.203 135.012 194.826L133.771 195.625C133.487 195.194 133.136 194.871 132.717 194.656C132.297 194.441 131.833 194.333 131.323 194.333C130.733 194.333 130.201 194.463 129.725 194.724C129.26 194.985 128.892 195.359 128.62 195.846C128.359 196.322 128.229 196.872 128.229 197.495C128.229 198.13 128.359 198.691 128.62 199.178C128.892 199.654 129.26 200.022 129.725 200.283C130.201 200.544 130.733 200.674 131.323 200.674C131.833 200.674 132.297 200.566 132.717 200.351C133.136 200.136 133.487 199.813 133.771 199.382L135.012 200.164C134.66 200.787 134.162 201.269 133.516 201.609C132.881 201.938 132.156 202.102 131.34 202.102ZM140.406 192.905C141.652 192.905 142.604 193.211 143.262 193.823C143.93 194.435 144.265 195.347 144.265 196.56V202H142.718V200.81C142.446 201.229 142.055 201.552 141.545 201.779C141.046 201.994 140.451 202.102 139.76 202.102C138.751 202.102 137.941 201.858 137.329 201.371C136.728 200.884 136.428 200.243 136.428 199.45C136.428 198.657 136.717 198.022 137.295 197.546C137.873 197.059 138.791 196.815 140.049 196.815H142.633V196.492C142.633 195.789 142.429 195.251 142.021 194.877C141.613 194.503 141.012 194.316 140.219 194.316C139.686 194.316 139.165 194.407 138.655 194.588C138.145 194.758 137.714 194.99 137.363 195.285L136.683 194.061C137.147 193.687 137.703 193.404 138.349 193.211C138.995 193.007 139.68 192.905 140.406 192.905ZM140.032 200.844C140.655 200.844 141.193 200.708 141.647 200.436C142.1 200.153 142.429 199.756 142.633 199.246V197.988H140.117C138.734 197.988 138.043 198.453 138.043 199.382C138.043 199.835 138.218 200.192 138.57 200.453C138.921 200.714 139.408 200.844 140.032 200.844ZM148.849 194.503C149.132 193.982 149.551 193.585 150.107 193.313C150.662 193.041 151.336 192.905 152.13 192.905V194.486C152.039 194.475 151.914 194.469 151.756 194.469C150.872 194.469 150.175 194.735 149.665 195.268C149.166 195.789 148.917 196.537 148.917 197.512V202H147.285V192.99H148.849V194.503ZM162.558 189.386V202H160.994V200.572C160.632 201.071 160.173 201.45 159.617 201.711C159.062 201.972 158.45 202.102 157.781 202.102C156.909 202.102 156.127 201.909 155.435 201.524C154.744 201.139 154.2 200.6 153.803 199.909C153.418 199.206 153.225 198.402 153.225 197.495C153.225 196.588 153.418 195.789 153.803 195.098C154.2 194.407 154.744 193.868 155.435 193.483C156.127 193.098 156.909 192.905 157.781 192.905C158.427 192.905 159.022 193.03 159.566 193.279C160.11 193.517 160.564 193.874 160.926 194.35V189.386H162.558ZM157.917 200.674C158.484 200.674 159 200.544 159.464 200.283C159.929 200.011 160.292 199.637 160.552 199.161C160.813 198.674 160.943 198.118 160.943 197.495C160.943 196.872 160.813 196.322 160.552 195.846C160.292 195.359 159.929 194.985 159.464 194.724C159 194.463 158.484 194.333 157.917 194.333C157.339 194.333 156.818 194.463 156.353 194.724C155.9 194.985 155.537 195.359 155.265 195.846C155.005 196.322 154.874 196.872 154.874 197.495C154.874 198.118 155.005 198.674 155.265 199.161C155.537 199.637 155.9 200.011 156.353 200.283C156.818 200.544 157.339 200.674 157.917 200.674Z" fill="#A9A9A9"/>
<defs>
<clipPath id="clip0_15_27">
<rect width="99" height="32" fill="white" transform="translate(66.9575 124)"/>
</clipPath>
<clipPath id="clip1_15_27">
<rect width="92" height="52" fill="white" transform="translate(70.9575 38)"/>
</clipPath>
</defs>
</svg>
