<svg width="28" height="27" viewBox="0 0 28 27" fill="none" xmlns="http://www.w3.org/2000/svg">
<g clip-path="url(#clip0_7067_39132)">
<path fill-rule="evenodd" clip-rule="evenodd" d="M21.3985 6.36643H6.60222V20.6343H0V2.06841C0.00140158 1.52063 0.227532 0.99564 0.629005 0.608093C1.03048 0.220546 1.57467 0.00193396 2.14274 0L21.3985 6.36643Z" fill="#467CBF"/>
<path fill-rule="evenodd" clip-rule="evenodd" d="M6.60223 26.9985H2.14274C1.57467 26.9966 1.03048 26.778 0.629005 26.3904C0.227532 26.0029 0.00140158 25.4779 0 24.9301L0 20.6328H6.60223V26.9985Z" fill="#007C3C"/>
<path fill-rule="evenodd" clip-rule="evenodd" d="M27.9999 20.6328L21.3984 26.9985V20.6328H27.9999Z" fill="#E83927"/>
<path fill-rule="evenodd" clip-rule="evenodd" d="M21.3984 0H25.8579C26.4259 0.00193485 26.97 0.220571 27.3714 0.608138C27.7727 0.995706 27.9987 1.5207 27.9999 2.06841V6.36643H21.3984V0Z" fill="#1C63AF"/>
<path d="M21.3979 20.6328H6.60156V26.9992H21.3979V20.6328Z" fill="#1EA74B"/>
<path d="M28.0007 6.36719H21.3984V20.6351H28.0007V6.36719Z" fill="#F9BB00"/>
<path fill-rule="evenodd" clip-rule="evenodd" d="M2.14274 0H21.3985V6.36643H6.60222V20.6343H0V2.06841C0.00140158 1.52063 0.227532 0.99564 0.629005 0.608093C1.03048 0.220546 1.57467 0.00193396 2.14274 0V0Z" fill="#467CBF"/>
<path fill-rule="evenodd" clip-rule="evenodd" d="M11.6263 9.16797C13.1239 9.16797 14.3374 10.1666 14.3374 11.3983C14.3374 12.1757 13.8541 12.86 13.1216 13.2594C14.0471 13.6682 14.677 14.4756 14.677 15.4047C14.677 16.7463 13.3625 17.8343 11.741 17.8343C10.2502 17.8343 9.01852 16.9148 8.83008 15.7227L10.0663 15.2662C10.2046 16.0964 10.8543 16.6584 11.7273 16.6584C12.6004 16.6584 13.3078 16.0356 13.3078 15.2662C13.3078 14.4969 12.6004 13.8741 11.7273 13.8741H10.9136V12.7384H11.64C12.4165 12.7384 13.0457 12.2043 13.0457 11.5463C13.0457 10.8883 12.4165 10.3542 11.64 10.3542C10.9272 10.3542 10.3376 10.8041 10.2464 11.388L8.98205 10.9184C9.25103 9.91899 10.3338 9.1709 11.6293 9.1709L11.6263 9.16797ZM17.7969 17.6673H19.1646V9.33576H18.1768L15.699 11.0708L16.4315 12.101L17.7992 11.1426L17.7969 17.6673Z" fill="#467CBF"/>
</g>
<defs>
<clipPath id="clip0_7067_39132">
<rect width="28" height="27" fill="white"/>
</clipPath>
</defs>
</svg>
