<svg width="12" height="15" viewBox="0 0 12 15" fill="none" xmlns="http://www.w3.org/2000/svg">
<path d="M5.40662 0.183966C2.36456 0.501911 0.0727959 3.43 0.336453 6.47779C0.684384 10.468 4.35645 13.4498 5.61645 14.3556C5.86851 14.5356 6.19852 14.5296 6.44438 14.3377C7.75231 13.3177 11.7604 9.86167 11.7604 5.86567C11.7544 2.50568 8.85038 -0.182323 5.40656 0.183848L5.40662 0.183966ZM6.03662 8.13996C4.78266 8.13996 3.76266 7.126 3.76266 5.866C3.76266 4.60586 4.77662 3.59793 6.03662 3.59793C7.29662 3.59793 8.31059 4.6119 8.31059 5.8719C8.31059 7.1319 7.29059 8.13996 6.03662 8.13996Z" fill="#B6CED0"/>
</svg>
