<svg width="31" height="31" viewBox="0 0 31 31" fill="none" xmlns="http://www.w3.org/2000/svg">
<path d="M29.3091 16.3446C29.3099 16.2328 29.2815 16.1227 29.2267 16.0249C29.1718 15.9271 29.0924 15.845 28.9961 15.7865H28.9927L28.9804 15.7798L18.7981 9.81312C18.7542 9.78371 18.7085 9.75683 18.6614 9.73262C18.4677 9.63366 18.2528 9.58203 18.0348 9.58203C17.8167 9.58203 17.6019 9.63366 17.4081 9.73262C17.361 9.75684 17.3154 9.78372 17.2714 9.81312L7.0892 15.7798L7.07691 15.7865C6.76571 15.9781 6.6703 16.3832 6.86382 16.6912C6.92084 16.782 6.99938 16.8576 7.09262 16.9115L17.2749 22.8782C17.319 22.9074 17.3646 22.9342 17.4116 22.9587C17.6053 23.0577 17.8202 23.1093 18.0382 23.1093C18.2563 23.1093 18.4711 23.0577 18.6649 22.9587C18.7118 22.9342 18.7574 22.9074 18.8016 22.8782L28.9838 16.9115C29.0838 16.8539 29.1665 16.771 29.2236 16.6715C29.2807 16.5719 29.3102 16.4591 29.3091 16.3446Z" fill="#0A2767"/>
<path d="M8.60642 12.3051H15.2577V18.6005H8.60642V12.3051ZM28.182 5.90569V3.02592C28.198 2.30592 27.6461 1.70866 26.9488 1.69141H9.68867C8.99138 1.70866 8.43944 2.30592 8.45542 3.02592V5.90569L18.6588 8.7152L28.182 5.90569Z" fill="#0364B8"/>
<path d="M8.45508 5.63672H15.2187V12.4004H8.45508V5.63672Z" fill="#0078D4"/>
<path d="M22.0417 5.63672H15.2188V12.1185L22.0417 18.6004H28.1824V12.1185L22.0417 5.63672Z" fill="#28A8EA"/>
<path d="M15.2188 12.3984H21.9824V18.5984H15.2188V12.3984Z" fill="#0078D4"/>
<path d="M15.2188 18.6016H21.9824V24.8016H15.2188V18.6016Z" fill="#0364B8"/>
<path d="M8.45508 18.6016H15.2187V24.2379H8.45508V18.6016Z" fill="#14447D"/>
<path d="M21.9824 18.6016H28.1824V24.8016H21.9824V18.6016Z" fill="#0078D4"/>
<path d="M28.9962 16.878L28.9833 16.8848L18.8036 22.6024C18.7592 22.6297 18.7141 22.6557 18.667 22.6789C18.4941 22.7611 18.3063 22.8075 18.115 22.8153L17.5589 22.4905C17.5119 22.467 17.4662 22.4408 17.4222 22.4121L7.10595 16.5321H7.10117L6.76367 16.3438V27.9182C6.76893 28.6904 7.39985 29.3123 8.1731 29.3074H27.9216C27.9332 29.3074 27.9434 29.3019 27.9557 29.3019C28.1191 29.2915 28.2801 29.2579 28.434 29.2023C28.5005 29.1741 28.5647 29.1408 28.6259 29.1027C28.6717 29.0767 28.7503 29.0201 28.7503 29.0201C28.9229 28.8926 29.0633 28.7265 29.1603 28.5352C29.2573 28.3439 29.3083 28.1327 29.3091 27.9182V16.3438C29.309 16.4525 29.28 16.5593 29.225 16.6531C29.17 16.747 29.0911 16.8246 28.9962 16.878Z" fill="url(#paint0_linear_7067_39110)"/>
<path opacity="0.5" d="M28.7447 16.1222V16.8394L18.1646 24.2369L7.21104 16.3635C7.21104 16.3617 7.21033 16.3599 7.20905 16.3587C7.20778 16.3574 7.20605 16.3566 7.20425 16.3566L6.19922 15.7429V15.2256L6.61346 15.2188L7.48946 15.7291L7.50983 15.736L7.58453 15.7842C7.58453 15.7842 17.8794 21.7495 17.9065 21.7633L18.3004 21.9977C18.3344 21.9839 18.3683 21.9701 18.409 21.9563C18.4294 21.9425 28.6292 16.1153 28.6292 16.1153L28.7447 16.1222Z" fill="#0A2767"/>
<path d="M28.9962 16.878L28.9832 16.8855L18.8036 22.6031C18.7592 22.6304 18.7141 22.6563 18.667 22.6795C18.4719 22.7747 18.2576 22.8242 18.0405 22.8242C17.8233 22.8242 17.6091 22.7747 17.414 22.6795C17.3672 22.6564 17.3216 22.6309 17.2773 22.6031L7.09775 16.8855L7.08546 16.878C6.98895 16.8257 6.90822 16.7486 6.85163 16.6547C6.79504 16.5607 6.76467 16.4534 6.76367 16.3438V27.9182C6.76857 28.6903 7.39926 29.3122 8.17236 29.3074H27.9004C28.6735 29.3123 29.3042 28.6903 29.3091 27.9183C29.3091 27.9183 29.3091 27.9183 29.3091 27.9183V16.3438C29.309 16.4525 29.28 16.5593 29.225 16.6531C29.17 16.747 29.0911 16.8246 28.9962 16.878Z" fill="#1490DF"/>
<path opacity="0.1" d="M18.8792 22.5469L18.7238 22.6356C18.6788 22.6648 18.6323 22.6915 18.5845 22.7157C18.4134 22.8013 18.2274 22.8515 18.0371 22.8633L21.9855 27.6198L28.8731 29.3105C29.0619 29.1653 29.212 28.9743 29.3098 28.755L18.8792 22.5469Z" fill="black"/>
<path opacity="0.05" d="M19.5652 21.9805L18.7161 22.4833C18.6716 22.5132 18.6256 22.5406 18.5784 22.5653C18.4092 22.6528 18.2252 22.7041 18.0371 22.7162L19.8662 28.0299L28.7534 29.3077C28.9261 29.1711 29.0663 28.9941 29.1628 28.7906C29.2594 28.5871 29.3097 28.3627 29.3098 28.1351V27.9762L19.5652 21.9805Z" fill="black"/>
<path d="M8.19177 29.3074H27.9016C28.2049 29.3089 28.5007 29.2133 28.7455 29.0345L17.5598 22.4919C17.5128 22.4684 17.4672 22.4422 17.4232 22.4135L7.10531 16.5334H7.10053L6.76367 16.3438V27.8786C6.7629 28.667 7.40228 29.3066 8.19177 29.3074C8.19176 29.3074 8.19176 29.3074 8.19177 29.3074Z" fill="#28A8EA"/>
<path opacity="0.1" d="M16.3455 8.60907V23.515C16.3443 24.0376 16.033 24.5074 15.5584 24.703C15.4114 24.7675 15.253 24.8008 15.093 24.8009H6.76367V8.02694H8.13251V7.32812H15.093C15.7844 7.3308 16.344 7.90308 16.3455 8.60907Z" fill="black"/>
<path opacity="0.2" d="M15.7818 9.17178V24.0795C15.7835 24.2483 15.748 24.4154 15.6777 24.5687C15.4851 25.0471 15.0248 25.361 14.5123 25.3634H6.76367V7.89068H14.5123C14.7136 7.88866 14.912 7.93923 15.0881 8.03746C15.5133 8.25331 15.7816 8.69205 15.7818 9.17178Z" fill="black"/>
<path opacity="0.2" d="M15.7819 9.14842V22.412C15.7785 23.1048 15.2129 23.6665 14.5124 23.6724H6.76367V7.89068H14.5124C14.7137 7.88869 14.912 7.93834 15.0881 8.03478C15.5134 8.24669 15.7817 8.67744 15.7819 9.14842Z" fill="black"/>
<path opacity="0.2" d="M15.2182 9.14836V22.412C15.2175 23.1059 14.6414 23.6691 13.9289 23.6724H6.76367V7.89062H13.9289C14.6414 7.891 15.2186 8.45381 15.2182 9.14769C15.2182 9.14791 15.2182 9.14814 15.2182 9.14836Z" fill="black"/>
<path d="M1.26795 7.89062H13.9502C14.6505 7.89062 15.2182 8.45831 15.2182 9.15857V21.8409C15.2182 22.5411 14.6505 23.1088 13.9502 23.1088H1.26795C0.567673 23.1088 0 22.5411 0 21.8409V9.15857C0 8.45831 0.567689 7.89062 1.26795 7.89062Z" fill="url(#paint1_linear_7067_39110)"/>
<path d="M3.88411 13.3612C4.20333 12.7232 4.71862 12.1893 5.36378 11.828C6.07826 11.4443 6.89176 11.253 7.71471 11.2752C8.47745 11.2597 9.23007 11.441 9.8904 11.7995C10.5112 12.1468 11.0113 12.6557 11.3298 13.2644C11.6767 13.9352 11.8495 14.6734 11.8343 15.4188C11.8511 16.1978 11.6733 16.9696 11.3149 17.6726C10.9888 18.3031 10.473 18.8301 9.83104 19.1886C9.14526 19.558 8.3647 19.7442 7.5741 19.7268C6.79506 19.7445 6.02583 19.561 5.35035 19.1965C4.72414 18.8487 4.21784 18.3393 3.89189 17.7289C3.54296 17.0678 3.36801 16.338 3.38171 15.6004C3.36718 14.828 3.53892 14.0626 3.88411 13.3612ZM5.46128 16.9606C5.63149 17.364 5.92012 17.7138 6.29368 17.9695C6.67417 18.219 7.12979 18.3477 7.59386 18.3368C8.08808 18.3551 8.57523 18.222 8.98167 17.9576C9.3505 17.7027 9.63155 17.3519 9.79004 16.9487C9.96721 16.4984 10.0546 16.0214 10.048 15.5414C10.0534 15.0569 9.97124 14.575 9.80487 14.1163C9.65794 13.7021 9.38594 13.3368 9.02194 13.0649C8.62568 12.788 8.13984 12.6475 7.64615 12.6672C7.17202 12.6557 6.7062 12.7854 6.31559 13.0378C5.93571 13.2945 5.6416 13.6475 5.46764 14.0553C5.08175 14.99 5.07974 16.0259 5.46198 16.962L5.46128 16.9606Z" fill="white"/>
<path d="M21.9824 5.63672H28.1824V12.4004H21.9824V5.63672Z" fill="#50D9FF"/>
<defs>
<linearGradient id="paint0_linear_7067_39110" x1="18.0364" y1="16.3438" x2="18.0364" y2="29.3074" gradientUnits="userSpaceOnUse">
<stop stop-color="#35B8F1"/>
<stop offset="1" stop-color="#28A8EA"/>
</linearGradient>
<linearGradient id="paint1_linear_7067_39110" x1="2.64371" y1="6.89987" x2="12.5745" y2="24.0996" gradientUnits="userSpaceOnUse">
<stop stop-color="#1784D9"/>
<stop offset="0.5" stop-color="#107AD5"/>
<stop offset="1" stop-color="#0A63C9"/>
</linearGradient>
</defs>
</svg>
