<svg width="10" height="19" viewBox="0 0 10 19" fill="none" xmlns="http://www.w3.org/2000/svg">
<path d="M8.65502 0.111328H1.35902C0.667816 0.111328 0.111084 0.668059 0.111084 1.35926V16.9113C0.111084 17.6025 0.667816 18.1592 1.35902 18.1592H8.65502C9.34622 18.1592 9.90295 17.6025 9.90295 16.9113V1.35926C9.90295 0.668059 9.34608 0.111328 8.65488 0.111328H8.65502ZM4.62302 1.64736H5.39095C5.65974 1.64736 5.87095 1.85857 5.87095 2.12736C5.87095 2.39615 5.65974 2.60736 5.39095 2.60736H4.62302C4.35423 2.60736 4.14302 2.39615 4.14302 2.12736C4.14302 1.85857 4.35423 1.64736 4.62302 1.64736ZM5.77495 16.4314H4.23891C3.97012 16.4314 3.75891 16.2201 3.75891 15.9514C3.75905 15.6826 3.97026 15.4714 4.23905 15.4714H5.77509C6.04388 15.4714 6.25509 15.6826 6.25509 15.9514C6.25495 16.2201 6.04375 16.4314 5.77495 16.4314ZM8.94302 14.3193H1.07102V3.56729H8.94302V14.3193Z" fill="#B6CED0"/>
</svg>
