<svg width="15" height="21" viewBox="0 0 15 21" fill="none" xmlns="http://www.w3.org/2000/svg">
<path d="M10.7979 8.20068L9.97063 9.34321C11.906 9.98249 13.3057 11.8056 13.3057 13.9525C13.3057 16.6266 11.1284 18.8059 8.45419 18.8059C5.77575 18.8059 3.59843 16.6265 3.59843 13.9525C3.59843 11.8054 5.00027 9.98465 6.93351 9.34321L6.10407 8.20068C3.83831 9.1294 2.23767 11.3564 2.23767 13.9528C2.23767 17.3786 5.02399 20.1671 8.45423 20.1671C11.8779 20.1671 14.6662 17.3785 14.6662 13.9528C14.6641 11.3565 13.0656 9.12717 10.7974 8.20068H10.7979Z" fill="#B6CED0"/>
<path d="M5.73511 6.4355L6.66595 7.72071L7.46734 8.82227L7.87778 9.39042L8.4523 9.35155L9.0247 9.39042L9.43514 8.82227L10.2365 7.72071L11.1675 6.4355L10.2949 5.35986H6.60558L5.73511 6.4355Z" fill="#B6CED0"/>
<path d="M4.27281 7.5678C4.27281 7.64765 4.33971 7.7147 4.41972 7.7147C4.50183 7.7147 4.56662 7.6478 4.56662 7.5678C4.56662 5.70584 6.07858 4.19175 7.94265 4.19175C8.02477 4.19175 8.08956 4.12697 8.08956 4.04485C8.08956 3.96274 8.02477 3.89795 7.94265 3.89795C6.0807 3.89795 4.56662 2.38371 4.56662 0.521903C4.56662 0.439788 4.49972 0.375 4.41972 0.375C4.33986 0.375 4.27281 0.439788 4.27281 0.521903C4.27281 2.38386 2.75858 3.89795 0.89678 3.89795C0.816926 3.89795 0.749878 3.96274 0.749878 4.04485C0.749878 4.12697 0.816776 4.19175 0.89678 4.19175C2.75873 4.19175 4.27281 5.70599 4.27281 7.5678Z" fill="#B6CED0"/>
</svg>
