<svg width="15" height="16" viewBox="0 0 15 16" fill="none" xmlns="http://www.w3.org/2000/svg">
<path d="M7.5 0.5C6.01664 0.5 4.56659 0.939867 3.33323 1.76398C2.09986 2.58809 1.13856 3.75943 0.570907 5.12987C0.0032496 6.50032 -0.145275 8.00832 0.144114 9.46317C0.433503 10.918 1.14781 12.2544 2.1967 13.3033C3.2456 14.3522 4.58197 15.0665 6.03683 15.3559C7.49168 15.6453 8.99968 15.4967 10.3701 14.9291C11.7406 14.3614 12.9119 13.4001 13.736 12.1668C14.5601 10.9334 15 9.48336 15 8C14.9962 6.01203 14.2048 4.10657 12.7991 2.70087C11.3934 1.29516 9.48797 0.503776 7.5 0.5ZM9.96429 9.46428C10.0675 9.60183 10.1175 9.77198 10.1053 9.94349C10.0932 10.115 10.0195 10.2764 9.89794 10.3979C9.77636 10.5195 9.615 10.5932 9.44349 10.6053C9.27199 10.6175 9.10184 10.5674 8.96429 10.4643L7.5 8.99821L6.03572 10.4643C5.89817 10.5674 5.72802 10.6175 5.55651 10.6053C5.385 10.5932 5.22365 10.5195 5.10207 10.3979C4.98049 10.2764 4.90685 10.115 4.89466 9.94349C4.88247 9.77198 4.93255 9.60183 5.03572 9.46428L6.50179 8L5.03572 6.53571C4.93255 6.39816 4.88247 6.22801 4.89466 6.05651C4.90685 5.885 4.98049 5.72364 5.10207 5.60206C5.22365 5.48049 5.385 5.40684 5.55651 5.39465C5.72802 5.38246 5.89817 5.43255 6.03572 5.53571L7.5 7.00178L8.96429 5.53571C9.10184 5.43255 9.27199 5.38246 9.44349 5.39465C9.615 5.40684 9.77636 5.48049 9.89794 5.60206C10.0195 5.72364 10.0932 5.885 10.1053 6.05651C10.1175 6.22801 10.0675 6.39816 9.96429 6.53571L8.49822 8L9.96429 9.46428Z" fill="#FF4545"/>
</svg>
