<svg width="15" height="16" viewBox="0 0 15 16" fill="none" xmlns="http://www.w3.org/2000/svg">
<path d="M7.5 15.5C11.6404 15.5 15 12.1404 15 8C15 3.85956 11.6404 0.5 7.5 0.5C3.35956 0.5 0 3.85956 0 8C0 12.1404 3.35956 15.5 7.5 15.5Z" fill="#FFB800"/>
<path d="M6.56577 10.7766C6.56577 11.3197 6.98611 11.75 7.5042 11.75C8.0223 11.75 8.43286 11.3197 8.43286 10.7766C8.43286 10.2336 8.0223 9.79303 7.5042 9.79303C6.98611 9.79303 6.56577 10.2336 6.56577 10.7766Z" fill="white"/>
<path d="M6.87858 8.16393C6.91768 8.52254 7.16206 8.81967 7.5042 8.81967C7.84634 8.81967 8.09073 8.52254 8.12005 8.16393L8.43286 5.22336C8.49152 4.72131 7.9832 4.25 7.5042 4.25C7.02521 4.25 6.51689 4.72131 6.56577 5.22336L6.87858 8.16393Z" fill="white"/>
</svg>
