<svg width="18" height="18" viewBox="0 0 18 18" fill="none" xmlns="http://www.w3.org/2000/svg">
<path d="M8.99076 0.866699C4.50384 0.866699 0.866577 4.50415 0.866577 8.99087C0.866577 13.4776 4.50384 17.115 8.99076 17.115C13.4777 17.115 17.1149 13.4776 17.1149 8.99087C17.1149 4.50415 13.4777 0.866699 8.99076 0.866699ZM8.99076 4.11632C9.28998 4.11632 9.53232 4.35886 9.53232 4.65788V8.77079L12.0541 11.2926C12.2657 11.5041 12.2657 11.8426 12.0541 12.0542C11.8425 12.2658 11.504 12.2658 11.2925 12.0542L8.68606 9.4393C8.55741 9.31613 8.47109 9.20034 8.44918 8.99085V4.65786C8.44918 4.35865 8.69172 4.1163 8.99074 4.1163L8.99076 4.11632Z" fill="#B6CED0"/>
</svg>
