<svg width="15" height="16" viewBox="0 0 15 16" fill="none" xmlns="http://www.w3.org/2000/svg">
<path d="M7.5 15.5C11.6404 15.5 15 12.1404 15 8C15 3.85956 11.6404 0.5 7.5 0.5C3.35956 0.5 0 3.85956 0 8C0 12.1404 3.35956 15.5 7.5 15.5Z" fill="#62CBC9"/>
<path d="M11.7334 4.87106C11.3835 4.57779 10.7527 4.50992 10.4124 4.87106C9.05181 6.31487 7.69121 7.75867 6.33062 9.20248C5.74855 8.55435 5.16649 7.9062 4.58442 7.25807C4.27329 6.91162 3.58173 6.94148 3.26343 7.25807C2.89336 7.62617 2.93154 8.09467 3.26343 8.46423C4.06036 9.35162 4.8573 10.239 5.65421 11.1264C5.95829 11.465 6.66962 11.4507 6.97521 11.1264C8.36411 9.65255 9.75301 8.1787 11.1419 6.70486C11.3391 6.49564 11.5362 6.28643 11.7334 6.07722C12.0518 5.73933 12.1241 5.19857 11.7334 4.87106Z" fill="white"/>
</svg>
