<svg width="20" height="14" viewBox="0 0 20 14" fill="none" xmlns="http://www.w3.org/2000/svg">
<path d="M5.22996 0.260517C4.27784 0.410819 3.50114 1.1875 3.35086 2.13962C3.10024 3.71811 4.42812 5.07103 6.00661 4.79538C6.95874 4.64508 7.73543 3.8684 7.88572 2.91627C8.16133 1.36293 6.80845 0.0100595 5.22996 0.260517Z" fill="#B6CED0"/>
<path d="M6.35684 9.8066C6.93306 7.72705 8.81216 7.12565 8.88733 7.10069C9.06279 7.05053 9.33822 6.95038 9.38838 6.77492C9.43853 6.59946 9.21291 6.34901 9.06261 6.22372C8.43624 5.72267 7.6344 5.42188 6.83274 5.42188H4.40243C2.19757 5.42188 0.468747 7.45126 0.969976 9.73129C0.994968 9.90676 1.17044 10.0319 1.34573 10.0319H6.03096C6.18161 10.0572 6.33191 9.95709 6.3569 9.80661L6.35684 9.8066Z" fill="#B6CED0"/>
<path d="M12.8709 1.4375C11.3426 1.4375 10.0898 2.69024 10.0898 4.21858C10.0898 5.74692 11.3426 6.99965 12.8709 6.99965C14.3993 6.99965 15.652 5.74692 15.652 4.21858C15.652 2.69024 14.3993 1.4375 12.8709 1.4375Z" fill="#B6CED0"/>
<path d="M19.1348 13.2127V12.2605C19.1348 9.80521 17.1304 7.80078 14.6751 7.80078L11.0672 7.80096C8.61185 7.80096 6.60742 9.80538 6.60742 12.2607V13.2128C6.60742 13.4884 6.83287 13.7139 7.10847 13.7139H18.6336C18.9343 13.7139 19.1347 13.4883 19.1347 13.2127L19.1348 13.2127Z" fill="#B6CED0"/>
</svg>
