<svg width="18" height="20" viewBox="0 0 18 20" fill="none" xmlns="http://www.w3.org/2000/svg">
<path d="M7.5443 0.114258C8.05805 0.114258 8.47422 0.530466 8.47422 1.04418C8.47422 1.25676 8.64542 1.42796 8.85801 1.42796C9.07059 1.42796 9.24179 1.25676 9.24179 1.04418C9.24179 0.530432 9.66104 0.114258 10.1746 0.114258C10.6884 0.114258 11.1045 0.530466 11.1045 1.04418C11.1045 1.21248 11.0574 1.37775 10.9658 1.52841L8.85783 4.16773L6.79724 1.59339C6.67625 1.43102 6.61128 1.24203 6.61128 1.04435C6.61431 0.530499 7.03066 0.114292 7.54423 0.114292L7.5443 0.114258ZM0.0518188 19.0083V3.4973C0.0518188 2.99846 0.373661 2.59399 0.77222 2.59399H6.61755L8.09655 4.44503H7.3083L6.93045 4.46862L2.88578 4.45386C2.2334 4.45386 1.72255 5.11218 1.72255 5.9476V19.0081L0.0518188 19.0083ZM2.49026 12.8235V5.94778C2.49026 5.53157 2.69981 5.21857 2.88592 5.21857L6.95387 5.23043L7.33171 5.20684L8.46832 5.20974C8.30305 11.5008 4.59201 12.6729 2.49006 12.8234L2.49026 12.8235ZM9.29514 5.21294L14.9309 5.22177C15.1169 5.22177 15.3266 5.53465 15.3266 5.95098V12.8206C10.4526 12.3954 9.33653 8.51921 9.29503 5.21276L9.29514 5.21294ZM17.765 19.0086H16.0942V5.94812C16.0942 5.10963 15.5835 4.45438 14.9309 4.45438L9.61701 4.44555L11.096 2.59451H17.0446C17.4402 2.59451 17.765 2.99898 17.765 3.50085V19.0088L17.765 19.0086Z" fill="white"/>
</svg>
