<svg width="18" height="20" viewBox="0 0 18 20" fill="none" xmlns="http://www.w3.org/2000/svg">
<path d="M8.55444 11.3682H9.21352V13.675H8.55444V11.3682Z" fill="white"/>
<path d="M7.23627 12.3567V12.6863C7.23715 12.89 7.30085 13.0885 7.41884 13.2546C7.53683 13.4207 7.70322 13.5463 7.89535 13.6143V11.4287C7.70321 11.4967 7.53682 11.6223 7.41884 11.7884C7.30085 11.9545 7.23715 12.153 7.23627 12.3567V12.3567Z" fill="white"/>
<path d="M8.55444 14.334H9.21352V16.6408H8.55444V14.334Z" fill="white"/>
<path d="M9.87262 16.5801C10.0648 16.5122 10.2311 16.3865 10.3491 16.2204C10.4671 16.0543 10.5308 15.8559 10.5317 15.6521V15.3226C10.5308 15.1188 10.4671 14.9203 10.3491 14.7542C10.2311 14.5881 10.0647 14.4625 9.87262 14.3945V16.5801Z" fill="white"/>
<path d="M16.7531 17.782C16.1436 17.1761 15.802 16.3514 15.8044 15.4921V11.1959C15.8044 8.42404 14.095 6.43426 11.2966 5.72546C11.4531 5.53597 11.5326 5.29441 11.5187 5.04885C11.505 4.80346 11.3993 4.5722 11.2224 4.4014C12.0192 3.92652 12.5077 3.06793 12.509 2.14034V1.1517C12.509 0.88954 12.4048 0.637952 12.2194 0.452615C12.0341 0.267279 11.7825 0.163086 11.5204 0.163086H6.24763C5.98546 0.163086 5.73388 0.267245 5.54854 0.452615C5.3632 0.637986 5.25901 0.889574 5.25901 1.1517V2.14034C5.26019 3.06732 5.74817 3.92561 6.54424 4.40068C6.37328 4.56619 6.26854 4.78834 6.24956 5.0255C6.23044 5.26266 6.2984 5.49862 6.44081 5.6893C3.56846 6.33412 1.96352 8.20402 1.96352 11.0381V15.4921C1.96587 16.3515 1.62426 17.1763 1.01476 17.7824C0.7782 18.0189 0.645203 18.3398 0.645203 18.6744C0.645203 19.0089 0.778196 19.3299 1.01476 19.5665C1.25133 19.8031 1.5722 19.9359 1.90691 19.9359H15.8612C16.1959 19.9358 16.5167 19.8029 16.7533 19.5662C16.9897 19.3297 17.1227 19.0088 17.1227 18.6741C17.1227 18.3395 16.9899 18.0187 16.7533 17.7819L16.7531 17.782ZM11.1908 15.3223V15.6518C11.1903 16.0315 11.059 16.3995 10.8189 16.6936C10.5788 16.9878 10.2445 17.1901 9.8726 17.2666V17.9586C9.8726 18.1406 9.72504 18.2882 9.54306 18.2882C9.36107 18.2882 9.21351 18.1406 9.21351 17.9586V17.2996H8.55442V17.9586C8.55442 18.1406 8.40686 18.2882 8.22487 18.2882C8.04289 18.2882 7.89533 18.1406 7.89533 17.9586V17.2666C7.52341 17.1901 7.18916 16.9878 6.94906 16.6936C6.70897 16.3995 6.57759 16.0315 6.57715 15.6518C6.57715 15.4698 6.72471 15.3223 6.90669 15.3223C7.08868 15.3223 7.23624 15.4698 7.23624 15.6518C7.23712 15.8556 7.30082 16.0541 7.41881 16.2201C7.5368 16.3862 7.70319 16.5119 7.89532 16.5799V14.3007C7.5234 14.2242 7.18915 14.0219 6.94905 13.7276C6.70895 13.4336 6.57758 13.0656 6.57714 12.6859V12.3564C6.57758 11.9766 6.70895 11.6087 6.94905 11.3146C7.18915 11.0204 7.5234 10.8181 7.89532 10.7416V10.0495C7.89532 9.86756 8.04288 9.72 8.22486 9.72C8.40685 9.72 8.55441 9.86756 8.55441 10.0495V10.7086H9.2135V10.0495C9.2135 9.86756 9.36106 9.72 9.54304 9.72C9.72503 9.72 9.87259 9.86756 9.87259 10.0495V10.7416C10.2445 10.8181 10.5788 11.0204 10.8189 11.3146C11.059 11.6087 11.1903 11.9766 11.1908 12.3564C11.1908 12.5383 11.0432 12.6859 10.8612 12.6859C10.6792 12.6859 10.5317 12.5383 10.5317 12.3564C10.5308 12.1526 10.4671 11.9541 10.3491 11.788C10.2311 11.6219 10.0647 11.4963 9.8726 11.4283V13.7075C10.2445 13.784 10.5788 13.9863 10.8189 14.2805C11.059 14.5746 11.1903 14.9426 11.1908 15.3223ZM7.60431 4.77682H8.25222C8.2865 5.00706 8.35902 5.22978 8.46701 5.43591H8.22485C7.82115 5.43591 7.66462 5.06488 7.60429 4.77682H7.60431ZM10.4169 6.34847C10.4371 6.40584 10.4575 6.46322 10.477 6.52089V6.52074C10.2235 6.46999 9.96618 6.43968 9.70782 6.43012C9.67487 6.33817 9.63735 6.24593 9.59675 6.14677L10.3741 6.22813C10.3825 6.24505 10.389 6.26285 10.3933 6.28124L10.4169 6.34847ZM10.7185 7.33447C10.7491 7.45702 10.7768 7.58104 10.7996 7.70521C10.5592 7.62635 10.3142 7.56236 10.066 7.51337C10.0463 7.44113 10.0251 7.36904 10.0038 7.29725C9.99086 7.23251 9.9713 7.1694 9.9454 7.10864C10.2058 7.12262 10.4619 7.17999 10.7034 7.27871L10.7185 7.33447ZM10.1998 8.21999C10.4195 8.26795 10.6337 8.33798 10.8392 8.4289C10.8143 8.58631 10.6896 8.70916 10.5317 8.73137C10.3531 8.73137 10.2022 8.52011 10.2022 8.27001C10.2022 8.25412 10.2006 8.23705 10.1998 8.21999H10.1998ZM8.92252 4.77682H9.57235C9.60516 5.00706 9.67725 5.23009 9.78567 5.43591H9.54307C9.13937 5.43591 8.98285 5.06488 8.92251 4.77682H8.92252ZM10.6691 5.40296C10.4305 5.27952 10.2701 5.04414 10.2428 4.77682H10.5317C10.684 4.78006 10.8142 4.8873 10.8467 5.03619C10.8791 5.18492 10.8052 5.33661 10.6681 5.40296H10.6691ZM7.1374 5.4162C7.00103 5.37441 6.9076 5.24892 6.90672 5.10636C6.90849 5.04413 6.92806 4.98367 6.96336 4.93232C7.00044 5.10033 7.05899 5.26304 7.1374 5.41621V5.4162Z" fill="white"/>
</svg>
