<svg width="20" height="22" viewBox="0 0 20 22" fill="none" xmlns="http://www.w3.org/2000/svg">
<path d="M7.66363 5.39224C7.83237 5.28675 8.02215 5.18127 8.21195 5.09697L7.05192 3.93694C6.69339 3.57841 6.46137 3.11439 6.39814 2.65039H4.14133C2.22202 2.65039 0.661407 4.21116 0.661407 6.13032V20.4089C0.661407 20.6831 0.851192 20.9572 1.12541 20.9994C1.48393 21.0627 1.77919 20.7884 1.77919 20.4511V11.382C1.77919 10.0112 2.47519 8.74563 3.61406 8.00737L7.66363 5.39224Z" fill="white"/>
<path d="M15.5727 2.65059H13.3159C13.2527 3.13564 13.0417 3.55742 12.6831 3.91612L11.5021 5.09717C11.6919 5.18147 11.8817 5.28695 12.0504 5.39244L16.0788 8.00775C17.2176 8.746 17.9137 10.0325 17.9137 11.3824V20.3882C17.9137 20.6624 18.1034 20.9365 18.3777 20.9787C18.7362 21.042 19.0314 20.7678 19.0314 20.4304L19.0316 6.1093C19.0526 4.19014 17.4918 2.65039 15.5727 2.65039L15.5727 2.65059Z" fill="white"/>
<path d="M9.73054 5.37112C9.7938 5.43439 9.92032 5.43439 9.98358 5.37112L12.0716 3.28309C12.6622 2.69254 12.5989 1.68021 11.8607 1.19505C11.3334 0.83652 10.5951 0.942001 10.1523 1.40602L9.85706 1.68024L9.54076 1.36394C8.95021 0.773395 7.93788 0.836667 7.45272 1.57491C7.09419 2.10218 7.19967 2.84044 7.66369 3.28324L9.73054 5.37112Z" fill="white"/>
<path d="M7.93781 9.86349C7.93781 10.6089 7.33344 11.2133 6.58799 11.2133C5.84254 11.2133 5.23817 10.6089 5.23817 9.86349C5.23817 9.11789 5.84254 8.51367 6.58799 8.51367C7.33344 8.51367 7.93781 9.11789 7.93781 9.86349Z" fill="white"/>
<path d="M14.0753 14.862L14.3283 13.0904C14.4548 12.2889 13.8221 11.5508 12.9995 11.5508H12.2825C11.4599 11.5508 10.8484 12.2678 10.9537 13.0904L11.2068 14.862C10.1524 15.8533 9.35089 17.9201 9.22434 20.3667C9.2033 20.7042 9.47739 20.9783 9.79383 20.9783H15.4884C15.8259 20.9783 16.0789 20.704 16.0579 20.3667C15.9314 17.9201 15.1509 15.8533 14.0753 14.862H14.0753Z" fill="white"/>
<path d="M13.9909 9.86349C13.9909 10.6089 13.3865 11.2133 12.6411 11.2133C11.8955 11.2133 11.2911 10.6089 11.2911 9.86349C11.2911 9.11789 11.8955 8.51367 12.6411 8.51367C13.3865 8.51367 13.9909 9.11789 13.9909 9.86349Z" fill="white"/>
<path d="M10.5109 14.6305L10.3844 13.7236C10.0891 13.6182 9.68837 13.4284 9.45633 13.1331C9.37203 13.0276 9.28759 12.9221 9.22433 12.8168C8.80255 12.2473 8.40178 11.8045 7.53702 11.6357L6.67225 13.7448C6.65122 13.7871 6.58795 13.7871 6.56677 13.7448L5.72321 11.6568C5.21699 11.7833 4.77416 12.0576 4.41561 12.4371C3.38212 13.5549 3.50878 15.3265 3.52979 15.3898C3.55083 15.7061 3.82506 15.9381 4.12034 15.9381H4.16256C4.50005 15.9171 4.73205 15.6218 4.71089 15.2843C4.71089 15.2633 4.62659 14.1243 5.17489 13.3862L5.15385 15.8116L4.77429 20.2829C4.75325 20.6414 5.02733 20.9789 5.38585 20.9999C5.76541 21.0421 6.08185 20.7469 6.1029 20.3884L6.46143 16.0858H6.71447L7.073 20.3884C7.09404 20.7469 7.3893 20.9999 7.74798 20.9999H7.81124C8.16977 20.9789 8.44401 20.6414 8.42281 20.2829L8.04324 15.8116L8.02221 13.2385C8.08547 13.3228 8.14873 13.4072 8.23318 13.5127C8.31748 13.6393 8.40192 13.7447 8.5074 13.8713C9.05573 14.5462 9.87824 14.8203 10.2579 14.9258C10.3421 14.8203 10.4265 14.7148 10.5108 14.6305L10.5109 14.6305Z" fill="white"/>
<path d="M7.11527 11.909V11.445C7.11527 11.4028 7.07304 11.3817 7.03097 11.4028L6.71466 11.5505C6.67244 11.5083 6.63036 11.4872 6.56696 11.4872C6.5037 11.4872 6.46147 11.5083 6.41925 11.5505L6.10295 11.4028C6.06072 11.3817 6.01865 11.4238 6.01865 11.445V11.909C6.01865 11.9512 6.06087 11.9723 6.10295 11.9512L6.41925 11.8035C6.46147 11.8457 6.50355 11.8668 6.56696 11.8668C6.63022 11.8668 6.67244 11.8457 6.71466 11.8035L7.03097 11.9512C7.07304 11.9934 7.11527 11.9512 7.11527 11.909Z" fill="white"/>
<path d="M6.75672 12.2888C6.75672 12.5138 6.41922 12.5138 6.41922 12.2888C6.41922 12.0639 6.75672 12.0639 6.75672 12.2888Z" fill="white"/>
<path d="M6.75672 12.7948C6.75672 13.0197 6.41922 13.0197 6.41922 12.7948C6.41922 12.5697 6.75672 12.5697 6.75672 12.7948Z" fill="white"/>
</svg>
