<svg width="40" height="40" viewBox="0 0 40 40" fill="none" xmlns="http://www.w3.org/2000/svg">
<circle cx="20" cy="20" r="20" fill="white"/>
<path d="M17.7569 12.5414L16.5969 14.8614H12.4209C11.5211 14.8614 10.7969 15.5857 10.7969 16.4853V26.6933C10.7969 27.5931 11.5213 28.3173 12.4209 28.3173H28.6609C29.5607 28.3173 30.2848 27.5929 30.2848 26.6933V16.4853C30.2848 15.5855 29.5605 14.8614 28.6609 14.8614H24.4849L23.3249 12.5414H17.7569ZM20.5408 17.4134C22.8473 17.4134 24.7168 19.283 24.7168 21.5894C24.7168 23.8957 22.8472 25.7654 20.5408 25.7654C18.2346 25.7654 16.3648 23.8957 16.3648 21.5894C16.3648 19.283 18.2345 17.4134 20.5408 17.4134Z" fill="#62CBC9"/>
</svg>
