<svg width="423" height="270" viewBox="0 0 423 270" fill="none" xmlns="http://www.w3.org/2000/svg">
<g clip-path="url(#clip0_2414_99523)">
<path d="M97.845 35.9326L15.6353 91.0566L96.6086 212.401L178.818 157.277L97.845 35.9326Z" fill="#F5F5F5"/>
<path d="M136.345 151.533L135.407 157.32L94.5381 151.415L95.4759 145.628L136.345 151.533Z" fill="#62CBC9"/>
<path d="M115.764 130.88L121.625 131.732L115.126 172.068L109.258 171.216L115.764 130.88Z" fill="#62CBC9"/>
<path d="M78.1187 79.6153C78.1773 79.7034 69.9419 85.3294 59.721 92.1818C49.5001 99.0343 41.1695 104.521 41.1108 104.433C41.0522 104.344 49.2876 98.7184 59.5085 91.866C69.7221 85.0135 78.0601 79.5272 78.1187 79.6153Z" fill="#62CBC9"/>
<path d="M108.349 72.0064C108.408 72.0945 94.7066 81.3854 77.7523 92.7474C60.7907 104.117 47.0016 113.261 46.943 113.173C46.8844 113.084 60.5782 103.801 77.5399 92.4242C94.4941 81.0695 108.291 71.9256 108.349 72.0064Z" fill="#62CBC9"/>
<path d="M114.408 81.0915C114.467 81.1796 100.766 90.4704 83.8116 101.832C66.85 113.202 53.0609 122.346 53.0023 122.258C52.9437 122.169 66.6375 112.886 83.5991 101.509C100.561 90.1473 114.35 81.0033 114.408 81.0915Z" fill="#62CBC9"/>
<path d="M120.468 90.1764C120.526 90.2645 106.825 99.5554 89.8709 110.917C72.9093 122.287 59.1202 131.431 59.0616 131.343C59.003 131.254 72.6968 121.971 89.6584 110.594C106.62 99.2322 120.409 90.0883 120.468 90.1764Z" fill="#62CBC9"/>
<path d="M126.534 99.2545C126.593 99.3427 112.892 108.634 95.9375 119.996C78.9759 131.365 65.1868 140.509 65.1282 140.421C65.0696 140.333 78.7634 131.049 95.725 119.672C112.679 108.318 126.476 99.1664 126.534 99.2545Z" fill="#62CBC9"/>
<path d="M263.517 40.3875L188.184 0.000976562L128.859 111.195L204.192 151.581L263.517 40.3875Z" fill="#F5F5F5"/>
<path d="M191.296 116.8L186.519 118.438L174.386 84.8219L179.163 83.1768L191.296 116.8Z" fill="#62CBC9"/>
<path d="M198.623 92.6807L200.367 97.506L167.059 108.934L165.315 104.116L198.623 92.6807Z" fill="#62CBC9"/>
<path d="M222.289 43.075C222.23 43.1852 214.588 39.2044 205.225 34.1808C195.854 29.1571 188.314 25.0001 188.373 24.8899C188.431 24.7798 196.073 28.7605 205.437 33.7842C214.801 38.8078 222.347 42.9648 222.289 43.075Z" fill="#62CBC9"/>
<path d="M240.364 63.0746C240.305 63.1847 227.659 56.5232 212.126 48.1945C196.586 39.8658 184.035 33.0207 184.094 32.9105C184.153 32.8004 196.799 39.4619 212.339 47.7979C227.879 56.1266 240.423 62.9644 240.364 63.0746Z" fill="#62CBC9"/>
<path d="M235.924 71.4037C235.865 71.5138 223.219 64.8523 207.686 56.5236C192.146 48.1949 179.595 41.3498 179.654 41.2396C179.713 41.1295 192.359 47.791 207.899 56.127C223.439 64.4484 235.983 71.2935 235.924 71.4037Z" fill="#62CBC9"/>
<path d="M231.484 79.7249C231.425 79.8351 218.779 73.1736 203.246 64.8449C187.706 56.5162 175.155 49.6711 175.214 49.5609C175.272 49.4507 187.919 56.1122 203.459 64.4483C218.992 72.7697 231.543 79.6148 231.484 79.7249Z" fill="#62CBC9"/>
<path d="M227.044 88.0462C226.985 88.1564 214.339 81.4949 198.806 73.1662C183.266 64.8301 170.715 57.9924 170.774 57.8822C170.832 57.772 183.479 64.4335 199.019 72.7696C214.552 81.091 227.102 87.9361 227.044 88.0462Z" fill="#62CBC9"/>
<path d="M345.217 66.312L276.174 112.607L344.177 214.515L413.22 168.219L345.217 66.312Z" fill="#F5F5F5"/>
<path d="M377.544 163.409L376.76 168.271L342.434 163.313L343.218 158.451L377.544 163.409Z" fill="#62CBC9"/>
<path d="M360.26 146.068L365.184 146.773L359.725 180.654L354.794 179.941L360.26 146.068Z" fill="#62CBC9"/>
<path d="M328.645 103.014C328.704 103.102 321.794 107.839 313.207 113.59C304.62 119.348 297.616 123.939 297.557 123.85C297.499 123.762 304.408 119.025 312.995 113.267C321.582 107.516 328.586 102.926 328.645 103.014Z" fill="#62CBC9"/>
<path d="M354.033 96.6248C354.091 96.7129 342.595 104.528 328.352 114.075C314.109 123.623 302.518 131.291 302.459 131.203C302.4 131.115 313.896 123.307 328.139 113.752C342.383 104.204 353.974 96.5366 354.033 96.6248Z" fill="#62CBC9"/>
<path d="M359.125 104.248C359.183 104.336 347.688 112.151 333.444 121.698C319.201 131.246 307.61 138.914 307.551 138.826C307.493 138.738 318.988 130.931 333.232 121.375C347.475 111.835 359.066 104.16 359.125 104.248Z" fill="#62CBC9"/>
<path d="M364.217 111.88C364.275 111.968 352.78 119.782 338.536 129.33C324.293 138.878 312.702 146.546 312.643 146.458C312.585 146.37 324.08 138.562 338.324 129.007C352.56 119.459 364.158 111.792 364.217 111.88Z" fill="#62CBC9"/>
<path d="M369.302 119.503C369.36 119.591 357.864 127.405 343.621 136.953C329.378 146.501 317.787 154.169 317.728 154.081C317.669 153.993 329.165 146.185 343.409 136.63C357.652 127.09 369.243 119.415 369.302 119.503Z" fill="#62CBC9"/>
<path d="M423 269.17C423 269.273 328.301 269.361 211.511 269.361C94.6773 269.361 0 269.273 0 269.17C0 269.068 94.6773 268.979 211.511 268.979C328.301 268.979 423 269.06 423 269.17Z" fill="#263238"/>
<path d="M23.4092 223.171C25.8857 223.259 28.2083 224.603 29.8422 226.476C31.4761 228.341 32.4798 230.692 33.1173 233.093C34.3555 237.735 33.5935 243.222 32.2747 247.841C27.2558 246.042 24.1639 240.68 22.7645 237.86C20.5591 233.409 19.2696 224.008 23.4092 223.171Z" fill="#E2F3F2"/>
<path d="M39.499 253.467C37.9164 251.19 37.8797 248.025 39.1326 245.542C40.3855 243.067 42.7887 241.282 45.4337 240.467C46.6573 240.092 48.0787 239.931 49.1411 240.643C50.1375 241.312 50.5698 242.619 50.4379 243.809C50.306 244.999 49.7052 246.093 48.9945 247.055C46.5547 250.375 43.5873 253.129 39.499 253.467Z" fill="#E2F3F2"/>
<path d="M40.0485 268.986C40.0265 268.994 39.9459 268.649 39.8213 268.024C39.6894 267.334 39.5136 266.445 39.3084 265.38C38.9128 263.155 38.2827 259.989 38.7589 256.493C39.2132 253.012 40.598 250.03 42.0487 248.253C42.7594 247.357 43.4481 246.718 43.9537 246.329C44.1954 246.123 44.4152 245.998 44.5471 245.895C44.6863 245.8 44.7669 245.756 44.7743 245.77C44.8256 245.829 43.602 246.593 42.2465 248.407C40.8764 250.192 39.5576 253.115 39.1033 256.545C38.6344 259.975 39.2132 263.111 39.5502 265.344C39.7261 266.467 39.8726 267.378 39.9605 268.01C40.0411 268.634 40.0704 268.986 40.0485 268.986Z" fill="#263238"/>
<path d="M25.0285 230.237C25.0358 230.229 25.1091 230.361 25.2336 230.619C25.3655 230.905 25.5413 231.28 25.7538 231.735C26.1934 232.712 26.8235 234.129 27.5782 235.885C29.0875 239.403 31.1097 244.294 33.2199 249.736C35.33 255.186 37.1251 260.166 38.3706 263.779C38.9934 265.586 39.4916 267.055 39.8213 268.076C39.9752 268.56 40.0998 268.95 40.195 269.251C40.2756 269.523 40.3122 269.662 40.3049 269.669C40.2902 269.677 40.2316 269.537 40.1291 269.273C40.0192 268.972 39.8726 268.59 39.6968 268.12C39.3158 267.077 38.7882 265.63 38.1435 263.86C36.832 260.261 35.0003 255.304 32.8975 249.854C30.7873 244.412 28.8091 239.513 27.3584 235.973C26.6477 234.232 26.0615 232.807 25.6366 231.779C25.4461 231.309 25.2995 230.927 25.1823 230.633C25.0651 230.383 25.0211 230.244 25.0285 230.237Z" fill="#263238"/>
<path d="M34.0991 258.718C31.139 253.673 25.6219 250.235 19.7971 249.809C18.3171 249.699 16.5293 249.949 15.8699 251.286C15.2105 252.622 16.0897 254.201 17.1008 255.303C21.3064 259.864 28.4135 261.458 34.1504 259.122" fill="#E2F3F2"/>
<path d="M22.0538 253.79C22.0538 253.768 22.3835 253.783 22.9843 253.827C23.2847 253.849 23.651 253.871 24.0686 253.952C24.4863 254.033 24.9698 254.077 25.4901 254.216C26.0103 254.341 26.5891 254.473 27.1826 254.686C27.7907 254.863 28.4135 255.127 29.0655 255.406C30.3551 255.994 31.7325 256.765 33.0367 257.764C34.3335 258.777 35.4252 259.908 36.3191 261.017C36.7441 261.59 37.1544 262.126 37.4768 262.677C37.8284 263.206 38.0922 263.735 38.334 264.212C38.5978 264.682 38.7516 265.145 38.9275 265.534C39.1033 265.924 39.2059 266.276 39.2938 266.563C39.4696 267.135 39.5576 267.451 39.5356 267.459C39.4623 267.488 39.1033 266.203 38.1142 264.322C37.8577 263.86 37.5867 263.346 37.2276 262.832C36.9053 262.295 36.495 261.774 36.0627 261.223C35.1761 260.143 34.0918 259.042 32.8169 258.043C31.5347 257.059 30.1939 256.295 28.9263 255.7C28.2889 255.421 27.6734 255.149 27.08 254.966C26.5012 254.745 25.937 254.606 25.4241 254.459C23.3653 253.937 22.0391 253.864 22.0538 253.79Z" fill="#263238"/>
<path d="M155.783 118.394L129.875 251.917L126.483 269.397L299.44 268.545C307.199 268.509 314.079 261.597 316.578 251.337L347.248 125.275C349.146 117.483 344.984 109.382 339.093 109.382L164.04 109.565C160.179 109.565 156.802 113.186 155.783 118.394Z" fill="#E2F3F2"/>
<g opacity="0.5">
<path opacity="0.5" d="M155.783 118.394L129.875 251.917L126.483 269.397L299.44 268.545C307.199 268.509 314.079 261.597 316.578 251.337L347.248 125.275C349.146 117.483 344.984 109.382 339.093 109.382L164.04 109.565C160.179 109.565 156.802 113.186 155.783 118.394Z" fill="#B6CED0"/>
</g>
<path d="M282.852 242.869L264.543 94.9424C263.795 88.8831 258.974 84.3589 253.289 84.3809L213.13 84.5131C210.156 84.5205 207.305 85.7911 205.195 88.0385L186.131 108.354L74.4479 108.941C67.6267 108.978 62.3806 115.448 63.2818 122.727L80.2874 259.445C81.0421 265.497 85.8485 270.014 91.5268 270L286.164 269.618C307.844 270.066 309.91 263.654 309.91 263.654C285.072 269.17 282.86 242.891 282.852 242.869Z" fill="#E2F3F2"/>
<g opacity="0.5">
<path opacity="0.5" d="M198.931 213.263L192.366 220.336L141.811 174.741L148.376 167.676L198.931 213.263Z" fill="#62CBC9"/>
<path opacity="0.5" d="M189.611 166.111L196.872 172.648L151.123 221.9L143.87 215.356L189.611 166.111Z" fill="#62CBC9"/>
</g>
</g>
<defs>
<clipPath id="clip0_2414_99523">
<rect width="423" height="270" fill="white"/>
</clipPath>
</defs>
</svg>
