<svg width="13" height="13" viewBox="0 0 13 13" fill="none" xmlns="http://www.w3.org/2000/svg">
<path d="M12.1112 1.19502L11.6238 0.707594C11.2756 0.359459 10.8229 0.167969 10.3355 0.167969C9.84809 0.167969 9.39554 0.359466 9.04729 0.707594L1.40506 8.33241C1.24841 8.48906 1.16135 8.68055 1.14399 8.88954L0.1865 12.0927C0.134285 12.2493 0.1865 12.4059 0.290931 12.5279C0.377997 12.6149 0.482428 12.6498 0.604218 12.6498C0.639068 12.6498 0.691283 12.6498 0.726134 12.6324L3.92925 11.6749C4.12075 11.6401 4.32961 11.553 4.46888 11.4139L12.0937 3.78873C12.8248 3.05758 12.8248 1.90864 12.1111 1.19487L12.1112 1.19502ZM1.70106 9.9862L2.79781 11.0829L1.23113 11.553L1.70106 9.9862ZM11.4845 3.16216L10.9971 3.64959L9.15183 1.80435L9.63926 1.31691C9.81339 1.14278 10.0571 1.03835 10.3182 1.03835C10.5793 1.03835 10.8056 1.14278 10.9971 1.31691L11.4845 1.80435C11.8675 2.16998 11.8675 2.77918 11.4845 3.16219L11.4845 3.16216Z" fill="white"/>
</svg>
