<svg width="19" height="19" viewBox="0 0 19 19" fill="none" xmlns="http://www.w3.org/2000/svg">
<path d="M8.34922 17.5492C8.34922 18.1843 8.86409 18.6992 9.49922 18.6992C10.1343 18.6992 10.6492 18.1843 10.6492 17.5492L10.6492 10.6492L17.5492 10.6492C18.1843 10.6492 18.6992 10.1343 18.6992 9.49922C18.6992 8.86409 18.1843 8.34922 17.5492 8.34922L10.6492 8.34922L10.6492 1.44922C10.6492 0.814093 10.1343 0.29922 9.49922 0.29922C8.86409 0.29922 8.34922 0.814094 8.34922 1.44922L8.34922 8.34922L1.44922 8.34922C0.814092 8.34922 0.299218 8.86409 0.299218 9.49922C0.299218 10.1343 0.814092 10.6492 1.44922 10.6492L8.34922 10.6492L8.34922 17.5492Z" fill="#62CBC9"/>
</svg>
