<svg width="19" height="20" viewBox="0 0 19 20" fill="none" xmlns="http://www.w3.org/2000/svg">
<path d="M18.9289 18.6131C18.9319 18.7307 18.8849 18.8441 18.7996 18.9247C18.7141 19.0054 18.5983 19.0458 18.4813 19.0356V19.0442C18.2321 18.9929 1.38467 19.1339 1.12255 19.0098C0.700894 18.8547 0.898756 18.0613 0.855725 17.7078H0.855917C0.857838 15.7761 1.62471 13.924 2.98801 12.5581C4.35137 11.1922 6.1999 10.4239 8.12806 10.422H11.6566C13.7403 10.443 15.7181 11.3443 17.103 12.9042C18.4878 14.464 19.151 16.5372 18.9287 18.6131L18.9289 18.6131ZM9.89248 9.46319C15.5155 9.2842 15.5135 1.11536 9.89229 0.9375C4.26981 1.1163 4.27079 9.28533 9.89248 9.46319Z" fill="white"/>
</svg>
