<svg width="14" height="17" viewBox="0 0 14 17" fill="none" xmlns="http://www.w3.org/2000/svg">
<path d="M6.2566 1.02712C2.91493 1.37637 0.397466 4.59284 0.68709 7.94079C1.06929 12.3239 5.103 15.5994 6.48709 16.5945C6.76397 16.7922 7.12648 16.7856 7.39656 16.5747C8.8333 15.4543 13.2361 11.6579 13.2361 7.26839C13.2295 3.57748 10.0395 0.624754 6.25652 1.02699L6.2566 1.02712ZM6.94864 9.76666C5.57118 9.76666 4.45072 8.65283 4.45072 7.26874C4.45072 5.8845 5.56455 4.77731 6.94864 4.77731C8.33273 4.77731 9.44656 5.89113 9.44656 7.27522C9.44656 8.65931 8.3261 9.76666 6.94864 9.76666Z" fill="white"/>
</svg>
