<svg width="18" height="18" viewBox="0 0 18 18" fill="none" xmlns="http://www.w3.org/2000/svg">
<path d="M3.00043 4.5V15.5C2.99578 15.6924 3.02908 15.8838 3.09844 16.0634C3.16779 16.2429 3.27184 16.407 3.40464 16.5463C3.53744 16.6856 3.69639 16.7973 3.87239 16.8752C4.0484 16.9531 4.23802 16.9955 4.43043 17H13.5454C13.74 16.9987 13.9323 16.9587 14.1112 16.8823C14.2901 16.8059 14.452 16.6947 14.5874 16.555C14.7229 16.4154 14.8291 16.2502 14.9 16.0691C14.971 15.8879 15.0051 15.6945 15.0004 15.5V4.5H3.00043ZM7.50043 14.5H6.50043V7H7.50043V14.5ZM11.5004 14.5H10.5004V7H11.5004V14.5Z" fill="#62CBC9"/>
<path d="M15.365 2.5H11.5V2C11.5 1.73478 11.3946 1.48043 11.2071 1.29289C11.0196 1.10536 10.7652 1 10.5 1H7.4C7.15248 1.02487 6.92311 1.14111 6.75669 1.32602C6.59027 1.51093 6.49875 1.75123 6.5 2V2.5H2.5C2.36739 2.5 2.24021 2.55268 2.14645 2.64645C2.05268 2.74021 2 2.86739 2 3C2 3.13261 2.05268 3.25979 2.14645 3.35355C2.24021 3.44732 2.36739 3.5 2.5 3.5H15.365C15.4976 3.5 15.6248 3.44732 15.7186 3.35355C15.8123 3.25979 15.865 3.13261 15.865 3C15.865 2.86739 15.8123 2.74021 15.7186 2.64645C15.6248 2.55268 15.4976 2.5 15.365 2.5Z" fill="#62CBC9"/>
</svg>
