<svg width="19" height="19" viewBox="0 0 19 19" fill="none" xmlns="http://www.w3.org/2000/svg">
<path d="M15.9236 0.945314H3.68754C2.95977 0.944456 2.2615 1.23247 1.74679 1.74626C1.23207 2.26004 0.943345 2.95712 0.944446 3.68362V10.5602C0.946166 11.1636 1.18416 11.7427 1.60727 12.1736C2.03037 12.6048 2.60549 12.8538 3.20981 12.8677L4.88957 12.8984V16.36C4.89129 16.9714 5.13552 17.5573 5.56873 17.9896C6.00173 18.422 6.58864 18.6656 7.20116 18.6675H16.3551C16.9676 18.6656 17.5545 18.422 17.9877 17.9896C18.4207 17.5573 18.665 16.9714 18.6667 16.36V3.68376C18.6677 2.95727 18.379 2.26022 17.8643 1.7464C17.3496 1.23258 16.6513 0.944577 15.9236 0.945457V0.945314ZM4.88957 11.3601L3.24057 11.3294V11.3292C2.82091 11.3213 2.4849 10.9792 2.48551 10.56V3.68349C2.48551 3.25489 2.71469 2.8587 3.08663 2.64431C3.45835 2.43013 3.91671 2.43013 4.28866 2.64431C4.66038 2.85871 4.88957 3.25488 4.88957 3.68349V11.3601ZM14.5058 11.714L9.01961 11.7138C8.59457 11.7127 8.25035 11.3689 8.24908 10.9446C8.25575 10.5227 8.59694 10.1821 9.01961 10.1754H14.5058C14.9287 10.1821 15.2697 10.5227 15.2763 10.9446C15.2753 11.3689 14.9308 11.7127 14.5058 11.7138V11.714ZM14.5058 8.63727L9.01961 8.63705C8.59457 8.63598 8.25035 8.29217 8.24908 7.86787C8.25575 7.44593 8.59694 7.10533 9.01961 7.09868H14.5058C14.9287 7.10533 15.2697 7.44593 15.2763 7.86787C15.2753 8.29217 14.9308 8.63595 14.5058 8.63705V8.63727ZM14.5058 5.56052L10.5607 5.5603C10.1356 5.55923 9.79141 5.21542 9.79014 4.79111C9.79681 4.36918 10.138 4.02857 10.5607 4.02193H14.5058C14.9287 4.02858 15.2697 4.36918 15.2763 4.79111C15.2753 5.21542 14.9308 5.5592 14.5058 5.5603V5.56052Z" fill="#62CBC9"/>
</svg>
