<svg width="18" height="25" viewBox="0 0 18 25" fill="none" xmlns="http://www.w3.org/2000/svg">
<path d="M12.5308 9.68945L11.5197 11.0859C13.8851 11.8672 15.5959 14.0955 15.5959 16.7194C15.5959 19.9877 12.9347 22.6514 9.66624 22.6514C6.39259 22.6514 3.73142 19.9877 3.73142 16.7194C3.73142 14.0953 5.44478 11.8699 7.80763 11.0859L6.79387 9.68945C4.0246 10.8246 2.06827 13.5465 2.06827 16.7199C2.06827 20.9069 5.47377 24.315 9.66629 24.315C13.8508 24.315 17.2586 20.9067 17.2586 16.7199C17.2561 13.5466 15.3024 10.8218 12.5302 9.68945H12.5308Z" fill="#62CBC9"/>
<path d="M6.34286 7.53342L7.48056 9.10422L8.46004 10.4506L8.96169 11.145L9.66388 11.0975L10.3635 11.145L10.8651 10.4506L11.8446 9.10422L12.9825 7.53342L11.9159 6.21875H7.40678L6.34286 7.53342Z" fill="#62CBC9"/>
<path d="M4.55567 8.91619C4.55567 9.01379 4.63744 9.09574 4.73522 9.09574C4.83558 9.09574 4.91477 9.01398 4.91477 8.91619C4.91477 6.64047 6.76272 4.78992 9.04103 4.78992C9.14139 4.78992 9.22058 4.71073 9.22058 4.61037C9.22058 4.51001 9.14139 4.43082 9.04103 4.43082C6.76531 4.43082 4.91477 2.58009 4.91477 0.304548C4.91477 0.204186 4.833 0.125 4.73522 0.125C4.63762 0.125 4.55567 0.204186 4.55567 0.304548C4.55567 2.58028 2.70494 4.43082 0.42941 4.43082C0.331811 4.43082 0.249863 4.51001 0.249863 4.61037C0.249863 4.71073 0.331627 4.78992 0.42941 4.78992C2.70513 4.78992 4.55567 6.64066 4.55567 8.91619Z" fill="#62CBC9"/>
</svg>
