<svg width="20" height="20" viewBox="0 0 20 20" fill="none" xmlns="http://www.w3.org/2000/svg">
<circle cx="9.70589" cy="9.7068" r="7.94118" fill="#62CBC9"/>
<path d="M10.9302 8.60663H8.23529V10.0643H9.13938V12.6604H8.23529V14.1181H11.7647V12.6604H10.9302V8.60663Z" fill="white"/>
<path d="M9.12199 6.46269C9.0719 6.57621 9.04665 6.69857 9.04665 6.82977C9.04665 6.96096 9.0719 7.08512 9.12199 7.20216C9.17622 7.31569 9.24949 7.41496 9.34222 7.50008C9.43494 7.5852 9.54299 7.65255 9.66676 7.70224C9.73134 7.72751 9.7984 7.74632 9.86836 7.75867C9.93583 7.77073 10.0058 7.77672 10.0782 7.77672C10.2173 7.77672 10.3485 7.75192 10.4723 7.70224C10.5328 7.67801 10.5895 7.64951 10.6425 7.61693C10.6979 7.58263 10.7493 7.54368 10.7969 7.50008C10.8896 7.41496 10.9629 7.31569 11.0171 7.20216C11.0419 7.1482 11.0614 7.09272 11.0746 7.03572C11.0904 6.96913 11.0982 6.90044 11.0982 6.82977C11.0982 6.76697 11.092 6.70617 11.0796 6.64737C11.0664 6.58343 11.0452 6.52187 11.0171 6.46269C10.9629 6.34565 10.8896 6.24457 10.7969 6.15945C10.729 6.09732 10.6532 6.0446 10.5692 6.00137C10.5381 5.98541 10.5059 5.97069 10.4723 5.95729C10.3485 5.90761 10.2173 5.88281 10.0782 5.88281C9.99627 5.88281 9.9172 5.8906 9.84104 5.90599C9.78101 5.91825 9.72306 5.93535 9.66676 5.95729C9.54299 6.00698 9.43494 6.07433 9.34222 6.15945C9.24949 6.24457 9.17622 6.34565 9.12199 6.46269Z" fill="white"/>
</svg>
