<svg width="25" height="26" viewBox="0 0 25 26" fill="none" xmlns="http://www.w3.org/2000/svg">
<path d="M21.981 17.5074C21.321 17.7449 20.2385 18.0353 19.0506 18.2994C18.6281 18.9858 17.8626 19.5666 16.6481 19.8043C16.3577 19.8572 16.041 19.8835 15.6977 19.8835C14.8528 19.9098 13.8761 19.8306 12.7673 19.7251C12.6881 19.7251 12.609 19.7251 12.5298 19.6988C12.2657 19.6725 12.0281 19.4612 12.0018 19.1971C11.9755 18.8539 12.2659 18.59 12.5826 18.6163C12.6618 18.6163 12.7675 18.6427 12.8467 18.6427C14.2722 18.7747 15.5922 18.8802 16.4371 18.7219C17.9946 18.4315 18.4434 17.4811 18.3379 16.689C18.2587 16.029 17.7834 15.4219 16.9915 15.4745C15.8827 15.5537 14.5891 15.4745 13.3483 15.369C11.9228 15.2635 10.4442 15.237 9.3883 15.3427C8.22665 15.4747 5.85075 16.3459 3.7651 17.7451C2.7355 18.4315 1.60021 19.2763 0.9139 19.778C0.570643 20.042 0.491458 20.5172 0.755528 20.8604L3.79143 24.7941C4.05551 25.1373 4.53063 25.19 4.87388 24.9261L5.98268 24.0549C6.24675 23.8437 6.58983 23.7908 6.90677 23.8965C8.93962 24.5565 11.1309 24.979 12.5564 25.0582C15.698 25.269 21.6908 21.5729 23.4068 20.3849C25.1227 19.197 23.8819 16.821 21.9811 17.5074L21.981 17.5074Z" fill="#62CBC9"/>
<path d="M14.2458 13.3886C17.9154 13.3886 20.8986 10.4054 20.8986 6.73584C20.8986 3.06624 17.9153 0.0566406 14.2458 0.0566406C10.5762 0.0566406 7.56659 3.03989 7.56659 6.70944C7.56659 10.379 10.5496 13.3886 14.2458 13.3886ZM13.665 3.40944V2.56455C13.665 2.48536 13.7442 2.40617 13.8234 2.40617H14.6417C14.7209 2.40617 14.8001 2.48536 14.8001 2.56455V3.3829C15.645 3.43575 16.305 4.06925 16.3842 4.9141C16.3842 5.01962 16.305 5.09899 16.2258 5.09899H15.4075C15.3283 5.09899 15.2754 5.04614 15.2491 4.96695C15.1962 4.70288 14.9587 4.51817 14.6946 4.51817H13.9817C13.5593 4.51817 13.1634 4.83492 13.1105 5.25737C13.0577 5.73248 13.4538 6.15493 13.9289 6.15493H14.5362C15.6713 6.15493 16.5954 7.13168 16.4899 8.29328C16.4107 9.19083 15.6715 9.87737 14.8003 10.0092V10.8541C14.8003 10.9333 14.7211 11.0125 14.6419 11.0125H13.8236C13.7444 11.0125 13.6652 10.9333 13.6652 10.8541V10.0357C12.8203 9.98287 12.1603 9.34937 12.0811 8.50453C12.0811 8.39901 12.1603 8.34615 12.2395 8.34615H13.0578C13.137 8.34615 13.1899 8.39901 13.2162 8.47819C13.269 8.74227 13.5066 8.92697 13.7707 8.92697H14.4835C14.906 8.92697 15.3019 8.61023 15.3547 8.18777C15.4076 7.71266 15.0115 7.29022 14.5364 7.29022H14.0084C12.9788 7.29022 12.0813 6.55102 11.9756 5.52142C11.8697 4.46532 12.6354 3.54142 13.665 3.40937V3.40944Z" fill="#62CBC9"/>
</svg>
