<svg width="23" height="24" viewBox="0 0 23 24" fill="none" xmlns="http://www.w3.org/2000/svg">
<path d="M4.68431 12.8315L1.99425 10.1387L0.500061 11.6328L4.68436 15.8173L10.5899 9.91411L9.09829 8.41992L4.68431 12.8315Z" fill="#62CBC9"/>
<path d="M11.9915 11.0625H22.7391V13.1746H11.9915V11.0625Z" fill="#62CBC9"/>
<path d="M4.68431 20.7512L1.99425 18.0584L0.500061 19.5526L4.68436 23.7371L10.5899 17.8315L9.09829 16.3398L4.68431 20.7512Z" fill="#62CBC9"/>
<path d="M11.9915 18.9824H22.7391V21.0944H11.9915V18.9824Z" fill="#62CBC9"/>
<path d="M4.68431 4.91139L1.99425 2.21854L0.500061 3.71274L4.68436 7.89723L10.5899 1.99165L9.09829 0.5L4.68431 4.91139Z" fill="#62CBC9"/>
<path d="M11.9915 3.14258H22.7391V5.25462H11.9915V3.14258Z" fill="#62CBC9"/>
</svg>
