<svg width="153" height="107" viewBox="0 0 153 107" fill="none" xmlns="http://www.w3.org/2000/svg">
<g clip-path="url(#clip0_4998_20198)">
<path d="M36.3829 85.6745C35.6699 85.4754 35.0084 85.1262 34.4436 84.6507L35.0625 83.3504C35.5618 83.8028 36.1476 84.151 36.7852 84.3743C37.477 84.6197 38.2064 84.7444 38.9411 84.7428C39.6995 84.7942 40.4564 84.6233 41.1177 84.2514C41.3418 84.1159 41.5263 83.9246 41.6529 83.6965C41.7796 83.4685 41.844 83.2115 41.8398 82.9511C41.8514 82.7626 41.8224 82.5739 41.7548 82.3973C41.6873 82.2208 41.5826 82.0606 41.4478 81.9273C41.1506 81.6632 40.7984 81.4675 40.4163 81.354C40.0346 81.2209 39.4879 81.0775 38.7864 80.9035C38.0583 80.7417 37.3416 80.5331 36.6408 80.279C36.1009 80.0528 35.6235 79.7018 35.2482 79.2551C34.8411 78.7562 34.6353 78.125 34.6705 77.4839C34.6644 76.8879 34.8368 76.3035 35.1657 75.8048C35.5399 75.2689 36.0632 74.8527 36.6717 74.607C37.4636 74.2873 38.3136 74.1339 39.1681 74.1565C39.8644 74.1571 40.5578 74.2466 41.2312 74.4227C41.8481 74.5712 42.4322 74.8315 42.9539 75.1905L42.3969 76.5215C41.9099 76.2147 41.3821 75.9769 40.8289 75.8151C40.2933 75.6557 39.7376 75.573 39.1784 75.5694C38.4291 75.5167 37.682 75.6994 37.0431 76.0915C36.822 76.2368 36.6409 76.4347 36.5166 76.6671C36.3923 76.8996 36.3286 77.1593 36.3313 77.4225C36.3245 77.6037 36.3569 77.7843 36.4263 77.9521C36.4957 78.1198 36.6005 78.2709 36.7336 78.3951C37.0331 78.6585 37.3843 78.8572 37.7652 78.9787C38.2936 79.153 38.8307 79.2999 39.3744 79.4189C40.1 79.5818 40.8134 79.7939 41.5097 80.0537C42.0426 80.258 42.5171 80.5884 42.892 81.0161C43.3013 81.5059 43.5078 82.1317 43.4697 82.7668C43.4743 83.3595 43.302 83.9402 42.9745 84.4357C42.5962 84.9802 42.0603 85.3979 41.4375 85.6335C40.6417 85.9511 39.7881 86.101 38.9309 86.0738C38.0621 86.0769 37.1984 85.9421 36.3726 85.6745" fill="#010101"/>
<path d="M70.4035 85.9407L70.3932 77.4429L66.1432 84.5278H65.3799L61.1299 77.4941V85.9407H59.5206V74.2793H60.8926L65.7925 82.4801L70.6305 74.2793H72.0024L72.0231 85.9407H70.4035Z" fill="#010101"/>
<path d="M87.909 75.3754C88.318 75.7582 88.6438 76.22 88.8666 76.7323C89.0893 77.2446 89.2042 77.7967 89.2042 78.3547C89.2042 78.9127 89.0893 79.4648 88.8666 79.9771C88.6438 80.4895 88.318 80.9512 87.909 81.3341C86.878 82.1032 85.6071 82.4875 84.3192 82.4193H81.4205V85.9413H79.7803V74.2901H84.3604C85.649 74.2166 86.9218 74.6014 87.9502 75.3754H87.909ZM86.7433 80.2897C87.0076 80.0393 87.218 79.7382 87.3618 79.4047C87.5055 79.0713 87.5796 78.7123 87.5796 78.3496C87.5796 77.9869 87.5055 77.6279 87.3618 77.2945C87.218 76.961 87.0076 76.6599 86.7433 76.4095C86.0338 75.914 85.1744 75.6755 84.3089 75.7337H81.4618V80.9655H84.3089C85.1744 81.0237 86.0338 80.7852 86.7433 80.2897Z" fill="#010101"/>
<path d="M95.8726 74.2891H97.554V84.4966H103.908V85.9402H95.8726V74.2891Z" fill="#010101"/>
<path d="M118.556 84.4966V85.9402H110.036V74.2891H118.319V75.7327H111.707V79.316H117.597V80.7289H111.707V84.4966H118.556Z" fill="#010101"/>
<path d="M51.8046 74.2891H50.1232V85.9402H51.8046V74.2891Z" fill="#010101"/>
<path d="M52.8671 69.8565C52.8691 70.232 52.7587 70.5996 52.5498 70.9126C52.3409 71.2257 52.0429 71.4701 51.6938 71.6147C51.3447 71.7593 50.9601 71.7977 50.5889 71.7249C50.2178 71.6522 49.8768 71.4716 49.6093 71.2061C49.3418 70.9406 49.1599 70.6021 49.0866 70.2338C49.0133 69.8654 49.0519 69.4837 49.1976 69.1372C49.3433 68.7907 49.5895 68.495 49.9049 68.2876C50.2203 68.0803 50.5907 67.9707 50.969 67.9727C51.4716 67.9754 51.9528 68.1747 52.3082 68.5274C52.6635 68.8801 52.8644 69.3577 52.8671 69.8565Z" fill="#67C8C8"/>
<path d="M3.03274 106.233C2.10909 105.737 1.33888 105 0.80461 104.103C0.271287 103.166 -0.00897217 102.108 -0.00897217 101.032C-0.00897217 99.9553 0.271287 98.8972 0.80461 97.9601C1.33574 97.0577 2.10649 96.3175 3.03274 95.8203C3.91023 95.3739 4.87262 95.1159 5.85723 95.0629C6.84184 95.01 7.82665 95.1634 8.74758 95.5131C9.49094 95.8081 10.1549 96.2708 10.6869 96.8646L9.59346 97.8884C9.17355 97.4388 8.66199 97.083 8.09285 96.8447C7.52371 96.6064 6.91001 96.491 6.29248 96.5063C5.46749 96.495 4.6536 96.6961 3.93018 97.0898C3.23832 97.4558 2.66584 98.0098 2.27972 98.687C1.88775 99.3888 1.6821 100.178 1.6821 100.98C1.6821 101.783 1.88775 102.572 2.27972 103.274C2.66832 103.952 3.23993 104.508 3.93018 104.881C4.6536 105.275 5.46749 105.476 6.29248 105.465C6.91147 105.477 7.52592 105.358 8.09506 105.116C8.66419 104.874 9.17499 104.515 9.59346 104.062L10.6869 105.086C10.1517 105.686 9.48457 106.155 8.73726 106.458C7.93256 106.771 7.0744 106.928 6.20994 106.919C5.10225 106.936 4.00855 106.671 3.03274 106.151" fill="#010101"/>
<path d="M25.139 105.545V106.999H16.6183V95.3379H24.9017V96.7917H18.2894V100.375H24.1796V101.788H18.2894V105.545H25.139Z" fill="#010101"/>
<path d="M39.9005 106.999L37.3732 103.426H36.6304H33.7318V106.968H32.0503V95.3476H36.6304C37.9194 95.2704 39.1935 95.6556 40.2203 96.4328C40.656 96.795 41.0012 97.2525 41.2285 97.7695C41.4558 98.2865 41.5591 98.8488 41.5303 99.4122C41.5518 100.227 41.3175 101.029 40.8598 101.706C40.3901 102.358 39.7208 102.843 38.9514 103.088L41.7366 106.999H39.9005ZM39.0133 101.357C39.2939 101.119 39.5153 100.819 39.6602 100.482C39.8051 100.144 39.8696 99.7784 39.8489 99.4122C39.8712 99.0458 39.8074 98.6793 39.6624 98.3417C39.5174 98.004 39.2951 97.7045 39.0133 97.4669C38.3038 96.9715 37.4444 96.7329 36.5789 96.7912H33.7318V102.043H36.5789C37.4456 102.099 38.3051 101.856 39.0133 101.357Z" fill="#010101"/>
<path d="M56.9624 105.545V106.999H48.4417V95.3379H56.7251V96.7917H50.1232V100.375H56.0133V101.788H50.1232V105.545H56.9624Z" fill="#010101"/>
<path d="M74.767 106.999L74.7464 98.5015L70.5067 105.586H69.733L65.483 98.5527V106.999H63.8738V95.3379H65.2561L70.1559 103.539L74.9836 95.3379H76.3556L76.3762 106.999H74.767Z" fill="#010101"/>
<path d="M86.1966 106.232C85.2643 105.735 84.4866 104.995 83.9478 104.092C83.4125 103.155 83.1312 102.097 83.1312 101.02C83.1312 99.9436 83.4125 98.8853 83.9478 97.9488C84.4895 97.0475 85.2664 96.3082 86.1966 95.809C87.184 95.3043 88.2786 95.041 89.3893 95.041C90.4999 95.041 91.5945 95.3043 92.5819 95.809C93.5091 96.3085 94.2827 97.0479 94.8204 97.9488C95.2364 98.6313 95.5088 99.3903 95.6213 100.18C95.7337 100.97 95.6838 101.774 95.4746 102.544C95.2655 103.314 94.9013 104.034 94.4042 104.661C93.907 105.288 93.2871 105.808 92.5819 106.191C91.5945 106.695 90.4999 106.959 89.3893 106.959C88.2786 106.959 87.184 106.695 86.1966 106.191V106.232ZM91.7154 104.901C92.3952 104.521 92.9585 103.965 93.3453 103.293C93.7373 102.591 93.9429 101.802 93.9429 101C93.9429 100.197 93.7373 99.4082 93.3453 98.7064C92.9612 98.0348 92.397 97.4819 91.7154 97.1093C91.0078 96.7135 90.2066 96.512 89.3944 96.5257C88.5761 96.5157 87.7692 96.7168 87.0528 97.1093C86.3683 97.4817 85.8008 98.0344 85.4126 98.7064C85.0207 99.4082 84.8149 100.197 84.8149 101C84.8149 101.802 85.0207 102.591 85.4126 103.293C85.8035 103.966 86.3701 104.521 87.0528 104.901C87.7692 105.293 88.5761 105.494 89.3944 105.484C90.2066 105.498 91.0078 105.296 91.7154 104.901Z" fill="#010101"/>
<path d="M112.481 95.3379V106.999H111.098L104.053 98.307V106.999H102.382V95.3379H103.754L110.799 104.03V95.3379H112.481Z" fill="#010101"/>
<path d="M138.115 105.545V106.999H129.594V95.3379H137.877V96.7917H131.265V100.375H137.155V101.788H131.265V105.545H138.115Z" fill="#010101"/>
<path d="M145.893 106.599C145.181 106.398 144.52 106.049 143.953 105.576L144.572 104.275C145.076 104.722 145.66 105.069 146.295 105.299C146.987 105.544 147.716 105.668 148.451 105.668C149.209 105.72 149.967 105.549 150.627 105.176C150.852 105.039 151.037 104.846 151.164 104.616C151.29 104.386 151.354 104.128 151.35 103.866C151.368 103.674 151.343 103.48 151.275 103.299C151.207 103.118 151.099 102.954 150.958 102.821C150.679 102.564 150.349 102.368 149.988 102.248C149.596 102.115 149.049 101.972 148.348 101.798C147.623 101.636 146.91 101.427 146.212 101.173C145.669 100.952 145.191 100.6 144.82 100.149C144.409 99.6522 144.203 99.0196 144.242 98.378C144.235 97.7819 144.407 97.1971 144.737 96.6989C145.107 96.1633 145.627 95.7469 146.233 95.5011C147.026 95.1741 147.881 95.0204 148.74 95.0506C149.436 95.0503 150.13 95.1398 150.803 95.3168C151.42 95.4654 152.004 95.7257 152.525 96.0847L151.979 97.4156C151.015 96.8099 149.901 96.4804 148.76 96.4635C148.008 96.4093 147.257 96.592 146.615 96.9856C146.394 97.1309 146.213 97.3288 146.088 97.5613C145.964 97.7937 145.9 98.0534 145.903 98.3166C145.897 98.4978 145.929 98.6781 145.999 98.8458C146.068 99.0135 146.173 99.1646 146.305 99.2892C146.605 99.5525 146.956 99.7513 147.337 99.8728C147.869 100.047 148.409 100.194 148.956 100.313C149.68 100.471 150.39 100.683 151.081 100.948C151.616 101.155 152.093 101.484 152.474 101.91C152.879 102.402 153.085 103.026 153.052 103.661C153.053 104.255 152.877 104.835 152.546 105.33C152.167 105.869 151.636 106.286 151.019 106.528C150.22 106.844 149.363 106.994 148.502 106.968C147.634 106.97 146.77 106.836 145.944 106.569" fill="#010101"/>
<path d="M121.981 95.3379H120.3V106.989H121.981V95.3379Z" fill="#010101"/>
<path d="M123.033 90.9151C123.033 91.2877 122.922 91.6519 122.714 91.9617C122.505 92.2715 122.208 92.513 121.862 92.6555C121.515 92.7981 121.133 92.8354 120.765 92.7627C120.397 92.69 120.059 92.5106 119.793 92.2472C119.528 91.9837 119.347 91.648 119.274 91.2826C119.2 90.9172 119.238 90.5384 119.382 90.1942C119.525 89.8499 119.769 89.5557 120.081 89.3487C120.393 89.1417 120.76 89.0312 121.135 89.0312C121.639 89.0312 122.121 89.2297 122.477 89.583C122.833 89.9363 123.033 90.4155 123.033 90.9151Z" fill="#DFBF9D"/>
<path d="M116.277 31.6362C116.277 37.8933 114.407 44.0098 110.905 49.2123C107.402 54.4149 102.424 58.4698 96.5997 60.8643C90.7753 63.2587 84.3663 63.8852 78.1832 62.6645C72.0001 61.4439 66.3204 58.4308 61.8626 54.0064C57.4048 49.582 54.369 43.9449 53.1391 37.8081C51.9092 31.6713 52.5405 25.3103 54.953 19.5295C57.3656 13.7488 61.4511 8.80789 66.6929 5.33165C71.9347 1.85542 78.0974 0 84.4017 0C92.8546 0.00271377 100.961 3.33666 106.938 9.26901C112.915 15.2014 116.274 23.2466 116.277 31.6362Z" fill="#E0F2F0"/>
<path d="M59.3659 55.3271C59.2782 55.3261 59.1938 55.2933 59.1286 55.235C56.0935 52.3114 53.6684 48.8231 51.9916 44.9692C50.3148 41.1153 49.4192 36.9714 49.356 32.774C49.2927 28.5766 50.0631 24.408 51.6231 20.5061C53.1831 16.6042 55.5021 13.0455 58.4478 10.0331C61.3935 7.02075 64.9082 4.61372 68.7911 2.94948C72.6741 1.28524 76.8493 0.396396 81.0784 0.33365C85.3074 0.270903 89.5075 1.0355 93.4389 2.5838C97.3702 4.1321 100.956 6.43376 103.991 9.35739C104.023 9.38794 104.048 9.42454 104.065 9.465C104.083 9.50545 104.091 9.54894 104.091 9.59288C104.091 9.63682 104.083 9.68031 104.065 9.72077C104.048 9.76122 104.023 9.79782 103.991 9.82837C103.927 9.88967 103.842 9.92395 103.754 9.92395C103.665 9.92395 103.58 9.88967 103.516 9.82837C100.556 6.91226 97.0425 4.60793 93.1788 3.04884C89.3151 1.48976 85.1781 0.706869 81.0075 0.745517C76.8368 0.784164 72.7154 1.64358 68.8817 3.27399C65.048 4.9044 61.5782 7.27343 58.6734 10.2439C55.7685 13.2144 53.4862 16.7273 51.9586 20.5792C50.431 24.4311 49.6884 28.5456 49.774 32.6843C49.8595 36.823 50.7713 40.9037 52.4568 44.6902C54.1422 48.4767 56.5677 51.8938 59.5928 54.7436C59.6546 54.8066 59.6892 54.8911 59.6892 54.979C59.6892 55.067 59.6546 55.1515 59.5928 55.2145C59.5607 55.2473 59.5222 55.2734 59.4796 55.291C59.4371 55.3086 59.3914 55.3174 59.3453 55.3169" fill="#010101"/>
<path d="M100.081 37.6965C99.8866 39.0692 99.4941 40.4071 98.9156 41.6689C98.2465 42.9657 97.3119 44.1095 96.1717 45.027C94.8744 46.0434 93.3933 46.8044 91.8082 47.2692C90.2879 47.7166 88.7107 47.9441 87.125 47.9449C85.4307 47.9445 83.7526 47.6177 82.1839 46.9825C80.5283 46.3156 79.0237 45.327 77.7585 44.0749C76.3623 42.6733 75.2797 40.9953 74.5813 39.1503C73.9356 37.457 73.5563 35.6752 73.4569 33.8673L71.8683 33.6523C71.9455 35.7742 72.3814 37.868 73.1578 39.8465C73.9055 41.7751 75.0531 43.5263 76.5262 44.9867C77.9994 46.447 79.7652 47.584 81.7093 48.3237C83.4187 48.9894 85.2372 49.3364 87.0734 49.3476C88.8979 49.3645 90.7142 49.1021 92.4581 48.5695C95.7037 47.5075 98.4378 45.2898 100.133 42.3446C100.875 40.8986 101.326 39.3235 101.464 37.7067L100.081 37.6965Z" fill="#010101"/>
<path d="M81.0801 20.444C82.1117 21.8774 82.1839 23.2391 82.1117 25.4608H83.3804C83.3995 24.6547 83.3754 23.8481 83.3082 23.0445C83.1787 21.519 82.5439 20.079 81.503 18.9492C81.0976 19.1445 80.7079 19.3704 80.3374 19.6249C80.5862 19.8785 80.8172 20.1487 81.0285 20.4338" fill="#010101"/>
<path d="M64.1832 29.9457C66.3516 31.4474 68.8824 32.3518 71.5176 32.5667L76.273 33.2015C77.832 33.3345 79.3531 33.7509 80.7603 34.4301C81.7743 34.9397 82.5902 35.7675 83.0813 36.7848C83.5908 37.9709 83.8303 39.2539 83.7828 40.5423C83.8125 41.4906 83.6446 42.4347 83.2896 43.3156C82.9346 44.1965 82.4001 44.9951 81.7197 45.6614C81.9569 45.774 82.2045 45.8969 82.4521 45.989C82.6996 46.0812 82.9575 46.1631 83.2154 46.245C83.5707 45.8766 83.8854 45.4716 84.1541 45.0369C84.9956 43.64 85.4245 42.0364 85.392 40.4092C85.4361 38.9105 85.1215 37.4228 84.4739 36.0682C83.8353 34.8469 82.8343 33.8499 81.6062 33.2117C80.02 32.4135 78.2998 31.9103 76.5309 31.7271L71.7136 31.0924C69.5442 30.8656 67.4519 30.1664 65.5861 29.0447C64.0388 28.0277 63.2652 26.2395 63.2652 23.6799C63.2308 22.7101 63.4191 21.7453 63.8159 20.8584C64.2126 19.9716 64.8074 19.1859 65.5552 18.5608C67.4173 17.154 69.7292 16.4631 72.0643 16.6155C73.8934 16.5721 75.713 16.8888 77.4181 17.5472C77.7998 17.2502 78.1814 16.9533 78.594 16.6871C76.5395 15.6982 74.2745 15.217 71.9921 15.2845C70.0558 15.2218 68.1284 15.5709 66.3392 16.3083C64.8949 16.9227 63.667 17.949 62.8113 19.257C61.9878 20.5958 61.5723 22.1426 61.6147 23.7106C61.6147 26.5022 62.4537 28.5499 64.1317 29.8536" fill="#010101"/>
<path d="M78.1711 47.5362C77.1069 47.7883 76.0158 47.9121 74.9217 47.9047C72.5491 48.0109 70.1831 47.584 68 46.6557C66.4187 45.9171 65.151 44.648 64.4205 43.0723C63.6946 41.3597 63.343 39.5137 63.3889 37.6562H61.9448C61.9772 38.9353 62.1396 40.2079 62.4296 41.4546C62.9416 43.2834 63.9184 44.951 65.2664 46.2973C66.4401 47.3144 67.8185 48.0717 69.31 48.519C71.1357 49.0658 73.0357 49.3283 74.9423 49.2971C76.5864 49.3406 78.2251 49.0909 79.7803 48.56C79.2267 48.2461 78.6896 47.9044 78.1711 47.5362Z" fill="#010101"/>
<path d="M100.133 22.2264C98.4379 19.2812 95.7037 17.0636 92.4581 16.0016C90.7362 15.4522 88.933 15.1961 87.125 15.2439C84.2711 15.2346 81.4784 16.0647 79.0995 17.6295C76.798 19.1334 74.9455 21.2231 73.7354 23.6803C72.7373 25.6873 72.1218 27.8602 71.9199 30.0894L73.4879 30.3044C73.6738 28.337 74.1861 26.4135 75.0042 24.6119C76.0128 22.315 77.6272 20.3307 79.6772 18.8683C81.8568 17.3568 84.4669 16.5782 87.125 16.6466C88.7089 16.5915 90.2911 16.7956 91.8082 17.2507C93.3933 17.7154 94.8744 18.4764 96.1717 19.4928C97.3119 20.4104 98.2465 21.5542 98.9156 22.851C99.3118 23.6711 99.6128 24.5332 99.8131 25.4208H101.113C101.022 24.2853 100.688 23.1822 100.133 22.1855" fill="#010101"/>
</g>
<defs>
<clipPath id="clip0_4998_20198">
<rect width="153" height="107" fill="white"/>
</clipPath>
</defs>
</svg>
