<svg width="23" height="24" viewBox="0 0 23 24" fill="none" xmlns="http://www.w3.org/2000/svg">
<path d="M22.7912 22.7813C22.795 22.9285 22.7361 23.0704 22.6293 23.1713C22.5223 23.2722 22.3773 23.3228 22.2309 23.3101V23.3209C21.919 23.2566 0.830668 23.4332 0.50257 23.2778C-0.0252303 23.0836 0.222438 22.0906 0.168575 21.648H0.168816C0.17122 19.23 1.13113 16.9118 2.83761 15.202C4.54415 13.4923 6.85801 12.5306 9.27153 12.5282H13.6882C16.2965 12.5545 18.7722 13.6826 20.5057 15.6352C22.2391 17.5877 23.0692 20.1828 22.791 22.7812L22.7912 22.7813ZM11.4801 11.3281C18.5185 11.104 18.516 0.878888 11.4799 0.65625C4.44207 0.880053 4.4433 11.1054 11.4801 11.3281Z" fill="#62CBC9"/>
</svg>
