<svg width="19" height="25" viewBox="0 0 19 25" fill="none" xmlns="http://www.w3.org/2000/svg">
<path d="M18.5498 6.72564L12.5834 0.627239C12.4513 0.495202 12.293 0.416016 12.1083 0.416016H3.39626C1.73301 0.416016 0.360352 1.78886 0.360352 3.45192V21.4567C0.360352 23.12 1.7332 24.4926 3.39626 24.4926H15.6987C17.3619 24.4926 18.7346 23.1198 18.7346 21.4567V7.17432C18.7346 7.01595 18.6819 6.85758 18.5499 6.72555L18.5498 6.72564ZM8.01616 19.7936C8.01616 20.1632 7.72575 20.4536 7.35616 20.4536H4.53146C4.16187 20.4536 3.87146 20.1632 3.87146 19.7936V16.9953C3.87146 16.6257 4.16187 16.3353 4.53146 16.3353H7.35635C7.72594 16.3353 8.01635 16.6257 8.01635 16.9953L8.01616 19.7936ZM8.01616 13.7216C8.01616 14.0912 7.72575 14.3816 7.35616 14.3816H4.53146C4.16187 14.3816 3.87146 14.0912 3.87146 13.7216V10.9233C3.87146 10.5537 4.16187 10.2633 4.53146 10.2633H7.35635C7.72594 10.2633 8.01635 10.5537 8.01635 10.9233L8.01616 13.7216ZM15.0914 19.0544H9.99616C9.62657 19.0544 9.33616 18.764 9.33616 18.3944C9.33616 18.0249 9.62657 17.7344 9.99616 17.7344H15.0914C15.461 17.7344 15.7514 18.0249 15.7514 18.3944C15.7514 18.764 15.461 19.0544 15.0914 19.0544ZM15.0914 12.9824H9.99616C9.62657 12.9824 9.33616 12.692 9.33616 12.3224C9.33616 11.9529 9.62657 11.6624 9.99616 11.6624H15.0914C15.461 11.6624 15.7514 11.9529 15.7514 12.3224C15.7514 12.692 15.461 12.9824 15.0914 12.9824ZM13.3753 6.77844C13.0057 6.77844 12.7153 6.48803 12.7153 6.11844V2.6599L16.7545 6.77825L13.3753 6.77844Z" fill="#62CBC9"/>
</svg>
