<svg width="24" height="27" viewBox="0 0 24 27" fill="none" xmlns="http://www.w3.org/2000/svg">
<path d="M9.69019 6.48087C9.90141 6.34883 10.139 6.21679 10.3765 6.11128L8.92449 4.65923C8.47572 4.21045 8.18529 3.62963 8.10614 3.04883H5.28124C2.8788 3.04883 0.925339 5.00248 0.925339 7.40474V25.2775C0.925339 25.6208 1.1629 25.9639 1.50614 26.0167C1.95492 26.0959 2.32449 25.7527 2.32449 25.3304V13.9784C2.32449 12.2625 3.19569 10.6784 4.62124 9.75429L9.69019 6.48087Z" fill="#62CBC9"/>
<path d="M19.5902 3.04712H16.7653C16.6861 3.65427 16.422 4.18223 15.9732 4.63121L14.4949 6.10957C14.7324 6.21509 14.97 6.34713 15.1812 6.47916L20.2237 9.75281C21.6492 10.6769 22.5204 12.2873 22.5204 13.9769V25.2497C22.5204 25.593 22.758 25.9361 23.1012 25.9889C23.55 26.0681 23.9196 25.7248 23.9196 25.3026L23.9197 7.37648C23.9461 4.97422 21.9924 3.04688 19.5901 3.04688L19.5902 3.04712Z" fill="#62CBC9"/>
<path d="M12.2774 6.45368C12.3566 6.53286 12.515 6.53286 12.5941 6.45368L15.2078 3.84003C15.947 3.10083 15.8678 1.83368 14.9437 1.22638C14.2837 0.777605 13.3596 0.909638 12.8054 1.49046L12.4358 1.83371L12.0398 1.43779C11.3006 0.698589 10.0335 0.777789 9.42619 1.70187C8.97741 2.36187 9.10945 3.28596 9.69027 3.84022L12.2774 6.45368Z" fill="#62CBC9"/>
<path d="M10.0334 12.0763C10.0334 13.0094 9.27688 13.7659 8.34378 13.7659C7.41068 13.7659 6.65417 13.0094 6.65417 12.0763C6.65417 11.143 7.41068 10.3867 8.34378 10.3867C9.27688 10.3867 10.0334 11.143 10.0334 12.0763Z" fill="#62CBC9"/>
<path d="M17.7158 18.3342L18.0325 16.1166C18.1909 15.1134 17.3989 14.1895 16.3693 14.1895H15.4717C14.4421 14.1895 13.6766 15.087 13.8085 16.1166L14.1252 18.3342C12.8054 19.575 11.8022 22.1621 11.6438 25.2246C11.6174 25.647 11.9605 25.9901 12.3566 25.9901H19.4846C19.9071 25.9901 20.2238 25.6468 20.1975 25.2246C20.0391 22.1621 19.0622 19.575 17.7158 18.3342H17.7158Z" fill="#62CBC9"/>
<path d="M17.6102 12.0763C17.6102 13.0094 16.8537 13.7659 15.9206 13.7659C14.9873 13.7659 14.2308 13.0094 14.2308 12.0763C14.2308 11.143 14.9873 10.3867 15.9206 10.3867C16.8537 10.3867 17.6102 11.143 17.6102 12.0763Z" fill="#62CBC9"/>
<path d="M13.2542 18.0435L13.0958 16.9084C12.7262 16.7764 12.2246 16.5388 11.9342 16.1692C11.8286 16.0372 11.7229 15.9051 11.6437 15.7733C11.1158 15.0604 10.6141 14.5061 9.5317 14.2949L8.44925 16.9349C8.42292 16.9878 8.34373 16.9878 8.31721 16.9349L7.26131 14.3213C6.62766 14.4796 6.07336 14.8229 5.62456 15.298C4.33091 16.6972 4.48945 18.9148 4.51576 18.9939C4.54209 19.3899 4.88535 19.6803 5.25496 19.6803H5.30781C5.73025 19.654 6.02066 19.2844 5.99416 18.8619C5.99416 18.8356 5.88864 17.4099 6.57496 16.486L6.54863 19.5219L6.07352 25.1187C6.04719 25.5675 6.39027 25.9899 6.83903 26.0163C7.31413 26.0691 7.71023 25.6995 7.73658 25.2508L8.18536 19.8652H8.5021L8.95087 25.2508C8.97721 25.6996 9.3468 26.0163 9.79577 26.0163H9.87495C10.3237 25.9899 10.667 25.5675 10.6405 25.1187L10.1654 19.5219L10.139 16.3011C10.2182 16.4067 10.2974 16.5124 10.4031 16.6444C10.5086 16.8028 10.6143 16.9348 10.7464 17.0932C11.4327 17.9381 12.4623 18.2811 12.9375 18.4132C13.0429 18.2811 13.1486 18.1491 13.2541 18.0436L13.2542 18.0435Z" fill="#62CBC9"/>
<path d="M9.00379 14.6381V14.0573C9.00379 14.0045 8.95093 13.9781 8.89827 14.0045L8.50234 14.1894C8.44949 14.1365 8.39682 14.1102 8.31745 14.1102C8.23827 14.1102 8.18542 14.1365 8.13256 14.1894L7.73664 14.0045C7.68379 13.9781 7.63112 14.0308 7.63112 14.0573V14.6381C7.63112 14.691 7.68397 14.7173 7.73664 14.691L8.13256 14.5061C8.18542 14.5589 8.23808 14.5853 8.31745 14.5853C8.39664 14.5853 8.44949 14.5589 8.50234 14.5061L8.89827 14.691C8.95093 14.7438 9.00379 14.691 9.00379 14.6381Z" fill="#62CBC9"/>
<path d="M8.55499 15.1135C8.55499 15.3951 8.13254 15.3951 8.13254 15.1135C8.13254 14.8319 8.55499 14.8319 8.55499 15.1135Z" fill="#62CBC9"/>
<path d="M8.55499 15.7465C8.55499 16.028 8.13254 16.028 8.13254 15.7465C8.13254 15.4647 8.55499 15.4647 8.55499 15.7465Z" fill="#62CBC9"/>
</svg>
