<svg width="68" height="68" viewBox="0 0 68 68" fill="none" xmlns="http://www.w3.org/2000/svg">
<path d="M33.9644 44.8416C27.9833 44.8416 23.0846 39.9429 23.0846 33.9619C23.0846 32.2529 23.4836 30.6012 24.2238 29.1199L18.129 23.082C11.7494 27.2402 7.59105 32.4238 7.30624 32.7655C6.73646 33.4489 6.73646 34.4172 7.30624 35.1579C7.81881 35.7849 19.3252 50.082 33.9645 50.082C37.2683 50.082 40.4013 49.3413 43.3063 48.2022L38.8065 43.7024C37.3253 44.4426 35.6735 44.8415 33.9645 44.8415L33.9644 44.8416Z" fill="#62CBC9"/>
<path d="M60.6229 32.7668C60.1103 32.1974 48.6039 17.8428 33.9646 17.8428C30.6608 17.8428 27.5278 18.5834 24.6797 19.7225L29.1795 24.2223C30.6035 23.4817 32.2552 23.0832 33.9642 23.0832C40.0021 23.0832 44.844 27.9819 44.844 33.9629C44.844 35.6719 44.445 37.3236 43.7048 38.7476L49.7427 44.7855C56.1223 40.6274 60.2807 35.4437 60.5655 35.1021C61.1357 34.4755 61.1357 33.4504 60.6227 32.7665L60.6229 32.7668Z" fill="#62CBC9"/>
<path d="M36.0712 41.0263L26.9003 31.8555C26.6726 32.5389 26.5586 33.2224 26.5586 33.963C26.5586 38.0642 29.8624 41.3681 33.9638 41.3681C34.7044 41.3681 35.3878 41.2541 36.0713 41.0264L36.0712 41.0263Z" fill="#62CBC9"/>
<path d="M33.9649 26.5567C33.2243 26.5567 32.5409 26.6707 31.8574 26.8416L41.0283 36.0124C41.256 35.329 41.3132 34.6453 41.3132 33.905C41.37 29.8604 38.0662 26.5566 33.9649 26.5566L33.9649 26.5567Z" fill="#62CBC9"/>
<path d="M14.6545 12.4309C14.0279 11.8043 13.0028 11.8043 12.3762 12.4309C11.7496 13.0575 11.7496 14.0826 12.3762 14.7092L53.218 55.551C53.5029 55.8359 53.9587 56.0067 54.3572 56.0067C54.7561 56.0067 55.1546 55.8359 55.4963 55.551C56.1229 54.9244 56.1229 53.8993 55.4963 53.2727L14.6545 12.4309Z" fill="#62CBC9"/>
</svg>
