<svg width="68" height="68" viewBox="0 0 68 68" fill="none" xmlns="http://www.w3.org/2000/svg">
<path d="M63.418 34.2729C56.4442 26.2369 46.8065 17 33.9982 17C28.8256 17 24.084 18.4625 19.0814 21.5876C14.8633 24.2354 10.5374 27.961 4.59536 34.088L4.44141 34.242L5.47284 35.3042C13.9553 43.9868 21.2834 51.4835 33.9988 51.4835C39.6179 51.4835 45.0676 49.6515 50.6553 45.8799C55.4122 42.6625 59.4609 38.5828 62.7093 35.2884L63.556 34.4417L63.418 34.2729ZM33.9982 46.5578C27.2092 46.5578 21.6825 41.0311 21.6825 34.2421C21.6825 27.4531 27.2092 21.9264 33.9982 21.9264C40.7872 21.9264 46.3139 27.4531 46.3139 34.2421C46.3139 41.0311 40.7872 46.5578 33.9982 46.5578Z" fill="#62CBC9"/>
<path d="M33.1368 29.7467C33.1368 28.6844 33.4446 27.6838 33.9835 26.8525C29.9039 26.8525 26.6094 30.1778 26.6094 34.2728C26.6094 38.3678 29.9193 41.6775 33.9835 41.6775C38.0476 41.6775 41.3729 38.3677 41.3729 34.2728C40.5416 34.8116 39.5409 35.1195 38.4788 35.1195C35.5383 35.1041 33.1368 32.7025 33.1368 29.7467L33.1368 29.7467Z" fill="#62CBC9"/>
</svg>
