<svg width="88" height="100" viewBox="0 0 88 100" fill="none" xmlns="http://www.w3.org/2000/svg">
<path opacity="0.5" fill-rule="evenodd" clip-rule="evenodd" d="M70.0174 4.48149C78.4912 10.4523 81.0241 21.8119 83.6962 32.2395C86.3185 42.4727 89.577 53.47 85.2009 63.7339C80.921 73.7719 70.1099 78.5975 61.2575 84.8673C52.8801 90.8008 44.8893 98.4667 35.1345 99.1944C25.278 99.9297 16.7085 94.5569 9.16998 88.7528C1.81422 83.0895 -3.54555 75.5464 -7.07588 66.6958C-10.9767 56.9162 -14.7942 46.4335 -12.0176 35.6349C-9.11195 24.3344 -1.53593 14.0149 8.15054 7.47794C17.4854 1.1782 28.6251 1.49891 39.3334 0.980265C50.0227 0.462539 61.5766 -1.46616 70.0174 4.48149Z" fill="#62CBC9"/>
</svg>
