<svg width="81" height="122" viewBox="0 0 81 122" fill="none" xmlns="http://www.w3.org/2000/svg">
<path opacity="0.5" fill-rule="evenodd" clip-rule="evenodd" d="M147.998 63.3979C148.168 76.1715 137.172 86.8968 127.367 97.0889C117.745 107.091 107.772 118.28 92.2839 121.312C77.137 124.277 62.5632 116.957 47.9547 112.636C34.13 108.546 18.6285 106.093 9.66264 96.8716C0.603251 87.5544 -0.336786 75.1167 0.0796531 63.3979C0.485996 51.9632 4.72387 41.1667 11.9944 31.2547C20.028 20.3024 28.9423 8.92625 43.7143 3.91029C59.1729 -1.33878 77.3904 -1.21397 93.0019 3.74806C108.047 8.53 116.957 19.891 126.476 30.2156C135.978 40.5218 147.828 50.674 147.998 63.3979Z" fill="#62CBC9"/>
</svg>
