<svg width="19" height="20" viewBox="0 0 19 20" fill="none" xmlns="http://www.w3.org/2000/svg">
<path d="M12.5039 6.99707C11.8467 6.99707 11.3091 7.53471 11.3091 8.17685C11.3091 8.834 11.8467 9.37164 12.5039 9.37164C13.161 9.37164 13.6987 8.834 13.6987 8.17685C13.6987 7.5197 13.161 6.99707 12.5039 6.99707Z" fill="white"/>
<path d="M14.58 5.62305H4.66345C4.11089 5.62305 3.64795 6.08599 3.64795 6.63855V13.9416C3.64795 14.4941 4.11089 14.9571 4.66345 14.9571H14.58C15.1326 14.9571 15.5955 14.4941 15.5955 13.9416L15.5956 6.63855C15.5956 6.071 15.1327 5.62305 14.5801 5.62305H14.58ZM14.9085 11.9404L12.743 10.432C12.7281 10.432 12.7281 10.432 12.7131 10.4171C12.6982 10.4171 12.6683 10.4022 12.6384 10.3872C12.6235 10.3872 12.5936 10.3872 12.5787 10.3723H12.519C12.5041 10.3723 12.4742 10.3723 12.4443 10.3872C12.4294 10.3872 12.4144 10.4021 12.3846 10.4021C12.3697 10.417 12.3398 10.417 12.3249 10.432C12.3249 10.432 12.31 10.4469 12.295 10.4469L10.5178 12.0898L7.51592 8.81909C7.50103 8.80419 7.48603 8.80419 7.47113 8.78919C7.45623 8.77429 7.44123 8.75929 7.41144 8.7444C7.39654 8.7444 7.36664 8.7444 7.35174 8.7295C7.33684 8.7295 7.30695 8.7146 7.27705 8.7146C7.26215 8.7146 7.23225 8.7146 7.21736 8.7295C7.20246 8.7295 7.17256 8.7295 7.15766 8.7444C7.14276 8.7444 7.11287 8.75929 7.09797 8.77429C7.08307 8.77429 7.06807 8.78919 7.05317 8.80419L4.36495 11.5372L4.36474 6.63868C4.36474 6.4595 4.51413 6.31012 4.6933 6.31012H14.6099C14.789 6.31012 14.9384 6.45951 14.9384 6.63868V11.9405L14.9085 11.9404Z" fill="white"/>
</svg>
