<svg width="12" height="10" viewBox="0 0 12 10" fill="none" xmlns="http://www.w3.org/2000/svg">
<path d="M10.9934 2.84877C10.9338 2.23713 10.6504 1.62549 10.173 1.16308C9.69555 0.685672 9.09891 0.402322 8.48727 0.342599C7.84587 0.282974 7.26399 0.476831 6.8463 0.894515L6.47337 1.26745L1.1031 6.65263C0.461709 7.29402 0.536216 8.39797 1.2672 9.12894C1.61027 9.47202 2.05782 9.68086 2.52024 9.72559H2.65447C3.07215 9.72559 3.45995 9.57637 3.74341 9.29303L9.21809 3.81835C9.62089 3.41555 9.60592 2.72941 9.15847 2.28186C8.94963 2.07302 8.68106 1.95368 8.39771 1.93879C8.09939 1.92391 7.83082 2.02827 7.63695 2.22224L3.74351 6.11568C3.62416 6.23504 3.62416 6.414 3.74351 6.53337C3.86286 6.65272 4.04183 6.65272 4.1612 6.53337L8.06955 2.62501C8.14416 2.5504 8.26351 2.50566 8.38287 2.50566C8.5171 2.50566 8.65133 2.56528 8.75581 2.66976C8.96464 2.8786 8.97952 3.17692 8.81543 3.35601L6.6823 5.48914L3.31097 8.86048C3.11701 9.05443 2.84855 9.14393 2.55021 9.11406C2.23689 9.08419 1.92367 8.93508 1.67011 8.69637C1.17783 8.2041 1.10322 7.47309 1.50601 7.0554L7.24921 1.31221C7.53266 1.02875 7.95032 0.894521 8.41276 0.924382C8.89017 0.969126 9.36748 1.19284 9.74041 1.56578C10.1133 1.93871 10.3371 2.40112 10.3818 2.89342C10.4265 3.35584 10.2923 3.75863 9.99398 4.05698L5.8917 8.17418C5.77234 8.29353 5.77234 8.4725 5.8917 8.59187C5.95132 8.65149 6.02593 8.68136 6.10053 8.68136C6.17514 8.68136 6.24975 8.65149 6.30937 8.59187L10.4415 4.48959C10.8443 4.0719 11.0531 3.49012 10.9935 2.84873L10.9934 2.84877Z" fill="black"/>
</svg>
