<svg width="10" height="11" viewBox="0 0 10 11" fill="none" xmlns="http://www.w3.org/2000/svg">
<path d="M1.625 10.5H7.625C8.02284 10.5 8.40438 10.3419 8.68563 10.0607C8.96696 9.77934 9.125 9.39781 9.125 8.99996V2.99996C9.125 2.73479 9.01961 2.48041 8.83211 2.29291C8.64453 2.10532 8.39023 2.00002 8.12497 2.00002H7.12503V0.999993C7.12503 0.821366 7.02969 0.6563 6.875 0.566986C6.72031 0.477671 6.52972 0.477671 6.37503 0.566986C6.22033 0.6563 6.125 0.821364 6.125 0.999993V2.00002H3.125V0.999993C3.125 0.821366 3.02966 0.6563 2.87497 0.566986C2.72028 0.477671 2.52969 0.477671 2.375 0.566986C2.22031 0.6563 2.12497 0.821364 2.12497 0.999993V2.00002H1.12503C0.859764 2.00002 0.605471 2.10532 0.417886 2.29291C0.230386 2.48041 0.125 2.73479 0.125 2.99996V8.99996C0.125 9.39781 0.283036 9.77934 0.564371 10.0607C0.845621 10.3419 1.22716 10.5 1.625 10.5ZM1.12503 5.75011C1.12503 5.61199 1.23694 5.50008 1.37497 5.50008H7.87511C7.94141 5.50008 8.00494 5.52645 8.0519 5.57332C8.09877 5.6202 8.12506 5.68381 8.12506 5.75011V8.99996C8.12506 9.13264 8.07241 9.25978 7.97866 9.35353C7.88491 9.44728 7.75769 9.50002 7.62509 9.50002H1.62509C1.4925 9.50002 1.36527 9.44728 1.27152 9.35353C1.17777 9.25978 1.12512 9.13263 1.12512 8.99996L1.12503 5.75011Z" fill="#197CD8"/>
</svg>
