<svg width="23" height="24" viewBox="0 0 23 24" fill="none" xmlns="http://www.w3.org/2000/svg">
<path fill-rule="evenodd" clip-rule="evenodd" d="M15.2058 5.00008H3.877C3.29388 5.00008 2.81836 5.49542 2.81836 6.09884V12.1171C2.81836 12.7204 3.29388 13.2159 3.877 13.2159H5.36302V9.10105C5.36302 7.99373 6.22632 7.09256 7.26321 7.09256H16.2644V6.09876C16.2644 5.49958 15.7889 5 15.2058 5L15.2058 5.00008Z" fill="white"/>
<path fill-rule="evenodd" clip-rule="evenodd" d="M18.5927 7.98828C19.1759 7.98828 19.6514 8.48658 19.6514 9.10092V15.1052C19.6514 15.7195 19.1759 16.2178 18.5927 16.2178H18.0733V16.218C17.841 16.218 17.6526 16.4185 17.6526 16.6658V19.0242L15.4894 16.372H15.4892C15.4084 16.2728 15.2905 16.2166 15.1671 16.218H7.26372C6.68059 16.218 6.20508 15.7239 6.20508 15.1053V9.10109C6.20508 8.48251 6.68059 7.98845 7.26372 7.98845H18.5925L18.5927 7.98828ZM16.561 10.9974C15.92 10.9974 15.3907 11.5527 15.3907 12.2291C15.3907 12.9055 15.92 13.4678 16.561 13.4678C17.2021 13.4678 17.7446 12.9133 17.7446 12.2291C17.7446 11.5449 17.2021 10.9974 16.561 10.9974ZM13.0367 10.9974C12.3907 10.9974 11.8532 11.5527 11.8532 12.2291C11.8532 12.9055 12.3907 13.4678 13.0367 13.4678C13.6778 13.4678 14.207 12.9056 14.207 12.2291C14.207 11.5527 13.6778 10.9974 13.0367 10.9974ZM9.51239 10.9974C8.87205 10.9974 8.33547 11.546 8.33547 12.2291C8.33547 12.912 8.87205 13.4678 9.51239 13.4678C10.1527 13.4678 10.6893 12.9122 10.6893 12.2291C10.6893 11.5462 10.1527 10.9974 9.51239 10.9974Z" fill="white"/>
</svg>
