<svg width="250" height="228" viewBox="0 0 250 228" fill="none" xmlns="http://www.w3.org/2000/svg">
<path d="M67.3024 132L103.302 168L163.302 96" stroke="white" stroke-width="13" stroke-linecap="round" stroke-linejoin="round"/>
<path d="M221.302 192L231.052 202L247.302 182" stroke="white" stroke-width="5" stroke-linecap="round" stroke-linejoin="round"/>
<circle cx="115.302" cy="132" r="91" stroke="white" stroke-width="10"/>
<circle r="7" transform="matrix(1 0 0 -1 23.3024 203)" fill="white"/>
<circle r="18" transform="matrix(1 0 0 -1 41.3024 18)" fill="white"/>
<path d="M222.085 67.0529L225.971 60.3227M225.971 60.3227L229.835 53.6295M225.971 60.3227L232.307 63.9812M225.971 60.3227L219.317 56.4812" stroke="white" stroke-width="3" stroke-linecap="round"/>
<path d="M1.19063 118.365L5.68029 118.568M5.68029 118.568L10.1452 118.769M5.68029 118.568L5.48966 122.795M5.68029 118.568L5.88045 114.129" stroke="white" stroke-width="2" stroke-linecap="round"/>
</svg>
