<svg width="12" height="13" viewBox="0 0 12 13" fill="none" xmlns="http://www.w3.org/2000/svg">
<path d="M4.98418 3.30904C5.08423 3.24902 5.19674 3.18901 5.30927 3.14104L4.62152 2.48102C4.40896 2.27703 4.2714 2.01302 4.23391 1.74902H2.89591C1.75801 1.74902 0.832764 2.63705 0.832764 3.72898V11.853C0.832764 12.009 0.945281 12.165 1.10786 12.189C1.32042 12.225 1.49546 12.0689 1.49546 11.877V6.717C1.49546 5.93705 1.9081 5.217 2.58331 4.79696L4.98418 3.30904Z" fill="#197CD8"/>
<path d="M9.67337 1.74913H8.33537C8.29787 2.02511 8.17279 2.26509 7.96022 2.46918L7.26001 3.14116C7.37253 3.18912 7.48504 3.24914 7.5851 3.30915L9.9734 4.79717C10.6486 5.21722 11.0612 5.94922 11.0612 6.71722V11.8412C11.0612 11.9972 11.1738 12.1532 11.3363 12.1772C11.5489 12.2132 11.7239 12.0572 11.7239 11.8652L11.724 3.71702C11.7365 2.62509 10.8112 1.74902 9.67334 1.74902L9.67337 1.74913Z" fill="#197CD8"/>
<path d="M6.20968 3.29748C6.24719 3.33347 6.3222 3.33347 6.3597 3.29748L7.59764 2.10946C7.94776 1.77346 7.91025 1.19748 7.47256 0.921438C7.15996 0.717448 6.72227 0.777463 6.45975 1.04147L6.28469 1.1975L6.09716 1.01753C5.74705 0.681532 5.14687 0.717532 4.85922 1.13757C4.64666 1.43757 4.7092 1.85761 4.9843 2.10955L6.20968 3.29748Z" fill="#197CD8"/>
<path d="M5.14668 5.85394C5.14668 6.27807 4.78837 6.62194 4.34641 6.62194C3.90446 6.62194 3.54614 6.27807 3.54614 5.85394C3.54614 5.42972 3.90446 5.08594 4.34641 5.08594C4.78837 5.08594 5.14668 5.42972 5.14668 5.85394Z" fill="#197CD8"/>
<path d="M8.78534 8.69743L8.93537 7.68946C9.01038 7.23343 8.63524 6.81348 8.14758 6.81348H7.72246C7.23479 6.81348 6.87222 7.22146 6.93467 7.68946L7.08469 8.69743C6.45957 9.26143 5.98439 10.4374 5.90937 11.8294C5.89689 12.0215 6.05939 12.1774 6.247 12.1774H9.62314C9.82322 12.1774 9.97326 12.0214 9.96077 11.8294C9.88576 10.4374 9.42305 9.26143 8.78536 8.69743H8.78534Z" fill="#197CD8"/>
<path d="M8.7354 5.85394C8.7354 6.27807 8.37708 6.62194 7.93513 6.62194C7.49308 6.62194 7.13477 6.27807 7.13477 5.85394C7.13477 5.42972 7.49308 5.08594 7.93513 5.08594C8.37708 5.08594 8.7354 5.42972 8.7354 5.85394Z" fill="#197CD8"/>
<path d="M6.67224 8.56523L6.59723 8.04927C6.42218 7.98926 6.18459 7.88128 6.04703 7.71327C5.99705 7.65326 5.94698 7.59324 5.90948 7.53331C5.65941 7.20929 5.42181 6.95733 4.90912 6.86133L4.39642 8.06133C4.38395 8.08535 4.34644 8.08535 4.33388 8.06133L3.83376 6.87331C3.53364 6.94529 3.2711 7.10133 3.05852 7.31729C2.4458 7.95329 2.52089 8.96126 2.53335 8.99724C2.54582 9.17721 2.7084 9.30922 2.88347 9.30922H2.9085C3.10859 9.29725 3.24613 9.12926 3.23359 8.93724C3.23359 8.92527 3.18361 8.27722 3.50868 7.85729L3.4962 9.23724L3.27117 11.7812C3.2587 11.9852 3.4212 12.1772 3.63375 12.1892C3.85878 12.2132 4.04639 12.0452 4.05887 11.8413L4.27143 9.39326H4.42145L4.63401 11.8413C4.64649 12.0453 4.82154 12.1892 5.03419 12.1892H5.0717C5.28426 12.1773 5.44685 11.9852 5.43428 11.7812L5.20925 9.23724L5.19677 7.77324C5.23428 7.82121 5.27178 7.86925 5.32185 7.92927C5.37183 8.00126 5.4219 8.06127 5.48443 8.13326C5.80952 8.5173 6.29716 8.67324 6.52228 8.73326C6.57217 8.67324 6.62224 8.61322 6.67221 8.56526L6.67224 8.56523Z" fill="#197CD8"/>
<path d="M4.65919 7.01732V6.75333C4.65919 6.7293 4.63416 6.71733 4.60921 6.7293L4.42168 6.81334C4.39665 6.78932 4.3717 6.77735 4.33411 6.77735C4.2966 6.77735 4.27157 6.78932 4.24654 6.81334L4.05901 6.7293C4.03398 6.71733 4.00903 6.74127 4.00903 6.75333V7.01732C4.00903 7.04135 4.03407 7.05332 4.05901 7.04135L4.24654 6.95731C4.27157 6.98133 4.29652 6.9933 4.33411 6.9933C4.37162 6.9933 4.39665 6.98133 4.42168 6.95731L4.60921 7.04135C4.63416 7.06537 4.65919 7.04135 4.65919 7.01732Z" fill="#197CD8"/>
<path d="M4.44643 7.23369C4.44643 7.36167 4.24634 7.36167 4.24634 7.23369C4.24634 7.1057 4.44643 7.1057 4.44643 7.23369Z" fill="#197CD8"/>
<path d="M4.44643 7.52183C4.44643 7.64982 4.24634 7.64982 4.24634 7.52183C4.24634 7.39376 4.44643 7.39376 4.44643 7.52183Z" fill="#197CD8"/>
</svg>
