<svg width="23" height="23" viewBox="0 0 23 23" fill="none" xmlns="http://www.w3.org/2000/svg">
<circle cx="11.5" cy="11.0938" r="6.5" fill="white"/>
<path d="M11.3573 2.42578C6.47879 2.42578 2.52344 6.38113 2.52344 11.2596C2.52344 16.1381 6.47879 20.0935 11.3573 20.0935C16.2358 20.0935 20.1911 16.1381 20.1911 11.2596C20.1911 6.38113 16.2358 2.42578 11.3573 2.42578ZM14.2692 14.1802C14.0539 14.3954 13.7028 14.3943 13.4885 14.1802L11.3573 12.0413L9.22718 14.1803C9.01189 14.3945 8.66176 14.3956 8.44646 14.1803C8.23005 13.9661 8.23005 13.6148 8.44535 13.3996L10.5777 11.2595L8.44535 9.11956C8.23005 8.90303 8.23005 8.55413 8.44646 8.33773C8.663 8.12354 9.01189 8.12354 9.22718 8.33995L11.3573 10.4777L13.4885 8.33983C13.7027 8.12342 14.0517 8.12342 14.267 8.3365C14.4834 8.55291 14.4834 8.90193 14.2692 9.11832L12.1358 11.2595L14.2692 13.3994C14.4845 13.6148 14.4845 13.9649 14.2692 14.1801L14.2692 14.1802Z" fill="#62CBC9"/>
</svg>
