<svg width="19" height="20" viewBox="0 0 19 20" fill="none" xmlns="http://www.w3.org/2000/svg">
<path d="M0.949219 4.3C0.949219 3.255 1.80422 2.4 2.84922 2.4H16.1492C16.6531 2.4 17.1364 2.60018 17.4927 2.9565C17.849 3.31282 18.0492 3.79609 18.0492 4.3V17.6C18.0492 18.1039 17.849 18.5872 17.4927 18.9435C17.1364 19.2998 16.6531 19.5 16.1492 19.5H2.84922C2.34531 19.5 1.86203 19.2998 1.50572 18.9435C1.1494 18.5872 0.949219 18.1039 0.949219 17.6V4.3ZM2.84922 6.2V17.6H16.1492V6.2H2.84922ZM4.74922 0.5H6.64922V2.4H4.74922V0.5ZM12.3492 0.5H14.2492V2.4H12.3492V0.5ZM4.74922 9.05H6.64922V10.95H4.74922V9.05ZM4.74922 12.85H6.64922V14.75H4.74922V12.85ZM8.54922 9.05H10.4492V10.95H8.54922V9.05ZM8.54922 12.85H10.4492V14.75H8.54922V12.85ZM12.3492 9.05H14.2492V10.95H12.3492V9.05ZM12.3492 12.85H14.2492V14.75H12.3492V12.85Z" fill="white"/>
</svg>
