<svg width="36" height="36" viewBox="0 0 36 36" fill="none" xmlns="http://www.w3.org/2000/svg">
<path d="M5.99988 9V31C5.99058 31.3848 6.05718 31.7677 6.1959 32.1267C6.33461 32.4858 6.54271 32.814 6.80831 33.0926C7.07391 33.3712 7.39179 33.5947 7.74381 33.7504C8.09583 33.9061 8.47507 33.9909 8.85988 34H27.0899C27.4789 33.9975 27.8636 33.9175 28.2214 33.7647C28.5792 33.6119 28.903 33.3894 29.1738 33.1101C29.4447 32.8308 29.6573 32.5004 29.7991 32.1381C29.9409 31.7759 30.0092 31.3889 29.9999 31V9H5.99988ZM14.9999 29H12.9999V14H14.9999V29ZM22.9999 29H20.9999V14H22.9999V29Z" fill="black"/>
<path d="M30.73 5H23V4C23 3.46957 22.7893 2.96086 22.4142 2.58579C22.0391 2.21071 21.5304 2 21 2H14.8C14.305 2.04975 13.8462 2.28223 13.5134 2.65205C13.1805 3.02187 12.9975 3.50247 13 4V5H5C4.73478 5 4.48043 5.10536 4.29289 5.29289C4.10536 5.48043 4 5.73478 4 6C4 6.26522 4.10536 6.51957 4.29289 6.70711C4.48043 6.89464 4.73478 7 5 7H30.73C30.9952 7 31.2496 6.89464 31.4371 6.70711C31.6246 6.51957 31.73 6.26522 31.73 6C31.73 5.73478 31.6246 5.48043 31.4371 5.29289C31.2496 5.10536 30.9952 5 30.73 5Z" fill="black"/>
</svg>
