<svg width="20" height="20" viewBox="0 0 20 20" fill="none" xmlns="http://www.w3.org/2000/svg">
<path d="M15.3904 3.10526H12.1818V3.07368C12.1818 2.47368 11.7005 2 11.0909 2H8.90909C8.29947 2 7.81818 2.47368 7.81818 3.07368V3.10526H4.60963C4.27273 3.10526 4 3.37368 4 3.70526V4.30526C4 4.63684 4.27273 4.90526 4.60963 4.90526H15.3904C15.7273 4.90526 16 4.63684 16 4.30526V3.70526C16 3.37368 15.7273 3.10526 15.3904 3.10526Z" fill="#707070"/>
<path d="M14.5882 5.72632H5.41177C5.23529 5.72632 5.10695 5.86842 5.123 6.0421L5.57219 15.1842C5.62032 16.1947 6.47059 17 7.49733 17H12.4866C13.5134 17 14.3636 16.2105 14.4118 15.1842L14.861 6.0421C14.893 5.88421 14.7487 5.72632 14.5882 5.72632ZM9.00535 14.5526C9.00535 14.8368 8.78075 15.0579 8.49198 15.0579C8.20321 15.0579 7.97861 14.8368 7.97861 14.5526V8.18947C7.97861 7.90526 8.20321 7.68421 8.49198 7.68421C8.78075 7.68421 9.00535 7.90526 9.00535 8.18947V14.5526ZM12.0214 14.5526C12.0214 14.8368 11.7968 15.0579 11.508 15.0579C11.2193 15.0579 10.9947 14.8368 10.9947 14.5526V8.18947C10.9947 7.90526 11.2193 7.68421 11.508 7.68421C11.7968 7.68421 12.0214 7.90526 12.0214 8.18947V14.5526Z" fill="#707070"/>
</svg>
