<svg width="9" height="14" viewBox="0 0 9 14" fill="none" xmlns="http://www.w3.org/2000/svg">
<path d="M8.54 9.13C8.54 7.156 6.832 6.638 5.278 6.274V3.894C5.978 3.978 6.706 4.216 7.42 4.622L8.12 2.9C7.35 2.41 6.328 2.13 5.278 2.046V0.519999H3.878V2.074C1.666 2.326 0.588 3.6 0.588 5.084C0.588 7.086 2.324 7.604 3.878 7.982V10.32C2.87 10.222 1.862 9.844 1.162 9.326L0.392 11.034C1.162 11.636 2.492 12.07 3.878 12.154V13.68H5.278V12.112C7.476 11.846 8.54 10.586 8.54 9.13ZM2.842 4.972C2.842 4.51 3.136 4.104 3.878 3.936V5.924C3.262 5.728 2.842 5.462 2.842 4.972ZM5.278 10.264V8.332C5.88 8.542 6.286 8.808 6.286 9.298C6.286 9.746 5.978 10.11 5.278 10.264Z" fill="#1C1C1C"/>
</svg>
