<svg width="21" height="20" viewBox="0 0 21 20" fill="none" xmlns="http://www.w3.org/2000/svg">
<path fill-rule="evenodd" clip-rule="evenodd" d="M7.1364 10.3152C6.78492 9.96194 6.21508 9.96194 5.8636 10.3152C5.51213 10.6684 5.51213 11.2411 5.8636 11.5944L9.8636 15.6145C10.0324 15.7841 10.2613 15.8794 10.5 15.8794C10.7387 15.8794 10.9676 15.7841 11.1364 15.6145L15.1364 11.5944C15.4879 11.2411 15.4879 10.6684 15.1364 10.3152C14.7849 9.96194 14.2151 9.96194 13.8636 10.3152L11.4 12.7912V4.92462H15.5C17.1569 4.92462 18.5 6.27452 18.5 7.9397V16.9849C18.5 18.6501 17.1569 20 15.5 20H5.5C3.84315 20 2.5 18.6501 2.5 16.9849V7.9397C2.5 6.27452 3.84315 4.92462 5.5 4.92462H9.6V12.7912L7.1364 10.3152ZM9.6 4.92462V0.904522C9.6 0.404968 10.0029 0 10.5 0C10.9971 0 11.4 0.404968 11.4 0.904522V4.92462H9.6Z" fill="white"/>
</svg>
