<svg width="19" height="19" viewBox="0 0 19 19" fill="none" xmlns="http://www.w3.org/2000/svg">
<path d="M15.1112 4.19307L14.6238 3.70564C14.2756 3.35751 13.8229 3.16602 13.3355 3.16602C12.8481 3.16602 12.3955 3.35751 12.0473 3.70564L4.40506 11.3305C4.24841 11.4871 4.16135 11.6786 4.14399 11.8876L3.1865 15.0907C3.13428 15.2474 3.1865 15.404 3.29093 15.5259C3.378 15.613 3.48243 15.6478 3.60422 15.6478C3.63907 15.6478 3.69128 15.6478 3.72613 15.6305L6.92926 14.673C7.12075 14.6381 7.32961 14.5511 7.46888 14.4119L15.0937 6.78678C15.8248 6.05563 15.8248 4.90668 15.1111 4.19291L15.1112 4.19307ZM4.70106 12.9842L5.79781 14.081L4.23113 14.5511L4.70106 12.9842ZM14.4845 6.16021L13.9971 6.64764L12.1518 4.80239L12.6393 4.31496C12.8134 4.14083 13.0571 4.0364 13.3182 4.0364C13.5793 4.0364 13.8056 4.14083 13.9971 4.31496L14.4845 4.80239C14.8675 5.16803 14.8675 5.77722 14.4845 6.16024L14.4845 6.16021Z" fill="white"/>
</svg>
