<svg width="20" height="20" viewBox="0 0 20 20" fill="none" xmlns="http://www.w3.org/2000/svg">
<path d="M16.9111 7.17367C16.3778 7.70707 16.1111 7.97377 15.7796 7.97377C15.4482 7.97377 15.1815 7.70707 14.6481 7.17367L12.8283 5.35383C12.2949 4.82044 12.0282 4.55374 12.0282 4.22233C12.0282 3.89091 12.2949 3.62422 12.8283 3.09082L13.1171 2.80205C13.6505 2.26865 13.9172 2.00195 14.2486 2.00195C14.58 2.00195 14.8467 2.26865 15.3801 2.80205L17.1999 4.62189C17.7333 5.15529 18 5.42198 18 5.7534C18 6.08481 17.7333 6.3515 17.1999 6.8849L16.9111 7.17367Z" fill="#1C1C1C"/>
<path d="M3.60019 18.002C2.84585 18.002 2.46869 18.002 2.23434 17.7676C2 17.5333 2 17.1561 2 16.4018V14.5819C2 14.2549 2 14.0914 2.0609 13.9443C2.12181 13.7973 2.23743 13.6817 2.46869 13.4504L9.54455 6.37455C10.078 5.84115 10.3447 5.57445 10.6761 5.57445C11.0075 5.57445 11.2742 5.84115 11.8076 6.37455L13.6274 8.19438C14.1608 8.72778 14.4275 8.99448 14.4275 9.32589C14.4275 9.6573 14.1608 9.924 13.6274 10.4574L6.55154 17.5333C6.32029 17.7645 6.20466 17.8801 6.05763 17.941C5.91059 18.002 5.74707 18.002 5.42003 18.002H3.60019Z" fill="#1C1C1C"/>
</svg>
