<svg width="20" height="20" viewBox="0 0 20 20" fill="none" xmlns="http://www.w3.org/2000/svg">
<path d="M15.9079 4.41314L15.3948 3.90006C15.0283 3.5336 14.5518 3.33203 14.0387 3.33203C13.5256 3.33203 13.0493 3.53361 12.6827 3.90006L4.63824 11.9262C4.47335 12.0911 4.3817 12.2926 4.36343 12.5126L3.35555 15.8843C3.30058 16.0492 3.35555 16.2141 3.46547 16.3425C3.55712 16.4341 3.66705 16.4708 3.79525 16.4708C3.83193 16.4708 3.8869 16.4708 3.92358 16.4525L7.29529 15.4446C7.49686 15.4079 7.71672 15.3163 7.86331 15.1698L15.8894 7.14336C16.6591 6.37373 16.6591 5.16431 15.9077 4.41298L15.9079 4.41314ZM4.94982 13.667L6.1043 14.8215L4.45516 15.3163L4.94982 13.667ZM15.2482 6.48381L14.7351 6.9969L12.7927 5.05453L13.3058 4.54145C13.4891 4.35815 13.7456 4.24823 14.0205 4.24823C14.2953 4.24823 14.5336 4.35815 14.7351 4.54145L15.2482 5.05453C15.6514 5.43941 15.6514 6.08067 15.2482 6.48384L15.2482 6.48381Z" fill="#62CBC9"/>
</svg>
