<svg width="12" height="14" viewBox="0 0 12 14" fill="none" xmlns="http://www.w3.org/2000/svg">
<path d="M2.35898 13.3336H9.95898C10.4629 13.3336 10.9462 13.1334 11.3024 12.7772C11.6588 12.4208 11.859 11.9375 11.859 11.4336V3.83361C11.859 3.49772 11.7255 3.17551 11.488 2.93801C11.2504 2.7004 10.9283 2.56702 10.5923 2.56702H9.32569V1.30032C9.32569 1.07406 9.20492 0.864972 9.00898 0.751841C8.81304 0.638709 8.57163 0.638709 8.37569 0.751841C8.17974 0.864972 8.05898 1.07405 8.05898 1.30032V2.56702H4.25898V1.30032C4.25898 1.07406 4.13822 0.864972 3.94228 0.751841C3.74634 0.638709 3.50493 0.638709 3.30898 0.751841C3.11304 0.864972 2.99228 1.07405 2.99228 1.30032V2.56702H1.72569C1.38969 2.56702 1.06758 2.7004 0.829973 2.93801C0.592473 3.17551 0.458984 3.49772 0.458984 3.83361V11.4336C0.458984 11.9375 0.659163 12.4208 1.01552 12.7772C1.37177 13.1334 1.85505 13.3336 2.35898 13.3336ZM1.72569 7.31713C1.72569 7.14218 1.86745 7.00042 2.04228 7.00042H10.2758C10.3598 7.00042 10.4402 7.03382 10.4997 7.0932C10.5591 7.15257 10.5924 7.23315 10.5924 7.31713V11.4336C10.5924 11.6017 10.5257 11.7627 10.407 11.8815C10.2882 12.0002 10.1271 12.067 9.95909 12.067H2.3591C2.19115 12.067 2.02999 12.0002 1.91124 11.8815C1.79249 11.7627 1.7258 11.6017 1.7258 11.4336L1.72569 7.31713Z" fill="#62CBC9"/>
</svg>
