<svg width="51" height="51" viewBox="0 0 51 51" fill="none" xmlns="http://www.w3.org/2000/svg">
<circle cx="25.5" cy="25.5" r="25.5" fill="#E2F3F2"/>
<circle cx="25.5" cy="25.5" r="23.5" fill="#62CBC9"/>
<g clip-path="url(#clip0_1040_81452)">
<path d="M12.7581 38.3987C12.7083 38.3977 12.6608 38.3775 12.6254 38.3424C9.10056 34.9179 7.0792 30.2323 7.00597 25.3161C6.93273 20.3999 8.81361 15.6558 12.2348 12.1277C15.6561 8.59958 20.3374 6.57634 25.249 6.50304C30.1606 6.42973 34.9002 8.31242 38.425 11.7369C38.4622 11.7728 38.4836 11.822 38.4846 11.8737C38.4855 11.9255 38.4659 11.9755 38.43 12.0128C38.3942 12.0501 38.345 12.0715 38.2933 12.0724C38.2416 12.0734 38.1916 12.0537 38.1544 12.0178C36.4449 10.3577 34.4256 9.05104 32.2116 8.17214C29.9976 7.29324 27.6323 6.85943 25.2508 6.89549C22.8693 6.93155 20.5183 7.43681 18.3318 8.38233C16.1454 9.32786 14.1665 10.6951 12.508 12.4061C10.8495 14.1172 9.54391 16.1386 8.66583 18.3546C7.78776 20.5707 7.35439 22.9382 7.39042 25.3219C7.42644 27.7057 7.93116 30.059 8.8758 32.2474C9.82044 34.4359 11.1865 36.4166 12.8959 38.0767C12.914 38.0943 12.9284 38.1154 12.9382 38.1387C12.948 38.1619 12.953 38.1869 12.953 38.2122C12.953 38.2374 12.948 38.2624 12.9382 38.2856C12.9284 38.3089 12.914 38.3299 12.8959 38.3475C12.8786 38.3669 12.8574 38.3825 12.8336 38.393C12.8098 38.4036 12.7841 38.409 12.7581 38.4089" fill="#F7FCFC"/>
<path d="M36.18 28.1696C36.0729 28.9678 35.8493 29.7459 35.5164 30.4791C35.1295 31.2309 34.5906 31.8939 33.9339 32.4259C33.1859 33.0142 32.3339 33.4562 31.4224 33.7289C30.5489 33.9867 29.6429 34.1174 28.7322 34.1171C27.7309 34.1153 26.7397 33.9159 25.8156 33.5301C24.8914 33.1443 24.0524 32.5798 23.3466 31.8689C22.5443 31.0574 21.9217 30.0859 21.5191 29.0177C21.1477 28.0352 20.9307 27.001 20.8759 25.952L19.957 25.8242C20.0057 27.0496 20.2576 28.2583 20.7023 29.4009C21.3314 31.0148 22.4303 32.4023 23.8566 33.3836C25.2829 34.3648 26.9708 34.8945 28.7015 34.904C29.7517 34.9144 30.7971 34.7611 31.8001 34.4493C32.7677 34.1426 33.6636 33.6438 34.4342 32.9828C35.1524 32.3827 35.756 31.6574 36.2158 30.8419C36.6393 30.001 36.8992 29.0872 36.9815 28.1491L36.18 28.1696Z" fill="#F7FCFC"/>
<path d="M25.2446 18.1701C25.847 19.003 25.8776 19.7951 25.8674 21.0776H26.5974C26.6077 20.6105 26.594 20.1432 26.5566 19.6776C26.5078 18.9724 26.2639 18.2948 25.8521 17.7205C25.7487 17.5769 25.638 17.4388 25.5203 17.3066C25.2894 17.4237 25.0661 17.5551 24.8516 17.7001C24.9915 17.8491 25.1228 18.006 25.2446 18.1701Z" fill="#F7FCFC"/>
<path d="M15.5305 23.6777C16.4953 24.4441 17.9043 24.95 19.7471 25.2106L22.4833 25.5836C23.38 25.6623 24.2551 25.903 25.0663 26.2939C25.6477 26.5927 26.1156 27.0735 26.3986 27.6632C26.6904 28.3506 26.828 29.0936 26.8019 29.8399C26.823 30.3899 26.7306 30.9383 26.5303 31.4509C26.33 31.9634 26.0263 32.4291 25.638 32.8188C25.7758 32.8852 25.9137 32.9567 26.0566 33.0129C26.1995 33.0691 26.3527 33.1151 26.5007 33.1611C26.7009 32.9451 26.8803 32.7107 27.0367 32.4611C27.5191 31.649 27.7649 30.718 27.7463 29.7734C27.7754 28.9053 27.6006 28.0425 27.2358 27.2544C26.863 26.5489 26.2867 25.9721 25.5819 25.5989C24.6687 25.1376 23.6793 24.8467 22.6619 24.7405L19.8951 24.3675C18.6466 24.2399 17.4419 23.8368 16.3677 23.1872C15.4795 22.5979 15.0354 21.5623 15.0354 20.0805C15.0179 19.5199 15.1272 18.9627 15.3553 18.4504C15.5834 17.938 15.9242 17.484 16.3524 17.1222C17.2304 16.366 18.476 15.9929 20.0942 15.9929C21.1387 15.962 22.1791 16.1355 23.1571 16.5038C23.3766 16.3352 23.5961 16.1615 23.8309 15.9929C22.6508 15.4192 21.3494 15.1405 20.0381 15.1805C18.9214 15.1468 17.8106 15.3541 16.7812 15.7885C15.9459 16.1386 15.2346 16.7313 14.7393 17.4901C14.2677 18.2684 14.0286 19.1654 14.0502 20.0754C14.0502 21.7003 14.53 22.8908 15.4999 23.6521" fill="#F7FCFC"/>
<path d="M23.5754 33.9029C22.9636 34.0499 22.3362 34.1219 21.707 34.1174C20.3419 34.1817 18.9802 33.9336 17.7253 33.3919C16.822 32.9599 16.0993 32.2237 15.6834 31.3123C15.2607 30.3197 15.0536 29.2486 15.0759 28.1699H14.2285C14.2458 28.9134 14.3398 29.6532 14.5093 30.3773C14.805 31.4372 15.3654 32.4043 16.1377 33.1876C16.8123 33.7778 17.6064 34.2153 18.4655 34.4701C19.5156 34.7902 20.6094 34.9436 21.707 34.9248C22.6577 34.9441 23.6039 34.7901 24.4993 34.4701C24.1793 34.3014 23.8707 34.1118 23.5754 33.9029Z" fill="#F7FCFC"/>
<path d="M36.2054 19.2022C35.7473 18.387 35.1434 17.6631 34.4239 17.0664C33.6548 16.402 32.7585 15.9012 31.7898 15.5948C30.8008 15.2772 29.7653 15.1287 28.727 15.1554C27.0929 15.1505 25.4942 15.6306 24.1327 16.535C22.8162 17.4096 21.7584 18.6219 21.0698 20.0453C20.5041 21.2119 20.158 22.4729 20.0488 23.7651L20.9524 23.8877C21.0568 22.7469 21.3501 21.6313 21.8202 20.5868C22.4045 19.2604 23.3357 18.1166 24.5155 17.2758C25.7683 16.4021 27.2669 15.951 28.7933 15.9882C29.7029 15.9582 30.6113 16.0756 31.4835 16.3357C32.395 16.6084 33.247 17.0503 33.9951 17.6386C34.6505 18.1719 35.1892 18.8346 35.5776 19.5854C35.8012 20.0627 35.9724 20.5631 36.088 21.0775H36.8384C36.7866 20.4195 36.5952 19.7801 36.2769 19.2022" fill="#F7FCFC"/>
<path d="M15.505 39.0018C15.3749 38.9009 15.2255 38.8278 15.066 38.7872C14.9441 38.7532 14.8152 38.7532 14.6933 38.7872C14.5855 38.8281 14.4928 38.9012 14.4279 38.9967C14.3502 39.0933 14.3103 39.2151 14.3156 39.3391C14.3254 39.4494 14.3603 39.556 14.4177 39.6507C14.4971 39.7716 14.5858 39.886 14.6832 39.993C14.775 40.1003 14.8414 40.1821 14.8873 40.2485C14.9268 40.3098 14.9562 40.3771 14.9741 40.4478C14.9796 40.4828 14.9779 40.5185 14.9691 40.5527C14.9603 40.587 14.9446 40.619 14.9231 40.6471C14.8948 40.6891 14.8556 40.7228 14.8098 40.7444C14.7639 40.7659 14.7131 40.7746 14.6627 40.7697C14.5158 40.756 14.3767 40.6972 14.2646 40.6011C14.1486 40.5192 14.0483 40.4171 13.9685 40.2996C13.8953 40.1949 13.8433 40.0769 13.8153 39.9522L13.5703 40.0851C13.5995 40.2249 13.6606 40.3561 13.749 40.4683C13.8463 40.6058 13.9652 40.7266 14.1012 40.8259C14.2336 40.9262 14.3846 40.9991 14.5453 41.0405C14.6686 41.0768 14.7998 41.0768 14.9231 41.0405C15.0309 40.9996 15.1236 40.9265 15.1885 40.8311C15.2681 40.7374 15.3084 40.6166 15.3008 40.4939C15.2908 40.3828 15.254 40.2758 15.1936 40.1821C15.1131 40.065 15.0262 39.9525 14.9333 39.8449C14.8465 39.7427 14.775 39.6559 14.7291 39.5895C14.6844 39.5291 14.6547 39.459 14.6423 39.385C14.6348 39.3504 14.6351 39.3147 14.643 39.2802C14.651 39.2458 14.6664 39.2136 14.6883 39.1858C14.7182 39.1439 14.7582 39.1102 14.8046 39.0879C14.851 39.0655 14.9023 39.0553 14.9537 39.058C15.0979 39.0689 15.2353 39.1243 15.3468 39.2165C15.5236 39.346 15.66 39.5232 15.7398 39.7274L15.9798 39.5792C15.9341 39.4653 15.8722 39.3585 15.796 39.2624C15.7105 39.1605 15.6128 39.0695 15.505 38.9915" fill="#F7FCFC"/>
<path d="M19.8743 42.977L19.4506 41.1733L19.2004 41.0967L18.5215 43.258L18.8176 43.35L19.3076 41.7865L19.6803 43.3296L19.8181 43.3756L21.0126 42.3128L20.5226 43.8865L20.8186 43.9785L21.4925 41.8171L21.2423 41.7354L19.8743 42.977Z" fill="#F7FCFC"/>
<path d="M23.9643 42.1803L23.0862 42.0986L22.877 44.357L23.1986 44.3877L23.2649 43.703L23.8213 43.7541C24.0673 43.7898 24.3179 43.7392 24.5309 43.6111C24.6202 43.5473 24.6937 43.4641 24.7459 43.3675C24.7981 43.271 24.8276 43.1638 24.8321 43.0542C24.8482 42.9463 24.839 42.8361 24.8053 42.7323C24.7717 42.6286 24.7144 42.5341 24.6381 42.4563C24.4516 42.2899 24.2138 42.1925 23.9643 42.1803ZM24.5105 43.0286C24.5074 43.0991 24.4883 43.1679 24.4547 43.2298C24.4211 43.2918 24.3738 43.3453 24.3165 43.3863C24.1712 43.4694 24.0018 43.5 23.8367 43.4731L23.2904 43.4221L23.3823 42.4001L23.9336 42.4512C24.1001 42.4574 24.2598 42.5185 24.388 42.6249C24.4369 42.6769 24.4734 42.7393 24.4946 42.8074C24.5158 42.8756 24.5213 42.9478 24.5105 43.0184" fill="#F7FCFC"/>
<path d="M26.8319 44.1932L26.6634 42.2158L26.3418 42.2414L26.5307 44.4998L28.0774 44.367L28.0519 44.091L26.8319 44.1932Z" fill="#F7FCFC"/>
<path d="M30.0277 43.7031L29.8388 42.9979L30.9364 42.7067L30.8649 42.441L29.7674 42.7322L29.5938 42.0578L30.824 41.7308L30.7526 41.46L29.2109 41.8687L29.7878 44.0556L31.3754 43.6418L31.3039 43.3658L30.0277 43.7031Z" fill="#F7FCFC"/>
<path d="M35.8319 41.2552C35.6991 41.3421 35.5461 41.3931 35.3878 41.4032C35.2354 41.41 35.084 41.3766 34.9488 41.3062C34.8129 41.2302 34.6986 41.1211 34.6164 40.9888C34.5343 40.8566 34.487 40.7055 34.4791 40.55C34.4738 40.398 34.5109 40.2477 34.5863 40.1157C34.6634 39.9763 34.7762 39.8599 34.913 39.7784C35.0127 39.7124 35.1253 39.6687 35.2434 39.6502C35.3614 39.6317 35.482 39.6388 35.597 39.6711L35.6634 39.385C35.5161 39.3407 35.3604 39.3319 35.2091 39.3594C35.0221 39.3946 34.8448 39.4694 34.689 39.5787C34.5332 39.688 34.4025 39.8291 34.3056 39.993C34.206 40.1687 34.1566 40.3685 34.1626 40.5704C34.1693 40.7787 34.231 40.9813 34.3413 41.158C34.4497 41.3376 34.6051 41.4842 34.7905 41.5821C34.97 41.6744 35.171 41.7167 35.3724 41.7047C35.5846 41.691 35.79 41.6243 35.9697 41.5106C36.1118 41.4216 36.2363 41.3072 36.3372 41.1733C36.4282 41.0474 36.4893 40.9024 36.5159 40.7493L36.23 40.6879C36.2076 40.8053 36.1605 40.9166 36.0919 41.0144C36.0232 41.1122 35.9346 41.1943 35.8319 41.2552Z" fill="#F7FCFC"/>
<path d="M38.1801 39.4665L37.685 38.93L38.5171 38.1584L38.3333 37.9591L37.4961 38.7256L37.0265 38.2146L37.9657 37.3511L37.7769 37.1416L36.5977 38.2248L38.1291 39.8906L39.3389 38.7818L39.15 38.5723L38.1801 39.4665Z" fill="#F7FCFC"/>
<path d="M40.8041 35.3994C40.7507 35.2494 40.6527 35.1192 40.5234 35.0264C40.4393 34.9567 40.3402 34.9076 40.2339 34.8827C40.1276 34.8579 40.017 34.8581 39.9108 34.8834C39.6718 34.9493 39.4649 35.1001 39.3288 35.3075L38.8184 36.0178L40.6255 37.3769L40.8195 37.1163L40.2732 36.7024L40.605 36.2528C40.6348 36.2155 40.6621 36.1762 40.6867 36.1353L41.5341 36.1608L41.7485 35.8798H40.8195C40.8654 35.7317 40.8654 35.5731 40.8195 35.425L40.8041 35.3994ZM40.3753 36.1251L40.0486 36.5644L39.2318 35.9513L39.5586 35.512C39.6498 35.3713 39.7869 35.2665 39.9465 35.2156C40.0159 35.1998 40.0879 35.2003 40.157 35.2172C40.2261 35.234 40.2903 35.2667 40.3447 35.3126C40.4043 35.3508 40.454 35.4027 40.4895 35.4641C40.5251 35.5254 40.5454 35.5943 40.5489 35.6651C40.548 35.8343 40.4864 35.9976 40.3753 36.1251Z" fill="#F7FCFC"/>
<path d="M42.5659 33.8562L41.9125 33.5343L42.4076 32.5124L42.1626 32.3948L41.6623 33.4116L41.0396 33.1102L41.6011 31.9656L41.3458 31.8379L40.6465 33.2737L42.6782 34.2701L43.398 32.7934L43.1478 32.6708L42.5659 33.8562Z" fill="#F7FCFC"/>
<path d="M42.4223 28.3592L43.7393 29.6519L41.9628 30.1782L41.8965 30.4337L44.0915 30.9907L44.1681 30.6892L42.5805 30.2855L44.1017 29.8257L44.1375 29.6826L43.0093 28.5534L44.6071 28.9519L44.6837 28.6505L42.4886 28.0986L42.4223 28.3592Z" fill="#F7FCFC"/>
<path d="M44.8582 24.9307C44.7662 24.7502 44.6268 24.5984 44.4549 24.4913C44.2781 24.3829 44.0752 24.3246 43.8678 24.3227C43.6598 24.3123 43.4531 24.3601 43.2706 24.4606C43.0928 24.5577 42.946 24.7029 42.8469 24.8797C42.7376 25.0656 42.6795 25.2771 42.6784 25.4928C42.6715 25.7066 42.7171 25.9189 42.8112 26.111C42.903 26.2929 43.0424 26.4466 43.2145 26.5556C43.3913 26.6645 43.5939 26.7243 43.8015 26.7293C44.01 26.7378 44.2167 26.6882 44.3987 26.5862C44.5758 26.4864 44.7236 26.342 44.8275 26.1673C44.9323 25.9779 44.9884 25.7655 44.9909 25.549C44.9998 25.335 44.9541 25.1222 44.8582 24.9307ZM44.5774 25.9935C44.5028 26.1235 44.3931 26.2298 44.2609 26.3001C44.1245 26.3739 43.9719 26.4125 43.8168 26.4125C43.6617 26.4125 43.5091 26.3739 43.3727 26.3001C43.2423 26.2216 43.1363 26.1083 43.0664 25.9731C42.9933 25.833 42.958 25.6763 42.9643 25.5184C42.9667 25.3615 43.0107 25.208 43.0919 25.0738C43.1665 24.9438 43.2762 24.8376 43.4084 24.7673C43.5466 24.6945 43.7015 24.6591 43.8576 24.665C44.0144 24.6673 44.1677 24.7114 44.3017 24.7927C44.4304 24.8695 44.5348 24.9812 44.6029 25.1147C44.6766 25.2527 44.7118 25.4079 44.705 25.5643C44.7026 25.7228 44.6586 25.8779 44.5774 26.014" fill="#F7FCFC"/>
<path d="M42.3152 21.2724L43.9742 20.9659L42.5602 22.6112L42.6061 22.8717L44.8318 22.4579L44.7757 22.1411L43.1166 22.4476L44.5306 20.8075L44.4796 20.5469L42.2539 20.9556L42.3152 21.2724Z" fill="#F7FCFC"/>
<path d="M40.4989 15.9732L40.2539 16.1061L41.0145 17.5163L43.0054 16.4382L42.2243 14.9922L41.9742 15.125L42.6021 16.29L41.9589 16.6375L41.4178 15.636L41.1779 15.7688L41.719 16.7652L41.1064 17.0973L40.4989 15.9732Z" fill="#F7FCFC"/>
<path d="M38.9309 14.2977C39.028 14.4323 39.1534 14.5439 39.2984 14.6247C39.409 14.6855 39.5351 14.7121 39.6608 14.7013C39.7769 14.6919 39.8873 14.6473 39.9773 14.5735C40.0782 14.5007 40.149 14.3935 40.1764 14.2721C40.202 14.1646 40.202 14.0525 40.1764 13.945C40.1306 13.8088 40.0761 13.6758 40.0131 13.5466C39.9569 13.4189 39.911 13.3166 39.8854 13.2451C39.8606 13.1747 39.8502 13.1 39.8548 13.0254C39.8595 12.9911 39.8709 12.9581 39.8884 12.9282C39.9059 12.8984 39.9292 12.8724 39.9569 12.8516C39.9964 12.8197 40.0433 12.7982 40.0933 12.7893C40.1433 12.7803 40.1947 12.7842 40.2428 12.8005C40.3797 12.8549 40.497 12.9493 40.5797 13.0713C40.6667 13.1816 40.7341 13.306 40.7788 13.4392C40.8228 13.5602 40.8436 13.6885 40.84 13.8173L41.1106 13.7561C41.1171 13.6112 41.0927 13.4666 41.0391 13.3319C40.9817 13.1747 40.8989 13.0281 40.7941 12.8977C40.6931 12.7666 40.5684 12.6556 40.4265 12.5706C40.3145 12.5084 40.1868 12.48 40.059 12.4889C39.9428 12.4976 39.8322 12.5422 39.7425 12.6166C39.6446 12.6891 39.5758 12.7941 39.5485 12.9129C39.5229 13.0204 39.5229 13.1325 39.5485 13.24C39.5922 13.3762 39.6451 13.5094 39.7068 13.6385C39.7561 13.7343 39.7987 13.8332 39.8344 13.9348C39.8592 14.0053 39.8696 14.0801 39.865 14.1546C39.8633 14.1898 39.8537 14.2241 39.8369 14.255C39.8201 14.286 39.7966 14.3127 39.768 14.3334C39.729 14.3662 39.6823 14.3885 39.6323 14.3984C39.5823 14.4082 39.5307 14.4052 39.4821 14.3896C39.3452 14.3405 39.2273 14.2493 39.1452 14.129C39.079 14.0446 39.0241 13.9518 38.9819 13.8531C38.9422 13.7476 38.9148 13.6379 38.9002 13.5261L38.6348 13.6079C38.6424 13.7302 38.6736 13.8499 38.7266 13.9604C38.7767 14.0828 38.8456 14.1966 38.9309 14.2977Z" fill="#F7FCFC"/>
<path d="M17.4245 40.2674L16.3789 42.2744L16.6641 42.4233L17.7097 40.4162L17.4245 40.2674Z" fill="#F7FCFC"/>
<path d="M43.8004 18.2804L41.6719 19.0449L41.7805 19.348L43.909 18.5835L43.8004 18.2804Z" fill="#F7FCFC"/>
<path d="M18.2767 39.7132C18.2542 39.7577 18.2229 39.7971 18.1846 39.8292C18.1464 39.8612 18.1021 39.8851 18.0543 39.8994C18.0066 39.9137 17.9564 39.9183 17.9069 39.9126C17.8573 39.9069 17.8095 39.8911 17.7662 39.8663C17.7212 39.8444 17.6812 39.8133 17.6488 39.7752C17.6163 39.737 17.5922 39.6926 17.5778 39.6446C17.5634 39.5965 17.5591 39.546 17.5652 39.4962C17.5712 39.4465 17.5876 39.3985 17.6131 39.3554C17.6344 39.3098 17.6651 39.2693 17.7032 39.2364C17.7412 39.2035 17.7858 39.1789 17.834 39.1644C17.8822 39.1499 17.9329 39.1459 17.9828 39.1524C18.0327 39.1589 18.0807 39.1759 18.1235 39.2022C18.169 39.2237 18.2095 39.2544 18.2424 39.2924C18.2754 39.3304 18.3001 39.3747 18.315 39.4228C18.3299 39.4708 18.3346 39.5215 18.3289 39.5714C18.3232 39.6214 18.3071 39.6697 18.2818 39.7132" fill="#F7FCFC"/>
<path d="M40.8302 19.1927C40.8755 19.1728 40.9244 19.1624 40.9738 19.1621C41.0233 19.1618 41.0722 19.1717 41.1178 19.1911C41.1633 19.2104 41.2043 19.2389 41.2384 19.2748C41.2725 19.3106 41.2989 19.3531 41.316 19.3995C41.3331 19.4459 41.3405 19.4954 41.3378 19.5448C41.3351 19.5943 41.3223 19.6425 41.3002 19.6868C41.2782 19.7311 41.2473 19.7704 41.2095 19.8023C41.1717 19.8342 41.1277 19.858 41.0804 19.8723C41.0351 19.8922 40.9862 19.9026 40.9368 19.9029C40.8873 19.9031 40.8384 19.8933 40.7929 19.8739C40.7474 19.8545 40.7063 19.8261 40.6722 19.7902C40.6381 19.7544 40.6117 19.7119 40.5946 19.6655C40.5775 19.619 40.5701 19.5697 40.5728 19.5203C40.5755 19.4708 40.5883 19.4225 40.6104 19.3782C40.6325 19.3339 40.6633 19.2946 40.7011 19.2627C40.739 19.2308 40.7829 19.2069 40.8302 19.1927Z" fill="#F7FCFC"/>
</g>
<defs>
<clipPath id="clip0_1040_81452">
<rect width="38" height="38" fill="white" transform="translate(7 6.5)"/>
</clipPath>
</defs>
</svg>
