<svg width="15" height="15" viewBox="0 0 15 15" fill="none" xmlns="http://www.w3.org/2000/svg">
<circle cx="7.2801" cy="7.2801" r="5.95588" fill="#62CBC9"/>
<path d="M8.19693 6.45497H6.17578V7.54822H6.85385V9.49533H6.17578V10.5886H8.82284V9.49533H8.19693V6.45497Z" fill="#F7FCFC"/>
<path d="M6.84081 4.84702C6.80324 4.93216 6.7843 5.02393 6.7843 5.12232C6.7843 5.22072 6.80324 5.31384 6.84081 5.40162C6.88148 5.48676 6.93643 5.56122 7.00598 5.62506C7.07552 5.6889 7.15655 5.73942 7.24938 5.77668C7.29782 5.79563 7.34811 5.80974 7.40058 5.819C7.45119 5.82805 7.50366 5.83254 7.55799 5.83254C7.66231 5.83254 7.76073 5.81394 7.85356 5.77668C7.89888 5.75851 7.94142 5.73714 7.98116 5.7127C8.02276 5.68698 8.06126 5.65776 8.09696 5.62506C8.16651 5.56122 8.22146 5.48676 8.26213 5.40162C8.28076 5.36115 8.29535 5.31954 8.30529 5.27679C8.31709 5.22685 8.32299 5.17533 8.32299 5.12232C8.32299 5.07523 8.31833 5.02963 8.30901 4.98552C8.29908 4.93757 8.28325 4.8914 8.26213 4.84702C8.22146 4.75924 8.16651 4.68343 8.09696 4.61959C8.04605 4.57299 7.98923 4.53345 7.92621 4.50103C7.90292 4.48906 7.8787 4.47802 7.85356 4.46797C7.76073 4.43071 7.66231 4.41211 7.55799 4.41211C7.49652 4.41211 7.43722 4.41795 7.38009 4.42949C7.33507 4.43869 7.29161 4.45151 7.24938 4.46797C7.15655 4.50523 7.07552 4.55575 7.00598 4.61959C6.93643 4.68343 6.88148 4.75924 6.84081 4.84702Z" fill="#F7FCFC"/>
</svg>
