<svg width="70" height="85" viewBox="0 0 70 85" fill="none" xmlns="http://www.w3.org/2000/svg">
<path d="M9.71113 0.000259399C6.82012 0.000259399 4.45474 2.39088 4.45474 5.31276V79.6878C4.45474 82.6096 6.82012 85.0003 9.71113 85.0003H62.275C65.166 85.0003 67.5314 82.6096 67.5314 79.6878V21.2503L46.5058 0.000259399H9.71113Z" fill="#E2F3F2"/>
<path d="M52.0207 21.0003H67.5314L46.8505 0.000259399V15.7503C46.8505 18.6378 49.1771 21.0003 52.0207 21.0003Z" fill="#62CBC9"/>
<path d="M67.5314 37.0003L52.0207 21.0003H67.5314V37.0003Z" fill="#62CBC9"/>
<path d="M69.6 68.4169C69.6 69.8378 68.301 71.0003 66.7133 71.0003H3.20585C1.61817 71.0003 0.319153 69.8378 0.319153 68.4169V42.5836C0.319153 41.1628 1.61817 40.0003 3.20585 40.0003H66.7133C68.301 40.0003 69.6 41.1628 69.6 42.5836V68.4169Z" fill="#62CBC9"/>
<path opacity="0.2" d="M65.3604 70.5003H4.45532V73.0003H65.3604C67.1235 73.0003 68.566 71.8753 68.566 70.5003V68.0003C68.566 69.3753 67.1235 70.5003 65.3604 70.5003Z" fill="#62CBC9"/>
<path d="M16.397 60.136C15.9323 60.136 15.5413 59.9773 15.224 59.66C14.9066 59.3427 14.748 58.946 14.748 58.47C14.748 57.9827 14.9066 57.5917 15.224 57.297C15.5413 56.991 15.9323 56.838 16.397 56.838C16.8616 56.838 17.2526 56.991 17.57 57.297C17.8873 57.5917 18.046 57.9827 18.046 58.47C18.046 58.946 17.8873 59.3427 17.57 59.66C17.2526 59.9773 16.8616 60.136 16.397 60.136ZM23.1363 60.204C22.3316 60.204 21.5893 60.0567 20.9093 59.762C20.2406 59.456 19.691 59.0253 19.2603 58.47L20.7903 56.634C21.4363 57.5067 22.173 57.943 23.0003 57.943C24.1223 57.943 24.6833 57.2857 24.6833 55.971V50.31H20.5013V48.1H27.4203V55.818C27.4203 57.28 27.0576 58.3793 26.3323 59.116C25.607 59.8413 24.5416 60.204 23.1363 60.204ZM35.3596 50.718C36.2096 50.718 36.9802 50.9163 37.6716 51.313C38.3742 51.6983 38.9239 52.248 39.3206 52.962C39.7172 53.6647 39.9156 54.4863 39.9156 55.427C39.9156 56.3677 39.7172 57.195 39.3206 57.909C38.9239 58.6117 38.3742 59.1613 37.6716 59.558C36.9802 59.9433 36.2096 60.136 35.3596 60.136C34.1922 60.136 33.2742 59.7677 32.6056 59.031V63.298H29.9536V50.854H32.4866V51.908C33.1439 51.1147 34.1016 50.718 35.3596 50.718ZM34.9006 57.96C35.5806 57.96 36.1359 57.7333 36.5666 57.28C37.0086 56.8153 37.2296 56.1977 37.2296 55.427C37.2296 54.6563 37.0086 54.0443 36.5666 53.591C36.1359 53.1263 35.5806 52.894 34.9006 52.894C34.2206 52.894 33.6596 53.1263 33.2176 53.591C32.7869 54.0443 32.5716 54.6563 32.5716 55.427C32.5716 56.1977 32.7869 56.8153 33.2176 57.28C33.6596 57.7333 34.2206 57.96 34.9006 57.96ZM51.1259 50.854V58.47C51.1259 60.1473 50.6895 61.394 49.8169 62.21C48.9442 63.026 47.6692 63.434 45.9919 63.434C45.1079 63.434 44.2692 63.3263 43.4759 63.111C42.6825 62.8957 42.0252 62.584 41.5039 62.176L42.5579 60.272C42.9432 60.5893 43.4305 60.8387 44.0199 61.02C44.6092 61.2127 45.1985 61.309 45.7879 61.309C46.7059 61.309 47.3802 61.0993 47.8109 60.68C48.2529 60.272 48.4739 59.6487 48.4739 58.81V58.419C47.7825 59.1783 46.8192 59.558 45.5839 59.558C44.7452 59.558 43.9745 59.3767 43.2719 59.014C42.5805 58.64 42.0309 58.1187 41.6229 57.45C41.2149 56.7813 41.0109 56.0107 41.0109 55.138C41.0109 54.2653 41.2149 53.4947 41.6229 52.826C42.0309 52.1573 42.5805 51.6417 43.2719 51.279C43.9745 50.905 44.7452 50.718 45.5839 50.718C46.9099 50.718 47.9185 51.1543 48.6099 52.027V50.854H51.1259ZM46.1109 57.382C46.8135 57.382 47.3859 57.178 47.8279 56.77C48.2812 56.3507 48.5079 55.8067 48.5079 55.138C48.5079 54.4693 48.2812 53.931 47.8279 53.523C47.3859 53.1037 46.8135 52.894 46.1109 52.894C45.4082 52.894 44.8302 53.1037 44.3769 53.523C43.9235 53.931 43.6969 54.4693 43.6969 55.138C43.6969 55.8067 43.9235 56.3507 44.3769 56.77C44.8302 57.178 45.4082 57.382 46.1109 57.382Z" fill="white"/>
</svg>
