<svg width="45" height="45" viewBox="0 0 45 45" fill="none" xmlns="http://www.w3.org/2000/svg">
<path d="M6.81808 37.775C6.7591 37.7739 6.70281 37.75 6.6609 37.7084C2.48679 33.6531 0.093074 28.1043 0.00634723 22.2825C-0.0803795 16.4607 2.14698 10.8427 6.19844 6.66469C10.2499 2.48665 15.7936 0.0907165 21.61 0.00390808C27.4263 -0.0829003 33.0389 2.14659 37.213 6.20187C37.2571 6.2444 37.2825 6.30265 37.2837 6.36392C37.2848 6.4252 37.2616 6.48451 37.2191 6.52864C37.1766 6.57277 37.1183 6.59811 37.0571 6.59925C36.9959 6.60038 36.9367 6.57707 36.8926 6.53455C34.8683 4.56869 32.4769 3.02127 29.8551 1.98047C27.2333 0.939669 24.4323 0.42595 21.6121 0.468652C18.7919 0.511354 16.0077 1.10968 13.4186 2.22939C10.8294 3.3491 8.48588 4.96817 6.52188 6.99441C4.55787 9.02066 3.0118 11.4144 1.97198 14.0387C0.932152 16.663 0.418952 19.4666 0.461614 22.2894C0.504276 25.1123 1.10197 27.8991 2.22062 30.4907C3.33928 33.0823 4.95697 35.4279 6.98131 37.3938C7.0027 37.4146 7.0197 37.4396 7.03131 37.4672C7.04292 37.4947 7.04887 37.5243 7.04887 37.5542C7.04887 37.5841 7.04292 37.6137 7.03131 37.6412C7.0197 37.6687 7.0027 37.6936 6.98131 37.7145C6.96079 37.7374 6.93562 37.7559 6.90748 37.7684C6.87935 37.7809 6.84887 37.7873 6.81808 37.7872" fill="#1C1C1C"/>
<path d="M34.5533 25.6617C34.4264 26.6069 34.1616 27.5284 33.7674 28.3966C33.3093 29.2869 32.671 30.072 31.8934 30.702C31.0076 31.3987 29.9986 31.9222 28.9192 32.245C27.8848 32.5504 26.8118 32.7051 25.7334 32.7048C24.5476 32.7027 23.374 32.4666 22.2796 32.0097C21.1852 31.5529 20.1916 30.8843 19.3558 30.0425C18.4057 29.0815 17.6683 27.931 17.1916 26.666C16.7518 25.5026 16.4949 24.2778 16.43 23.0355L15.3418 22.8843C15.3994 24.3353 15.6977 25.7667 16.2244 27.1199C16.9693 29.031 18.2707 30.6742 19.9597 31.8361C21.6488 32.9981 23.6476 33.6254 25.6971 33.6366C26.9408 33.649 28.1788 33.4674 29.3665 33.0982C30.5123 32.735 31.5732 32.1443 32.4858 31.3615C33.3363 30.6509 34.0511 29.7919 34.5956 28.8262C35.0971 27.8305 35.4049 26.7483 35.5023 25.6374L34.5533 25.6617Z" fill="#1C1C1C"/>
<path d="M21.6042 13.8199C22.3175 14.8062 22.3537 15.7442 22.3416 17.2629H23.2061C23.2183 16.7098 23.2021 16.1565 23.1578 15.605C23.1 14.77 22.8112 13.9675 22.3235 13.2875C22.2011 13.1174 22.07 12.9538 21.9306 12.7974C21.6572 12.936 21.3927 13.0916 21.1387 13.2633C21.3044 13.4397 21.4598 13.6255 21.6042 13.8199Z" fill="#1C1C1C"/>
<path d="M10.1004 20.3428C11.2429 21.2504 12.9114 21.8494 15.0937 22.158L18.3338 22.5997C19.3958 22.693 20.4321 22.978 21.3927 23.4409C22.0812 23.7947 22.6353 24.3642 22.9705 25.0625C23.316 25.8764 23.479 26.7563 23.448 27.6401C23.4731 28.2914 23.3636 28.9409 23.1264 29.5478C22.8893 30.1548 22.5295 30.7063 22.0697 31.1678C22.2329 31.2465 22.3962 31.3311 22.5654 31.3977C22.7347 31.4642 22.916 31.5187 23.0914 31.5732C23.3284 31.3173 23.5409 31.0397 23.7261 30.7441C24.2974 29.7824 24.5884 28.68 24.5664 27.5614C24.6009 26.5334 24.3938 25.5117 23.9619 24.5784C23.5204 23.7429 22.8379 23.0598 22.0032 22.6179C20.9219 22.0716 19.7502 21.7272 18.5454 21.6014L15.2689 21.1597C13.7904 21.0086 12.3638 20.5312 11.0918 19.7619C10.0399 19.0641 9.514 17.8377 9.514 16.083C9.49327 15.4191 9.62277 14.7592 9.89286 14.1525C10.1629 13.5458 10.5666 13.0082 11.0736 12.5797C12.1134 11.6842 13.5884 11.2423 15.5047 11.2423C16.7416 11.2057 17.9737 11.4113 19.1318 11.8474C19.3917 11.6477 19.6517 11.442 19.9298 11.2423C18.5323 10.563 16.9911 10.233 15.4382 10.2803C14.1159 10.2404 12.8005 10.4859 11.5814 11.0004C10.5922 11.4149 9.74996 12.1168 9.16337 13.0153C8.60489 13.937 8.32172 14.9993 8.34729 16.0769C8.34729 18.0011 8.91552 19.4109 10.0641 20.3125" fill="#1C1C1C"/>
<path d="M19.6272 32.4506C18.9027 32.6248 18.1598 32.7101 17.4147 32.7047C15.7982 32.7808 14.1856 32.487 12.6995 31.8455C11.6299 31.3339 10.7739 30.4622 10.2814 29.3828C9.78092 28.2074 9.53571 26.939 9.56207 25.6616H8.55859C8.57901 26.5421 8.69042 27.4181 8.89107 28.2756C9.24131 29.5308 9.90494 30.676 10.8195 31.6036C11.6184 32.3026 12.5587 32.8206 13.576 33.1223C14.8197 33.5014 16.1149 33.683 17.4147 33.6608C18.5405 33.6837 19.661 33.5013 20.7214 33.1223C20.3425 32.9225 19.977 32.6981 19.6272 32.4506Z" fill="#1C1C1C"/>
<path d="M34.584 15.0424C34.0415 14.0771 33.3264 13.2198 32.4743 12.5132C31.5635 11.7264 30.5022 11.1334 29.355 10.7705C28.1837 10.3944 26.9575 10.2186 25.7279 10.2502C23.7929 10.2445 21.8996 10.8129 20.2873 11.8839C18.7283 12.9196 17.4757 14.3553 16.6602 16.0409C15.9903 17.4224 15.5805 18.9157 15.4512 20.4459L16.5211 20.5911C16.6448 19.2402 16.9921 17.9191 17.5488 16.6822C18.2408 15.1114 19.3435 13.7568 20.7407 12.7612C22.2242 11.7265 23.9988 11.1924 25.8065 11.2364C26.8836 11.2009 27.9594 11.34 28.9923 11.648C30.0717 11.9708 31.0806 12.4941 31.9665 13.1908C32.7426 13.8223 33.3806 14.6071 33.8405 15.4962C34.1053 16.0615 34.308 16.654 34.445 17.2632H35.3336C35.2723 16.484 35.0456 15.7269 34.6687 15.0424" fill="#1C1C1C"/>
<path d="M10.0704 38.4894C9.91635 38.3698 9.73939 38.2834 9.55052 38.2353C9.40617 38.195 9.25355 38.195 9.1092 38.2353C8.98145 38.2837 8.87171 38.3702 8.79488 38.4833C8.70283 38.5978 8.65554 38.742 8.66186 38.8888C8.67349 39.0195 8.71485 39.1456 8.78277 39.2578C8.87678 39.401 8.98189 39.5365 9.09713 39.6632C9.20595 39.7902 9.28451 39.8871 9.33892 39.9657C9.38569 40.0383 9.42043 40.1181 9.44171 40.2018C9.44816 40.2432 9.44613 40.2855 9.43573 40.326C9.42534 40.3666 9.40678 40.4045 9.38124 40.4377C9.34772 40.4875 9.30136 40.5274 9.24708 40.5529C9.1928 40.5785 9.13263 40.5888 9.07293 40.5829C8.89893 40.5667 8.73423 40.497 8.60143 40.3833C8.46413 40.2863 8.34536 40.1654 8.2508 40.0263C8.16415 39.9023 8.10255 39.7625 8.06945 39.6149L7.7793 39.7722C7.81386 39.9378 7.88627 40.0931 7.99086 40.226C8.10611 40.3888 8.24698 40.5319 8.40798 40.6495C8.56478 40.7682 8.74354 40.8545 8.9339 40.9036C9.07992 40.9467 9.23522 40.9467 9.38124 40.9036C9.50899 40.8552 9.61876 40.7687 9.6956 40.6556C9.78987 40.5447 9.83753 40.4016 9.82857 40.2563C9.81668 40.1248 9.77314 39.9981 9.70165 39.8871C9.60627 39.7485 9.50334 39.6152 9.39334 39.4878C9.29057 39.3668 9.20592 39.264 9.15152 39.1853C9.09864 39.1139 9.06344 39.0308 9.04876 38.9432C9.03992 38.9023 9.04021 38.8599 9.04961 38.8191C9.05901 38.7783 9.07732 38.7402 9.10318 38.7073C9.13866 38.6576 9.18605 38.6177 9.24099 38.5913C9.29594 38.5648 9.35663 38.5527 9.41751 38.556C9.58831 38.5688 9.75095 38.6344 9.88299 38.7436C10.0924 38.8969 10.2539 39.1068 10.3485 39.3487L10.6326 39.1732C10.5785 39.0383 10.5052 38.9118 10.415 38.798C10.3137 38.6773 10.198 38.5696 10.0704 38.4772" fill="#1C1C1C"/>
<path d="M15.2445 43.1969L14.7428 41.061L14.4466 40.9702L13.6426 43.5297L13.9932 43.6386L14.5735 41.7871L15.0148 43.6144L15.178 43.6689L16.5926 42.4103L16.0123 44.274L16.3629 44.3829L17.1608 41.8234L16.8646 41.7266L15.2445 43.1969Z" fill="#1C1C1C"/>
<path d="M20.0864 42.253L19.0467 42.1562L18.7988 44.8307L19.1797 44.867L19.2583 44.0561L19.9172 44.1167C20.2084 44.159 20.5053 44.0991 20.7574 43.9473C20.8632 43.8718 20.9503 43.7732 21.0121 43.6589C21.0739 43.5446 21.1088 43.4177 21.1141 43.2878C21.1331 43.1601 21.1223 43.0295 21.0824 42.9067C21.0426 42.7839 20.9748 42.672 20.8844 42.5798C20.6636 42.3827 20.3819 42.2674 20.0864 42.253ZM20.7333 43.2575C20.7296 43.341 20.707 43.4224 20.6672 43.4958C20.6274 43.5692 20.5714 43.6325 20.5036 43.6811C20.3315 43.7795 20.1309 43.8158 19.9353 43.7839L19.2885 43.7235L19.3973 42.5133L20.0502 42.5737C20.2473 42.5811 20.4364 42.6534 20.5882 42.7795C20.6462 42.841 20.6893 42.9149 20.7145 42.9956C20.7396 43.0764 20.746 43.1618 20.7333 43.2454" fill="#1C1C1C"/>
<path d="M23.4846 44.6371L23.2851 42.2954L22.9043 42.3257L23.128 45.0001L24.9596 44.8428L24.9294 44.5161L23.4846 44.6371Z" fill="#1C1C1C"/>
<path d="M27.268 44.0562L27.0443 43.2212L28.344 42.8763L28.2594 42.5617L26.9597 42.9066L26.7542 42.1078L28.211 41.7206L28.1264 41.3999L26.3008 41.884L26.9839 44.4737L28.8639 43.9836L28.7793 43.6569L27.268 44.0562Z" fill="#1C1C1C"/>
<path d="M34.1414 41.158C33.9842 41.261 33.803 41.3213 33.6155 41.3334C33.4351 41.3415 33.2558 41.3018 33.0956 41.2185C32.9348 41.1285 32.7993 40.9993 32.702 40.8427C32.6048 40.686 32.5488 40.5071 32.5394 40.323C32.5332 40.143 32.5771 39.965 32.6664 39.8087C32.7577 39.6437 32.8913 39.5057 33.0533 39.4093C33.1713 39.3311 33.3047 39.2793 33.4445 39.2574C33.5843 39.2355 33.7271 39.244 33.8633 39.2822L33.9419 38.9434C33.7675 38.8909 33.5831 38.8805 33.4039 38.9131C33.1825 38.9548 32.9725 39.0434 32.788 39.1728C32.6035 39.3022 32.4487 39.4693 32.3339 39.6634C32.2161 39.8715 32.1575 40.1081 32.1646 40.3472C32.1726 40.5938 32.2456 40.8338 32.3763 41.043C32.5047 41.2556 32.6886 41.4293 32.9082 41.5452C33.1208 41.6545 33.3588 41.7046 33.5973 41.6904C33.8486 41.6742 34.0918 41.5952 34.3046 41.4606C34.4729 41.3552 34.6204 41.2197 34.7399 41.0611C34.8476 40.912 34.92 40.7404 34.9514 40.559L34.6129 40.4863C34.5864 40.6253 34.5306 40.7571 34.4493 40.8729C34.368 40.9887 34.2631 41.0859 34.1414 41.158Z" fill="#1C1C1C"/>
<path d="M36.9228 39.0397L36.3364 38.4044L37.3218 37.4907L37.1042 37.2548L36.1128 38.1624L35.5566 37.5573L36.6689 36.5347L36.4453 36.2866L35.0488 37.5694L36.8624 39.542L38.2951 38.2289L38.0714 37.9809L36.9228 39.0397Z" fill="#1C1C1C"/>
<path d="M40.0293 34.2236C39.966 34.0459 39.85 33.8918 39.6968 33.7819C39.5973 33.6993 39.4799 33.6411 39.3541 33.6117C39.2282 33.5823 39.0972 33.5825 38.9714 33.6125C38.6884 33.6906 38.4434 33.8691 38.2822 34.1147L37.6777 34.9559L39.8177 36.5654L40.0474 36.2568L39.4006 35.7666L39.7935 35.2342C39.8288 35.19 39.8611 35.1435 39.8903 35.095L40.8937 35.1252L41.1476 34.7925H40.0474C40.1019 34.6171 40.1019 34.4293 40.0474 34.2539L40.0293 34.2236ZM39.5215 35.0829L39.1346 35.6032L38.1674 34.8771L38.5543 34.3569C38.6623 34.1902 38.8247 34.0662 39.0137 34.0059C39.0958 33.9872 39.1812 33.9878 39.263 34.0078C39.3448 34.0277 39.4209 34.0664 39.4852 34.1208C39.5559 34.166 39.6147 34.2275 39.6568 34.3001C39.6988 34.3728 39.7229 34.4544 39.727 34.5383C39.726 34.7386 39.653 34.932 39.5215 35.0829Z" fill="#1C1C1C"/>
<path d="M42.1148 32.3959L41.341 32.0147L41.9274 30.8046L41.6372 30.6654L41.0448 31.8695L40.3073 31.5125L40.9722 30.1571L40.67 30.0059L39.8418 31.7061L42.2478 32.8861L43.1001 31.1374L42.8039 30.9921L42.1148 32.3959Z" fill="#1C1C1C"/>
<path d="M41.9469 25.8853L43.5065 27.4161L41.4028 28.0393L41.3242 28.3419L43.9236 29.0014L44.0143 28.6444L42.1343 28.1664L43.9357 27.6218L43.978 27.4524L42.6421 26.1152L44.5342 26.5871L44.6249 26.2301L42.0255 25.5767L41.9469 25.8853Z" fill="#1C1C1C"/>
<path d="M44.8301 21.8252C44.7212 21.6115 44.5561 21.4316 44.3526 21.3049C44.1432 21.1765 43.9029 21.1074 43.6574 21.1052C43.4111 21.0929 43.1662 21.1495 42.9501 21.2685C42.7396 21.3834 42.5657 21.5554 42.4484 21.7647C42.319 21.9849 42.2501 22.2354 42.2489 22.4908C42.2406 22.7441 42.2946 22.9954 42.406 23.2229C42.5148 23.4383 42.6799 23.6203 42.8836 23.7494C43.0931 23.8783 43.333 23.9492 43.5788 23.9551C43.8257 23.9651 44.0705 23.9065 44.2861 23.7856C44.4957 23.6674 44.6708 23.4965 44.7939 23.2896C44.9179 23.0653 44.9844 22.8138 44.9873 22.5574C44.9979 22.304 44.9438 22.0519 44.8301 21.8252ZM44.4977 23.0838C44.4093 23.2377 44.2794 23.3636 44.1229 23.4469C43.9613 23.5343 43.7806 23.58 43.597 23.58C43.4133 23.58 43.2326 23.5343 43.071 23.4469C42.9166 23.3539 42.7911 23.2198 42.7083 23.0596C42.6217 22.8937 42.58 22.7081 42.5874 22.5211C42.5902 22.3353 42.6424 22.1535 42.7385 21.9946C42.8269 21.8407 42.9568 21.715 43.1133 21.6316C43.277 21.5454 43.4604 21.5036 43.6453 21.5105C43.8309 21.5133 44.0124 21.5655 44.1712 21.6618C44.3236 21.7527 44.4472 21.8849 44.5279 22.0431C44.6151 22.2065 44.6569 22.3903 44.6488 22.5755C44.6459 22.7631 44.5938 22.9468 44.4977 23.108" fill="#1C1C1C"/>
<path d="M41.8206 17.493L43.7853 17.13L42.1108 19.0783L42.1652 19.3869L44.8008 18.8968L44.7343 18.5217L42.7697 18.8847L44.4442 16.9424L44.3837 16.6338L41.748 17.1179L41.8206 17.493Z" fill="#1C1C1C"/>
<path d="M39.6671 11.2184L39.377 11.3757L40.2777 13.0457L42.6353 11.769L41.7104 10.0566L41.4142 10.214L42.1577 11.5936L41.396 12.005L40.7552 10.819L40.4711 10.9764L41.1119 12.1563L40.3865 12.5496L39.6671 11.2184Z" fill="#1C1C1C"/>
<path d="M37.8116 9.23373C37.9266 9.39315 38.0751 9.52528 38.2468 9.62092C38.3778 9.69299 38.5271 9.72452 38.676 9.71162C38.8134 9.70056 38.9442 9.64779 39.0508 9.56035C39.1702 9.47407 39.2541 9.34722 39.2866 9.20345C39.3169 9.07615 39.3169 8.94341 39.2866 8.81611C39.2324 8.65477 39.1677 8.49724 39.0931 8.34428C39.0266 8.19301 38.9722 8.07194 38.942 7.98723C38.9126 7.90381 38.9003 7.81537 38.9057 7.72708C38.9112 7.68647 38.9248 7.64733 38.9455 7.612C38.9663 7.57668 38.9939 7.54584 39.0266 7.5213C39.0734 7.48347 39.129 7.45802 39.1881 7.44744C39.2473 7.43686 39.3082 7.44144 39.3652 7.46073C39.5273 7.52521 39.6662 7.63695 39.7641 7.78144C39.8672 7.91201 39.9469 8.05937 39.9999 8.21709C40.0521 8.36043 40.0767 8.51235 40.0724 8.66484L40.3928 8.59231C40.4005 8.42079 40.3717 8.24954 40.3082 8.09004C40.2402 7.9039 40.1421 7.73024 40.018 7.57581C39.8984 7.42062 39.7508 7.28918 39.5828 7.18848C39.4501 7.11482 39.2989 7.08125 39.1475 7.09172C39.0099 7.102 38.879 7.15487 38.7727 7.24299C38.6568 7.3288 38.5753 7.45317 38.543 7.59383C38.5127 7.72113 38.5127 7.85387 38.543 7.98117C38.5948 8.14254 38.6574 8.30024 38.7304 8.45315C38.7888 8.56651 38.8393 8.68367 38.8815 8.804C38.9109 8.88742 38.9233 8.97601 38.9178 9.06429C38.9157 9.10595 38.9044 9.14655 38.8845 9.18321C38.8646 9.21987 38.8368 9.25155 38.803 9.27598C38.7568 9.31483 38.7015 9.34131 38.6423 9.35295C38.5831 9.36459 38.5219 9.36108 38.4644 9.3426C38.3022 9.28447 38.1626 9.17645 38.0655 9.03401C37.987 8.934 37.922 8.82413 37.872 8.70724C37.8249 8.58232 37.7925 8.45244 37.7753 8.32005L37.4609 8.41681C37.47 8.5617 37.5069 8.70344 37.5697 8.83428C37.629 8.97921 37.7106 9.11406 37.8116 9.23373Z" fill="#1C1C1C"/>
<path d="M12.3437 39.9875L11.1055 42.3643L11.4432 42.5405L12.6814 40.1638L12.3437 39.9875Z" fill="#1C1C1C"/>
<path d="M43.5792 13.9496L41.0586 14.855L41.1873 15.2139L43.7079 14.3085L43.5792 13.9496Z" fill="#1C1C1C"/>
<path d="M13.3535 39.3307C13.3269 39.3834 13.2898 39.4301 13.2446 39.4681C13.1993 39.506 13.1468 39.5343 13.0902 39.5512C13.0337 39.5682 12.9743 39.5736 12.9156 39.5669C12.857 39.5602 12.8003 39.5414 12.749 39.5121C12.6957 39.4861 12.6484 39.4493 12.61 39.4041C12.5716 39.3589 12.543 39.3063 12.5259 39.2494C12.5089 39.1926 12.5038 39.1327 12.511 39.0738C12.5182 39.0149 12.5375 38.9581 12.5677 38.907C12.5929 38.853 12.6293 38.8051 12.6744 38.7661C12.7195 38.7271 12.7723 38.698 12.8294 38.6808C12.8864 38.6637 12.9465 38.659 13.0055 38.6667C13.0646 38.6744 13.1214 38.6944 13.1722 38.7256C13.226 38.751 13.274 38.7874 13.313 38.8324C13.352 38.8774 13.3813 38.9299 13.3989 38.9868C13.4165 39.0437 13.4221 39.1037 13.4154 39.1629C13.4086 39.2221 13.3896 39.2792 13.3596 39.3307" fill="#1C1C1C"/>
<path d="M40.0613 15.0303C40.115 15.0068 40.1728 14.9945 40.2314 14.9941C40.29 14.9938 40.3479 15.0055 40.4018 15.0284C40.4557 15.0514 40.5044 15.0851 40.5447 15.1275C40.5851 15.17 40.6164 15.2203 40.6366 15.2753C40.6568 15.3303 40.6656 15.3888 40.6624 15.4474C40.6592 15.5059 40.6441 15.563 40.6179 15.6155C40.5918 15.6679 40.5552 15.7145 40.5105 15.7523C40.4657 15.79 40.4136 15.8183 40.3576 15.8351C40.3039 15.8587 40.2461 15.871 40.1875 15.8713C40.129 15.8717 40.071 15.86 40.0171 15.8371C39.9632 15.8141 39.9146 15.7804 39.8742 15.7379C39.8338 15.6955 39.8026 15.6452 39.7823 15.5902C39.7621 15.5352 39.7533 15.4768 39.7565 15.4183C39.7597 15.3597 39.7749 15.3025 39.801 15.25C39.8271 15.1976 39.8637 15.151 39.9085 15.1132C39.9533 15.0754 40.0053 15.0472 40.0613 15.0303Z" fill="#1C1C1C"/>
</svg>
