<svg width="18" height="22" viewBox="0 0 18 22" fill="none" xmlns="http://www.w3.org/2000/svg">
<path d="M8.9769 21.0855C10.5715 21.0855 11.8641 19.7929 11.8641 18.1983C11.8641 18.1713 11.8637 18.1443 11.863 18.1174C11.8566 17.8846 11.6546 17.7152 11.4217 17.7125L6.54364 17.6572C6.3107 17.6546 6.10494 17.8193 6.09333 18.052C6.09091 18.1005 6.08968 18.1492 6.08968 18.1983C6.08968 19.7929 7.38233 21.0855 8.9769 21.0855Z" fill="#B6CED0"/>
<path d="M2.24006 8.09304C2.24006 4.37239 5.25624 0.875 8.9769 0.875C12.6976 0.875 15.7137 4.37239 15.7137 8.09304V10.4612C15.7137 11.7096 16.2476 12.8984 17.1807 13.7278C18.1819 14.6178 17.5524 16.2735 16.2128 16.2735H1.74102C0.401429 16.2735 -0.228077 14.6178 0.773148 13.7278C1.70621 12.8984 2.24006 11.7096 2.24006 10.4612V8.09304Z" fill="#B6CED0"/>
</svg>
