<svg width="19" height="20" viewBox="0 0 19 20" fill="none" xmlns="http://www.w3.org/2000/svg">
<path d="M15.8586 5.16016V15.6102C15.8586 15.7361 15.8085 15.857 15.7195 15.9461C15.6304 16.0351 15.5096 16.0852 15.3836 16.0852H4.93359C4.93359 16.3371 5.03368 16.5787 5.21181 16.7569C5.39004 16.9351 5.63168 17.0352 5.88359 17.0352H15.3836C15.7616 17.0352 16.124 16.885 16.3913 16.6178C16.6585 16.3505 16.8086 15.9882 16.8086 15.6102V6.11016C16.8086 5.85824 16.7085 5.61659 16.5304 5.43837C16.3521 5.26025 16.1105 5.16016 15.8586 5.16016Z" fill="white"/>
<path d="M14.9086 13.7102V4.21016C14.9086 3.83216 14.7585 3.46978 14.4913 3.20248C14.224 2.93529 13.8616 2.78516 13.4836 2.78516H3.98359C3.6056 2.78516 3.24322 2.93529 2.97592 3.20248C2.70873 3.46977 2.55859 3.83216 2.55859 4.21016V13.7102C2.55859 14.0881 2.70873 14.4505 2.97592 14.7178C3.24321 14.985 3.6056 15.1352 3.98359 15.1352H13.4836C13.8616 15.1352 14.224 14.985 14.4913 14.7178C14.7585 14.4505 14.9086 14.0881 14.9086 13.7102ZM11.2462 8.62277L9.20849 10.6653L7.17076 8.62755C7.0817 8.53912 6.96136 8.4894 6.83582 8.4894C6.71039 8.4894 6.58994 8.53912 6.50099 8.62755L3.50849 11.6152V4.21005C3.50849 4.08409 3.55853 3.96322 3.64759 3.87415C3.73665 3.78509 3.85753 3.73505 3.98349 3.73505H13.4835C13.6094 3.73505 13.7303 3.78509 13.8194 3.87415C13.9084 3.96322 13.9585 4.08409 13.9585 4.21005V10.6652L11.9208 8.62744C11.8322 8.53689 11.7111 8.48547 11.5844 8.48452C11.4578 8.48367 11.336 8.53339 11.2462 8.62267V8.62277Z" fill="white"/>
<path d="M9.2082 5.16016C8.83021 5.16016 8.46783 5.31029 8.20052 5.57748C7.93334 5.84477 7.7832 6.20716 7.7832 6.58515C7.7832 6.96315 7.93334 7.32553 8.20052 7.59283C8.46782 7.86002 8.83021 8.01015 9.2082 8.01015C9.5862 8.01015 9.94858 7.86002 10.2159 7.59283C10.4831 7.32554 10.6332 6.96315 10.6332 6.58515C10.6332 6.20716 10.4831 5.84478 10.2159 5.57748C9.94859 5.31029 9.5862 5.16016 9.2082 5.16016ZM9.2082 7.06015C9.08224 7.06015 8.96137 7.01011 8.87231 6.92105C8.78325 6.83199 8.7332 6.71111 8.7332 6.58515C8.7332 6.4592 8.78325 6.33832 8.87231 6.24926C8.96137 6.1602 9.08224 6.11016 9.2082 6.11016C9.33416 6.11016 9.45504 6.1602 9.5441 6.24926C9.63316 6.33832 9.6832 6.4592 9.6832 6.58515C9.6832 6.71111 9.63316 6.83199 9.5441 6.92105C9.45504 7.01011 9.33416 7.06015 9.2082 7.06015Z" fill="white"/>
</svg>
