<svg width="62" height="85" viewBox="0 0 62 85" fill="none" xmlns="http://www.w3.org/2000/svg">
<path d="M8.56072 0C6.01473 0 3.93164 2.39062 3.93164 5.3125V79.6875C3.93164 82.6094 6.01473 85 8.56072 85H54.8515C57.3975 85 59.4806 82.6094 59.4806 79.6875V21.25L40.9643 0H8.56072Z" fill="#E2F3F2"/>
<path d="M45.8208 21H59.4803L41.2676 0V15.75C41.2676 18.6375 43.3165 21 45.8208 21Z" fill="#62CBC9"/>
<path d="M59.4799 37L45.8203 21H59.4799V37Z" fill="#62CBC9"/>
<path d="M61.3018 68.4167C61.3018 69.8375 60.1579 71 58.7597 71H2.83126C1.43305 71 0.289062 69.8375 0.289062 68.4167V42.5833C0.289062 41.1625 1.43305 40 2.83126 40H58.7597C60.1579 40 61.3018 41.1625 61.3018 42.5833V68.4167Z" fill="#62CBC9"/>
<path opacity="0.2" d="M57.5682 70.5H3.93161V73H57.5682C59.1209 73 60.3912 71.875 60.3912 70.5V68C60.3912 69.375 59.1209 70.5 57.5682 70.5Z" fill="#62CBC9"/>
<path d="M12.2553 60.136C13.1733 60.136 13.9043 59.439 13.9043 58.47C13.9043 57.484 13.1733 56.838 12.2553 56.838C11.3373 56.838 10.6063 57.484 10.6063 58.47C10.6063 59.439 11.3373 60.136 12.2553 60.136ZM21.1075 50.718C19.8835 50.718 18.8975 51.109 18.2345 51.908V50.854H15.7015V63.298H18.3535V59.031C19.0335 59.779 19.9685 60.136 21.1075 60.136C23.6745 60.136 25.6635 58.3 25.6635 55.427C25.6635 52.554 23.6745 50.718 21.1075 50.718ZM20.6485 57.96C19.3225 57.96 18.3195 57.008 18.3195 55.427C18.3195 53.846 19.3225 52.894 20.6485 52.894C21.9745 52.894 22.9775 53.846 22.9775 55.427C22.9775 57.008 21.9745 57.96 20.6485 57.96ZM32.9978 50.718C31.7568 50.718 30.6858 51.143 29.9718 51.925V50.854H27.4388V60H30.0908V55.478C30.0908 53.795 31.0088 53.013 32.2838 53.013C33.4568 53.013 34.1368 53.693 34.1368 55.172V60H36.7888V54.764C36.7888 51.976 35.1568 50.718 32.9978 50.718ZM46.2114 50.854V52.027C45.5144 51.143 44.4604 50.718 43.1854 50.718C40.6524 50.718 38.6124 52.469 38.6124 55.138C38.6124 57.807 40.6524 59.558 43.1854 59.558C44.3754 59.558 45.3784 59.184 46.0754 58.419V58.81C46.0754 60.459 45.2594 61.309 43.3894 61.309C42.2164 61.309 40.9414 60.901 40.1594 60.272L39.1054 62.176C40.1764 63.009 41.8594 63.434 43.5934 63.434C46.8914 63.434 48.7274 61.87 48.7274 58.47V50.854H46.2114ZM43.7124 57.382C42.3184 57.382 41.2984 56.481 41.2984 55.138C41.2984 53.795 42.3184 52.894 43.7124 52.894C45.1064 52.894 46.1094 53.795 46.1094 55.138C46.1094 56.481 45.1064 57.382 43.7124 57.382Z" fill="white"/>
</svg>
