<svg width="21" height="20" viewBox="0 0 21 20" fill="none" xmlns="http://www.w3.org/2000/svg">
<path d="M17.6429 1.42857C17.6429 0.64 17.0029 0 16.2143 0H4.78571C3.99714 0 3.35714 0.64 3.35714 1.42857V2.85714H17.6429V1.42857Z" fill="white"/>
<path d="M19.0714 4.28571H1.92857C1.14 4.28571 0.5 4.92571 0.5 5.71429V14.2857C0.5 15.0743 1.14 15.7143 1.92857 15.7143H3.35714V18.5714C3.35714 19.36 3.99714 20 4.78571 20H16.2143C17.0029 20 17.6429 19.36 17.6429 18.5714V15.7143H19.0714C19.86 15.7143 20.5 15.0743 20.5 14.2857V5.71429C20.5 4.92571 19.86 4.28571 19.0714 4.28571ZM16.2143 18.5714H4.78571V11.4286H16.2143V18.5714ZM17.6429 8.57143H14.7857V7.14286H17.6429V8.57143Z" fill="white"/>
<path d="M10.5 15.7143H6.21429V17.1429H10.5V15.7143Z" fill="white"/>
<path d="M14.7857 12.8571H6.21429V14.2857H14.7857V12.8571Z" fill="white"/>
</svg>
