<svg width="30" height="30" viewBox="0 0 30 30" fill="none" xmlns="http://www.w3.org/2000/svg">
<path d="M24.6856 20.71C24.6856 21.5383 24.0139 22.21 23.1855 22.21C22.3572 22.21 21.6855 21.5383 21.6855 20.71C21.6855 19.8816 22.3572 19.21 23.1855 19.21C24.0139 19.21 24.6856 19.8816 24.6856 20.71Z" fill="#62CBC9"/>
<path d="M25.8105 24.835C25.8105 23.3852 24.6353 22.21 23.1855 22.21C21.7358 22.21 20.5605 23.3852 20.5605 24.835V26.335H25.8105V24.835Z" fill="#62CBC9"/>
<path d="M8.18555 20.71C8.18555 21.5383 7.51389 22.21 6.68555 22.21C5.8572 22.21 5.18555 21.5383 5.18555 20.71C5.18555 19.8816 5.8572 19.21 6.68555 19.21C7.51389 19.21 8.18555 19.8816 8.18555 20.71Z" fill="#62CBC9"/>
<path d="M4.06055 24.835V26.335H9.31055V24.835C9.31055 23.3852 8.13532 22.21 6.68555 22.21C5.23578 22.21 4.06055 23.3852 4.06055 24.835Z" fill="#62CBC9"/>
<path d="M16.4356 20.71C16.4356 21.5383 15.7639 22.21 14.9355 22.21C14.1072 22.21 13.4355 21.5383 13.4355 20.71C13.4355 19.8816 14.1072 19.21 14.9355 19.21C15.7639 19.21 16.4356 19.8816 16.4356 20.71Z" fill="#62CBC9"/>
<path d="M12.3105 24.835V26.335H17.5606V24.835C17.5606 23.3852 16.3853 22.21 14.9356 22.21C13.4858 22.21 12.3105 23.3852 12.3105 24.835Z" fill="#62CBC9"/>
<path d="M19.4434 6.16814L17.8523 4.57707L17.4162 5.01318C17.2988 5.13054 17.1204 5.15197 16.9722 5.07663C16.7666 4.972 16.5519 4.88311 16.3295 4.81078C16.1715 4.75939 16.0605 4.61826 16.0605 4.45219V3.83496H13.8105V4.45219C13.8105 4.61826 13.6995 4.75939 13.5413 4.81062C13.319 4.88294 13.1044 4.97183 12.8986 5.07646C12.7505 5.1518 12.5723 5.13054 12.4547 5.01301L12.0186 4.5769L10.4275 6.16797L10.8636 6.60409C10.981 6.72144 11.0024 6.8999 10.9271 7.04804C10.8224 7.25362 10.7335 7.46841 10.6612 7.69073C10.61 7.84893 10.4688 7.95992 10.3028 7.95992H9.68555V10.2099H10.3028C10.4688 10.2099 10.61 10.3209 10.6612 10.4791C10.7335 10.7014 10.8224 10.916 10.9271 11.1215C11.0024 11.2696 10.9811 11.4477 10.8636 11.5654L10.4275 12.0015L12.0186 13.5926L12.4547 13.1565C12.572 13.0391 12.7505 13.0177 12.8986 13.093C13.1042 13.1977 13.319 13.2866 13.541 13.3589C13.6995 13.4104 13.8105 13.5516 13.8105 13.7176V14.3349H16.0605V13.7176C16.0605 13.5516 16.1715 13.4104 16.3297 13.3592C16.552 13.2869 16.7666 13.198 16.972 13.0934C17.1202 13.018 17.2983 13.0393 17.416 13.1568L17.8521 13.5929L19.4432 12.0019L19.0071 11.5658C18.8897 11.4484 18.8683 11.2699 18.9436 11.1218C19.0483 10.9162 19.1371 10.7018 19.2095 10.4795C19.261 10.3209 19.4022 10.2099 19.5682 10.2099H20.1855V7.95992H19.5682C19.4022 7.95992 19.261 7.84893 19.2098 7.69072C19.1375 7.4684 19.0486 7.2538 18.944 7.04804C18.8686 6.89988 18.8899 6.72175 19.0074 6.60408L19.4434 6.16814ZM14.9357 12.085C13.279 12.085 11.9357 10.7417 11.9357 9.085C11.9357 7.42831 13.279 6.085 14.9357 6.085C16.5923 6.085 17.9357 7.42831 17.9357 9.085C17.9357 10.7417 16.5923 12.085 14.9357 12.085Z" fill="#62CBC9"/>
<path d="M14.1855 10.585L16.4355 9.08496L14.1855 7.58496V10.585Z" fill="#62CBC9"/>
<path d="M14.5605 16.96H15.3105V17.71H14.5605V16.96Z" fill="#62CBC9"/>
<path d="M14.5605 15.46H15.3105V16.21H14.5605V15.46Z" fill="#62CBC9"/>
<path d="M7.81055 8.70996H8.56055V9.45996H7.81055V8.70996Z" fill="#62CBC9"/>
<path d="M6.31055 8.70996H7.06055V9.45996H6.31055V8.70996Z" fill="#62CBC9"/>
<path d="M6.31055 10.21H7.06055V10.96H6.31055V10.21Z" fill="#62CBC9"/>
<path d="M6.31055 11.71H7.06055V12.46H6.31055V11.71Z" fill="#62CBC9"/>
<path d="M6.31055 13.21H7.06055V13.96H6.31055V13.21Z" fill="#62CBC9"/>
<path d="M6.31055 14.71H7.06055V15.46H6.31055V14.71Z" fill="#62CBC9"/>
<path d="M6.31055 16.21H7.06055V16.96H6.31055V16.21Z" fill="#62CBC9"/>
<path d="M21.3105 8.70996H22.0605V9.45996H21.3105V8.70996Z" fill="#62CBC9"/>
<path d="M22.8105 8.70996H23.5605V9.45996H22.8105V8.70996Z" fill="#62CBC9"/>
<path d="M22.8105 10.21H23.5605V10.96H22.8105V10.21Z" fill="#62CBC9"/>
<path d="M22.8105 11.71H23.5605V12.46H22.8105V11.71Z" fill="#62CBC9"/>
<path d="M22.8105 13.21H23.5605V13.96H22.8105V13.21Z" fill="#62CBC9"/>
<path d="M22.8105 14.71H23.5605V15.46H22.8105V14.71Z" fill="#62CBC9"/>
<path d="M22.8105 16.21H23.5605V16.96H22.8105V16.21Z" fill="#62CBC9"/>
</svg>
