<svg width="18" height="25" viewBox="0 0 18 25" fill="none" xmlns="http://www.w3.org/2000/svg">
<path d="M1.02237 0.910229C0.822476 0.909392 0.630626 0.988576 0.489181 1.12987C0.347885 1.27133 0.268702 1.46318 0.269538 1.66306V24.1631C0.270375 24.3621 0.350062 24.5525 0.491358 24.6926C0.632486 24.8327 0.823501 24.911 1.0224 24.9102H17.1123C17.3101 24.9094 17.4996 24.8305 17.6396 24.6905C17.7796 24.5506 17.8584 24.3611 17.8592 24.163V1.66302C17.8601 1.46414 17.7817 1.27312 17.6416 1.13198C17.5015 0.990681 17.3111 0.910996 17.1122 0.910156L1.02237 0.910229ZM10.3622 3.66414C10.539 3.66665 10.7093 3.73144 10.843 3.84746C10.9766 3.9633 11.065 4.12268 11.0926 4.29746C11.1201 4.47206 11.0851 4.65103 10.9935 4.80236L8.43599 9.23636H8.43582C8.33806 9.41281 8.17333 9.54238 7.97897 9.59612C7.7846 9.65003 7.57668 9.62341 7.40207 9.52229C7.22746 9.42117 7.1009 9.25427 7.05067 9.05892C7.00045 8.86355 7.03092 8.65613 7.13505 8.48352L9.69859 4.04952V4.04935C9.81913 3.83272 10.0389 3.68959 10.2859 3.66715C10.3113 3.66481 10.3368 3.66397 10.3622 3.66431L10.3622 3.66414ZM7.19949 4.32624C7.47103 4.32624 7.73152 4.43422 7.92356 4.62624C8.11558 4.81826 8.2234 5.0786 8.2234 5.35014C8.2234 5.62168 8.11558 5.88217 7.92356 6.07421C7.73154 6.26624 7.47103 6.37405 7.19949 6.37405C6.92795 6.37405 6.66746 6.26624 6.47559 6.07421C6.28357 5.88219 6.17559 5.62169 6.17559 5.35014C6.17559 5.0786 6.28357 4.81829 6.47559 4.62624C6.66745 4.43422 6.92795 4.32624 7.19949 4.32624ZM10.9334 7.01133C11.205 7.01133 11.4654 7.11914 11.6575 7.31116C11.8495 7.50318 11.9573 7.76369 11.9573 8.03523C11.9573 8.30678 11.8495 8.56726 11.6575 8.7593C11.4655 8.95133 11.205 9.05914 10.9334 9.05914C10.6619 9.05914 10.4014 8.95133 10.2093 8.7593C10.0173 8.56728 9.90951 8.30678 9.90951 8.03523C9.90951 7.76369 10.0173 7.5032 10.2093 7.31116C10.4014 7.11912 10.6619 7.01133 10.9334 7.01133ZM13.5013 12.5C13.7 12.5109 13.8864 12.6003 14.0191 12.7485C14.1521 12.8966 14.2205 13.0917 14.2096 13.2904C14.1988 13.4891 14.1094 13.6753 13.9612 13.8082C13.8129 13.941 13.618 14.0094 13.4193 13.9986H4.715C4.45802 13.9952 4.22064 13.8603 4.08602 13.6413C3.95141 13.4223 3.93837 13.1498 4.05137 12.9188C4.16437 12.6879 4.3877 12.5311 4.64331 12.5029C4.66709 12.5019 4.69103 12.5019 4.71497 12.5029H13.4192C13.4465 12.5006 13.4738 12.4996 13.5013 12.5002L13.5013 12.5ZM4.71519 16.2794H13.4195H13.4193C13.621 16.2748 13.8162 16.3518 13.9605 16.493C14.1049 16.6341 14.1862 16.8275 14.1862 17.0294C14.1862 17.2313 14.1049 17.4246 13.9605 17.5658C13.8162 17.7069 13.621 17.7839 13.4193 17.7794H4.71503C4.5133 17.7839 4.3181 17.7069 4.17378 17.5658C4.02947 17.4246 3.94811 17.2313 3.94811 17.0294C3.94811 16.8275 4.02947 16.6341 4.17378 16.493C4.31809 16.3518 4.51329 16.2748 4.71503 16.2794H4.71519ZM13.5013 20.0571C13.769 20.0719 14.0084 20.2282 14.1296 20.4673C14.2507 20.7065 14.2351 20.9921 14.0886 21.2166C13.9419 21.4411 13.687 21.5703 13.4193 21.5558H4.71502C4.45804 21.5523 4.22066 21.4175 4.08605 21.1985C3.95145 20.9794 3.93839 20.7068 4.05139 20.476C4.1644 20.2451 4.38773 20.0881 4.64334 20.0601C4.66711 20.059 4.69105 20.059 4.71499 20.0601H13.4193C13.4466 20.0576 13.4738 20.0568 13.5013 20.0573L13.5013 20.0571Z" fill="#62CBC9"/>
</svg>
