<svg width="30" height="30" viewBox="0 0 30 30" fill="none" xmlns="http://www.w3.org/2000/svg">
<path d="M7.02237 2.91023C6.82248 2.90939 6.63063 2.98858 6.48918 3.12987C6.34788 3.27133 6.2687 3.46318 6.26954 3.66306V26.1631C6.27037 26.3621 6.35006 26.5525 6.49136 26.6926C6.63249 26.8327 6.8235 26.911 7.0224 26.9102H23.1123C23.3101 26.9094 23.4996 26.8305 23.6396 26.6905C23.7796 26.5506 23.8584 26.3611 23.8592 26.163V3.66302C23.8601 3.46414 23.7817 3.27312 23.6416 3.13198C23.5015 2.99068 23.3111 2.911 23.1122 2.91016L7.02237 2.91023ZM16.3622 5.66414C16.539 5.66665 16.7093 5.73144 16.843 5.84746C16.9766 5.9633 17.065 6.12268 17.0926 6.29746C17.1201 6.47206 17.0851 6.65103 16.9935 6.80236L14.436 11.2364H14.4358C14.3381 11.4128 14.1733 11.5424 13.979 11.5961C13.7846 11.65 13.5767 11.6234 13.4021 11.5223C13.2275 11.4212 13.1009 11.2543 13.0507 11.0589C13.0004 10.8635 13.0309 10.6561 13.1351 10.4835L15.6986 6.04952V6.04935C15.8191 5.83272 16.0389 5.68959 16.2859 5.66715C16.3113 5.66481 16.3368 5.66397 16.3622 5.66431L16.3622 5.66414ZM13.1995 6.32624C13.471 6.32624 13.7315 6.43422 13.9236 6.62624C14.1156 6.81826 14.2234 7.0786 14.2234 7.35014C14.2234 7.62168 14.1156 7.88217 13.9236 8.07421C13.7315 8.26624 13.471 8.37405 13.1995 8.37405C12.928 8.37405 12.6675 8.26624 12.4756 8.07421C12.2836 7.88219 12.1756 7.62169 12.1756 7.35014C12.1756 7.0786 12.2836 6.81829 12.4756 6.62624C12.6674 6.43422 12.9279 6.32624 13.1995 6.32624ZM16.9334 9.01133C17.205 9.01133 17.4654 9.11914 17.6575 9.31116C17.8495 9.50318 17.9573 9.76369 17.9573 10.0352C17.9573 10.3068 17.8495 10.5673 17.6575 10.7593C17.4655 10.9513 17.205 11.0591 16.9334 11.0591C16.6619 11.0591 16.4014 10.9513 16.2093 10.7593C16.0173 10.5673 15.9095 10.3068 15.9095 10.0352C15.9095 9.76369 16.0173 9.5032 16.2093 9.31116C16.4014 9.11912 16.6619 9.01133 16.9334 9.01133ZM19.5013 14.5C19.7 14.5109 19.8864 14.6003 20.0191 14.7485C20.1521 14.8966 20.2205 15.0917 20.2096 15.2904C20.1988 15.4891 20.1094 15.6753 19.9612 15.8082C19.8129 15.941 19.618 16.0094 19.4193 15.9986H10.715C10.458 15.9952 10.2206 15.8603 10.086 15.6413C9.95141 15.4223 9.93837 15.1498 10.0514 14.9188C10.1644 14.6879 10.3877 14.5311 10.6433 14.5029C10.6671 14.5019 10.691 14.5019 10.715 14.5029H19.4192C19.4465 14.5006 19.4738 14.4996 19.5013 14.5002L19.5013 14.5ZM10.7152 18.2794H19.4195H19.4193C19.621 18.2748 19.8162 18.3518 19.9605 18.493C20.1049 18.6341 20.1862 18.8275 20.1862 19.0294C20.1862 19.2313 20.1049 19.4246 19.9605 19.5658C19.8162 19.7069 19.621 19.7839 19.4193 19.7794H10.715C10.5133 19.7839 10.3181 19.7069 10.1738 19.5658C10.0295 19.4246 9.94811 19.2313 9.94811 19.0294C9.94811 18.8275 10.0295 18.6341 10.1738 18.493C10.3181 18.3518 10.5133 18.2748 10.715 18.2794H10.7152ZM19.5013 22.0571C19.769 22.0719 20.0084 22.2282 20.1296 22.4673C20.2507 22.7065 20.2351 22.9921 20.0886 23.2166C19.9419 23.4411 19.687 23.5703 19.4193 23.5558H10.715C10.458 23.5523 10.2207 23.4175 10.086 23.1985C9.95145 22.9794 9.93839 22.7068 10.0514 22.476C10.1644 22.2451 10.3877 22.0881 10.6433 22.0601C10.6671 22.059 10.6911 22.059 10.715 22.0601H19.4193C19.4466 22.0576 19.4738 22.0568 19.5013 22.0573L19.5013 22.0571Z" fill="#62CBC9"/>
</svg>
