<svg width="20" height="20" viewBox="0 0 20 20" fill="none" xmlns="http://www.w3.org/2000/svg">
<path d="M7.02965 8.00009C5.98102 8.00009 4.97534 7.57866 4.23384 6.82852C3.49235 6.07838 3.07578 5.06098 3.07578 4.00012C3.07578 2.93926 3.49235 1.92185 4.23384 1.17171C4.97534 0.421571 5.98102 0.000147019 7.02965 0.000147019C8.07829 0.000147019 9.08397 0.421571 9.82546 1.17171C10.567 1.92185 10.9835 2.93926 10.9835 4.00012C10.9835 5.06098 10.567 6.07838 9.82546 6.82852C9.08397 7.57866 8.07829 8.00009 7.02965 8.00009ZM7.02965 9.00008C9.15486 9.00008 11.1812 9.40008 13.0593 10.0901L11.972 16H10.7364L9.99506 20H4.06425L3.3229 16H2.08731L1 10.0901C2.93212 9.37547 4.97247 9.00664 7.02965 9.00008ZM15.2438 9.17008C16.5486 9.35008 17.804 9.65008 19 10.0901L17.9028 16H16.6672L15.9259 20H12.0115L12.3773 18H13.6128L15.2438 9.17008ZM12.9605 0.000147019C13.5391 -0.00487143 14.1117 0.118645 14.638 0.361978C15.1642 0.605311 15.6313 0.96253 16.0062 1.40842C16.381 1.85432 16.6546 2.37801 16.8076 2.94256C16.9605 3.5071 16.9892 4.09873 16.8914 4.67568C16.7937 5.25263 16.5719 5.80085 16.2419 6.28164C15.9118 6.76244 15.4815 7.16408 14.9812 7.45823C14.481 7.75239 13.923 7.93187 13.3467 7.98403C12.7703 8.03619 12.1897 7.95974 11.6458 7.76009C12.4999 6.69746 12.9661 5.36968 12.9661 4.00012C12.9661 2.63055 12.4999 1.30277 11.6458 0.240145C12.0708 0.100146 12.4959 0.000147019 12.9605 0.000147019Z" fill="#62CBC9"/>
</svg>
