<svg width="57" height="33" viewBox="0 0 57 33" fill="none" xmlns="http://www.w3.org/2000/svg">
<g clip-path="url(#clip0_37_1713)">
<path d="M48.8231 15.7786C48.8231 15.5529 48.8579 15.3272 48.8579 15.0956C48.858 13.3194 48.3758 11.578 47.465 10.0653C46.5542 8.55259 45.2506 7.32794 43.6993 6.52768C42.148 5.72742 40.4099 5.38295 38.6784 5.53263C36.9469 5.6823 35.29 6.32024 33.8922 7.37543C32.5653 4.82861 30.4444 2.80765 27.8659 1.63318C25.2875 0.458702 22.3993 0.197968 19.6594 0.892345C16.9195 1.58672 14.4849 3.19644 12.7418 5.46612C10.9988 7.73581 10.0471 10.5355 10.0377 13.4209C10.0377 13.4685 10.0377 13.51 10.0377 13.5575C9.83437 13.5575 9.63103 13.5278 9.45674 13.5278C7.01764 13.5418 4.67936 14.5244 2.93583 16.268C1.1923 18.0116 0.180059 20.3796 0.112939 22.872C0.0458178 25.3643 0.929077 27.7857 2.57613 29.6247C4.22318 31.4637 6.50502 32.5763 8.93967 32.7274H9.17207H9.45674H9.74723H23.9286V23.5107H17.1371L28.0767 12.3282L39.0164 23.5107H32.2539V32.7393H47.359C47.4985 32.7393 47.6321 32.7393 47.7773 32.7393C49.9059 32.7516 51.9583 31.9307 53.5133 30.445C55.0684 28.9593 56.0082 26.9215 56.1397 24.7498C56.2713 22.5782 55.5847 20.4374 54.2209 18.7669C52.857 17.0964 50.9194 16.0229 48.8056 15.7667L48.8231 15.7786Z" fill="#62CBC9"/>
</g>
<defs>
<clipPath id="clip0_37_1713">
<rect width="56.1098" height="32.2824" fill="white" transform="translate(0.0234375 0.474609)"/>
</clipPath>
</defs>
</svg>
