<svg width="13" height="14" viewBox="0 0 13 14" fill="none" xmlns="http://www.w3.org/2000/svg">
<path d="M6.5 0.430664C5.21442 0.430664 3.95772 0.811882 2.8888 1.52611C1.81988 2.24034 0.986755 3.2555 0.494786 4.44322C0.00281632 5.63094 -0.125905 6.93787 0.124899 8.19875C0.375702 9.45963 0.994767 10.6178 1.90381 11.5269C2.81285 12.4359 3.97104 13.055 5.23191 13.3058C6.49279 13.5566 7.79972 13.4278 8.98744 12.9359C10.1752 12.4439 11.1903 11.6108 11.9046 10.5419C12.6188 9.47295 13 8.21624 13 6.93066C12.9967 5.20776 12.3109 3.55636 11.0926 2.33808C9.8743 1.11981 8.2229 0.433936 6.5 0.430664V0.430664ZM8.63572 8.19971C8.72512 8.31892 8.76853 8.46638 8.75797 8.61502C8.7474 8.76366 8.68358 8.9035 8.57821 9.00887C8.47284 9.11424 8.333 9.17806 8.18436 9.18863C8.03572 9.19919 7.88826 9.15578 7.76905 9.06638L6.5 7.79578L5.23095 9.06638C5.11174 9.15578 4.96428 9.19919 4.81564 9.18863C4.667 9.17806 4.52716 9.11424 4.42179 9.00887C4.31642 8.9035 4.2526 8.76366 4.24204 8.61502C4.23147 8.46638 4.27488 8.31892 4.36429 8.19971L5.63488 6.93066L4.36429 5.66162C4.27488 5.5424 4.23147 5.39494 4.24204 5.2463C4.2526 5.09766 4.31642 4.95782 4.42179 4.85245C4.52716 4.74708 4.667 4.68326 4.81564 4.6727C4.96428 4.66213 5.11174 4.70554 5.23095 4.79495L6.5 6.06554L7.76905 4.79495C7.88826 4.70554 8.03572 4.66213 8.18436 4.6727C8.333 4.68326 8.47284 4.74708 8.57821 4.85245C8.68358 4.95782 8.7474 5.09766 8.75797 5.2463C8.76853 5.39494 8.72512 5.5424 8.63572 5.66162L7.36512 6.93066L8.63572 8.19971Z" fill="#FF4545"/>
</svg>
