<svg width="13" height="14" viewBox="0 0 13 14" fill="none" xmlns="http://www.w3.org/2000/svg">
<path d="M6.5 13.4307C10.0884 13.4307 13 10.519 13 6.93066C13 3.34229 10.0884 0.430664 6.5 0.430664C2.91162 0.430664 0 3.34229 0 6.93066C0 10.519 2.91162 13.4307 6.5 13.4307Z" fill="#E83927"/>
<path d="M5.74677 9.32038C5.74677 9.75817 6.08565 10.1051 6.50334 10.1051C6.92103 10.1051 7.25203 9.75817 7.25203 9.32038C7.25203 8.88259 6.92103 8.5274 6.50334 8.5274C6.08565 8.5274 5.74677 8.88259 5.74677 9.32038Z" fill="white"/>
<path d="M5.99896 7.21401C6.03049 7.50312 6.22751 7.74267 6.50334 7.74267C6.77918 7.74267 6.9762 7.50312 6.99984 7.21401L7.25203 4.84332C7.29932 4.43857 6.88951 4.05859 6.50334 4.05859C6.11718 4.05859 5.70737 4.43857 5.74677 4.84332L5.99896 7.21401Z" fill="white"/>
</svg>
