<svg width="14" height="14" viewBox="0 0 14 14" fill="none" xmlns="http://www.w3.org/2000/svg">
<path d="M7 13.4307C10.5884 13.4307 13.5 10.519 13.5 6.93066C13.5 3.34229 10.5884 0.430664 7 0.430664C3.41162 0.430664 0.5 3.34229 0.5 6.93066C0.5 10.519 3.41162 13.4307 7 13.4307Z" fill="#FFB800"/>
<path d="M6.24677 9.32038C6.24677 9.75817 6.58565 10.1051 7.00334 10.1051C7.42103 10.1051 7.75203 9.75817 7.75203 9.32038C7.75203 8.88259 7.42103 8.5274 7.00334 8.5274C6.58565 8.5274 6.24677 8.88259 6.24677 9.32038Z" fill="white"/>
<path d="M6.49896 7.21401C6.53049 7.50312 6.72751 7.74267 7.00334 7.74267C7.27918 7.74267 7.4762 7.50312 7.49984 7.21401L7.75203 4.84332C7.79932 4.43857 7.38951 4.05859 7.00334 4.05859C6.61718 4.05859 6.20737 4.43857 6.24677 4.84332L6.49896 7.21401Z" fill="white"/>
</svg>
