<svg width="13" height="14" viewBox="0 0 13 14" fill="none" xmlns="http://www.w3.org/2000/svg">
<path d="M6.5 13.4307C10.0884 13.4307 13 10.519 13 6.93066C13 3.34229 10.0884 0.430664 6.5 0.430664C2.91162 0.430664 0 3.34229 0 6.93066C0 10.519 2.91162 13.4307 6.5 13.4307Z" fill="#62CBC9"/>
<path d="M9.20096 4.8284C8.97766 4.63137 8.57507 4.58577 8.35786 4.8284C7.48948 5.7984 6.62108 6.7684 5.7527 7.73839C5.3812 7.30296 5.0097 6.86751 4.6382 6.43207C4.43962 6.19932 3.99824 6.21938 3.79509 6.43207C3.55889 6.67938 3.58326 6.99413 3.79509 7.24241C4.30372 7.83859 4.81236 8.43477 5.32099 9.03095C5.51506 9.25842 5.96906 9.24881 6.16411 9.03095C7.05056 8.04077 7.93702 7.05059 8.82348 6.0604C8.9493 5.91985 9.07514 5.77929 9.20096 5.63874C9.4042 5.41173 9.45036 5.04843 9.20096 4.8284Z" fill="white"/>
</svg>
