<svg width="22" height="22" viewBox="0 0 22 22" fill="none" xmlns="http://www.w3.org/2000/svg">
<path fill-rule="evenodd" clip-rule="evenodd" d="M16.023 1.98504H14.8829V3.76871C14.8829 4.4968 14.2933 5.08685 13.5652 5.08685C12.8371 5.08685 12.2474 4.4964 12.2474 3.76871V1.98504H7.11921V3.76871C7.11921 4.4968 6.52996 5.08685 5.80186 5.08685C5.07377 5.08685 4.48412 4.4964 4.48412 3.76871V1.98504H3.3441C1.92801 1.98504 0.779785 3.13311 0.779785 4.54935V17.869C0.779785 19.2855 1.92786 20.4329 3.3441 20.4329L13 20.4327C12.0232 19.3887 11.4242 17.9869 11.4242 16.4443C11.4242 13.2185 14.0389 10.6033 17.2646 10.6033C17.7202 10.6033 18.1622 10.6573 18.5877 10.7558L18.5873 4.54895C18.5873 3.13306 17.4396 1.98499 16.0232 1.98499L16.023 1.98504ZM8.25852 16.141H2.77442C2.4399 16.141 2.1687 15.8698 2.1687 15.5353C2.1687 15.2007 2.43949 14.9296 2.77442 14.9296H8.25852C8.59304 14.9296 8.86424 15.2007 8.86424 15.5353C8.86444 15.8698 8.59326 16.141 8.25852 16.141ZM8.25852 12.2417H2.77442C2.4399 12.2417 2.1687 11.9705 2.1687 11.636C2.1687 11.3015 2.43949 11.0303 2.77442 11.0303H8.25852C8.59304 11.0303 8.86424 11.3015 8.86424 11.636C8.86444 11.9705 8.59326 12.2417 8.25852 12.2417ZM16.5925 8.07436H2.77442C2.4399 8.07436 2.1687 7.80396 2.1687 7.46864C2.1687 7.13431 2.43949 6.86352 2.77442 6.86352H16.5925C16.9269 6.86352 17.1983 7.13391 17.1983 7.46864C17.1984 7.80355 16.9273 8.07436 16.5925 8.07436Z" fill="white"/>
<path fill-rule="evenodd" clip-rule="evenodd" d="M6.586 3.51612C6.586 3.94878 6.23486 4.29992 5.8022 4.29992C5.36992 4.29992 5.0188 3.94917 5.0188 3.51612V0.881026C5.0188 0.448359 5.36994 0.0976257 5.8022 0.0976257C6.23487 0.0976257 6.586 0.448374 6.586 0.881026V3.51612Z" fill="white"/>
<path fill-rule="evenodd" clip-rule="evenodd" d="M14.3492 3.51612C14.3492 3.94878 13.9984 4.29992 13.5658 4.29992C13.1331 4.29992 12.7827 3.94917 12.7827 3.51612V0.881026C12.7827 0.448359 13.1331 0.0976257 13.5658 0.0976257C13.9984 0.0976257 14.3492 0.448374 14.3492 0.881026V3.51612Z" fill="white"/>
<path fill-rule="evenodd" clip-rule="evenodd" d="M17.2642 11.7901C14.694 11.7901 12.6108 13.874 12.6108 16.4442C12.6108 19.0141 14.694 21.0976 17.2642 21.0976C19.8345 21.0976 21.918 19.0141 21.918 16.4442C21.9184 13.8742 19.8344 11.7901 17.2642 11.7901ZM19.0465 17.3397H16.9045C16.8333 17.3397 16.7657 17.3255 16.7041 17.3004C16.7015 17.2991 16.6984 17.2991 16.6961 17.2977C16.6687 17.2862 16.6431 17.2711 16.6179 17.2553C16.6134 17.2527 16.6091 17.251 16.605 17.2482C16.5874 17.2363 16.5713 17.2213 16.5553 17.207C16.5459 17.199 16.5346 17.1923 16.5258 17.1831C16.5166 17.1739 16.5097 17.1628 16.5015 17.1534C16.4874 17.1374 16.4724 17.1216 16.4605 17.1038C16.4577 17.0998 16.4562 17.0957 16.4534 17.0911C16.4374 17.0662 16.4225 17.0402 16.411 17.0127C16.4096 17.0101 16.4092 17.007 16.4083 17.005C16.3834 16.9427 16.369 16.8758 16.369 16.8046V14.6626C16.369 14.367 16.6087 14.1273 16.9043 14.1273C17.1999 14.1273 17.4396 14.3674 17.4396 14.6626V16.2693H19.0463C19.3419 16.2693 19.5816 16.509 19.5816 16.8046C19.5818 17.1 19.3421 17.3397 19.0465 17.3397L19.0465 17.3397Z" fill="white"/>
</svg>
