<svg width="21" height="20" viewBox="0 0 21 20" fill="none" xmlns="http://www.w3.org/2000/svg">
<path fill-rule="evenodd" clip-rule="evenodd" d="M13.3819 5.16214H12.7385V6.16877C12.7385 6.57967 12.4057 6.91267 11.9948 6.91267C11.5839 6.91267 11.2512 6.57945 11.2512 6.16877V5.16214H8.357V6.16877C8.357 6.57967 8.02445 6.91267 7.61355 6.91267C7.20264 6.91267 6.86987 6.57945 6.86987 6.16877V5.16214H6.22649C5.42731 5.16214 4.7793 5.81006 4.7793 6.60933V14.1264C4.7793 14.9258 5.42722 15.5734 6.22649 15.5734L11.6759 15.5732C11.1246 14.984 10.7865 14.1929 10.7865 13.3223C10.7865 11.5018 12.2622 10.0259 14.0826 10.0259C14.3397 10.0259 14.5892 10.0564 14.8293 10.112L14.8291 6.60911C14.8291 5.81003 14.1814 5.16211 13.382 5.16211L13.3819 5.16214ZM8.99998 13.1512H5.90499C5.7162 13.1512 5.56314 12.9981 5.56314 12.8093C5.56314 12.6205 5.71596 12.4675 5.90499 12.4675H8.99998C9.18877 12.4675 9.34182 12.6205 9.34182 12.8093C9.34193 12.9981 9.18889 13.1512 8.99998 13.1512ZM8.99998 10.9506H5.90499C5.7162 10.9506 5.56314 10.7975 5.56314 10.6087C5.56314 10.4199 5.71596 10.2669 5.90499 10.2669H8.99998C9.18877 10.2669 9.34182 10.4199 9.34182 10.6087C9.34193 10.7975 9.18889 10.9506 8.99998 10.9506ZM13.7033 8.59869H5.90499C5.7162 8.59869 5.56314 8.4461 5.56314 8.25685C5.56314 8.06817 5.71596 7.91535 5.90499 7.91535H13.7033C13.892 7.91535 14.0452 8.06795 14.0452 8.25685C14.0453 8.44586 13.8923 8.59869 13.7033 8.59869Z" fill="white"/>
<path fill-rule="evenodd" clip-rule="evenodd" d="M8.05634 6.02691C8.05634 6.27109 7.85817 6.46925 7.61399 6.46925C7.37003 6.46925 7.17188 6.27131 7.17188 6.02691V4.53977C7.17188 4.2956 7.37004 4.09766 7.61399 4.09766C7.85817 4.09766 8.05634 4.2956 8.05634 4.53977V6.02691Z" fill="white"/>
<path fill-rule="evenodd" clip-rule="evenodd" d="M12.4368 6.02691C12.4368 6.27109 12.2388 6.46925 11.9947 6.46925C11.7505 6.46925 11.5527 6.27131 11.5527 6.02691V4.53977C11.5527 4.2956 11.7505 4.09766 11.9947 4.09766C12.2388 4.09766 12.4368 4.2956 12.4368 4.53977V6.02691Z" fill="white"/>
<path fill-rule="evenodd" clip-rule="evenodd" d="M14.0832 10.6973C12.6327 10.6973 11.457 11.8734 11.457 13.3239C11.457 14.7742 12.6327 15.9501 14.0832 15.9501C15.5338 15.9501 16.7096 14.7742 16.7096 13.3239C16.7098 11.8735 15.5337 10.6973 14.0832 10.6973ZM15.0891 13.8293H13.8802C13.84 13.8293 13.8018 13.8212 13.7671 13.8071C13.7657 13.8063 13.7639 13.8063 13.7626 13.8055C13.7471 13.799 13.7327 13.7905 13.7184 13.7816C13.7159 13.7802 13.7135 13.7792 13.7111 13.7776C13.7012 13.7709 13.6922 13.7624 13.6831 13.7543C13.6778 13.7498 13.6714 13.7461 13.6665 13.7409C13.6613 13.7357 13.6574 13.7294 13.6528 13.7241C13.6448 13.7151 13.6363 13.7061 13.6296 13.6961C13.6281 13.6939 13.6272 13.6916 13.6256 13.6889C13.6166 13.6749 13.6082 13.6602 13.6017 13.6447C13.6009 13.6432 13.6007 13.6415 13.6001 13.6404C13.5861 13.6052 13.578 13.5674 13.578 13.5273V12.3184C13.578 12.1516 13.7132 12.0163 13.8801 12.0163C14.0469 12.0163 14.1822 12.1518 14.1822 12.3184V13.2252H15.0889C15.2558 13.2252 15.391 13.3604 15.391 13.5273C15.3912 13.694 15.2559 13.8293 15.0891 13.8293L15.0891 13.8293Z" fill="white"/>
</svg>
