<svg width="21" height="20" viewBox="0 0 21 20" fill="none" xmlns="http://www.w3.org/2000/svg">
<path d="M13.6416 6.46774H16.3642L12.916 3.01953V5.7403C12.916 5.93296 12.9925 6.11776 13.1284 6.2541C13.2645 6.39053 13.4491 6.4674 13.6417 6.46777L13.6416 6.46774Z" fill="white"/>
<path d="M13.642 7.1818C13.2605 7.1813 12.8947 7.02957 12.6251 6.7598C12.3553 6.49003 12.2036 6.12438 12.2031 5.74291V2.51758H6.76301C6.16405 2.51808 5.58966 2.75613 5.16607 3.17974C4.74257 3.60337 4.50442 4.17759 4.50391 4.77668V15.2356C4.5044 15.8347 4.74258 16.4089 5.16607 16.8325C5.58969 17.2562 6.16405 17.4942 6.76301 17.4947H14.6082C15.2072 17.4942 15.7816 17.2562 16.2052 16.8325C16.6287 16.4089 16.8668 15.8347 16.8673 15.2356V7.18183L13.642 7.1818ZM11.0424 13.6417C11.0385 13.6645 11.0319 13.6866 11.0228 13.7077C11.0136 13.7295 11.0022 13.7505 10.9889 13.77C10.9766 13.7898 10.9615 13.8079 10.9444 13.8235C10.8761 13.8923 10.7827 13.9302 10.6858 13.9287C10.6626 13.9314 10.6394 13.9314 10.6163 13.9287C10.5931 13.9241 10.5705 13.9175 10.5485 13.9092C10.5273 13.8996 10.5071 13.8883 10.4879 13.8753C10.4681 13.8629 10.4501 13.8479 10.4344 13.8307C10.2961 13.6916 10.2961 13.4669 10.4344 13.3279C10.4501 13.3106 10.4681 13.2957 10.4879 13.2834C10.5071 13.2703 10.5273 13.259 10.5485 13.2494C10.5705 13.241 10.5931 13.2345 10.6163 13.2298C10.7329 13.207 10.8532 13.2438 10.9371 13.3279C10.9544 13.3436 10.9693 13.3616 10.9818 13.3814C10.9951 13.401 11.0064 13.4219 11.0156 13.4438C11.0248 13.465 11.0314 13.4871 11.0353 13.5097C11.0447 13.5556 11.0447 13.603 11.0353 13.6488L11.0424 13.6417ZM11.4738 10.9529H11.4739C11.3406 11.0275 11.23 11.137 11.154 11.2694C11.0779 11.402 11.0394 11.5526 11.0424 11.7053V12.4774C11.0424 12.6743 10.8828 12.834 10.6858 12.834C10.4888 12.834 10.3292 12.6743 10.3292 12.4774V11.7053C10.3251 11.4249 10.3971 11.1484 10.5374 10.9055C10.6777 10.6625 10.8812 10.462 11.1262 10.3253C11.2795 10.2432 11.4065 10.1194 11.4926 9.96846C11.5788 9.81734 11.6205 9.64497 11.613 9.47122C11.6006 9.23889 11.5027 9.01926 11.338 8.85471C11.1735 8.69004 10.9538 8.59216 10.7215 8.57973C10.4693 8.57003 10.224 8.66343 10.042 8.8383C9.86009 9.01317 9.75711 9.25457 9.75686 9.50693C9.75686 9.70381 9.59717 9.86349 9.40029 9.86349C9.20328 9.86349 9.04372 9.7038 9.04372 9.50693C9.04385 9.06031 9.2258 8.63309 9.5478 8.32365C9.86967 8.01408 10.3037 7.84905 10.75 7.86659C11.2322 7.88686 11.6809 8.1182 11.9772 8.49902C12.2736 8.87998 12.3872 9.37186 12.2882 9.8441C12.1892 10.3165 11.8875 10.7213 11.4632 10.9512L11.4738 10.9529Z" fill="white"/>
</svg>
