<svg width="18" height="21" viewBox="0 0 18 21" fill="none" xmlns="http://www.w3.org/2000/svg">
<path d="M12.8411 5.53939H16.6586L11.8237 0.704529V4.51943C11.8237 4.78956 11.931 5.04867 12.1216 5.23984C12.3124 5.43114 12.5711 5.53891 12.8413 5.53943L12.8411 5.53939Z" fill="white"/>
<path d="M12.8409 6.53988C12.3061 6.53918 11.7932 6.32643 11.4151 5.94818C11.0369 5.56993 10.8241 5.05723 10.8234 4.52236V0H3.19565C2.35582 0.000697551 1.55046 0.334476 0.956522 0.928446C0.362722 1.52242 0.0287905 2.32756 0.0280762 3.16757V17.8324C0.0287737 18.6724 0.362726 19.4776 0.956522 20.0716C1.5505 20.6655 2.35582 20.9993 3.19565 21H14.1957C15.0356 20.9993 15.8409 20.6655 16.4349 20.0716C17.0287 19.4776 17.3626 18.6724 17.3633 17.8324V6.53992L12.8409 6.53988ZM9.19588 15.5975C9.19048 15.6295 9.18123 15.6605 9.1685 15.6901C9.1556 15.7207 9.13956 15.7501 9.1209 15.7775C9.10363 15.8052 9.08253 15.8305 9.05847 15.8525C8.96273 15.9489 8.83176 16.0021 8.69591 16C8.66348 16.0037 8.63087 16.0037 8.59843 16C8.566 15.9936 8.53426 15.9843 8.50339 15.9726C8.47374 15.9592 8.44532 15.9434 8.41847 15.925C8.39074 15.9078 8.36545 15.8867 8.34348 15.8626C8.14956 15.6675 8.14956 15.3525 8.34348 15.1576C8.36545 15.1333 8.39074 15.1124 8.41847 15.0951C8.44532 15.0768 8.47375 15.061 8.50339 15.0475C8.53426 15.0357 8.56599 15.0266 8.59843 15.02C8.76201 14.9881 8.93064 15.0397 9.04835 15.1576C9.07259 15.1795 9.09351 15.2048 9.11095 15.2326C9.12961 15.2601 9.14548 15.2894 9.15838 15.3201C9.17129 15.3497 9.18053 15.3808 9.18594 15.4125C9.19919 15.4769 9.19919 15.5433 9.18594 15.6075L9.19588 15.5975ZM9.80084 11.8275H9.80102C9.61407 11.9321 9.45904 12.0856 9.35249 12.2713C9.24576 12.4572 9.1917 12.6684 9.19589 12.8825V13.9651C9.19589 14.2411 8.97215 14.4651 8.69593 14.4651C8.41971 14.4651 8.19597 14.2411 8.19597 13.9651V12.8825C8.19021 12.4893 8.29118 12.1016 8.48789 11.761C8.6846 11.4203 8.96991 11.1391 9.31344 10.9475C9.52846 10.8324 9.70651 10.6589 9.82719 10.4472C9.94804 10.2353 10.0065 9.99359 9.996 9.74997C9.97856 9.42421 9.84132 9.11626 9.61043 8.88554C9.37971 8.65465 9.07176 8.51741 8.746 8.49997C8.39234 8.48637 8.04845 8.61733 7.79331 8.86252C7.53818 9.10771 7.39379 9.44619 7.39344 9.80003C7.39344 10.0761 7.16953 10.3 6.89348 10.3C6.61725 10.3 6.39352 10.0761 6.39352 9.80003C6.3937 9.17382 6.64883 8.5748 7.10032 8.14091C7.55161 7.70686 8.16024 7.47546 8.78596 7.50006C9.46208 7.52848 10.0912 7.85284 10.5066 8.3868C10.9222 8.92096 11.0816 9.61065 10.9428 10.2728C10.804 10.9351 10.3809 11.5028 9.7859 11.825L9.80084 11.8275Z" fill="white"/>
</svg>
