<svg width="15" height="21" viewBox="0 0 15 21" fill="none" xmlns="http://www.w3.org/2000/svg">
<path fill-rule="evenodd" clip-rule="evenodd" d="M5.355 0C5.9349 0 6.405 0.470101 6.405 1.05V5.25C6.405 6.93171 7.76829 8.295 9.45 8.295H13.65C14.2299 8.295 14.7 8.7651 14.7 9.345V18.9C14.7 20.0598 13.7598 21 12.6 21H2.1C0.940202 21 0 20.0598 0 18.9V2.1C0 0.940203 0.940202 0 2.1 0H5.355ZM4.7251 11.655C4.20319 11.655 3.7801 12.0781 3.7801 12.6C3.7801 13.1219 4.20319 13.545 4.7251 13.545H7.3501C7.87201 13.545 8.2951 13.1219 8.2951 12.6C8.2951 12.0781 7.87201 11.655 7.3501 11.655H4.7251ZM4.7251 15.33C4.20319 15.33 3.7801 15.7531 3.7801 16.275C3.7801 16.7969 4.20319 17.22 4.7251 17.22H9.9751C10.497 17.22 10.9201 16.7969 10.9201 16.275C10.9201 15.7531 10.497 15.33 9.9751 15.33H4.7251Z" fill="white"/>
<path d="M12.8588 5.50877C13.1895 5.8395 12.9553 6.405 12.4875 6.405H9.45C8.81211 6.405 8.295 5.88789 8.295 5.25V2.21246C8.295 1.74474 8.8605 1.5105 9.19123 1.84123L12.8588 5.50877Z" fill="white"/>
</svg>
