<svg width="21" height="20" viewBox="0 0 21 20" fill="none" xmlns="http://www.w3.org/2000/svg">
<path fill-rule="evenodd" clip-rule="evenodd" d="M8.80376 0.113281C9.34977 0.113281 9.7924 0.555909 9.7924 1.10192V5.05646C9.7924 6.63989 11.076 7.92351 12.6594 7.92351H16.614C17.16 7.92351 17.6026 8.36614 17.6026 8.91214V17.9087C17.6026 19.0008 16.7174 19.886 15.6254 19.886H5.73899C4.64697 19.886 3.76172 19.0008 3.76172 17.9087V2.09055C3.76172 0.998537 4.64697 0.113281 5.73899 0.113281H8.80376ZM8.21068 11.0871C7.71927 11.0871 7.32091 11.4855 7.32091 11.9769C7.32091 12.4683 7.71927 12.8667 8.21068 12.8667H10.6823C11.1737 12.8667 11.572 12.4683 11.572 11.9769C11.572 11.4855 11.1737 11.0871 10.6823 11.0871H8.21068ZM8.21068 14.5473C7.71927 14.5473 7.32091 14.9457 7.32091 15.4371C7.32091 15.9285 7.71927 16.3269 8.21068 16.3269H13.1539C13.6453 16.3269 14.0436 15.9285 14.0436 15.4371C14.0436 14.9457 13.6453 14.5473 13.1539 14.5473H8.21068Z" fill="white"/>
<path d="M15.869 5.30011C16.1804 5.61151 15.9599 6.14396 15.5195 6.14396H12.6594C12.0588 6.14396 11.5719 5.65707 11.5719 5.05646V2.19644C11.5719 1.75605 12.1044 1.5355 12.4158 1.84691L15.869 5.30011Z" fill="white"/>
</svg>
