<svg width="20" height="20" viewBox="0 0 20 20" fill="none" xmlns="http://www.w3.org/2000/svg">
<path d="M9.9089 0.625977C4.73225 0.625977 0.535156 4.82307 0.535156 9.99972C0.535156 15.1764 4.73225 19.3735 9.9089 19.3735C15.0865 19.3735 19.2826 15.1764 19.2826 9.99972C19.2826 4.82307 15.0865 0.625977 9.9089 0.625977ZM12.4652 13.619C12.0041 14.1362 11.3381 14.4406 10.4673 14.5322V15.8583H9.35729V14.5389C7.90519 14.3901 7.00692 13.5457 6.66026 12.0079L8.37666 11.5605C8.53568 12.5274 9.06205 13.0103 9.95573 13.0103C10.3734 13.0103 10.6823 12.9072 10.8791 12.7002C11.0759 12.4931 11.1744 12.2437 11.1744 11.9507C11.1744 11.6475 11.0759 11.4174 10.8791 11.2618C10.6823 11.105 10.2441 10.907 9.56552 10.6668C8.95559 10.4551 8.4784 10.2469 8.13512 10.0386C7.79184 9.83263 7.51263 9.54309 7.29871 9.17119C7.08477 8.79808 6.97714 8.36327 6.97714 7.86897C6.97714 7.22021 7.16938 6.63539 7.55162 6.11598C7.93387 5.59762 8.53569 5.28062 9.35734 5.16515L9.35747 4.14121H10.4675V5.16529C11.7078 5.31411 12.5112 6.01545 12.8761 7.27073L11.3474 7.89777C11.0487 7.03729 10.5888 6.60704 9.96398 6.60704C9.65039 6.60704 9.39864 6.70315 9.20996 6.89539C9.01995 7.08762 8.92501 7.32106 8.92501 7.5945C8.92501 7.8737 9.01655 8.08763 9.19963 8.23764C9.38154 8.38646 9.77411 8.57059 10.3737 8.79146C11.0328 9.03182 11.55 9.25948 11.9241 9.47343C12.2994 9.68738 12.5981 9.98383 12.8224 10.3602C13.0455 10.7379 13.1577 11.1783 13.1577 11.683C13.1574 12.4577 12.9264 13.103 12.4652 13.619L12.4652 13.619Z" fill="white"/>
</svg>
