<svg width="18" height="22" viewBox="0 0 18 22" fill="none" xmlns="http://www.w3.org/2000/svg">
<path fill-rule="evenodd" clip-rule="evenodd" d="M0.348633 0.430695H12.6513L17.7389 5.52022V21.4307H0.348633V0.430695ZM9.34056 19.0607C9.03943 19.0607 8.79279 18.8162 8.79279 18.5151C8.79279 18.214 9.03942 17.9695 9.34056 17.9695H14.8732C15.1766 17.9695 15.421 18.214 15.421 18.5151C15.421 18.8162 15.1765 19.0607 14.8732 19.0607H9.34056ZM3.21434 6.71008C2.91093 6.71008 2.66657 6.46558 2.66657 6.16231C2.66657 5.86118 2.91107 5.61668 3.21434 5.61668H7.11674C7.41788 5.61668 7.66451 5.86118 7.66451 6.16231C7.66451 6.46572 7.41789 6.71008 7.11674 6.71008H3.21434ZM3.21434 9.4775C2.91093 9.4775 2.66657 9.23087 2.66657 8.92973C2.66657 8.62859 2.91107 8.3841 3.21434 8.3841H14.8732C15.1766 8.3841 15.421 8.62859 15.421 8.92973C15.421 9.23086 15.1765 9.4775 14.8732 9.4775H3.21434ZM3.21434 12.2428C2.91093 12.2428 2.66657 11.9983 2.66657 11.6971C2.66657 11.396 2.91107 11.1515 3.21434 11.1515H14.8732C15.1766 11.1515 15.421 11.396 15.421 11.6971C15.421 11.9983 15.1765 12.2428 14.8732 12.2428H3.21434ZM3.21434 15.0102C2.91093 15.0102 2.66657 14.7657 2.66657 14.4646C2.66657 14.1611 2.91107 13.9168 3.21434 13.9168H14.8732C15.1766 13.9168 15.421 14.1613 15.421 14.4646C15.421 14.7657 15.1765 15.0102 14.8732 15.0102H3.21434Z" fill="white"/>
</svg>
