<svg width="21" height="20" viewBox="0 0 21 20" fill="none" xmlns="http://www.w3.org/2000/svg">
<path fill-rule="evenodd" clip-rule="evenodd" d="M4.34766 2.42969H13.2643L16.9516 6.11843V17.6499H4.34766V2.42969ZM10.8647 15.9322C10.6465 15.9322 10.4677 15.755 10.4677 15.5367C10.4677 15.3185 10.6465 15.1413 10.8647 15.1413H14.8747C15.0946 15.1413 15.2717 15.3185 15.2717 15.5367C15.2717 15.755 15.0945 15.9322 14.8747 15.9322H10.8647ZM6.42464 6.9808C6.20473 6.9808 6.02763 6.8036 6.02763 6.5838C6.02763 6.36555 6.20484 6.18834 6.42464 6.18834H9.25299C9.47124 6.18834 9.65 6.36555 9.65 6.5838C9.65 6.8037 9.47125 6.9808 9.25299 6.9808H6.42464ZM6.42464 8.98655C6.20473 8.98655 6.02763 8.8078 6.02763 8.58954C6.02763 8.37129 6.20484 8.19409 6.42464 8.19409H14.8747C15.0946 8.19409 15.2717 8.37129 15.2717 8.58954C15.2717 8.80779 15.0945 8.98655 14.8747 8.98655H6.42464ZM6.42464 10.9907C6.20473 10.9907 6.02763 10.8135 6.02763 10.5953C6.02763 10.377 6.20484 10.1998 6.42464 10.1998H14.8747C15.0946 10.1998 15.2717 10.377 15.2717 10.5953C15.2717 10.8135 15.0945 10.9907 14.8747 10.9907H6.42464ZM6.42464 12.9965C6.20473 12.9965 6.02763 12.8193 6.02763 12.601C6.02763 12.3811 6.20484 12.204 6.42464 12.204H14.8747C15.0946 12.204 15.2717 12.3812 15.2717 12.601C15.2717 12.8193 15.0945 12.9965 14.8747 12.9965H6.42464Z" fill="white"/>
</svg>
