<svg width="21" height="20" viewBox="0 0 21 20" fill="none" xmlns="http://www.w3.org/2000/svg">
<path d="M13.097 8.31641L12.4912 9.1531C13.9085 9.62126 14.9335 10.9564 14.9335 12.5286C14.9335 14.4869 13.339 16.0829 11.3806 16.0829C9.41914 16.0829 7.82464 14.4868 7.82464 12.5286C7.82464 10.9563 8.85124 9.62284 10.267 9.1531L9.65958 8.31641C8.00031 8.99653 6.82812 10.6274 6.82812 12.5288C6.82812 15.0376 8.86861 17.0797 11.3807 17.0797C13.8879 17.0797 15.9298 15.0375 15.9298 12.5288C15.9283 10.6275 14.7577 8.99489 13.0966 8.31641H13.097Z" fill="white"/>
<path d="M9.38867 7.02307L10.0703 7.96425L10.6572 8.77095L10.9578 9.18702L11.3785 9.15856L11.7977 9.18702L12.0983 8.77095L12.6852 7.96425L13.367 7.02307L12.7279 6.23535H10.0261L9.38867 7.02307Z" fill="white"/>
<path d="M8.31821 7.85241C8.31821 7.91089 8.3672 7.95999 8.42579 7.95999C8.48592 7.95999 8.53337 7.911 8.53337 7.85241C8.53337 6.48886 9.64061 5.38006 11.0057 5.38006C11.0659 5.38006 11.1133 5.33261 11.1133 5.27248C11.1133 5.21234 11.0659 5.1649 11.0057 5.1649C9.64216 5.1649 8.53337 4.05598 8.53337 2.69254C8.53337 2.63241 8.48438 2.58496 8.42579 2.58496C8.36731 2.58496 8.31821 2.63241 8.31821 2.69254C8.31821 4.0561 7.2093 5.1649 5.84586 5.1649C5.78738 5.1649 5.73828 5.21234 5.73828 5.27248C5.73828 5.33261 5.78727 5.38006 5.84586 5.38006C7.20941 5.38006 8.31821 6.48897 8.31821 7.85241Z" fill="white"/>
</svg>
