<svg width="15" height="22" viewBox="0 0 15 22" fill="none" xmlns="http://www.w3.org/2000/svg">
<path d="M10.8304 8.59595L9.93867 9.82744C12.0247 10.5165 13.5335 12.4816 13.5335 14.7957C13.5335 17.678 11.1866 20.0271 8.30414 20.0271C5.41712 20.0271 3.07025 17.6779 3.07025 14.7957C3.07025 12.4814 4.58125 10.5188 6.66504 9.82744L5.77101 8.59595C3.3288 9.59699 1.60352 11.9975 1.60352 14.796C1.60352 18.4886 4.60682 21.4942 8.30418 21.4942C11.9945 21.4942 14.9999 18.4884 14.9999 14.796C14.9976 11.9975 13.2747 9.59458 10.8299 8.59595H10.8304Z" fill="white"/>
<path d="M5.37354 6.69334L6.37686 8.07863L7.24067 9.26597L7.68307 9.87837L8.30233 9.83647L8.9193 9.87837L9.3617 9.26597L10.2255 8.07863L11.229 6.69334L10.2884 5.53394H6.3118L5.37354 6.69334Z" fill="white"/>
<path d="M3.79728 7.9137C3.79728 7.99977 3.86939 8.07204 3.95562 8.07204C4.04413 8.07204 4.11397 7.99993 4.11397 7.9137C4.11397 5.90674 5.74367 4.27475 7.7529 4.27475C7.84141 4.27475 7.91125 4.20491 7.91125 4.1164C7.91125 4.02789 7.84141 3.95806 7.7529 3.95806C5.74595 3.95806 4.11397 2.3259 4.11397 0.31911C4.11397 0.2306 4.04186 0.160767 3.95562 0.160767C3.86955 0.160767 3.79728 0.2306 3.79728 0.31911C3.79728 2.32607 2.16513 3.95806 0.158342 3.95806C0.0722696 3.95806 0 4.02789 0 4.1164C0 4.20491 0.0721075 4.27475 0.158342 4.27475C2.16529 4.27475 3.79728 5.9069 3.79728 7.9137Z" fill="white"/>
</svg>
