<svg width="21" height="20" viewBox="0 0 21 20" fill="none" xmlns="http://www.w3.org/2000/svg">
<path d="M11.7842 3.80991C14.7445 4.32519 16.9135 6.90547 16.9135 9.91771C16.9135 12.1436 15.7262 14.1847 13.8078 15.2916L12.9174 14.6002C14.7266 13.7471 15.8875 11.9283 15.8875 9.91771C15.8875 7.4714 14.1713 5.35727 11.7844 4.85476V5.86967L8.71004 4.17441L11.7844 2.47949V3.81006L11.7842 3.80991ZM10.1864 5.95833H11.2409V6.86599C12.1923 7.00369 12.9229 7.52792 12.9624 8.65172L11.7548 8.69321C11.6858 8.27953 11.5194 8.03989 11.241 7.92139V9.25142C12.2742 9.51767 13.1373 9.91245 13.1373 11.1644C13.1373 11.8853 12.7126 12.5135 12.0475 12.7897C11.8165 12.8866 11.5475 12.9513 11.2409 12.9836V13.8771H10.1864V12.9705C9.1151 12.8186 8.4363 12.1972 8.28987 10.9671L9.46409 10.8504C9.5592 11.3779 9.78562 11.7325 10.1864 11.8934V10.2313C9.317 9.98208 8.5146 9.54468 8.5146 8.49625C8.5146 7.4788 9.31234 6.99245 10.1864 6.86356L10.1864 5.95833ZM11.2409 10.4962V11.9297C11.6077 11.8302 11.9295 11.6003 11.9295 11.171C11.9295 10.8139 11.6086 10.6193 11.2409 10.4962ZM10.1864 8.96599V7.88775C9.91145 7.96245 9.66407 8.11759 9.66407 8.41552C9.66407 8.67967 9.90318 8.85026 10.1864 8.96588V8.96599ZM12.7174 15.661L9.64272 17.356V16.0254C6.68274 15.5101 4.51367 12.9295 4.51367 9.91759C4.51367 7.6913 5.70102 5.65064 7.61969 4.54365L8.50991 5.23524C6.70079 6.08827 5.54005 7.90688 5.54005 9.91771C5.54005 12.364 7.25604 14.4781 9.64289 14.9804V13.9657L12.7175 15.6609L12.7174 15.661Z" fill="white"/>
</svg>
