<svg width="18" height="21" viewBox="0 0 18 21" fill="none" xmlns="http://www.w3.org/2000/svg">
<path d="M10.2633 1.87806C14.4421 2.60544 17.504 6.24783 17.504 10.5C17.504 13.6421 15.8279 16.5233 13.1199 18.086L11.8629 17.1099C14.4169 15.9057 16.0556 13.3382 16.0556 10.5C16.0556 7.0467 13.633 4.06235 10.2636 3.35299V4.78566L5.9237 2.39259L10.2636 0V1.87826L10.2633 1.87806ZM8.00779 4.91082H9.49636V6.19209C10.8393 6.38647 11.8707 7.12649 11.9265 8.71287L10.2217 8.77144C10.1244 8.18749 9.88947 7.8492 9.49648 7.68193V9.55943C10.955 9.93527 12.1733 10.4926 12.1733 12.2598C12.1733 13.2775 11.5738 14.1643 10.6349 14.5541C10.3089 14.691 9.92919 14.7823 9.49632 14.8279V16.0891H8.00775V14.8094C6.49549 14.5949 5.53728 13.7178 5.33058 11.9813L6.98813 11.8167C7.1224 12.5612 7.44202 13.0618 8.00771 13.2889V10.9427C6.78051 10.5908 5.64781 9.97341 5.64781 8.49341C5.64781 7.05716 6.77393 6.37061 8.00771 6.18866L8.00779 4.91082ZM9.49636 11.3166V13.3402C10.0141 13.1997 10.4684 12.8752 10.4684 12.2692C10.4684 11.7651 10.0154 11.4904 9.49636 11.3166ZM8.00779 9.15651V7.63445C7.61964 7.73989 7.27044 7.95889 7.27044 8.37945C7.27044 8.75233 7.60796 8.99315 8.00779 9.15635V9.15651ZM11.5806 18.6074L7.2403 21V19.1217C3.06191 18.3944 0 14.7516 0 10.4998C0 7.35712 1.6761 4.47648 4.38453 2.91382L5.64119 3.89009C3.08739 5.09424 1.44886 7.66144 1.44886 10.5C1.44886 13.9533 3.87119 16.9376 7.24053 17.6466V16.2142L11.5808 18.6073L11.5806 18.6074Z" fill="white"/>
</svg>
