<svg width="21" height="20" viewBox="0 0 21 20" fill="none" xmlns="http://www.w3.org/2000/svg">
<path d="M13.125 15.2045L16.033 12.2959L17.2748 13.5374L14.3668 16.446L13.125 15.2045Z" fill="white"/>
<path d="M12.3653 15.9708C12.3336 16.0025 12.302 16.0499 12.302 16.0973L12.0489 17.2205C12.0015 17.4103 12.1755 17.5843 12.3652 17.5368L13.4884 17.2837C13.5358 17.2679 13.5833 17.2521 13.6149 17.2205L13.9629 16.8725L12.7291 15.6387L12.3653 15.9708Z" fill="white"/>
<path d="M18.28 12.1431L17.41 11.2889C17.3151 11.1941 17.1411 11.1941 17.0462 11.2889L16.4609 11.8742L17.6948 13.108L18.28 12.5228C18.3908 12.412 18.3908 12.2539 18.28 12.1431V12.1431Z" fill="white"/>
<path d="M15.2907 11.9848V3.14244C15.2907 2.79444 15.006 2.50977 14.658 2.50977H5.54673C5.19873 2.50977 4.91406 2.79444 4.91406 3.14244V13.9937C4.91406 14.3417 5.19873 14.6264 5.54673 14.6264H12.6649L15.2907 11.9848ZM9.29559 4.64516H12.8863C13.092 4.64516 13.2501 4.81917 13.2501 5.00895C13.2501 5.21462 13.0761 5.37274 12.8863 5.37274H9.29559C9.08992 5.37274 8.9318 5.19874 8.9318 5.00895C8.91591 4.80328 9.08991 4.64516 9.29559 4.64516ZM9.29559 7.00202H12.8863C13.092 7.00202 13.2501 7.17602 13.2501 7.36581C13.2501 7.57148 13.0761 7.7296 12.8863 7.7296L9.29559 7.72971C9.08992 7.72971 8.9318 7.5557 8.9318 7.36592C8.91591 7.17602 9.08991 7.00201 9.29559 7.00201V7.00202ZM9.29559 9.39062H12.8863C13.092 9.39062 13.2501 9.56462 13.2501 9.75441C13.2501 9.96008 13.0761 10.1182 12.8863 10.1182H9.29559C9.08992 10.1182 8.9318 9.94419 8.9318 9.75441C8.91591 9.54874 9.08991 9.39062 9.29559 9.39062ZM7.58722 12.5068H7.31833C7.11266 12.5068 6.95454 12.3328 6.95454 12.143C6.95454 11.9373 7.12854 11.7792 7.31833 11.7792H7.58722C7.79289 11.7792 7.95101 11.9532 7.95101 12.143C7.96679 12.3328 7.7929 12.5068 7.58722 12.5068ZM7.58722 10.1182H7.31833C7.11266 10.1182 6.95454 9.94419 6.95454 9.75441C6.95454 9.54874 7.12854 9.39062 7.31833 9.39062H7.58722C7.79289 9.39062 7.95101 9.56462 7.95101 9.75441C7.96679 9.96008 7.7929 10.1182 7.58722 10.1182ZM7.58722 7.74547H7.31833C7.11266 7.74547 6.95454 7.57147 6.95454 7.38168C6.95454 7.17601 7.12854 7.01789 7.31833 7.01789H7.58722C7.79289 7.01789 7.95101 7.1919 7.95101 7.38168C7.96679 7.58735 7.7929 7.74547 7.58722 7.74547ZM7.58722 5.38862H7.31833C7.11266 5.38862 6.95454 5.21461 6.95454 5.02483C6.95454 4.81916 7.12854 4.66104 7.31833 4.66104H7.58722C7.79289 4.66104 7.95101 4.83504 7.95101 5.02483C7.96679 5.21461 7.7929 5.38862 7.58722 5.38862ZM8.91592 12.1272C8.91592 11.9215 9.08993 11.7634 9.27971 11.7634H12.8704C13.0761 11.7634 13.2342 11.9374 13.2342 12.1272C13.2342 12.3328 13.0602 12.491 12.8704 12.491H9.29553C9.08986 12.5068 8.91587 12.3328 8.91587 12.1272H8.91592Z" fill="white"/>
</svg>
