<svg width="19" height="22" viewBox="0 0 19 22" fill="none" xmlns="http://www.w3.org/2000/svg">
<path d="M11.6011 17.9338L15.7092 13.8248L17.4635 15.5788L13.3553 19.6877L11.6011 17.9338Z" fill="white"/>
<path d="M10.5249 19.0169C10.4802 19.0617 10.4356 19.1287 10.4356 19.1957L10.0781 20.7824C10.011 21.0505 10.2568 21.2963 10.5249 21.2293L12.1116 20.8717C12.1786 20.8494 12.2457 20.827 12.2904 20.7824L12.782 20.2908L11.039 18.5477L10.5249 19.0169Z" fill="white"/>
<path d="M18.8828 13.6089L17.6537 12.4023C17.5196 12.2682 17.2738 12.2682 17.1398 12.4023L16.313 13.2291L18.056 14.9721L18.8828 14.1453C19.0393 13.9888 19.0393 13.7655 18.8828 13.609V13.6089Z" fill="white"/>
<path d="M14.6591 13.3855V0.89378C14.6591 0.402157 14.257 0 13.7654 0H0.89378C0.402157 0 0 0.402157 0 0.89378V16.2235C0 16.7151 0.402157 17.1173 0.89378 17.1173H10.9497L14.6591 13.3855ZM6.18982 3.0167H11.2625C11.553 3.0167 11.7764 3.26252 11.7764 3.53063C11.7764 3.82118 11.5306 4.04456 11.2625 4.04456H6.18982C5.89927 4.04456 5.67589 3.79874 5.67589 3.53063C5.65345 3.24008 5.89927 3.0167 6.18982 3.0167ZM6.18982 6.34625H11.2625C11.553 6.34625 11.7764 6.59207 11.7764 6.86018C11.7764 7.15073 11.5306 7.37411 11.2625 7.37411L6.18982 7.37426C5.89927 7.37426 5.67589 7.12844 5.67589 6.86033C5.65345 6.59207 5.89927 6.34624 6.18982 6.34624V6.34625ZM6.18982 9.72065H11.2625C11.553 9.72065 11.7764 9.96647 11.7764 10.2346C11.7764 10.5251 11.5306 10.7485 11.2625 10.7485H6.18982C5.89927 10.7485 5.67589 10.5027 5.67589 10.2346C5.65345 9.94403 5.89927 9.72065 6.18982 9.72065ZM3.7764 14.1229H3.39653C3.10598 14.1229 2.8826 13.8771 2.8826 13.609C2.8826 13.3184 3.12842 13.0951 3.39653 13.0951H3.7764C4.06695 13.0951 4.29033 13.3409 4.29033 13.609C4.31262 13.8771 4.06696 14.1229 3.7764 14.1229ZM3.7764 10.7485H3.39653C3.10598 10.7485 2.8826 10.5027 2.8826 10.2346C2.8826 9.94403 3.12842 9.72065 3.39653 9.72065H3.7764C4.06695 9.72065 4.29033 9.96647 4.29033 10.2346C4.31262 10.5251 4.06696 10.7485 3.7764 10.7485ZM3.7764 7.39653H3.39653C3.10598 7.39653 2.8826 7.15071 2.8826 6.8826C2.8826 6.59205 3.12842 6.36867 3.39653 6.36867H3.7764C4.06695 6.36867 4.29033 6.61449 4.29033 6.8826C4.31262 7.17316 4.06696 7.39653 3.7764 7.39653ZM3.7764 4.06698H3.39653C3.10598 4.06698 2.8826 3.82116 2.8826 3.55305C2.8826 3.2625 3.12842 3.03912 3.39653 3.03912H3.7764C4.06695 3.03912 4.29033 3.28494 4.29033 3.55305C4.31262 3.82116 4.06696 4.06698 3.7764 4.06698ZM5.65347 13.5866C5.65347 13.296 5.89929 13.0727 6.1674 13.0727H11.2401C11.5306 13.0727 11.754 13.3185 11.754 13.5866C11.754 13.8771 11.5082 14.1005 11.2401 14.1005H6.18974C5.89919 14.123 5.65339 13.8772 5.65339 13.5866H5.65347Z" fill="white"/>
</svg>
