<svg width="18" height="20" viewBox="0 0 18 20" fill="none" xmlns="http://www.w3.org/2000/svg">
<path d="M7.23633 12.3567V12.6863C7.23721 12.89 7.30091 13.0885 7.4189 13.2546C7.53689 13.4207 7.70328 13.5463 7.89541 13.6143V11.4287C7.70327 11.4967 7.53688 11.6223 7.4189 11.7884C7.30091 11.9545 7.23721 12.153 7.23633 12.3567V12.3567Z" fill="white"/>
<path d="M8.55469 14.334H9.21378V16.6408H8.55469V14.334Z" fill="white"/>
<path d="M9.87109 16.5801C10.0632 16.5122 10.2296 16.3865 10.3476 16.2204C10.4656 16.0543 10.5293 15.8559 10.5302 15.6521V15.3226C10.5293 15.1188 10.4656 14.9203 10.3476 14.7542C10.2296 14.5881 10.0632 14.4625 9.87109 14.3945V16.5801Z" fill="white"/>
<path d="M16.7525 17.782C16.1429 17.1761 15.8013 16.3514 15.8037 15.4921V11.1959C15.8037 8.42404 14.0943 6.43426 11.2959 5.72546C11.4524 5.53597 11.5319 5.29441 11.5181 5.04885C11.5044 4.80346 11.3986 4.5722 11.2218 4.4014C12.0185 3.92652 12.507 3.06793 12.5083 2.14034V1.1517C12.5083 0.88954 12.4041 0.637952 12.2188 0.452615C12.0334 0.267279 11.7818 0.163086 11.5197 0.163086H6.24696C5.98479 0.163086 5.7332 0.267245 5.54787 0.452615C5.36253 0.637986 5.25834 0.889574 5.25834 1.1517V2.14034C5.25952 3.06732 5.7475 3.92561 6.54357 4.40068C6.37261 4.56619 6.26787 4.78834 6.24889 5.0255C6.22976 5.26266 6.29773 5.49862 6.44014 5.6893C3.56779 6.33412 1.96284 8.20402 1.96284 11.0381V15.4921C1.9652 16.3515 1.62359 17.1763 1.01409 17.7824C0.777528 18.0189 0.644531 18.3398 0.644531 18.6744C0.644531 19.0089 0.777524 19.3299 1.01409 19.5665C1.25066 19.8031 1.57153 19.9359 1.90624 19.9359H15.8605C16.1952 19.9358 16.5161 19.8029 16.7527 19.5662C16.9891 19.3297 17.1221 19.0088 17.1221 18.6741C17.1221 18.3395 16.9892 18.0187 16.7527 17.7819L16.7525 17.782ZM11.1901 15.3223V15.6518C11.1897 16.0315 11.0583 16.3995 10.8182 16.6936C10.5781 16.9878 10.2438 17.1901 9.87193 17.2666V17.9586C9.87193 18.1406 9.72437 18.2882 9.54238 18.2882C9.3604 18.2882 9.21284 18.1406 9.21284 17.9586V17.2995H8.55375V17.9586C8.55375 18.1406 8.40619 18.2882 8.2242 18.2882C8.04222 18.2882 7.89466 18.1406 7.89466 17.9586V17.2666C7.52274 17.1901 7.18849 16.9878 6.94839 16.6936C6.70829 16.3995 6.57692 16.0315 6.57648 15.6518C6.57648 15.4698 6.72404 15.3223 6.90602 15.3223C7.08801 15.3223 7.23557 15.4698 7.23557 15.6518C7.23645 15.8556 7.30015 16.0541 7.41814 16.2201C7.53613 16.3862 7.70252 16.5119 7.89465 16.5799V14.3007C7.52273 14.2242 7.18848 14.0219 6.94838 13.7276C6.70828 13.4336 6.5769 13.0656 6.57646 12.6859V12.3564C6.57691 11.9766 6.70828 11.6087 6.94838 11.3146C7.18848 11.0204 7.52273 10.8181 7.89465 10.7416V10.0495C7.89465 9.86755 8.04221 9.71999 8.22419 9.71999C8.40617 9.71999 8.55374 9.86755 8.55374 10.0495V10.7086H9.21283V10.0495C9.21283 9.86755 9.36039 9.71999 9.54237 9.71999C9.72436 9.71999 9.87192 9.86755 9.87192 10.0495V10.7416C10.2438 10.8181 10.5781 11.0204 10.8182 11.3146C11.0583 11.6087 11.1897 11.9766 11.1901 12.3564C11.1901 12.5383 11.0425 12.6859 10.8606 12.6859C10.6786 12.6859 10.531 12.5383 10.531 12.3564C10.5301 12.1526 10.4664 11.9541 10.3484 11.788C10.2304 11.6219 10.0641 11.4963 9.87193 11.4283V13.7075C10.2438 13.784 10.5781 13.9863 10.8182 14.2805C11.0583 14.5746 11.1897 14.9426 11.1901 15.3223ZM7.60364 4.77682H8.25155C8.28582 5.00706 8.35835 5.22978 8.46634 5.43591H8.22418C7.82048 5.43591 7.66395 5.06487 7.60362 4.77682H7.60364ZM10.4163 6.34847C10.4364 6.40584 10.4569 6.46322 10.4763 6.52089V6.52074C10.2228 6.46999 9.96551 6.43968 9.70715 6.43012C9.67419 6.33817 9.63668 6.24593 9.59608 6.14677L10.3735 6.22813C10.3818 6.24505 10.3883 6.26285 10.3926 6.28124L10.4163 6.34847ZM10.7179 7.33447C10.7485 7.45702 10.7761 7.58104 10.7989 7.70521C10.5585 7.62635 10.3136 7.56236 10.0654 7.51336C10.0457 7.44113 10.0245 7.36904 10.0031 7.29725C9.99019 7.23251 9.97062 7.1694 9.94473 7.10864C10.2051 7.12262 10.4613 7.17999 10.7027 7.27871L10.7179 7.33447ZM10.1991 8.21999C10.4188 8.26794 10.633 8.33797 10.8385 8.42889C10.8137 8.58631 10.6889 8.70916 10.531 8.73137C10.3524 8.73137 10.2015 8.52011 10.2015 8.27C10.2015 8.25412 10.1999 8.23705 10.1991 8.21999H10.1991ZM8.92185 4.77682H9.57168C9.60448 5.00706 9.67657 5.23008 9.785 5.43591H9.5424C9.1387 5.43591 8.98217 5.06487 8.92184 4.77682H8.92185ZM10.6684 5.40295C10.4298 5.27952 10.2694 5.04413 10.2421 4.77682H10.531C10.6833 4.78005 10.8135 4.8873 10.846 5.03619C10.8784 5.18492 10.8045 5.3366 10.6674 5.40295H10.6684ZM7.13673 5.41619C7.00035 5.37441 6.90693 5.24892 6.90605 5.10636C6.90782 5.04413 6.92738 4.98367 6.96269 4.93232C6.99977 5.10033 7.05832 5.26304 7.13673 5.41621V5.41619Z" fill="white"/>
</svg>
