<svg width="20" height="22" viewBox="0 0 20 22" fill="none" xmlns="http://www.w3.org/2000/svg">
<path d="M7.66433 5.39224C7.83308 5.28675 8.02286 5.18127 8.21266 5.09697L7.05262 3.93694C6.69409 3.57841 6.46207 3.11439 6.39884 2.65039H4.14203C2.22272 2.65039 0.662109 4.21116 0.662109 6.13032V20.4089C0.662109 20.6831 0.851894 20.9572 1.12611 20.9994C1.48464 21.0627 1.77989 20.7884 1.77989 20.4511V11.382C1.77989 10.0112 2.47589 8.74563 3.61476 8.00737L7.66433 5.39224Z" fill="white"/>
<path d="M15.5726 2.65059H13.3158C13.2525 3.13564 13.0415 3.55742 12.683 3.91612L11.502 5.09717C11.6917 5.18147 11.8815 5.28695 12.0503 5.39244L16.0787 8.00775C17.2175 8.746 17.9135 10.0325 17.9135 11.3824V20.3882C17.9135 20.6624 18.1033 20.9365 18.3775 20.9787C18.7361 21.042 19.0313 20.7678 19.0313 20.4304L19.0315 6.1093C19.0525 4.19014 17.4917 2.65039 15.5725 2.65039L15.5726 2.65059Z" fill="white"/>
<path d="M9.73039 5.37112C9.79365 5.43439 9.92018 5.43439 9.98344 5.37112L12.0715 3.28309C12.662 2.69254 12.5988 1.68021 11.8605 1.19505C11.3332 0.83652 10.595 0.942001 10.1522 1.40602L9.85691 1.68024L9.54061 1.36394C8.95007 0.773395 7.93774 0.836667 7.45257 1.57491C7.09404 2.10218 7.19953 2.84044 7.66354 3.28324L9.73039 5.37112Z" fill="white"/>
<path d="M7.93793 9.86349C7.93793 10.6089 7.33356 11.2133 6.5881 11.2133C5.84265 11.2133 5.23828 10.6089 5.23828 9.86349C5.23828 9.11789 5.84265 8.51367 6.5881 8.51367C7.33356 8.51367 7.93793 9.11789 7.93793 9.86349Z" fill="white"/>
<path d="M14.0767 14.862L14.3297 13.0904C14.4562 12.2889 13.8235 11.5508 13.001 11.5508H12.2839C11.4614 11.5508 10.8498 12.2678 10.9551 13.0904L11.2082 14.862C10.1538 15.8533 9.35229 17.9201 9.22575 20.3667C9.20471 20.7042 9.47879 20.9783 9.79524 20.9783H15.4898C15.8273 20.9783 16.0803 20.704 16.0593 20.3667C15.9328 17.9201 15.1523 15.8533 14.0767 14.862H14.0767Z" fill="white"/>
<path d="M13.9908 9.86349C13.9908 10.6089 13.3864 11.2133 12.641 11.2133C11.8954 11.2133 11.291 10.6089 11.291 9.86349C11.291 9.11789 11.8954 8.51367 12.641 8.51367C13.3864 8.51367 13.9908 9.11789 13.9908 9.86349Z" fill="white"/>
<path d="M10.5107 14.6305L10.3841 13.7236C10.0889 13.6182 9.68814 13.4284 9.45611 13.1331C9.37181 13.0276 9.28736 12.9221 9.2241 12.8168C8.80232 12.2473 8.40155 11.8045 7.53679 11.6357L6.67203 13.7448C6.65099 13.7871 6.58773 13.7871 6.56654 13.7448L5.72298 11.6568C5.21676 11.7833 4.77393 12.0576 4.41538 12.4371C3.38189 13.5549 3.50855 15.3265 3.52957 15.3898C3.5506 15.7061 3.82483 15.9381 4.12011 15.9381H4.16233C4.49982 15.9171 4.73182 15.6218 4.71066 15.2843C4.71066 15.2633 4.62636 14.1243 5.17466 13.3862L5.15362 15.8116L4.77406 20.2829C4.75302 20.6414 5.02711 20.9789 5.38562 20.9999C5.76518 21.0421 6.08162 20.7469 6.10267 20.3884L6.4612 16.0858H6.71424L7.07277 20.3884C7.09381 20.7469 7.38907 20.9999 7.74776 20.9999H7.81102C8.16954 20.9789 8.44378 20.6414 8.42258 20.2829L8.04302 15.8116L8.02198 13.2385C8.08524 13.3228 8.1485 13.4072 8.23295 13.5127C8.31725 13.6393 8.40169 13.7447 8.50717 13.8713C9.0555 14.5462 9.87801 14.8203 10.2577 14.9258C10.3419 14.8203 10.4263 14.7148 10.5106 14.6305L10.5107 14.6305Z" fill="white"/>
<path d="M7.11615 11.909V11.445C7.11615 11.4028 7.07393 11.3817 7.03185 11.4028L6.71555 11.5505C6.67333 11.5083 6.63125 11.4872 6.56784 11.4872C6.50458 11.4872 6.46236 11.5083 6.42013 11.5505L6.10383 11.4028C6.06161 11.3817 6.01953 11.4238 6.01953 11.445V11.909C6.01953 11.9512 6.06175 11.9723 6.10383 11.9512L6.42013 11.8035C6.46236 11.8457 6.50443 11.8668 6.56784 11.8668C6.6311 11.8668 6.67333 11.8457 6.71555 11.8035L7.03185 11.9512C7.07393 11.9934 7.11615 11.9512 7.11615 11.909Z" fill="white"/>
<path d="M6.75742 12.2888C6.75742 12.5138 6.41992 12.5138 6.41992 12.2888C6.41992 12.0639 6.75742 12.0639 6.75742 12.2888Z" fill="white"/>
<path d="M6.75742 12.7948C6.75742 13.0197 6.41992 13.0197 6.41992 12.7948C6.41992 12.5697 6.75742 12.5697 6.75742 12.7948Z" fill="white"/>
</svg>
