<svg width="21" height="20" viewBox="0 0 21 20" fill="none" xmlns="http://www.w3.org/2000/svg">
<path d="M10.2491 7.48028L10.2563 7.48399L10.2634 7.48812C10.3908 7.56242 10.5642 7.63413 10.6199 7.63578C10.6752 7.63413 10.8482 7.56242 10.975 7.48812L10.9822 7.48399L10.9894 7.48028C11.6056 7.1637 12.1729 6.26336 12.5376 5.29201H8.70086C9.06554 6.26336 9.63287 7.16388 10.249 7.48028H10.2491ZM8.75552 12.7951H12.4795L10.6106 11.3342L8.75552 12.7951ZM10.3228 9.7228C10.3228 9.88656 10.4555 10.0193 10.6194 10.0193C10.7832 10.0193 10.9159 9.88668 10.9159 9.7228C10.9159 9.55892 10.7831 9.42603 10.6194 9.42603C10.4556 9.42603 10.3228 9.55894 10.3228 9.7228ZM10.9159 10.6763C10.9159 10.5125 10.7832 10.3798 10.6193 10.3798C10.4554 10.3798 10.3227 10.5124 10.3227 10.6763C10.3227 10.8402 10.4554 10.9731 10.6193 10.9731C10.7832 10.973 10.9159 10.84 10.9159 10.6763ZM6.8295 3.13693C6.82537 3.16665 6.82031 3.19606 6.82031 3.22691C6.82031 3.259 6.82485 3.28975 6.8295 3.3205V3.88527H7.43552C7.63365 5.55645 8.59509 7.62853 9.84357 8.26967V8.6688C8.59496 9.30994 7.63354 11.3826 7.43552 13.0537H6.8295V14.0445H14.4185V13.0537H13.8031C13.6052 11.3825 12.6435 9.31047 11.395 8.6688V8.26967C12.6436 7.62835 13.6052 5.5564 13.8031 3.88527H14.4185V2.89453H6.8295V3.13693ZM13.2065 3.88547C13.0094 5.36276 12.155 7.21426 11.1245 7.74339L10.8031 7.90849V9.03018L11.1244 9.19508C12.1549 9.72465 13.0094 11.5765 13.2066 13.0538L8.03209 13.0537C8.22908 11.5762 9.0834 9.72437 10.1138 9.19524L10.4352 9.03003V7.90834L10.1138 7.74324C9.0834 7.21419 8.22908 5.36253 8.03199 3.88533L13.2065 3.88547Z" fill="white"/>
</svg>
