<svg width="21" height="20" viewBox="0 0 21 20" fill="none" xmlns="http://www.w3.org/2000/svg">
<path d="M9.65842 2.58398C10.0437 2.58398 10.3559 2.89614 10.3559 3.28143C10.3559 3.44086 10.4843 3.56926 10.6437 3.56926C10.8031 3.56926 10.9315 3.44086 10.9315 3.28143C10.9315 2.89611 11.246 2.58398 11.6312 2.58398C12.0165 2.58398 12.3286 2.89614 12.3286 3.28143C12.3286 3.40765 12.2932 3.5316 12.2245 3.6446L10.6436 5.62409L9.09813 3.69333C9.00739 3.57155 8.95865 3.42981 8.95865 3.28155C8.96093 2.89617 9.27319 2.58401 9.65837 2.58401L9.65842 2.58398ZM4.03906 16.7545V5.12126C4.03906 4.74714 4.28044 4.44379 4.57936 4.44379H8.96336L10.0726 5.83207H9.48142L9.19803 5.84976L6.16454 5.83869C5.67525 5.83869 5.29211 6.33243 5.29211 6.95899V16.7543L4.03906 16.7545ZM5.86789 12.1159V6.95913C5.86789 6.64697 6.02506 6.41222 6.16464 6.41222L9.2156 6.42112L9.49898 6.40342L10.3514 6.4056C10.2275 11.1239 7.44421 12.0029 5.86774 12.1158L5.86789 12.1159ZM10.9715 6.40799L15.1984 6.41462C15.3379 6.41462 15.4952 6.64928 15.4952 6.96152V12.1138C11.8397 11.7949 11.0026 8.8877 10.9715 6.40786L10.9715 6.40799ZM17.324 16.7547H16.0708V6.95938C16.0708 6.33051 15.6878 5.83907 15.1984 5.83907L11.213 5.83245L12.3222 4.44417H16.7836C17.0804 4.44417 17.3239 4.74752 17.3239 5.12393V16.7549L17.324 16.7547Z" fill="white"/>
</svg>
